<svg width="93" height="76" viewBox="0 0 93 76" fill="none" xmlns="http://www.w3.org/2000/svg">
<g id="Frame 10" clip-path="url(#clip0_1001_7611)">
<g id="Group" filter="url(#filter0_d_1001_7611)">
<g id="Layer 1">
<path id="Vector" d="M76.7616 31.8601C76.2081 31.7202 75.6708 31.879 74.6122 32.4871C74.3704 32.627 74.1555 32.7562 73.962 32.888L75.0367 34.8523L77.7395 35.9287V33.8513C77.7476 33.0333 77.3177 31.9947 76.7616 31.8601Z" fill="#091215"/>
<path id="Vector_2" d="M69.2791 36.187C68.7256 36.047 68.1802 36.2112 67.1297 36.8193C66.9792 36.9054 66.8422 36.9888 66.7106 37.0723L67.7208 39.2249L70.2597 40.1533V38.1836C70.257 37.3763 69.8352 36.3188 69.2791 36.187Z" fill="#091215"/>
<path id="Vector_3" d="M30.964 58.338C30.4267 58.2034 29.9081 58.338 28.949 58.8923L30.5126 61.5401L31.95 62.3285V60.3211C31.9581 59.5112 31.5255 58.4698 30.964 58.338Z" fill="#091215"/>
<path id="Vector_4" fill-rule="evenodd" clip-rule="evenodd" d="M30.7358 59.1561L28.5864 57.9479C28.1055 57.738 27.4768 57.808 26.789 58.217C25.2818 59.0888 24.0593 61.2092 24.0593 62.9528C24.0593 63.857 24.3898 64.4812 24.9218 64.7503L26.8427 65.8267C27.3425 66.163 28.0571 66.1415 28.8524 65.684C30.3596 64.8095 31.5821 62.6891 31.5821 60.9562C31.5713 60.0521 31.2516 59.4413 30.7358 59.1561Z" fill="#3B4447"/>
<path id="Vector_5" fill-rule="evenodd" clip-rule="evenodd" d="M28.8417 65.6731C27.3345 66.545 26.1121 65.8373 26.1121 64.1017C26.1121 62.3661 27.3345 60.2376 28.8417 59.3658C30.349 58.494 31.5714 59.2016 31.5714 60.9453C31.5714 62.689 30.349 64.7986 28.8417 65.6731Z" fill="#555E61"/>
<path id="Vector_6" fill-rule="evenodd" clip-rule="evenodd" d="M28.8417 65.4312C27.4473 66.2384 26.3188 65.5845 26.3188 63.9808C26.3188 62.3771 27.4473 60.4101 28.8417 59.6055C30.2361 58.8009 31.3645 59.4521 31.3645 61.0639C31.3645 62.6758 30.2334 64.6266 28.8417 65.4312Z" fill="#3B4447"/>
<path id="Vector_7" fill-rule="evenodd" clip-rule="evenodd" d="M28.8415 64.4005C27.9442 64.9171 27.2107 64.5027 27.2107 63.4668C27.2414 62.9001 27.405 62.3487 27.6884 61.8574C27.9717 61.366 28.3668 60.9484 28.8415 60.6387C29.7469 60.114 30.4723 60.5337 30.4723 61.5805C30.4417 62.146 30.278 62.6963 29.9946 63.1863C29.7112 63.6764 29.3161 64.0925 28.8415 64.4005Z" fill="url(#paint0_linear_1001_7611)"/>
<path id="Vector_8" fill-rule="evenodd" clip-rule="evenodd" d="M28.8416 64.231C28.0356 64.7019 27.3585 64.3251 27.3585 63.3807C27.386 62.8652 27.5346 62.3635 27.7924 61.9165C28.0501 61.4695 28.4096 61.0897 28.8416 60.8082C29.6637 60.3319 30.3246 60.714 30.3246 61.6666C30.2963 62.1808 30.1473 62.681 29.8896 63.1266C29.6319 63.5722 29.2728 63.9506 28.8416 64.231Z" fill="url(#paint1_linear_1001_7611)"/>
<path id="Vector_9" fill-rule="evenodd" clip-rule="evenodd" d="M28.898 63.5799C28.3606 63.8813 27.9603 63.6391 27.9603 63.0417C27.9764 62.7142 28.0698 62.3952 28.2328 62.1108C28.3957 61.8264 28.6237 61.5848 28.898 61.4057C29.4192 61.1043 29.833 61.3546 29.833 61.9573C29.8157 62.2824 29.7221 62.5989 29.5596 62.8808C29.3971 63.1628 29.1704 63.4023 28.898 63.5799Z" fill="url(#paint2_linear_1001_7611)"/>
<path id="Vector_10" fill-rule="evenodd" clip-rule="evenodd" d="M29.0297 63.6363C28.5085 63.9377 28.0947 63.6955 28.092 63.0982C28.1088 62.7712 28.2024 62.4528 28.3654 62.1689C28.5283 61.8851 28.7559 61.6438 29.0297 61.4648C29.5536 61.1608 29.9674 61.411 29.9674 62.003C29.9519 62.3303 29.8588 62.6492 29.6958 62.9332C29.5327 63.2173 29.3044 63.4583 29.0297 63.6363Z" fill="url(#paint3_linear_1001_7611)"/>
<path id="Vector_11" fill-rule="evenodd" clip-rule="evenodd" d="M29.0297 63.2407C28.6965 63.4318 28.4279 63.2784 28.4279 62.899C28.4402 62.6912 28.501 62.4892 28.6056 62.3092C28.7101 62.1293 28.8554 61.9765 29.0297 61.863C29.3655 61.6693 29.6342 61.8254 29.6342 62.2102C29.6208 62.4173 29.5591 62.6184 29.4541 62.7973C29.3491 62.9763 29.2038 63.1282 29.0297 63.2407Z" fill="url(#paint4_linear_1001_7611)"/>
<path id="Vector_12" fill-rule="evenodd" clip-rule="evenodd" d="M29.0297 63.2084C28.7126 63.3914 28.4547 63.2434 28.4547 62.8828C28.4658 62.683 28.5236 62.4885 28.6235 62.3151C28.7233 62.1417 28.8625 61.9942 29.0297 61.8845C29.3494 61.7016 29.6073 61.8495 29.6073 62.2182C29.5953 62.4171 29.5368 62.6103 29.4364 62.7823C29.3361 62.9543 29.1967 63.1003 29.0297 63.2084Z" fill="url(#paint5_linear_1001_7611)"/>
<path id="Vector_13" fill-rule="evenodd" clip-rule="evenodd" d="M29.0295 62.7671C28.9328 62.8236 28.8522 62.7671 28.8522 62.654C28.8557 62.5922 28.8735 62.532 28.9043 62.4783C28.9351 62.4246 28.9779 62.3788 29.0295 62.3446C29.137 62.2827 29.2176 62.3446 29.2176 62.4442C29.215 62.5093 29.1965 62.5728 29.1637 62.6291C29.1309 62.6854 29.0848 62.7328 29.0295 62.7671Z" fill="url(#paint6_linear_1001_7611)"/>
<path id="Vector_14" fill-rule="evenodd" clip-rule="evenodd" d="M29.7981 62.2209C29.739 62.2559 29.6987 62.2209 29.6987 62.1644C29.6997 62.13 29.7094 62.0965 29.7268 62.0669C29.7441 62.0373 29.7687 62.0125 29.7981 61.9949C29.8546 61.9626 29.9029 61.9814 29.9029 62.0487C29.9004 62.0837 29.8895 62.1175 29.8713 62.1475C29.8531 62.1774 29.828 62.2026 29.7981 62.2209Z" fill="url(#paint7_linear_1001_7611)"/>
<path id="Vector_15" fill-rule="evenodd" clip-rule="evenodd" d="M29.5938 62.8396C29.5428 62.8396 29.5347 62.7669 29.5696 62.6943C29.6046 62.6216 29.6663 62.5705 29.7066 62.5839C29.7469 62.5974 29.7631 62.6647 29.7308 62.74C29.6986 62.8154 29.6341 62.853 29.5938 62.8396Z" fill="url(#paint8_linear_1001_7611)"/>
<path id="Vector_16" fill-rule="evenodd" clip-rule="evenodd" d="M29.1693 63.3484C29.1635 63.3153 29.1664 63.2813 29.1777 63.2497C29.189 63.2181 29.2083 63.19 29.2337 63.1681C29.2821 63.1116 29.3412 63.1169 29.3573 63.1681C29.3633 63.1999 29.361 63.2326 29.3507 63.2633C29.3403 63.2939 29.3222 63.3214 29.2982 63.343C29.2418 63.3995 29.1854 63.4049 29.1693 63.3484Z" fill="url(#paint9_linear_1001_7611)"/>
<path id="Vector_17" fill-rule="evenodd" clip-rule="evenodd" d="M28.6966 63.5474C28.7036 63.5149 28.7182 63.4845 28.7392 63.4588C28.7602 63.433 28.787 63.4127 28.8175 63.3994C28.8766 63.3859 28.9007 63.437 28.8846 63.5124C28.8776 63.5449 28.8626 63.5752 28.8411 63.6006C28.8195 63.6259 28.792 63.6456 28.761 63.6577C28.7046 63.6738 28.6804 63.62 28.6966 63.5474Z" fill="url(#paint10_linear_1001_7611)"/>
<path id="Vector_18" fill-rule="evenodd" clip-rule="evenodd" d="M28.3447 63.3725C28.3958 63.3053 28.4522 63.2811 28.4844 63.3107C28.4994 63.3386 28.5059 63.3703 28.5031 63.4019C28.5002 63.4335 28.4881 63.4635 28.4683 63.4883C28.4199 63.5555 28.3635 63.569 28.3286 63.5421C28.3135 63.5156 28.307 63.4851 28.3099 63.4548C28.3128 63.4244 28.3249 63.3957 28.3447 63.3725Z" fill="url(#paint11_linear_1001_7611)"/>
<path id="Vector_19" fill-rule="evenodd" clip-rule="evenodd" d="M28.2775 62.8721C28.3339 62.8398 28.3769 62.8721 28.3769 62.9286C28.3757 62.9629 28.3659 62.9963 28.3486 63.0259C28.3312 63.0555 28.3068 63.0803 28.2775 63.0981C28.2211 63.1304 28.1727 63.0981 28.1727 63.047C28.1749 63.0115 28.1855 62.9771 28.2037 62.9467C28.222 62.9162 28.2473 62.8906 28.2775 62.8721Z" fill="url(#paint12_linear_1001_7611)"/>
<path id="Vector_20" fill-rule="evenodd" clip-rule="evenodd" d="M28.4681 62.2559C28.5164 62.2559 28.5245 62.3339 28.4923 62.4012C28.46 62.4684 28.3955 62.5223 28.3552 62.5088C28.3149 62.4953 28.2961 62.4281 28.3284 62.3635C28.3606 62.2989 28.4278 62.2397 28.4681 62.2559Z" fill="url(#paint13_linear_1001_7611)"/>
<path id="Vector_21" fill-rule="evenodd" clip-rule="evenodd" d="M28.8928 61.7446C28.8984 61.7791 28.8952 61.8145 28.8834 61.8474C28.8717 61.8804 28.8518 61.9098 28.8256 61.933C28.7773 61.9814 28.7209 61.976 28.7047 61.933C28.6964 61.8998 28.6973 61.865 28.7072 61.8323C28.7172 61.7996 28.7358 61.7702 28.7612 61.7473C28.8149 61.6935 28.8767 61.6989 28.8928 61.7446Z" fill="url(#paint14_linear_1001_7611)"/>
<path id="Vector_22" fill-rule="evenodd" clip-rule="evenodd" d="M29.3655 61.5481C29.358 61.5805 29.3429 61.6106 29.3214 61.6359C29.2999 61.6612 29.2726 61.6809 29.2419 61.6935C29.1854 61.6935 29.1613 61.6558 29.1774 61.5804C29.1844 61.5483 29.199 61.5182 29.2201 61.4929C29.2411 61.4676 29.2679 61.4478 29.2983 61.4351C29.352 61.4217 29.3816 61.4728 29.3655 61.5481Z" fill="url(#paint15_linear_1001_7611)"/>
<path id="Vector_23" fill-rule="evenodd" clip-rule="evenodd" d="M29.7147 61.7233C29.6663 61.7879 29.6019 61.8175 29.5777 61.7825C29.5535 61.7475 29.5508 61.6749 29.5938 61.613C29.6368 61.5511 29.6986 61.5242 29.7308 61.5538C29.7459 61.5803 29.7524 61.6108 29.7496 61.6411C29.7467 61.6715 29.7345 61.7002 29.7147 61.7233Z" fill="url(#paint16_linear_1001_7611)"/>
<path id="Vector_24" fill-rule="evenodd" clip-rule="evenodd" d="M28.8415 60.8082C28.7575 60.8576 28.6767 60.9125 28.5997 60.9724C28.6305 61.0053 28.6726 61.0253 28.7175 61.0283C28.7624 61.0313 28.8067 61.017 28.8415 60.9885C28.9508 60.9173 29.0353 60.8139 29.0833 60.6925C29 60.725 28.9191 60.7636 28.8415 60.8082Z" fill="url(#paint17_linear_1001_7611)"/>
<path id="Vector_25" fill-rule="evenodd" clip-rule="evenodd" d="M29.6207 60.8269C29.6718 60.8292 29.7227 60.8194 29.7693 60.7983C29.816 60.7773 29.8571 60.7456 29.8893 60.7059C29.772 60.6375 29.6381 60.603 29.5024 60.6063C29.5051 60.7166 29.5374 60.8054 29.6207 60.8269Z" fill="url(#paint18_linear_1001_7611)"/>
<path id="Vector_26" fill-rule="evenodd" clip-rule="evenodd" d="M30.1581 60.9696C30.0968 61.0723 30.0775 61.1948 30.1044 61.3113C30.1104 61.3316 30.1205 61.3504 30.1341 61.3665C30.1477 61.3827 30.1645 61.3959 30.1834 61.4052C30.2023 61.4145 30.223 61.4199 30.244 61.4209C30.2651 61.4218 30.2862 61.4185 30.3059 61.4109C30.287 61.2553 30.2368 61.1051 30.1581 60.9696Z" fill="url(#paint19_linear_1001_7611)"/>
<path id="Vector_27" fill-rule="evenodd" clip-rule="evenodd" d="M30.1045 62.264C30.0889 62.3098 30.0859 62.3589 30.0958 62.4063C30.1058 62.4536 30.1282 62.4974 30.1609 62.5331C30.2304 62.3369 30.279 62.134 30.306 61.9276C30.2044 62.015 30.1337 62.133 30.1045 62.264Z" fill="url(#paint20_linear_1001_7611)"/>
<path id="Vector_28" fill-rule="evenodd" clip-rule="evenodd" d="M29.6208 63.3053C29.5448 63.4058 29.505 63.5291 29.508 63.6551C29.6525 63.4875 29.7819 63.3074 29.8949 63.1169C29.8388 63.128 29.7855 63.1504 29.7384 63.1828C29.6913 63.2151 29.6513 63.2568 29.6208 63.3053Z" fill="url(#paint21_linear_1001_7611)"/>
<path id="Vector_29" fill-rule="evenodd" clip-rule="evenodd" d="M29.0833 64.0587C29.043 63.9888 28.9436 63.9807 28.8469 64.0372C28.7354 64.1089 28.6497 64.2145 28.6024 64.3386C28.6829 64.3074 28.761 64.2705 28.8362 64.2282C28.9205 64.177 29.0021 64.1213 29.0806 64.0614L29.0833 64.0587Z" fill="url(#paint22_linear_1001_7611)"/>
<path id="Vector_30" fill-rule="evenodd" clip-rule="evenodd" d="M28.1806 64.43C28.1806 64.3143 28.1483 64.2336 28.0677 64.2067C28.0167 64.2047 27.9658 64.2146 27.9192 64.2356C27.8726 64.2566 27.8315 64.2881 27.7991 64.3278C27.9158 64.393 28.0469 64.4281 28.1806 64.43Z" fill="url(#paint23_linear_1001_7611)"/>
<path id="Vector_31" fill-rule="evenodd" clip-rule="evenodd" d="M27.3827 63.6228C27.4007 63.7816 27.452 63.9347 27.5331 64.0722C27.5985 63.9661 27.6197 63.8386 27.5923 63.717C27.5858 63.6963 27.575 63.6771 27.5606 63.6608C27.5462 63.6445 27.5285 63.6315 27.5087 63.6226C27.4889 63.6137 27.4674 63.6091 27.4457 63.6091C27.4239 63.6092 27.4025 63.6139 27.3827 63.6228Z" fill="url(#paint24_linear_1001_7611)"/>
<path id="Vector_32" fill-rule="evenodd" clip-rule="evenodd" d="M27.587 62.778C27.6061 62.7295 27.6107 62.6764 27.6002 62.6253C27.5897 62.5742 27.5646 62.5272 27.5279 62.4901C27.4563 62.6924 27.4059 62.9016 27.3774 63.1144C27.4794 63.0259 27.5525 62.9087 27.587 62.778Z" fill="url(#paint25_linear_1001_7611)"/>
<path id="Vector_33" fill-rule="evenodd" clip-rule="evenodd" d="M27.7856 61.9304C27.8415 61.9163 27.8941 61.8912 27.9402 61.8565C27.9863 61.8219 28.0251 61.7784 28.0543 61.7286C28.1306 61.6252 28.1703 61.4993 28.1672 61.3707C28.0222 61.5445 27.8944 61.7319 27.7856 61.9304Z" fill="url(#paint26_linear_1001_7611)"/>
<path id="Vector_34" fill-rule="evenodd" clip-rule="evenodd" d="M69.0184 37.0185L66.869 35.8103C66.3908 35.6004 65.7621 35.6704 65.0716 36.0794C63.5644 36.9512 62.3419 39.0716 62.3419 40.8153C62.3419 41.7194 62.6751 42.3437 63.2044 42.6127L65.128 43.6891C65.6251 44.0254 66.3397 44.0039 67.135 43.5465C68.6422 42.6746 69.8647 40.5516 69.8647 38.8187C69.8539 37.9145 69.5342 37.293 69.0184 37.0185Z" fill="#3B4447"/>
<path id="Vector_35" fill-rule="evenodd" clip-rule="evenodd" d="M67.1243 43.5358C65.6171 44.4076 64.3947 43.6999 64.3947 41.9643C64.3947 40.2287 65.6171 38.1003 67.1243 37.2285C68.6316 36.3566 69.854 37.0643 69.854 38.808C69.854 40.5517 68.6316 42.664 67.1243 43.5358Z" fill="#555E61"/>
<path id="Vector_36" fill-rule="evenodd" clip-rule="evenodd" d="M67.1244 43.2961C65.7327 44.1034 64.6016 43.4495 64.6016 41.8458C64.6016 40.242 65.7327 38.2777 67.1244 37.4705C68.5161 36.6632 69.6472 37.3198 69.6472 38.9289C69.6472 40.538 68.5188 42.4889 67.1244 43.2961Z" fill="#3B4447"/>
<path id="Vector_37" fill-rule="evenodd" clip-rule="evenodd" d="M67.1244 42.2628C66.227 42.7795 65.4935 42.3651 65.4935 41.3291C65.5242 40.7625 65.6879 40.2111 65.9712 39.7197C66.2546 39.2283 66.6496 38.8108 67.1244 38.501C68.0298 37.9629 68.7552 38.3961 68.7552 39.4428C68.7246 40.0084 68.5608 40.5586 68.2774 41.0487C67.994 41.5388 67.5989 41.9548 67.1244 42.2628Z" fill="url(#paint27_linear_1001_7611)"/>
<path id="Vector_38" fill-rule="evenodd" clip-rule="evenodd" d="M67.1244 42.0934C66.3184 42.5643 65.6414 42.1876 65.6414 41.2431C65.6693 40.7277 65.8181 40.2262 66.0758 39.7793C66.3334 39.3323 66.6927 38.9525 67.1244 38.6706C67.9492 38.1944 68.6075 38.5765 68.6075 39.529C68.5798 40.0433 68.431 40.5438 68.1733 40.9895C67.9155 41.4352 67.5561 41.8135 67.1244 42.0934Z" fill="url(#paint28_linear_1001_7611)"/>
<path id="Vector_39" fill-rule="evenodd" clip-rule="evenodd" d="M67.1808 41.4397C66.6596 41.7437 66.2432 41.5016 66.2432 40.9015C66.2588 40.5732 66.352 40.2532 66.515 39.9679C66.678 39.6826 66.9061 39.44 67.1808 39.2601C67.702 38.9587 68.1185 39.209 68.1185 39.8117C68.1022 40.1381 68.0087 40.4559 67.8457 40.7389C67.6827 41.022 67.4548 41.2622 67.1808 41.4397Z" fill="url(#paint29_linear_1001_7611)"/>
<path id="Vector_40" fill-rule="evenodd" clip-rule="evenodd" d="M67.3151 41.4986C66.7939 41.8 66.3774 41.5578 66.3774 40.9605C66.3935 40.6333 66.4869 40.3147 66.6499 40.0307C66.8129 39.7468 67.0409 39.5056 67.3151 39.3271C67.8363 39.0231 68.2528 39.2733 68.2528 39.8653C68.2373 40.1926 68.1442 40.5115 67.9812 40.7955C67.8181 41.0796 67.5898 41.3206 67.3151 41.4986Z" fill="url(#paint30_linear_1001_7611)"/>
<path id="Vector_41" fill-rule="evenodd" clip-rule="evenodd" d="M67.3151 41.1033C66.9792 41.2944 66.7106 41.141 66.7106 40.7616C66.7215 40.552 66.782 40.3481 66.8871 40.1666C66.9922 39.985 67.1389 39.8311 67.3151 39.7175C67.6482 39.5238 67.9169 39.6799 67.9169 40.0647C67.9038 40.2726 67.8426 40.4747 67.7381 40.655C67.6337 40.8352 67.4889 40.9887 67.3151 41.1033Z" fill="url(#paint31_linear_1001_7611)"/>
<path id="Vector_42" fill-rule="evenodd" clip-rule="evenodd" d="M67.3152 41.0708C66.9955 41.2538 66.7375 41.1058 66.7375 40.7453C66.7485 40.545 66.8066 40.3503 66.9069 40.1768C67.0073 40.0033 67.1472 39.856 67.3152 39.747C67.6322 39.564 67.8901 39.712 67.8901 40.0806C67.878 40.2791 67.8197 40.4721 67.7199 40.644C67.6201 40.816 67.4815 40.9621 67.3152 41.0708Z" fill="url(#paint32_linear_1001_7611)"/>
<path id="Vector_43" fill-rule="evenodd" clip-rule="evenodd" d="M67.315 40.6295C67.2156 40.686 67.135 40.6295 67.135 40.5165C67.1386 40.4544 67.1568 40.394 67.188 40.3402C67.2193 40.2865 67.2628 40.2408 67.315 40.2071C67.4198 40.1452 67.5031 40.1936 67.5031 40.3066C67.4998 40.3716 67.4811 40.4348 67.4483 40.491C67.4156 40.5472 67.3699 40.5947 67.315 40.6295Z" fill="url(#paint33_linear_1001_7611)"/>
<path id="Vector_44" fill-rule="evenodd" clip-rule="evenodd" d="M68.0807 40.0834C68.0243 40.1184 67.984 40.0834 67.984 40.0269C67.985 39.9929 67.9943 39.9596 68.0112 39.93C68.0281 39.9005 68.0519 39.8755 68.0807 39.8574C68.1371 39.8251 68.1855 39.8439 68.1855 39.9085C68.1834 39.944 68.1728 39.9784 68.1545 40.0088C68.1363 40.0393 68.111 40.0649 68.0807 40.0834Z" fill="url(#paint34_linear_1001_7611)"/>
<path id="Vector_45" fill-rule="evenodd" clip-rule="evenodd" d="M67.8767 40.7023C67.8283 40.7023 67.8202 40.6297 67.8525 40.5543C67.8847 40.479 67.9492 40.4332 67.9895 40.4467C68.0298 40.4601 68.0486 40.5274 68.0164 40.6027C67.9841 40.6781 67.917 40.7158 67.8767 40.7023Z" fill="url(#paint35_linear_1001_7611)"/>
<path id="Vector_46" fill-rule="evenodd" clip-rule="evenodd" d="M67.4522 41.2108C67.4465 41.1777 67.4494 41.1437 67.4607 41.1121C67.472 41.0805 67.4913 41.0524 67.5167 41.0305C67.5678 40.974 67.6242 40.9794 67.6403 41.0305C67.6461 41.0621 67.644 41.0946 67.6341 41.1251C67.6243 41.1556 67.607 41.1832 67.5839 41.2054C67.5275 41.2619 67.4683 41.2673 67.4522 41.2108Z" fill="url(#paint36_linear_1001_7611)"/>
<path id="Vector_47" fill-rule="evenodd" clip-rule="evenodd" d="M66.9794 41.4126C66.9875 41.3805 67.0028 41.3507 67.0243 41.3255C67.0457 41.3003 67.0727 41.2804 67.103 41.2673C67.1595 41.2538 67.1836 41.305 67.1675 41.3803C67.161 41.4127 67.1465 41.4429 67.1254 41.4682C67.1043 41.4936 67.0772 41.5133 67.0466 41.5256C66.9875 41.5364 66.966 41.4826 66.9794 41.4126Z" fill="url(#paint37_linear_1001_7611)"/>
<path id="Vector_48" fill-rule="evenodd" clip-rule="evenodd" d="M66.6299 41.2351C66.6782 41.1678 66.7347 41.1436 66.7669 41.1732C66.783 41.2008 66.7901 41.2328 66.7873 41.2646C66.7844 41.2964 66.7716 41.3266 66.7508 41.3508C66.7024 41.4181 66.646 41.4315 66.6138 41.4046C66.5987 41.3781 66.5921 41.3476 66.595 41.3173C66.5979 41.287 66.6101 41.2583 66.6299 41.2351Z" fill="url(#paint38_linear_1001_7611)"/>
<path id="Vector_49" fill-rule="evenodd" clip-rule="evenodd" d="M66.5492 40.7346C66.6057 40.7023 66.646 40.7346 66.646 40.7911C66.6455 40.8256 66.636 40.8593 66.6186 40.889C66.6012 40.9188 66.5764 40.9434 66.5466 40.9607C66.4901 40.993 66.4418 40.9741 66.4418 40.9095C66.444 40.8738 66.4549 40.8391 66.4737 40.8086C66.4924 40.7781 66.5184 40.7527 66.5492 40.7346Z" fill="url(#paint39_linear_1001_7611)"/>
<path id="Vector_50" fill-rule="evenodd" clip-rule="evenodd" d="M66.751 40.1182C66.802 40.1182 66.8101 40.1962 66.7752 40.2635C66.7402 40.3307 66.6784 40.3846 66.6381 40.3711C66.5978 40.3577 66.5817 40.2904 66.614 40.2258C66.6462 40.1612 66.7107 40.102 66.751 40.1182Z" fill="url(#paint40_linear_1001_7611)"/>
<path id="Vector_51" fill-rule="evenodd" clip-rule="evenodd" d="M67.1754 39.6069C67.1808 39.6412 67.1778 39.6763 67.1665 39.7091C67.1553 39.742 67.1362 39.7715 67.1109 39.7953C67.0625 39.8437 67.0034 39.8383 66.9873 39.7953C66.979 39.7619 66.9801 39.7268 66.9906 39.6941C67.001 39.6613 67.0203 39.632 67.0464 39.6096C67.1028 39.5558 67.1592 39.5612 67.1754 39.6069Z" fill="url(#paint41_linear_1001_7611)"/>
<path id="Vector_52" fill-rule="evenodd" clip-rule="evenodd" d="M67.6483 39.4106C67.6413 39.4428 67.6267 39.4728 67.6056 39.4981C67.5846 39.5234 67.5577 39.5432 67.5274 39.5559C67.4683 39.5693 67.4441 39.5182 67.4602 39.4429C67.4677 39.4105 67.4828 39.3804 67.5043 39.3551C67.5258 39.3298 67.5531 39.3101 67.5838 39.2976C67.6402 39.2841 67.6644 39.3352 67.6483 39.4106Z" fill="url(#paint42_linear_1001_7611)"/>
<path id="Vector_53" fill-rule="evenodd" clip-rule="evenodd" d="M68.0002 39.5856C67.9492 39.6502 67.8847 39.6798 67.8605 39.6448C67.8363 39.6098 67.8363 39.5372 67.8766 39.4753C67.9169 39.4134 67.9841 39.3865 68.0163 39.4161C68.0314 39.4426 68.0379 39.4731 68.035 39.5034C68.0322 39.5338 68.02 39.5625 68.0002 39.5856Z" fill="url(#paint43_linear_1001_7611)"/>
<path id="Vector_54" fill-rule="evenodd" clip-rule="evenodd" d="M67.1244 38.6706C67.0412 38.7201 66.9613 38.7749 66.8853 38.8348C66.9155 38.8675 66.9572 38.8874 67.0016 38.8904C67.0461 38.8934 67.09 38.8793 67.1244 38.8509C67.2337 38.7798 67.3182 38.6763 67.3662 38.5549C67.283 38.5879 67.2022 38.6266 67.1244 38.6706Z" fill="url(#paint44_linear_1001_7611)"/>
<path id="Vector_55" fill-rule="evenodd" clip-rule="evenodd" d="M67.9063 38.6895C67.9574 38.6913 68.0081 38.6813 68.0547 38.6603C68.1013 38.6393 68.1425 38.6078 68.175 38.5684C68.0566 38.5003 67.9219 38.4658 67.7854 38.4688C67.7881 38.5791 67.8203 38.6679 67.9063 38.6895Z" fill="url(#paint45_linear_1001_7611)"/>
<path id="Vector_56" fill-rule="evenodd" clip-rule="evenodd" d="M68.4409 38.832C68.3809 38.9352 68.3617 39.0571 68.3872 39.1738C68.3936 39.1938 68.4039 39.2123 68.4176 39.2283C68.4312 39.2442 68.448 39.2572 68.4668 39.2665C68.4856 39.2758 68.5061 39.2812 68.5271 39.2824C68.548 39.2836 68.569 39.2805 68.5887 39.2733C68.5699 39.1177 68.5196 38.9676 68.4409 38.832Z" fill="url(#paint46_linear_1001_7611)"/>
<path id="Vector_57" fill-rule="evenodd" clip-rule="evenodd" d="M68.3872 40.1264C68.3716 40.1722 68.3686 40.2213 68.3785 40.2687C68.3885 40.316 68.411 40.3598 68.4437 40.3955C68.5102 40.2019 68.5552 40.0016 68.578 39.7981C68.4818 39.8849 68.4151 39.9997 68.3872 40.1264Z" fill="url(#paint47_linear_1001_7611)"/>
<path id="Vector_58" fill-rule="evenodd" clip-rule="evenodd" d="M67.9062 41.1679C67.8302 41.2683 67.7904 41.3916 67.7934 41.5177C67.9387 41.3507 68.0682 41.1705 68.1803 40.9795C68.068 41.0043 67.9697 41.0718 67.9062 41.1679Z" fill="url(#paint48_linear_1001_7611)"/>
<path id="Vector_59" fill-rule="evenodd" clip-rule="evenodd" d="M67.3689 41.9211C67.3286 41.8512 67.2318 41.8431 67.1324 41.8996C67.0209 41.9713 66.9352 42.077 66.8879 42.201C66.9688 42.1709 67.047 42.134 67.1217 42.0907C67.2065 42.04 67.2881 41.9843 67.3662 41.9238L67.3689 41.9211Z" fill="url(#paint49_linear_1001_7611)"/>
<path id="Vector_60" fill-rule="evenodd" clip-rule="evenodd" d="M66.4634 42.2924C66.4634 42.1767 66.4312 42.096 66.3506 42.0691C66.2995 42.0673 66.2487 42.0772 66.2022 42.0982C66.1556 42.1192 66.1144 42.1507 66.0819 42.1901C66.1982 42.2566 66.3296 42.2918 66.4634 42.2924Z" fill="url(#paint50_linear_1001_7611)"/>
<path id="Vector_61" fill-rule="evenodd" clip-rule="evenodd" d="M65.6655 41.4853C65.6831 41.6445 65.7354 41.7979 65.8187 41.9346C65.882 41.8278 65.9022 41.7007 65.8751 41.5795C65.8686 41.5587 65.8579 41.5395 65.8435 41.5232C65.8291 41.5069 65.8114 41.4939 65.7915 41.485C65.7717 41.4761 65.7502 41.4715 65.7285 41.4716C65.7068 41.4716 65.6853 41.4763 65.6655 41.4853Z" fill="url(#paint51_linear_1001_7611)"/>
<path id="Vector_62" fill-rule="evenodd" clip-rule="evenodd" d="M65.8697 40.6403C65.8891 40.592 65.8942 40.5391 65.8841 40.488C65.8741 40.4369 65.8495 40.3898 65.8133 40.3524C65.7392 40.554 65.6887 40.7635 65.6628 40.9767C65.7632 40.8873 65.8352 40.7703 65.8697 40.6403Z" fill="url(#paint52_linear_1001_7611)"/>
<path id="Vector_63" fill-rule="evenodd" clip-rule="evenodd" d="M66.0687 39.7981C66.125 39.785 66.178 39.7603 66.2243 39.7255C66.2705 39.6908 66.3091 39.6468 66.3374 39.5963C66.4138 39.494 66.4536 39.3688 66.4502 39.2411C66.3067 39.4149 66.179 39.6014 66.0687 39.7981Z" fill="url(#paint53_linear_1001_7611)"/>
<path id="Vector_64" fill-rule="evenodd" clip-rule="evenodd" d="M76.689 32.7347L74.5397 31.5238C74.0587 31.3166 73.4301 31.3839 72.7423 31.7929C71.235 32.6647 70.0126 34.7851 70.0126 36.5288C70.0126 37.4329 70.343 38.0572 70.875 38.3263L72.796 39.4026C73.2957 39.739 74.0104 39.7174 74.8056 39.26C76.3129 38.3882 77.5353 36.2651 77.5353 34.5322C77.5246 33.6308 77.2049 33.0119 76.689 32.7347Z" fill="#3B4447"/>
<path id="Vector_65" fill-rule="evenodd" clip-rule="evenodd" d="M74.7949 39.26C73.2876 40.1319 72.0652 39.4242 72.0652 37.6886C72.0652 35.953 73.2876 33.8245 74.7949 32.9527C76.3021 32.0809 77.5245 32.7886 77.5245 34.5322C77.5245 36.2759 76.3021 38.3801 74.7949 39.26Z" fill="#555E61"/>
<path id="Vector_66" fill-rule="evenodd" clip-rule="evenodd" d="M74.7948 39.0123C73.4004 39.8196 72.272 39.163 72.272 37.562C72.272 35.9609 73.4004 33.9912 74.7948 33.184C76.1892 32.3767 77.3176 33.0333 77.3176 34.6424C77.3176 36.2515 76.1865 38.2051 74.7948 39.0123Z" fill="#3B4447"/>
<path id="Vector_67" fill-rule="evenodd" clip-rule="evenodd" d="M74.7949 37.9791C73.8975 38.4958 73.1641 38.0814 73.1641 37.0454C73.1947 36.4788 73.3584 35.9274 73.6417 35.436C73.9251 34.9446 74.3202 34.5271 74.7949 34.2173C75.7003 33.6953 76.4257 34.1151 76.4257 35.1591C76.3951 35.7247 76.2314 36.2749 75.948 36.765C75.6645 37.2551 75.2694 37.6711 74.7949 37.9791Z" fill="url(#paint54_linear_1001_7611)"/>
<path id="Vector_68" fill-rule="evenodd" clip-rule="evenodd" d="M74.7951 37.8096C73.9891 38.2805 73.312 37.9038 73.312 36.9593C73.3397 36.4439 73.4884 35.9423 73.7461 35.4953C74.0038 35.0483 74.3632 34.6685 74.7951 34.3868C75.6172 33.9106 76.2781 34.2927 76.2781 35.2452C76.2498 35.7594 76.1008 36.2596 75.8431 36.7052C75.5854 37.1508 75.2263 37.5292 74.7951 37.8096Z" fill="url(#paint55_linear_1001_7611)"/>
<path id="Vector_69" fill-rule="evenodd" clip-rule="evenodd" d="M74.8514 37.1584C74.314 37.4598 73.9137 37.2176 73.9137 36.6203C73.9298 36.2931 74.0231 35.9745 74.1862 35.6905C74.3492 35.4066 74.5772 35.1654 74.8514 34.9869C75.3726 34.6829 75.789 34.9331 75.789 35.5251C75.7736 35.8524 75.6805 36.1713 75.5174 36.4553C75.3544 36.7394 75.126 36.9804 74.8514 37.1584Z" fill="url(#paint56_linear_1001_7611)"/>
<path id="Vector_70" fill-rule="evenodd" clip-rule="evenodd" d="M74.9829 37.215C74.4617 37.5164 74.0453 37.2769 74.0453 36.6769C74.0616 36.3494 74.155 36.0305 74.318 35.7461C74.481 35.4618 74.7088 35.2201 74.9829 35.0408C75.5203 34.7395 75.9206 34.987 75.9206 35.5925C75.9042 35.918 75.8105 36.235 75.6475 36.5172C75.4844 36.7994 75.2566 37.0386 74.9829 37.215Z" fill="url(#paint57_linear_1001_7611)"/>
<path id="Vector_71" fill-rule="evenodd" clip-rule="evenodd" d="M74.9829 36.8193C74.6498 37.013 74.3811 36.8569 74.3811 36.4802C74.393 36.2708 74.4536 36.0671 74.5581 35.8854C74.6626 35.7037 74.8081 35.5489 74.9829 35.4335C75.3188 35.2397 75.5874 35.3958 75.5874 35.7806C75.5754 35.9892 75.5144 36.192 75.4094 36.3724C75.3044 36.5529 75.1582 36.706 74.9829 36.8193Z" fill="url(#paint58_linear_1001_7611)"/>
<path id="Vector_72" fill-rule="evenodd" clip-rule="evenodd" d="M74.9828 36.7871C74.6658 36.9727 74.4078 36.8247 74.4078 36.4642C74.4185 36.2642 74.4761 36.0696 74.576 35.8961C74.6759 35.7226 74.8153 35.5752 74.9828 35.4659C75.3025 35.2802 75.5604 35.4282 75.5604 35.7968C75.5484 35.9957 75.4899 36.1889 75.3896 36.361C75.2892 36.533 75.1499 36.6789 74.9828 36.7871Z" fill="url(#paint59_linear_1001_7611)"/>
<path id="Vector_73" fill-rule="evenodd" clip-rule="evenodd" d="M74.9829 36.3485C74.8861 36.405 74.8055 36.3485 74.8055 36.2355C74.809 36.1733 74.8269 36.1127 74.8576 36.0586C74.8884 36.0044 74.9313 35.9581 74.9829 35.9233C75.0903 35.8614 75.1709 35.9233 75.1709 36.0229C75.1681 36.0883 75.1495 36.1521 75.1168 36.2088C75.084 36.2655 75.0381 36.3134 74.9829 36.3485Z" fill="url(#paint60_linear_1001_7611)"/>
<path id="Vector_74" fill-rule="evenodd" clip-rule="evenodd" d="M75.7487 35.7995C75.6923 35.8345 75.652 35.7995 75.652 35.743C75.6534 35.7091 75.6629 35.676 75.6798 35.6465C75.6966 35.617 75.7202 35.5919 75.7487 35.5735C75.8078 35.5412 75.8562 35.56 75.8562 35.6273C75.8536 35.6626 75.8424 35.6967 75.8237 35.7267C75.805 35.7567 75.7792 35.7817 75.7487 35.7995Z" fill="url(#paint61_linear_1001_7611)"/>
<path id="Vector_75" fill-rule="evenodd" clip-rule="evenodd" d="M75.5472 36.4185C75.4961 36.4185 75.4881 36.3486 75.523 36.2732C75.5579 36.1979 75.6197 36.1494 75.66 36.1629C75.7003 36.1763 75.7164 36.2436 75.6842 36.319C75.652 36.3943 75.5875 36.432 75.5472 36.4185Z" fill="url(#paint62_linear_1001_7611)"/>
<path id="Vector_76" fill-rule="evenodd" clip-rule="evenodd" d="M75.1227 36.9271C75.1169 36.8944 75.1198 36.8608 75.1311 36.8296C75.1424 36.7984 75.1618 36.7708 75.1872 36.7495C75.2355 36.693 75.2946 36.6957 75.3108 36.7495C75.3167 36.7813 75.3144 36.8141 75.3041 36.8447C75.2937 36.8753 75.2757 36.9028 75.2516 36.9244C75.1952 36.9782 75.1388 36.9836 75.1227 36.9271Z" fill="url(#paint63_linear_1001_7611)"/>
<path id="Vector_77" fill-rule="evenodd" clip-rule="evenodd" d="M74.6498 37.1261C74.6568 37.0936 74.6714 37.0632 74.6924 37.0375C74.7135 37.0118 74.7403 36.9914 74.7707 36.9781C74.8298 36.9646 74.854 37.0158 74.8379 37.0911C74.8304 37.1238 74.8153 37.1542 74.7938 37.18C74.7723 37.2057 74.7451 37.226 74.7143 37.2391C74.6579 37.2526 74.6337 37.2014 74.6498 37.1261Z" fill="url(#paint64_linear_1001_7611)"/>
<path id="Vector_78" fill-rule="evenodd" clip-rule="evenodd" d="M74.2977 36.9512C74.3488 36.8839 74.4052 36.8624 74.4374 36.8893C74.4523 36.9177 74.4588 36.9499 74.4559 36.9818C74.453 37.0138 74.441 37.0443 74.4213 37.0696C74.3729 37.1342 74.3165 37.1476 74.2816 37.1207C74.2665 37.0943 74.26 37.0638 74.2629 37.0334C74.2658 37.0031 74.2779 36.9744 74.2977 36.9512Z" fill="url(#paint65_linear_1001_7611)"/>
<path id="Vector_79" fill-rule="evenodd" clip-rule="evenodd" d="M74.22 36.4507C74.2764 36.4184 74.3194 36.4507 74.3194 36.5072C74.3182 36.5415 74.3084 36.5749 74.2911 36.6045C74.2737 36.6341 74.2493 36.6589 74.22 36.6767C74.1636 36.7117 74.1152 36.6929 74.1152 36.6256C74.1174 36.5902 74.128 36.5557 74.1462 36.5253C74.1645 36.4948 74.1898 36.4693 74.22 36.4507Z" fill="url(#paint66_linear_1001_7611)"/>
<path id="Vector_80" fill-rule="evenodd" clip-rule="evenodd" d="M74.4214 35.8346C74.4698 35.8346 74.4779 35.9153 74.4456 35.9799C74.4134 36.0445 74.3489 36.1037 74.3086 36.0875C74.2683 36.0714 74.2495 36.0095 74.2817 35.9422C74.314 35.875 74.3811 35.8211 74.4214 35.8346Z" fill="url(#paint67_linear_1001_7611)"/>
<path id="Vector_81" fill-rule="evenodd" clip-rule="evenodd" d="M74.8458 35.326C74.851 35.3603 74.8479 35.3953 74.8366 35.4281C74.8254 35.4609 74.8064 35.4905 74.7813 35.5144C74.7303 35.5601 74.6739 35.5547 74.6578 35.5144C74.6497 35.4816 74.6507 35.4473 74.6606 35.415C74.6705 35.3828 74.6891 35.3539 74.7142 35.3314C74.7706 35.2722 74.8297 35.2776 74.8458 35.326Z" fill="url(#paint68_linear_1001_7611)"/>
<path id="Vector_82" fill-rule="evenodd" clip-rule="evenodd" d="M75.3187 35.1268C75.3117 35.1593 75.2967 35.1896 75.2751 35.215C75.2536 35.2403 75.2261 35.2599 75.1951 35.2721C75.1387 35.2882 75.1145 35.2344 75.1306 35.1591C75.1376 35.1269 75.1523 35.0969 75.1733 35.0716C75.1944 35.0463 75.2212 35.0264 75.2515 35.0137C75.3106 35.0003 75.3348 35.0514 75.3187 35.1268Z" fill="url(#paint69_linear_1001_7611)"/>
<path id="Vector_83" fill-rule="evenodd" clip-rule="evenodd" d="M75.6681 35.3016C75.6197 35.3662 75.5552 35.3958 75.531 35.3635C75.5068 35.3312 75.5068 35.2532 75.5471 35.194C75.5874 35.1348 75.6519 35.1025 75.6842 35.1321C75.6992 35.1586 75.7058 35.1891 75.7029 35.2194C75.7 35.2498 75.6878 35.2785 75.6681 35.3016Z" fill="url(#paint70_linear_1001_7611)"/>
<path id="Vector_84" fill-rule="evenodd" clip-rule="evenodd" d="M74.7948 34.3868C74.7113 34.4372 74.6306 34.492 74.553 34.551C74.5837 34.5839 74.6258 34.6039 74.6707 34.6069C74.7156 34.6099 74.76 34.5956 74.7948 34.5671C74.9034 34.4952 74.9877 34.392 75.0366 34.2711C74.9532 34.3036 74.8724 34.3423 74.7948 34.3868Z" fill="url(#paint71_linear_1001_7611)"/>
<path id="Vector_85" fill-rule="evenodd" clip-rule="evenodd" d="M75.5767 34.4164C75.6278 34.4186 75.6787 34.4088 75.7254 34.3878C75.772 34.3668 75.8131 34.3351 75.8454 34.2953C75.7276 34.2282 75.594 34.1938 75.4585 34.1958C75.4585 34.2953 75.4907 34.3841 75.5767 34.4164Z" fill="url(#paint72_linear_1001_7611)"/>
<path id="Vector_86" fill-rule="evenodd" clip-rule="evenodd" d="M76.1007 34.5482C76.0394 34.6519 76.0202 34.7752 76.0469 34.8926C76.0532 34.9127 76.0636 34.9312 76.0773 34.947C76.091 34.9629 76.1078 34.9757 76.1267 34.9848C76.1456 34.9939 76.1662 34.999 76.1871 34.9998C76.208 35.0006 76.2289 34.9971 76.2484 34.9895C76.2292 34.834 76.1789 34.6839 76.1007 34.5482Z" fill="url(#paint73_linear_1001_7611)"/>
<path id="Vector_87" fill-rule="evenodd" clip-rule="evenodd" d="M76.0575 35.8426C76.0419 35.8884 76.0389 35.9375 76.0488 35.9849C76.0588 36.0322 76.0812 36.076 76.1139 36.1117C76.1847 35.9159 76.2334 35.7128 76.259 35.5062C76.1564 35.5928 76.0856 35.7112 76.0575 35.8426Z" fill="url(#paint74_linear_1001_7611)"/>
<path id="Vector_88" fill-rule="evenodd" clip-rule="evenodd" d="M75.5766 36.8839C75.5006 36.9844 75.4608 37.1077 75.4638 37.2337C75.6097 37.0672 75.7393 36.887 75.8507 36.6956C75.7948 36.7072 75.7418 36.7298 75.6947 36.7621C75.6477 36.7945 75.6075 36.8359 75.5766 36.8839Z" fill="url(#paint75_linear_1001_7611)"/>
<path id="Vector_89" fill-rule="evenodd" clip-rule="evenodd" d="M75.0395 37.6454C74.9992 37.5728 74.8998 37.5647 74.8031 37.6212C74.6914 37.6928 74.6057 37.7984 74.5586 37.9226C74.639 37.8914 74.7171 37.8545 74.7923 37.8122C74.8773 37.7619 74.959 37.7062 75.0368 37.6454H75.0395Z" fill="url(#paint76_linear_1001_7611)"/>
<path id="Vector_90" fill-rule="evenodd" clip-rule="evenodd" d="M74.1339 38.0086C74.1339 37.8929 74.1017 37.8122 74.0211 37.7853C73.9697 37.7832 73.9186 37.7933 73.8719 37.8148C73.8252 37.8363 73.7843 37.8686 73.7524 37.9091C73.8688 37.9751 74.0003 38.0094 74.1339 38.0086Z" fill="url(#paint77_linear_1001_7611)"/>
<path id="Vector_91" fill-rule="evenodd" clip-rule="evenodd" d="M73.3359 37.2016C73.3544 37.3594 73.4057 37.5115 73.4864 37.6483C73.5516 37.5431 73.5728 37.4165 73.5455 37.2958C73.5387 37.2752 73.5277 37.2563 73.5132 37.2403C73.4988 37.2242 73.4811 37.2114 73.4614 37.2025C73.4417 37.1937 73.4204 37.189 73.3988 37.1888C73.3772 37.1887 73.3558 37.193 73.3359 37.2016Z" fill="url(#paint78_linear_1001_7611)"/>
<path id="Vector_92" fill-rule="evenodd" clip-rule="evenodd" d="M73.5401 36.3566C73.5592 36.3081 73.5638 36.255 73.5533 36.2039C73.5428 36.1528 73.5177 36.1058 73.481 36.0687C73.4094 36.271 73.359 36.4803 73.3306 36.693C73.4326 36.6045 73.5056 36.4873 73.5401 36.3566Z" fill="url(#paint79_linear_1001_7611)"/>
<path id="Vector_93" fill-rule="evenodd" clip-rule="evenodd" d="M73.7389 35.5089C73.7972 35.4964 73.8523 35.4721 73.9009 35.4374C73.9494 35.4026 73.9903 35.3583 74.021 35.3071C74.0976 35.2039 74.1374 35.0778 74.1338 34.9492C73.9842 35.1224 73.8519 35.3099 73.7389 35.5089Z" fill="url(#paint80_linear_1001_7611)"/>
<path id="Vector_94" fill-rule="evenodd" clip-rule="evenodd" d="M93.0001 24.7295C93.0001 24.7295 93.0001 23.8388 93.0001 23.236C93.0001 23.0746 92.5809 22.9401 92.5809 22.7463C92.5809 19.8052 92.5326 13.9284 92.4976 12.0744C92.452 9.65269 91.8045 8.29113 91.8045 8.29113C89.588 6.74389 83.6611 3.27002 79.7708 1.21691C78.1346 0.35046 77.0169 1.06353 77.0169 1.06353C77.0169 1.06353 13.7989 37.6939 9.50555 40.1749C5.21221 42.6558 4.63457 47.015 3.62706 51.7939C2.61955 56.5729 3.32615 63.3 3.32615 63.3C3.32615 63.3 3.19181 65.6813 7.20574 67.8744C11.2197 70.0674 15.0375 71.9671 16.9074 70.9258C19.1347 69.6853 22.1975 67.9443 25.6983 65.9343V63.9458C25.7576 62.8403 26.0899 61.7668 26.6655 60.8217C27.219 60.0387 27.767 59.5731 28.8148 58.965C29.8627 58.3569 30.4054 58.1954 30.9642 58.338C31.523 58.4807 31.9502 59.5113 31.9502 60.3212V62.3286C46.3644 54.0085 63.7876 43.8183 63.7876 43.8183L63.9918 43.7026V41.7948C64.0569 40.6877 64.3957 39.6141 64.9778 38.6707C65.5313 37.8877 66.0686 37.4275 67.1272 36.8194C68.1857 36.2113 68.7257 36.0471 69.2765 36.1871C69.8273 36.327 70.2545 37.3656 70.2545 38.1756V40.1614L71.4877 39.4645V37.4652C71.4877 36.658 71.9095 35.1161 72.4656 34.3438C73.0218 33.5716 73.5645 33.0953 74.615 32.4872C75.6655 31.879 76.2028 31.7203 76.7643 31.8602C77.3259 32.0001 77.7504 33.0334 77.7504 33.846V35.9234L77.9545 35.8076L86.7508 30.5471C86.7508 30.5471 90.4746 27.8266 91.568 26.9359C92.2468 26.3532 92.7439 25.5873 93.0001 24.7295Z" fill="white"/>
<path id="Vector_95" fill-rule="evenodd" clip-rule="evenodd" d="M17.9578 51.759C15.634 50.9059 13.387 49.8563 11.241 48.6215C9.23681 47.4374 7.33515 46.0873 5.55599 44.5852C4.58878 46.7029 4.16697 49.1812 3.62157 51.7859C3.27699 53.5956 3.09714 55.4329 3.08423 57.2752C3.43081 59.2314 4.35504 60.1114 4.35504 60.114C5.13539 60.9046 6.02149 61.5829 6.988 62.1295C9.24214 63.4453 11.2867 64.5082 13.0008 65.0679C13.4687 65.153 13.9491 65.1398 14.4117 65.0291C14.8742 64.9184 15.3086 64.7126 15.6875 64.4248L15.7278 63.9996C16.0341 60.9563 16.7461 56.0374 17.6246 53.2013C17.7588 52.7645 17.9552 52.3495 18.2076 51.9689L17.9578 51.759Z" fill="#141C1E"/>
<path id="Vector_96" fill-rule="evenodd" clip-rule="evenodd" d="M5.06707 46.2401C4.61884 47.7311 4.25289 49.2456 3.97089 50.7769C3.90104 51.1213 3.8285 51.4711 3.75596 51.8209C3.44369 53.4354 3.27199 55.074 3.2428 56.7182C3.7479 57.7677 4.80646 59.2315 7.00417 60.5096C10.5587 62.5843 13.6108 64.0346 15.615 63.8705C15.8837 61.2819 16.5527 56.2931 17.4742 53.2659C10.7064 50.2925 7.00417 47.8223 5.06707 46.2401Z" fill="#303E42"/>
<g id="Vector_97" style="mix-blend-mode:multiply" opacity="0.2">
<path d="M7.20541 67.8689C8.0571 68.3345 8.89803 68.7838 9.71479 69.1982C9.5912 68.8834 9.39507 68.4851 9.15327 68.356C8.73683 68.1273 6.64927 66.9729 6.32955 66.7576C6.1388 66.6285 5.96685 66.8141 5.85132 67.0267C6.2842 67.3362 6.73649 67.6176 7.20541 67.8689Z" fill="black"/>
</g>
<path id="Vector_98" fill-rule="evenodd" clip-rule="evenodd" d="M90.2273 16.2803L30.9803 50.5374C30.9803 50.5374 28.4628 51.9985 25.2307 55.3271C25.2307 55.3271 21.773 59.0943 20.932 60.324C20.0911 61.5537 17.0471 64.1396 16.3243 64.4329C16.3243 64.4329 17.0874 58.1256 17.7375 55.4078C18.3877 52.6901 19.4114 51.1267 22.0067 49.6279L90.2273 10.1802V16.2803Z" fill="#141C1E"/>
<path id="Vector_99" fill-rule="evenodd" clip-rule="evenodd" d="M48.6937 34.3491L40.1044 39.3137V45.1098L48.6937 40.1452V34.3491Z" fill="#303E42"/>
<path id="Vector_100" fill-rule="evenodd" clip-rule="evenodd" d="M57.6189 29.1881L49.137 34.0935V39.8896L57.6189 34.9842V29.1881Z" fill="#303E42"/>
<path id="Vector_101" fill-rule="evenodd" clip-rule="evenodd" d="M66.5896 24.0002L58.062 28.9326V34.7286L66.5896 29.7963V24.0002Z" fill="#303E42"/>
<path id="Vector_102" fill-rule="evenodd" clip-rule="evenodd" d="M39.6635 39.5693L31.3401 44.3832V50.1793L39.6635 45.3654V39.5693Z" fill="#303E42"/>
<path id="Vector_103" fill-rule="evenodd" clip-rule="evenodd" d="M75.5982 18.7909L67.0303 23.7447V29.5435L75.5982 24.587V18.7909Z" fill="#303E42"/>
<path id="Vector_104" fill-rule="evenodd" clip-rule="evenodd" d="M30.8997 44.6417L22.0712 49.7543L22.0067 49.7947C22.0067 51.5061 22.0067 54.6786 22.0255 55.5369C22.0443 56.3953 22.6408 57.1945 23.0062 57.6223C24.0513 56.4357 25.0615 55.3324 25.1367 55.249C28.2237 52.0577 30.6955 50.5616 30.8997 50.4324V44.6417Z" fill="#303E42"/>
<path id="Vector_105" fill-rule="evenodd" clip-rule="evenodd" d="M85.0071 13.35V19.1488L90.0957 16.205V10.4089L85.0071 13.35Z" fill="#303E42"/>
<path id="Vector_106" fill-rule="evenodd" clip-rule="evenodd" d="M84.5664 13.608L76.0415 18.535V24.331L84.5664 19.4041V13.608Z" fill="#303E42"/>
<path id="Vector_107" fill-rule="evenodd" clip-rule="evenodd" d="M21.1978 53.613V50.2925C19.3413 51.5572 18.4574 52.9672 17.8663 55.4401L17.8422 55.5396L21.1978 53.613Z" fill="#303E42"/>
<path id="Vector_108" fill-rule="evenodd" clip-rule="evenodd" d="M17.6864 56.2662C17.1652 58.8521 16.6117 63.1332 16.4855 64.2015C17.4419 63.6283 20.0427 61.3761 20.8191 60.2486C20.9158 60.1087 21.0448 59.9392 21.1979 59.7455V54.2992L17.6864 56.2662Z" fill="#303E42"/>
<path id="Vector_109" opacity="0.7" fill-rule="evenodd" clip-rule="evenodd" d="M5.7415 46.7703C5.70926 46.8914 5.67971 47.0124 5.65016 47.1362L5.62598 47.2358L6.04242 46.9963C5.93763 46.9209 5.83823 46.8456 5.7415 46.7703Z" fill="#C5D0D3"/>
<path id="Vector_110" opacity="0.7" fill-rule="evenodd" clip-rule="evenodd" d="M6.54467 47.3594L5.47 47.9621C4.94878 50.5507 4.39532 54.8318 4.27173 55.8974C5.22819 55.3243 7.82892 53.0747 8.60537 51.9473C8.69941 51.8073 8.83105 51.6351 8.98151 51.4441V48.947C8.03042 48.3738 7.22441 47.841 6.54467 47.3594Z" fill="#C5D0D3"/>
<path id="Vector_111" fill-rule="evenodd" clip-rule="evenodd" d="M15.6124 63.8703C15.6688 63.3321 15.7413 62.6702 15.8327 61.9517C13.2319 60.539 4.36584 55.5367 4.36584 55.5367L3.23743 56.6131C3.23743 56.6481 3.23743 56.6803 3.23743 56.7153C3.74253 57.7648 4.80108 59.2286 6.9988 60.5067C10.5452 62.5841 13.6081 64.0344 15.6124 63.8703Z" fill="#39464A"/>
<path id="Vector_112" d="M15.7037 59.2878C15.5103 58.7039 14.7929 58.0043 14.0917 57.7245C13.932 57.6547 13.7607 57.6155 13.5866 57.6088C13.2239 57.6088 13.0493 57.8536 13.1943 58.2734C13.3878 58.8573 14.1051 59.5569 14.8064 59.8368C14.966 59.9068 15.1373 59.946 15.3115 59.9525C15.6742 59.9525 15.8434 59.7103 15.7037 59.2878ZM15.435 59.6242C15.3964 59.6526 15.3483 59.6651 15.3007 59.6592C15.1643 59.6532 15.0302 59.6212 14.9058 59.565C14.2959 59.3174 13.6376 58.6824 13.4711 58.1819C13.4227 58.0339 13.4361 57.9559 13.4523 57.9344C13.4684 57.9128 13.5087 57.9021 13.5866 57.9021C13.723 57.908 13.8571 57.94 13.9815 57.9962C14.5914 58.2438 15.2497 58.8762 15.4162 59.3793C15.4753 59.5273 15.4619 59.6027 15.4458 59.6242H15.435Z" fill="#3D4B4F"/>
<path id="Vector_113" fill-rule="evenodd" clip-rule="evenodd" d="M11.2545 60.2404L11.4023 59.4924L12.9847 58.0286L15.5855 59.4951V61.8173L14.6774 62.194L11.2545 60.2404Z" fill="#3D4B4F"/>
<path id="Vector_114" d="M4.87355 46.4204C4.51622 46.6195 2.8236 47.5802 1.99609 48.4493C1.39017 49.0729 0.722189 49.6328 0.00256348 50.1203V52.6981C0.338769 52.7847 0.684431 52.829 1.03157 52.83V50.3248C1.03157 50.3248 2.70001 48.6457 4.41412 48.0995C4.55383 47.5263 4.7016 46.964 4.87355 46.4204Z" fill="white"/>
<path id="Vector_115" d="M8.93319 69.2465C8.90765 69.2479 8.8823 69.2413 8.86065 69.2277L6.55815 67.9173C6.52007 67.8941 6.48835 67.8618 6.46583 67.8233C6.44332 67.7847 6.43073 67.7412 6.42919 67.6966V67.1181C6.42519 67.1031 6.42426 67.0874 6.42645 67.072C6.42863 67.0566 6.4339 67.0418 6.44192 67.0285C6.44995 67.0152 6.46057 67.0036 6.47315 66.9945C6.48574 66.9854 6.50003 66.9789 6.51516 66.9755C6.54168 66.976 6.5676 66.9834 6.59039 66.997L8.88752 68.3209C8.9261 68.3437 8.95835 68.3759 8.98135 68.4144C9.00434 68.453 9.01734 68.4967 9.01917 68.5415V69.1201C9.02266 69.148 9.01586 69.1763 9.00003 69.1996C8.9842 69.2228 8.96044 69.2395 8.93319 69.2465Z" fill="#404B4D"/>
<path id="Vector_116" d="M8.97337 69.1283C8.97337 69.1902 8.93307 69.2171 8.87665 69.1848L6.57683 67.8743C6.54731 67.8559 6.52263 67.8306 6.50486 67.8007C6.4871 67.7707 6.47677 67.7369 6.47474 67.7021L6.4613 67.1236C6.4613 67.0617 6.50429 67.0348 6.56071 67.0671L8.86052 68.3775C8.88933 68.3967 8.91347 68.4222 8.93114 68.452C8.94881 68.4818 8.95957 68.5152 8.96262 68.5497L8.97337 69.1283Z" fill="white"/>
<path id="Vector_117" fill-rule="evenodd" clip-rule="evenodd" d="M78.0108 33.8459C78.0108 32.9203 77.5219 31.7713 76.826 31.6072C76.683 31.5699 76.5359 31.5509 76.3881 31.5507C75.9045 31.5507 75.3725 31.7498 74.4886 32.261C73.3924 32.8934 72.8282 33.3831 72.2559 34.1931C71.6432 35.1795 71.2893 36.305 71.2269 37.4651V39.6178L71.4956 39.4698V37.4705C71.4956 36.6633 71.9174 35.1214 72.4736 34.3491C73.0297 33.5769 73.5724 33.1006 74.6229 32.4925C75.6734 31.8843 76.2108 31.7256 76.7723 31.8655C77.3338 32.0054 77.7583 33.0387 77.7583 33.8513V35.9287L77.9625 35.8129L78.0216 35.7807L78.0108 33.8459Z" fill="url(#paint81_linear_1001_7611)"/>
<path id="Vector_118" fill-rule="evenodd" clip-rule="evenodd" d="M31.0366 58.0959C30.8945 58.0586 30.7482 58.0397 30.6013 58.0394C30.115 58.0394 29.5804 58.2386 28.6965 58.7498C27.603 59.3822 27.0388 59.8692 26.4638 60.6791C25.8526 61.6661 25.4996 62.7915 25.4375 63.9512V66.1039L25.7062 65.9532V63.9647C25.76 62.8534 26.0896 61.7732 26.6653 60.8218C27.2188 60.0387 27.7669 59.5732 28.8147 58.9651C29.8625 58.3569 30.4052 58.1955 30.964 58.3381C31.5229 58.4807 31.9501 59.5113 31.9501 60.3213V62.3286L32.2187 62.1779V60.3213C32.2187 59.3956 31.7324 58.2493 31.0366 58.0959Z" fill="url(#paint82_linear_1001_7611)"/>
<g id="Vector_119" style="mix-blend-mode:multiply" opacity="0.2">
<path d="M19.8036 49.73L19.8573 49.6815C12.3587 46.353 8.71018 43.646 7.08473 42.1687L7.05249 42.2198C7.6375 42.7499 8.25098 43.2475 8.89019 43.7106C10.7816 45.1098 14.1749 47.2302 19.8036 49.73Z" fill="black"/>
</g>
<g id="Group_2" style="mix-blend-mode:multiply">
<path id="Vector_120" fill-rule="evenodd" clip-rule="evenodd" d="M89.6498 23.4971L81.3828 28.276V28.0123L89.6498 23.2334V23.4971Z" fill="#555E61"/>
<path id="Vector_121" fill-rule="evenodd" clip-rule="evenodd" d="M89.6498 23.9867L81.3828 28.7657V28.502L89.6498 23.723V23.9867Z" fill="#555E61"/>
<path id="Vector_122" fill-rule="evenodd" clip-rule="evenodd" d="M89.6498 24.4766L81.3828 29.2555V28.9918L89.6498 24.2129V24.4766Z" fill="#555E61"/>
<path id="Vector_123" fill-rule="evenodd" clip-rule="evenodd" d="M89.6498 24.9663L81.3828 29.7453V29.4816L89.6498 24.7026V24.9663Z" fill="#555E61"/>
<path id="Vector_124" fill-rule="evenodd" clip-rule="evenodd" d="M89.6498 25.4558L81.3828 30.2348V29.9711L89.6498 25.1921V25.4558Z" fill="#555E61"/>
<path id="Vector_125" fill-rule="evenodd" clip-rule="evenodd" d="M89.6498 25.9484L81.3828 30.7273V30.4609L89.6498 25.682V25.9484Z" fill="#555E61"/>
<path id="Vector_126" fill-rule="evenodd" clip-rule="evenodd" d="M89.6498 26.4381L81.3828 31.2171V30.9614L89.6498 26.1825V26.4381Z" fill="#555E61"/>
<path id="Vector_127" fill-rule="evenodd" clip-rule="evenodd" d="M89.6498 26.928L81.3828 31.7069V31.4513L89.6498 26.6724V26.928Z" fill="#555E61"/>
<path id="Vector_128" fill-rule="evenodd" clip-rule="evenodd" d="M89.6498 27.4256L81.3828 32.2045V31.9408L89.6498 27.1619V27.4256Z" fill="#555E61"/>
<path id="Vector_129" fill-rule="evenodd" clip-rule="evenodd" d="M89.6498 27.9182L81.3828 32.6945V32.4308L89.6498 27.6545V27.9182Z" fill="#555E61"/>
</g>
<g id="Vector_130" style="mix-blend-mode:multiply" opacity="0.1">
<path fill-rule="evenodd" clip-rule="evenodd" d="M54.7952 26.7046V26.4113C54.8155 26.2707 54.8689 26.1369 54.951 26.0211C55.0804 25.7721 55.2249 25.5313 55.3836 25.3C55.5536 25.0362 55.7899 24.8219 56.0687 24.6784L73.8519 14.394C74.2119 14.1868 74.3328 14.1814 74.529 14.2298C74.6869 14.2762 74.8359 14.349 74.9696 14.4451C75.0663 14.5204 75.1147 14.5581 75.1147 14.6631V14.9564L54.7952 26.7046Z" fill="black"/>
</g>
<g id="Group_3" style="mix-blend-mode:multiply">
<path id="Vector_131" fill-rule="evenodd" clip-rule="evenodd" d="M61.8396 22.2727C61.8377 22.2831 61.839 22.2938 61.8434 22.3035C61.8478 22.3131 61.855 22.3211 61.8642 22.3264C61.8733 22.3317 61.8839 22.3341 61.8944 22.3331C61.9049 22.3322 61.9149 22.328 61.9229 22.3211L63.6747 21.3067C63.6983 21.2915 63.718 21.2709 63.7321 21.2466C63.7461 21.2222 63.754 21.1948 63.7553 21.1667V20.7416C63.7561 20.7319 63.7541 20.7221 63.7495 20.7135C63.7449 20.7049 63.738 20.6977 63.7296 20.6929C63.7211 20.6881 63.7114 20.6858 63.7017 20.6864C63.692 20.6869 63.6826 20.6902 63.6747 20.6958L61.9229 21.7076C61.8998 21.7241 61.8804 21.7454 61.866 21.77C61.8517 21.7946 61.8427 21.8219 61.8396 21.8502V22.2727Z" fill="#555E61"/>
<path id="Vector_132" fill-rule="evenodd" clip-rule="evenodd" d="M59.2576 23.7689C59.2576 23.8254 59.2898 23.8442 59.3382 23.8146L61.0818 22.8056C61.1069 22.7917 61.1278 22.7715 61.1424 22.7469C61.157 22.7223 61.1649 22.6943 61.1651 22.6656V22.2405C61.1651 22.1947 61.1329 22.1651 61.0818 22.1947L59.3382 23.2011C59.3146 23.217 59.295 23.2381 59.281 23.2629C59.267 23.2876 59.259 23.3153 59.2576 23.3437V23.7689Z" fill="#555E61"/>
<path id="Vector_133" fill-rule="evenodd" clip-rule="evenodd" d="M56.665 25.2677C56.665 25.3242 56.7053 25.3376 56.7456 25.3134L58.5001 24.3017C58.5235 24.2857 58.5429 24.2645 58.5569 24.2397C58.5709 24.215 58.579 24.1874 58.5807 24.159V23.7339C58.5814 23.7242 58.5795 23.7144 58.5749 23.7058C58.5703 23.6972 58.5634 23.69 58.5549 23.6852C58.5465 23.6804 58.5368 23.6781 58.5271 23.6787C58.5173 23.6792 58.508 23.6825 58.5001 23.6881L56.7564 24.6999C56.7336 24.7166 56.7147 24.7379 56.7008 24.7625C56.6869 24.7871 56.6783 24.8144 56.6758 24.8425L56.665 25.2677Z" fill="#555E61"/>
</g>
<path id="Vector_134" d="M42.122 31.9246C42.1923 31.9605 42.2701 31.9792 42.349 31.9792C42.428 31.9792 42.5058 31.9605 42.5761 31.9246L47.9495 28.8166C47.9805 28.8104 48.0084 28.7936 48.0285 28.7691C48.0485 28.7445 48.0595 28.7138 48.0595 28.6821C48.0595 28.6504 48.0485 28.6197 48.0285 28.5952C48.0084 28.5706 47.9805 28.5538 47.9495 28.5476L42.4579 25.3697C42.3871 25.3352 42.3095 25.3173 42.2308 25.3173C42.1522 25.3173 42.0745 25.3352 42.0038 25.3697L36.6304 28.4803C36.5994 28.4865 36.5715 28.5034 36.5514 28.5279C36.5313 28.5524 36.5204 28.5831 36.5204 28.6148C36.5204 28.6465 36.5313 28.6773 36.5514 28.7018C36.5715 28.7263 36.5994 28.7431 36.6304 28.7494L42.122 31.9246Z" fill="#555E61"/>
<path id="Vector_135" d="M47.9522 28.8168L42.5788 31.9247C42.5085 31.9606 42.4307 31.9793 42.3517 31.9793C42.2728 31.9793 42.195 31.9606 42.1247 31.9247L36.6331 28.7495C36.6078 28.7381 36.5859 28.7201 36.5699 28.6974C36.5538 28.6747 36.5441 28.6481 36.5417 28.6204V28.8894C36.5436 28.9176 36.5531 28.9448 36.5692 28.968C36.5853 28.9913 36.6074 29.0097 36.6331 29.0213L42.1247 32.1965C42.195 32.2324 42.2728 32.2511 42.3517 32.2511C42.4307 32.2511 42.5085 32.2324 42.5788 32.1965L47.9522 29.0886C47.9779 29.0766 48.0001 29.0582 48.0165 29.0351C48.033 29.012 48.0432 28.985 48.0462 28.9567V28.6876C48.0433 28.7156 48.0331 28.7422 48.0166 28.7649C48.0001 28.7876 47.9778 28.8055 47.9522 28.8168Z" fill="#3C4548"/>
<path id="Vector_136" d="M77.8416 11.2753C77.9115 11.3112 77.9888 11.3299 78.0673 11.3299C78.1458 11.3299 78.2232 11.3112 78.293 11.2753L83.6664 8.16735C83.6956 8.159 83.7213 8.14135 83.7395 8.11707C83.7578 8.0928 83.7677 8.06322 83.7677 8.03281C83.7677 8.0024 83.7578 7.97282 83.7395 7.94854C83.7213 7.92427 83.6956 7.90662 83.6664 7.89827L78.1775 4.72308C78.1067 4.68858 78.0291 4.67065 77.9504 4.67065C77.8718 4.67065 77.7941 4.68858 77.7234 4.72308L72.3393 7.83368C72.3082 7.83993 72.2803 7.85675 72.2603 7.88127C72.2402 7.9058 72.2292 7.93652 72.2292 7.96823C72.2292 7.99993 72.2402 8.03065 72.2603 8.05518C72.2803 8.07971 72.3082 8.09652 72.3393 8.10277L77.8416 11.2753Z" fill="#555E61"/>
<path id="Vector_137" d="M83.6691 8.16189L78.293 11.2752C78.2232 11.3111 78.1458 11.3298 78.0673 11.3298C77.9888 11.3298 77.9115 11.3111 77.8416 11.2752L72.3393 8.09462C72.3132 8.08312 72.2907 8.06481 72.2742 8.04161C72.2577 8.01841 72.2476 7.99118 72.2452 7.96277V8.23185C72.2482 8.2601 72.2584 8.2871 72.2749 8.31021C72.2914 8.33332 72.3136 8.35175 72.3393 8.3637L77.8416 11.5443C77.9115 11.5802 77.9888 11.5989 78.0673 11.5989C78.1458 11.5989 78.2232 11.5802 78.293 11.5443L83.6664 8.43367C83.6924 8.42288 83.7149 8.40511 83.7315 8.38232C83.7481 8.35954 83.7581 8.33261 83.7604 8.30451V8.03542C83.7574 8.0626 83.7474 8.08852 83.7313 8.11068C83.7153 8.13283 83.6939 8.15048 83.6691 8.16189Z" fill="#3C4548"/>
<path id="Vector_138" d="M27.4714 40.6673C27.5416 40.7017 27.6188 40.7196 27.697 40.7196C27.7753 40.7196 27.8525 40.7017 27.9227 40.6673L33.2961 37.5566C33.4224 37.4867 33.4224 37.3683 33.2961 37.2876L27.8072 34.1124C27.7369 34.0765 27.6591 34.0577 27.5802 34.0577C27.5013 34.0577 27.4235 34.0765 27.3531 34.1124L21.9798 37.2203C21.9506 37.2286 21.9249 37.2463 21.9066 37.2706C21.8883 37.2948 21.8784 37.3244 21.8784 37.3548C21.8784 37.3852 21.8883 37.4148 21.9066 37.4391C21.9249 37.4634 21.9506 37.481 21.9798 37.4894L27.4714 40.6673Z" fill="#555E61"/>
<path id="Vector_139" d="M33.3069 37.5565L27.9335 40.6671C27.8632 40.7016 27.786 40.7195 27.7078 40.7195C27.6296 40.7195 27.5524 40.7016 27.4821 40.6671L21.9905 37.492C21.9648 37.48 21.9426 37.4616 21.9261 37.4385C21.9096 37.4154 21.8994 37.3884 21.8965 37.3601V37.6292C21.8994 37.6571 21.9096 37.6838 21.9261 37.7065C21.9426 37.7292 21.9648 37.7471 21.9905 37.7584L27.4714 40.9282C27.5412 40.964 27.6186 40.9828 27.6971 40.9828C27.7756 40.9828 27.8529 40.964 27.9227 40.9282L33.2961 37.8202C33.3225 37.8092 33.3453 37.7911 33.362 37.7678C33.3786 37.7445 33.3884 37.717 33.3902 37.6884V37.4193C33.3903 37.4477 33.3826 37.4755 33.3679 37.4997C33.3532 37.5239 33.3321 37.5436 33.3069 37.5565Z" fill="#3C4548"/>
<path id="Vector_140" style="mix-blend-mode:multiply" opacity="0.1" d="M66.1143 9.24094C66.0287 9.19442 65.9387 9.15656 65.8456 9.12793C65.6495 9.08218 65.5259 9.08757 65.1686 9.29476L47.3799 19.5765C47.1017 19.7209 46.8663 19.9362 46.6975 20.2007C46.5429 20.4321 46.4029 20.6729 46.2784 20.9219C46.1947 21.0368 46.1411 21.171 46.1226 21.3121V21.6054L54.8087 26.7179V26.4246C54.829 26.2841 54.8824 26.1503 54.9645 26.0345C55.0939 25.7855 55.2384 25.5447 55.397 25.3133C55.5671 25.0496 55.8034 24.8353 56.0821 24.6917L73.8654 14.4074C74.2254 14.2002 74.3463 14.1948 74.5424 14.2432C74.5699 14.2492 74.5969 14.2573 74.623 14.2674L66.1143 9.24094Z" fill="url(#paint83_linear_1001_7611)"/>
<g id="Vector_141" style="mix-blend-mode:multiply" opacity="0.15">
<path d="M46.1091 21.3121C46.1152 21.2166 46.1447 21.1242 46.1951 21.043L45.3729 21.5004L54.1665 26.613L54.7952 26.7045L46.1091 21.5919V21.3121Z" fill="black"/>
</g>
<g id="Group_4" style="mix-blend-mode:multiply" opacity="0.2">
<path id="Vector_142" d="M71.9899 14.1916L62.1857 19.948L62.202 19.9759L72.0062 14.2195L71.9899 14.1916Z" fill="black"/>
</g>
<g id="Group_5" style="mix-blend-mode:multiply" opacity="0.2">
<path id="Vector_143" d="M71.1518 13.7623L61.3047 19.4448L61.3208 19.4728L71.1679 13.7903L71.1518 13.7623Z" fill="black"/>
</g>
<g id="Group_6" style="mix-blend-mode:multiply" opacity="0.2">
<path id="Vector_144" d="M60.4827 19.0463L60.4666 19.0194L70.2784 13.2744L70.2945 13.304L60.4827 19.0463Z" fill="black"/>
</g>
<g id="Group_7" style="mix-blend-mode:multiply" opacity="0.2">
<path id="Vector_145" d="M59.6259 18.589L59.6097 18.5621L69.4216 12.8171L69.4377 12.8467L59.6259 18.589Z" fill="black"/>
</g>
<g id="Group_8" style="mix-blend-mode:multiply" opacity="0.2">
<path id="Vector_146" d="M68.5627 12.354L58.7565 18.1069L58.7728 18.1348L68.579 12.3818L68.5627 12.354Z" fill="black"/>
</g>
<g id="Group_9" style="mix-blend-mode:multiply" opacity="0.2">
<path id="Vector_147" d="M67.7007 11.8808L57.9065 17.6543L57.9228 17.6821L67.717 11.9086L67.7007 11.8808Z" fill="black"/>
</g>
<g id="Group_10" style="mix-blend-mode:multiply" opacity="0.2">
<path id="Vector_148" d="M57.0573 17.2139L57.0411 17.187L66.853 11.442L66.8691 11.4716L57.0573 17.2139Z" fill="black"/>
</g>
<g id="Group_11" style="mix-blend-mode:multiply" opacity="0.2">
<path id="Vector_149" d="M65.9913 10.9757L56.1851 16.7286L56.2014 16.7565L66.0076 11.0036L65.9913 10.9757Z" fill="black"/>
</g>
<g id="Group_12" style="mix-blend-mode:multiply" opacity="0.2">
<path id="Vector_150" d="M55.3458 16.299L55.3297 16.2694L65.1388 10.5271L65.155 10.554L55.3458 16.299Z" fill="black"/>
</g>
<path id="Vector_151" d="M17.7645 53.9628C15.9993 54.5278 14.7688 56.363 14.4061 57.5254C14.2786 57.9046 14.2239 58.3045 14.2449 58.704L14.1992 61.2496C14.2105 61.2987 14.2354 61.3437 14.2711 61.3794C14.3067 61.4151 14.3516 61.44 14.4007 61.4514C14.6384 61.4904 14.8823 61.4631 15.1055 61.3724C15.3287 61.2818 15.5227 61.1313 15.6662 60.9374V58.8736L14.8601 58.5533C14.8601 58.5533 14.5727 58.4511 15.2846 57.251C15.9966 56.0509 17.7806 55.2382 17.7806 55.2382L18.009 54.1619L17.7645 53.9628Z" fill="#FFFBFA"/>
<path id="Vector_152" d="M14.8011 58.3999C14.8011 58.2385 14.8898 57.9102 15.282 57.2509C15.9967 56.0508 17.778 55.2382 17.778 55.2382L17.9257 54.5386C17.6067 54.5829 17.3008 54.6948 17.0284 54.8669C16.4185 55.2247 14.648 57.1003 14.8011 58.3999Z" fill="#ACACAC"/>
<path id="Vector_153" d="M14.398 61.4515C14.6357 61.4905 14.8796 61.4632 15.1028 61.3725C15.3261 61.2819 15.52 61.1314 15.6635 60.9375V58.8737C15.6635 58.8737 14.9972 59.4549 14.5243 59.3715C14.4297 59.3498 14.3391 59.3135 14.2556 59.2638L14.2207 61.2497C14.23 61.2959 14.2513 61.3389 14.2824 61.3743C14.3135 61.4098 14.3534 61.4364 14.398 61.4515Z" fill="#ACACAC"/>
<path id="Vector_154" d="M4.63455 47.2328C3.95427 47.5781 3.29408 47.9617 2.65714 48.3818C1.97322 48.8917 1.31843 49.4397 0.695855 50.0232L1.00214 50.3326C1.00214 50.3326 0.615254 50.4645 0 50.1201V52.6979C0.336205 52.7845 0.681868 52.8287 1.02901 52.8297V50.3246C1.02901 50.3246 2.69744 48.6455 4.41156 48.0992C4.4841 47.8059 4.55933 47.518 4.63455 47.2328Z" fill="#ACACAC"/>
<g id="Vector_155" style="mix-blend-mode:multiply" opacity="0.2">
<path fill-rule="evenodd" clip-rule="evenodd" d="M92.6105 22.8299C92.5924 22.8037 92.5821 22.7729 92.5809 22.7411C92.5809 21.8316 92.5809 20.6423 92.5648 19.3776L92.2961 19.6251L92.315 23.4757C92.4247 23.2769 92.5147 23.0678 92.5836 22.8514L92.6105 22.8299Z" fill="black"/>
</g>
<path id="Vector_156" fill-rule="evenodd" clip-rule="evenodd" d="M92.3525 23.4081C92.445 23.2296 92.5214 23.0432 92.5809 22.8511L92.6105 22.8296C92.5924 22.8035 92.5821 22.7726 92.5809 22.7408C92.5809 21.8528 92.5809 20.6958 92.5648 19.4634L92.3525 19.6786V23.4081Z" fill="#B01120"/>
<g id="Vector_157" style="mix-blend-mode:multiply" opacity="0.2">
<path d="M5.09403 65.0543C4.51916 64.531 3.98058 63.9692 3.48201 63.3725C3.00378 62.7267 3.16767 61.3732 3.17573 61.3167V61.2145L3.23484 61.3006C3.23484 61.3006 4.12413 62.6003 4.46534 63.0308C4.80655 63.4613 5.13164 64.9547 5.14508 65.0166L5.16926 65.1377L5.09403 65.0543Z" fill="black"/>
</g>
<g id="Vector_158" style="mix-blend-mode:multiply" opacity="0.2">
<path fill-rule="evenodd" clip-rule="evenodd" d="M13.9412 69.0099C13.1352 69.0099 11.6092 68.5901 11.593 68.5874L11.55 68.574L11.5662 68.5336C11.6792 68.2544 11.8139 67.9845 11.9692 67.7264C12.1821 67.4475 12.4955 67.2631 12.8424 67.2124C13.0358 67.1721 13.2722 67.129 13.5248 67.0806C14.3066 66.9353 15.2792 66.7523 15.564 66.6447H15.615C15.6364 66.6448 15.6573 66.6506 15.6758 66.6614C15.6942 66.6723 15.7094 66.6879 15.7198 66.7065C15.8703 66.938 15.7064 67.8232 15.5935 68.0735C15.4385 68.3657 15.206 68.6095 14.9216 68.778C14.6372 68.9466 14.3119 69.0333 13.9815 69.0287L13.9412 69.0099Z" fill="black"/>
</g>
<path id="Vector_159" fill-rule="evenodd" clip-rule="evenodd" d="M12.8477 67.2446C12.5108 67.2954 12.2066 67.4748 11.9987 67.7451C11.8461 68.0034 11.7141 68.2733 11.6038 68.5524C11.6038 68.5524 13.197 68.9883 13.9842 68.9722C14.3056 68.978 14.6224 68.8952 14.9001 68.7329C15.1777 68.5706 15.4055 68.335 15.5586 68.0519C15.6983 67.7398 15.8756 66.5746 15.5774 66.685C15.2012 66.8114 13.6537 67.0805 12.8477 67.2446Z" fill="#E3E3E4"/>
<path id="Vector_160" d="M13.8175 67.3576C13.3495 67.2865 12.8713 67.3289 12.4231 67.4814L12.7159 68.1003L13.0169 68.6923C13.3688 68.59 14.4166 67.5137 13.8175 67.3576Z" fill="url(#paint84_linear_1001_7611)"/>
<path id="Vector_161" d="M15.1393 67.1505C14.4085 66.9676 13.4467 67.3012 13.4467 67.3012L13.8013 68.0547L14.164 68.7758C14.5939 68.6332 15.8674 67.3362 15.1393 67.1505Z" fill="url(#paint85_linear_1001_7611)"/>
<path id="Vector_162" d="M15.7384 66.954C15.4184 66.934 15.0975 66.9751 14.7927 67.0751L15.0211 67.5595L15.2575 68.0223C15.4052 67.9518 15.5382 67.8541 15.6498 67.7344C15.7112 67.4789 15.741 67.2168 15.7384 66.954Z" fill="url(#paint86_linear_1001_7611)"/>
<path id="Vector_163" d="M14.457 68.3614C14.457 68.7328 14.1884 68.8834 13.8767 68.6978C13.7079 68.5874 13.5674 68.4388 13.4666 68.264C13.3658 68.0891 13.3075 67.893 13.2964 67.6914C13.2964 67.3201 13.5651 67.1721 13.8767 67.355C14.0454 67.4656 14.1858 67.6142 14.2866 67.789C14.3874 67.9638 14.4457 68.1599 14.457 68.3614Z" fill="white"/>
<path id="Vector_164" d="M13.1808 68.3697C13.1808 68.663 12.9739 68.784 12.7214 68.6387C12.5858 68.5507 12.4731 68.4315 12.3928 68.2911C12.3124 68.1507 12.2666 67.9932 12.2593 67.8315C12.2593 67.5382 12.4662 67.4198 12.7214 67.5624C12.8565 67.6507 12.9686 67.77 13.0485 67.9104C13.1284 68.0508 13.1738 68.2082 13.1808 68.3697Z" fill="white"/>
<path id="Vector_165" d="M15.3973 67.7829C15.3973 68.0117 15.2361 68.1058 15.0373 67.9901C14.9331 67.9211 14.8463 67.8288 14.7838 67.7205C14.7213 67.6121 14.6848 67.4907 14.6772 67.3659C14.6772 67.1344 14.8384 67.043 15.0373 67.156C15.1418 67.2252 15.2288 67.318 15.2913 67.4268C15.3538 67.5356 15.3901 67.6576 15.3973 67.7829Z" fill="#F09041"/>
<g id="Group_13">
<path id="Vector_166" style="mix-blend-mode:multiply" opacity="0.4" d="M13.4255 70.2959C13.3491 70.265 13.285 70.2098 13.2433 70.1388C13.2015 70.0677 13.1843 69.9848 13.1944 69.903C13.1944 69.8142 13.2589 69.7604 13.3637 69.7362C13.0117 69.6958 12.7995 69.7362 12.7887 69.903C12.7786 69.9848 12.7958 70.0677 12.8376 70.1388C12.8793 70.2098 12.9434 70.265 13.0198 70.2959C13.9843 70.756 14.5888 70.7076 14.7231 70.6887C14.2712 70.6336 13.8322 70.5007 13.4255 70.2959Z" fill="url(#paint87_linear_1001_7611)"/>
</g>
<g id="Group_14">
<path id="Vector_167" style="mix-blend-mode:multiply" opacity="0.2" d="M13.8392 69.8173C13.6618 69.7823 13.5006 69.7527 13.3636 69.7366C13.2588 69.7608 13.1997 69.8146 13.1944 69.9034C13.1842 69.9852 13.2014 70.0681 13.2432 70.1392C13.285 70.2102 13.349 70.2654 13.4254 70.2963C13.8321 70.5011 14.2712 70.634 14.7231 70.6891H14.7526L14.7849 69.9115C14.4667 69.9285 14.1478 69.8968 13.8392 69.8173Z" fill="url(#paint88_linear_1001_7611)"/>
</g>
<g id="Group_15">
<path id="Vector_168" fill-rule="evenodd" clip-rule="evenodd" d="M12.8477 67.2446C12.5108 67.2954 12.2066 67.4748 11.9987 67.7451C11.8461 68.0034 11.7141 68.2733 11.6038 68.5524C11.6038 68.5524 13.197 68.9883 13.9842 68.9722C14.3056 68.978 14.6224 68.8952 14.9001 68.7329C15.1777 68.5706 15.4055 68.335 15.5586 68.0519C15.6983 67.7398 15.8756 66.5746 15.5774 66.685C15.2012 66.8114 13.6537 67.0805 12.8477 67.2446Z" fill="url(#paint89_linear_1001_7611)"/>
</g>
<path id="Vector_169" d="M5.12065 65.0247C5.12065 65.0247 4.79288 63.491 4.44898 63.055C4.10508 62.6191 3.21847 61.3248 3.21847 61.3248C3.21847 61.3248 3.04652 62.7106 3.51938 63.351C4.01381 63.9454 4.54886 64.5046 5.12065 65.0247Z" fill="#E3E3E4"/>
<path id="Vector_170" d="M3.86868 62.4604C3.86868 62.6649 3.72629 62.7483 3.54897 62.6461C3.45538 62.585 3.37743 62.5028 3.32142 62.4061C3.26542 62.3093 3.23292 62.2007 3.22656 62.0891C3.22656 61.8819 3.37164 61.7984 3.54897 61.9034C3.64221 61.9645 3.71974 62.0469 3.77529 62.1436C3.83084 62.2404 3.86284 62.3489 3.86868 62.4604Z" fill="#F09041"/>
<path id="Vector_171" d="M4.44633 63.0523C4.34423 62.9205 4.19646 62.716 4.03526 62.4926L4.00033 62.4684C3.73166 62.3097 3.5033 62.4388 3.5033 62.7563C3.51263 62.9293 3.56249 63.0976 3.64884 63.2477C3.73519 63.3977 3.85561 63.5253 4.00033 63.6201C4.269 63.7789 4.49737 63.6497 4.49737 63.3322C4.49582 63.2367 4.47857 63.1422 4.44633 63.0523Z" fill="white"/>
<path id="Vector_172" d="M4.93536 64.2847C4.88163 64.0856 4.81715 63.873 4.74729 63.6766C4.70177 63.6237 4.64829 63.5783 4.58878 63.542C4.38728 63.4263 4.22607 63.5205 4.22607 63.7519C4.23275 63.8784 4.26906 64.0016 4.33207 64.1115C4.39508 64.2213 4.48302 64.3148 4.58878 64.3843C4.75267 64.4758 4.90312 64.43 4.93536 64.2847Z" fill="white"/>
<g id="Group_16">
<path id="Vector_173" d="M5.12065 65.0247C5.12065 65.0247 4.79288 63.491 4.44898 63.055C4.10508 62.6191 3.21847 61.3248 3.21847 61.3248C3.21847 61.3248 3.04652 62.7106 3.51938 63.351C4.01381 63.9454 4.54886 64.5046 5.12065 65.0247Z" fill="url(#paint90_linear_1001_7611)"/>
</g>
<path id="Vector_174" opacity="0.2" d="M13.0922 49.6305C12.4877 49.3211 11.8644 48.9847 11.2464 48.6215C9.24219 47.4374 7.34052 46.0873 5.56136 44.5852C4.59415 46.7029 4.17234 49.1812 3.62694 51.7859C3.28236 53.5956 3.10251 55.4329 3.0896 57.2752C3.43618 59.2314 4.36041 60.1114 4.36041 60.114C4.71064 60.4757 5.08689 60.8112 5.48613 61.1177C8.20238 54.3287 11.4291 50.9652 13.0922 49.6305Z" fill="white"/>
<path id="Vector_175" d="M14.1642 70.3284C14.1642 70.5033 14.0406 70.5732 13.8955 70.4844C13.8169 70.4326 13.7517 70.3629 13.705 70.2811C13.6583 70.1993 13.6316 70.1076 13.6268 70.0135C13.6268 69.8386 13.7477 69.7687 13.8955 69.8548C13.974 69.9074 14.0391 69.9775 14.0857 70.0598C14.1324 70.142 14.1592 70.2339 14.1642 70.3284Z" fill="white"/>
</g>
</g>
</g>
<defs>
<filter id="filter0_d_1001_7611" x="-5" y="-1.2124" width="105" height="82.4315" filterUnits="userSpaceOnUse" color-interpolation-filters="sRGB">
<feFlood flood-opacity="0" result="BackgroundImageFix"/>
<feColorMatrix in="SourceAlpha" type="matrix" values="0 0 0 0 0 0 0 0 0 0 0 0 0 0 0 0 0 0 127 0" result="hardAlpha"/>
<feOffset dx="1" dy="4"/>
<feGaussianBlur stdDeviation="3"/>
<feComposite in2="hardAlpha" operator="out"/>
<feColorMatrix type="matrix" values="0 0 0 0 0 0 0 0 0 0 0 0 0 0 0 0 0 0 0.25 0"/>
<feBlend mode="normal" in2="BackgroundImageFix" result="effect1_dropShadow_1001_7611"/>
<feBlend mode="normal" in="SourceGraphic" in2="effect1_dropShadow_1001_7611" result="shape"/>
</filter>
<linearGradient id="paint0_linear_1001_7611" x1="29.1881" y1="64.0991" x2="28.2746" y2="59.9612" gradientUnits="userSpaceOnUse">
<stop stop-color="#D0D2D4"/>
<stop offset="1" stop-color="#86898B"/>
</linearGradient>
<linearGradient id="paint1_linear_1001_7611" x1="29.5401" y1="60.5338" x2="28.1634" y2="64.4368" gradientUnits="userSpaceOnUse">
<stop stop-color="#EDF0F2"/>
<stop offset="1" stop-color="#989C9E"/>
</linearGradient>
<linearGradient id="paint2_linear_1001_7611" x1="28.898" y1="61.3384" x2="28.898" y2="63.6579" gradientUnits="userSpaceOnUse">
<stop stop-color="#E9EAED"/>
<stop offset="1" stop-color="#656869"/>
</linearGradient>
<linearGradient id="paint3_linear_1001_7611" x1="29.4408" y1="61.3115" x2="28.5921" y2="63.8643" gradientUnits="userSpaceOnUse">
<stop stop-color="#EDF0F2"/>
<stop offset="1" stop-color="#989C9E"/>
</linearGradient>
<linearGradient id="paint4_linear_1001_7611" x1="29.1264" y1="61.8415" x2="28.9135" y2="63.4075" gradientUnits="userSpaceOnUse">
<stop stop-color="#A9ABAD"/>
<stop offset="1" stop-color="#5F6264"/>
</linearGradient>
<linearGradient id="paint5_linear_1001_7611" x1="29.1237" y1="61.8738" x2="28.9189" y2="63.3671" gradientUnits="userSpaceOnUse">
<stop stop-color="#EDF0F2"/>
<stop offset="1" stop-color="#989C9E"/>
</linearGradient>
<linearGradient id="paint6_linear_1001_7611" x1="29.1585" y1="62.3177" x2="28.7733" y2="63.041" gradientUnits="userSpaceOnUse">
<stop stop-color="#D0D2D4"/>
<stop offset="1" stop-color="#86898B"/>
</linearGradient>
<linearGradient id="paint7_linear_1001_7611" x1="29.6987" y1="62.1079" x2="29.9029" y2="62.1079" gradientUnits="userSpaceOnUse">
<stop stop-color="#9FA1A3"/>
<stop offset="1" stop-color="#55585A"/>
</linearGradient>
<linearGradient id="paint8_linear_1001_7611" x1="29.5481" y1="62.7131" x2="29.7523" y2="62.7131" gradientUnits="userSpaceOnUse">
<stop stop-color="#9FA1A3"/>
<stop offset="1" stop-color="#55585A"/>
</linearGradient>
<linearGradient id="paint9_linear_1001_7611" x1="29.1639" y1="63.2596" x2="29.3627" y2="63.2596" gradientUnits="userSpaceOnUse">
<stop stop-color="#9FA1A3"/>
<stop offset="1" stop-color="#55585A"/>
</linearGradient>
<linearGradient id="paint10_linear_1001_7611" x1="28.6912" y1="63.5285" x2="28.89" y2="63.5285" gradientUnits="userSpaceOnUse">
<stop stop-color="#9FA1A3"/>
<stop offset="1" stop-color="#55585A"/>
</linearGradient>
<linearGradient id="paint11_linear_1001_7611" x1="28.3098" y1="63.4264" x2="28.5059" y2="63.4264" gradientUnits="userSpaceOnUse">
<stop stop-color="#9FA1A3"/>
<stop offset="1" stop-color="#55585A"/>
</linearGradient>
<linearGradient id="paint12_linear_1001_7611" x1="28.1593" y1="62.9851" x2="28.3635" y2="62.9851" gradientUnits="userSpaceOnUse">
<stop stop-color="#9FA1A3"/>
<stop offset="1" stop-color="#55585A"/>
</linearGradient>
<linearGradient id="paint13_linear_1001_7611" x1="28.3096" y1="62.3823" x2="28.5111" y2="62.3823" gradientUnits="userSpaceOnUse">
<stop stop-color="#9FA1A3"/>
<stop offset="1" stop-color="#55585A"/>
</linearGradient>
<linearGradient id="paint14_linear_1001_7611" x1="28.6967" y1="61.8388" x2="28.8982" y2="61.8388" gradientUnits="userSpaceOnUse">
<stop stop-color="#9FA1A3"/>
<stop offset="1" stop-color="#55585A"/>
</linearGradient>
<linearGradient id="paint15_linear_1001_7611" x1="29.172" y1="61.5643" x2="29.3708" y2="61.5643" gradientUnits="userSpaceOnUse">
<stop stop-color="#9FA1A3"/>
<stop offset="1" stop-color="#55585A"/>
</linearGradient>
<linearGradient id="paint16_linear_1001_7611" x1="29.5535" y1="61.6695" x2="29.7523" y2="61.6695" gradientUnits="userSpaceOnUse">
<stop stop-color="#9FA1A3"/>
<stop offset="1" stop-color="#55585A"/>
</linearGradient>
<linearGradient id="paint17_linear_1001_7611" x1="28.5997" y1="60.8593" x2="29.0833" y2="60.8593" gradientUnits="userSpaceOnUse">
<stop stop-color="#858789"/>
<stop offset="1" stop-color="#3B3E40"/>
</linearGradient>
<linearGradient id="paint18_linear_1001_7611" x1="29.5105" y1="60.7193" x2="29.8974" y2="60.7193" gradientUnits="userSpaceOnUse">
<stop stop-color="#858789"/>
<stop offset="1" stop-color="#3B3E40"/>
</linearGradient>
<linearGradient id="paint19_linear_1001_7611" x1="30.0909" y1="61.1929" x2="30.3059" y2="61.1929" gradientUnits="userSpaceOnUse">
<stop stop-color="#858789"/>
<stop offset="1" stop-color="#3B3E40"/>
</linearGradient>
<linearGradient id="paint20_linear_1001_7611" x1="30.0911" y1="62.2371" x2="30.306" y2="62.2371" gradientUnits="userSpaceOnUse">
<stop stop-color="#858789"/>
<stop offset="1" stop-color="#3B3E40"/>
</linearGradient>
<linearGradient id="paint21_linear_1001_7611" x1="29.508" y1="63.3806" x2="29.9002" y2="63.3806" gradientUnits="userSpaceOnUse">
<stop stop-color="#858789"/>
<stop offset="1" stop-color="#3B3E40"/>
</linearGradient>
<linearGradient id="paint22_linear_1001_7611" x1="28.6051" y1="64.1717" x2="29.086" y2="64.1717" gradientUnits="userSpaceOnUse">
<stop stop-color="#858789"/>
<stop offset="1" stop-color="#3B3E40"/>
</linearGradient>
<linearGradient id="paint23_linear_1001_7611" x1="27.7883" y1="64.317" x2="28.1806" y2="64.317" gradientUnits="userSpaceOnUse">
<stop stop-color="#858789"/>
<stop offset="1" stop-color="#3B3E40"/>
</linearGradient>
<linearGradient id="paint24_linear_1001_7611" x1="27.3773" y1="63.8435" x2="27.6003" y2="63.8435" gradientUnits="userSpaceOnUse">
<stop stop-color="#858789"/>
<stop offset="1" stop-color="#3B3E40"/>
</linearGradient>
<linearGradient id="paint25_linear_1001_7611" x1="27.3748" y1="62.8022" x2="27.6004" y2="62.8022" gradientUnits="userSpaceOnUse">
<stop stop-color="#858789"/>
<stop offset="1" stop-color="#3B3E40"/>
</linearGradient>
<linearGradient id="paint26_linear_1001_7611" x1="27.7856" y1="61.6506" x2="28.1806" y2="61.6506" gradientUnits="userSpaceOnUse">
<stop stop-color="#858789"/>
<stop offset="1" stop-color="#3B3E40"/>
</linearGradient>
<linearGradient id="paint27_linear_1001_7611" x1="67.4736" y1="41.9615" x2="66.5575" y2="37.8235" gradientUnits="userSpaceOnUse">
<stop stop-color="#D0D2D4"/>
<stop offset="1" stop-color="#86898B"/>
</linearGradient>
<linearGradient id="paint28_linear_1001_7611" x1="67.823" y1="38.3962" x2="66.449" y2="42.2993" gradientUnits="userSpaceOnUse">
<stop stop-color="#EDF0F2"/>
<stop offset="1" stop-color="#989C9E"/>
</linearGradient>
<linearGradient id="paint29_linear_1001_7611" x1="67.1808" y1="39.2009" x2="67.1808" y2="41.5204" gradientUnits="userSpaceOnUse">
<stop stop-color="#E9EAED"/>
<stop offset="1" stop-color="#656869"/>
</linearGradient>
<linearGradient id="paint30_linear_1001_7611" x1="67.7262" y1="39.1738" x2="66.8748" y2="41.7266" gradientUnits="userSpaceOnUse">
<stop stop-color="#EDF0F2"/>
<stop offset="1" stop-color="#989C9E"/>
</linearGradient>
<linearGradient id="paint31_linear_1001_7611" x1="67.4118" y1="39.7041" x2="67.1962" y2="41.2701" gradientUnits="userSpaceOnUse">
<stop stop-color="#A9ABAD"/>
<stop offset="1" stop-color="#5F6264"/>
</linearGradient>
<linearGradient id="paint32_linear_1001_7611" x1="67.4065" y1="39.7362" x2="67.2017" y2="41.2295" gradientUnits="userSpaceOnUse">
<stop stop-color="#EDF0F2"/>
<stop offset="1" stop-color="#989C9E"/>
</linearGradient>
<linearGradient id="paint33_linear_1001_7611" x1="67.444" y1="40.1802" x2="67.0562" y2="40.9035" gradientUnits="userSpaceOnUse">
<stop stop-color="#D0D2D4"/>
<stop offset="1" stop-color="#86898B"/>
</linearGradient>
<linearGradient id="paint34_linear_1001_7611" x1="67.984" y1="39.9704" x2="68.1855" y2="39.9704" gradientUnits="userSpaceOnUse">
<stop stop-color="#9FA1A3"/>
<stop offset="1" stop-color="#55585A"/>
</linearGradient>
<linearGradient id="paint35_linear_1001_7611" x1="67.8337" y1="40.5731" x2="68.0352" y2="40.5731" gradientUnits="userSpaceOnUse">
<stop stop-color="#9FA1A3"/>
<stop offset="1" stop-color="#55585A"/>
</linearGradient>
<linearGradient id="paint36_linear_1001_7611" x1="67.4469" y1="41.122" x2="67.6457" y2="41.122" gradientUnits="userSpaceOnUse">
<stop stop-color="#9FA1A3"/>
<stop offset="1" stop-color="#55585A"/>
</linearGradient>
<linearGradient id="paint37_linear_1001_7611" x1="66.9741" y1="41.3911" x2="67.1729" y2="41.3911" gradientUnits="userSpaceOnUse">
<stop stop-color="#9FA1A3"/>
<stop offset="1" stop-color="#55585A"/>
</linearGradient>
<linearGradient id="paint38_linear_1001_7611" x1="66.5923" y1="41.2889" x2="66.7884" y2="41.2889" gradientUnits="userSpaceOnUse">
<stop stop-color="#9FA1A3"/>
<stop offset="1" stop-color="#55585A"/>
</linearGradient>
<linearGradient id="paint39_linear_1001_7611" x1="66.4418" y1="40.8476" x2="66.646" y2="40.8476" gradientUnits="userSpaceOnUse">
<stop stop-color="#9FA1A3"/>
<stop offset="1" stop-color="#55585A"/>
</linearGradient>
<linearGradient id="paint40_linear_1001_7611" x1="66.5925" y1="40.2446" x2="66.7967" y2="40.2446" gradientUnits="userSpaceOnUse">
<stop stop-color="#9FA1A3"/>
<stop offset="1" stop-color="#55585A"/>
</linearGradient>
<linearGradient id="paint41_linear_1001_7611" x1="66.9792" y1="39.7011" x2="67.1807" y2="39.7011" gradientUnits="userSpaceOnUse">
<stop stop-color="#9FA1A3"/>
<stop offset="1" stop-color="#55585A"/>
</linearGradient>
<linearGradient id="paint42_linear_1001_7611" x1="67.4548" y1="39.4267" x2="67.6536" y2="39.4267" gradientUnits="userSpaceOnUse">
<stop stop-color="#9FA1A3"/>
<stop offset="1" stop-color="#55585A"/>
</linearGradient>
<linearGradient id="paint43_linear_1001_7611" x1="67.8363" y1="39.5318" x2="68.0351" y2="39.5318" gradientUnits="userSpaceOnUse">
<stop stop-color="#9FA1A3"/>
<stop offset="1" stop-color="#55585A"/>
</linearGradient>
<linearGradient id="paint44_linear_1001_7611" x1="66.8853" y1="38.7218" x2="67.3662" y2="38.7218" gradientUnits="userSpaceOnUse">
<stop stop-color="#858789"/>
<stop offset="1" stop-color="#3B3E40"/>
</linearGradient>
<linearGradient id="paint45_linear_1001_7611" x1="67.7935" y1="38.5791" x2="68.183" y2="38.5791" gradientUnits="userSpaceOnUse">
<stop stop-color="#858789"/>
<stop offset="1" stop-color="#3B3E40"/>
</linearGradient>
<linearGradient id="paint46_linear_1001_7611" x1="68.3738" y1="39.0554" x2="68.5887" y2="39.0554" gradientUnits="userSpaceOnUse">
<stop stop-color="#858789"/>
<stop offset="1" stop-color="#3B3E40"/>
</linearGradient>
<linearGradient id="paint47_linear_1001_7611" x1="68.3738" y1="40.0995" x2="68.5887" y2="40.0995" gradientUnits="userSpaceOnUse">
<stop stop-color="#858789"/>
<stop offset="1" stop-color="#3B3E40"/>
</linearGradient>
<linearGradient id="paint48_linear_1001_7611" x1="67.7934" y1="41.2432" x2="68.1829" y2="41.2432" gradientUnits="userSpaceOnUse">
<stop stop-color="#858789"/>
<stop offset="1" stop-color="#3B3E40"/>
</linearGradient>
<linearGradient id="paint49_linear_1001_7611" x1="66.8879" y1="42.0342" x2="67.3689" y2="42.0342" gradientUnits="userSpaceOnUse">
<stop stop-color="#858789"/>
<stop offset="1" stop-color="#3B3E40"/>
</linearGradient>
<linearGradient id="paint50_linear_1001_7611" x1="66.0738" y1="42.1794" x2="66.4661" y2="42.1794" gradientUnits="userSpaceOnUse">
<stop stop-color="#858789"/>
<stop offset="1" stop-color="#3B3E40"/>
</linearGradient>
<linearGradient id="paint51_linear_1001_7611" x1="65.6602" y1="41.7059" x2="65.8831" y2="41.7059" gradientUnits="userSpaceOnUse">
<stop stop-color="#858789"/>
<stop offset="1" stop-color="#3B3E40"/>
</linearGradient>
<linearGradient id="paint52_linear_1001_7611" x1="65.6602" y1="40.6646" x2="65.8832" y2="40.6646" gradientUnits="userSpaceOnUse">
<stop stop-color="#858789"/>
<stop offset="1" stop-color="#3B3E40"/>
</linearGradient>
<linearGradient id="paint53_linear_1001_7611" x1="66.0687" y1="39.5129" x2="66.4664" y2="39.5129" gradientUnits="userSpaceOnUse">
<stop stop-color="#858789"/>
<stop offset="1" stop-color="#3B3E40"/>
</linearGradient>
<linearGradient id="paint54_linear_1001_7611" x1="75.1415" y1="37.6778" x2="74.228" y2="33.5398" gradientUnits="userSpaceOnUse">
<stop stop-color="#D0D2D4"/>
<stop offset="1" stop-color="#86898B"/>
</linearGradient>
<linearGradient id="paint55_linear_1001_7611" x1="75.4936" y1="34.1124" x2="74.1169" y2="38.0154" gradientUnits="userSpaceOnUse">
<stop stop-color="#EDF0F2"/>
<stop offset="1" stop-color="#989C9E"/>
</linearGradient>
<linearGradient id="paint56_linear_1001_7611" x1="74.8514" y1="34.9197" x2="74.8514" y2="37.2392" gradientUnits="userSpaceOnUse">
<stop stop-color="#E9EAED"/>
<stop offset="1" stop-color="#656869"/>
</linearGradient>
<linearGradient id="paint57_linear_1001_7611" x1="75.394" y1="34.8928" x2="74.5453" y2="37.443" gradientUnits="userSpaceOnUse">
<stop stop-color="#EDF0F2"/>
<stop offset="1" stop-color="#989C9E"/>
</linearGradient>
<linearGradient id="paint58_linear_1001_7611" x1="75.0823" y1="35.42" x2="74.8667" y2="36.986" gradientUnits="userSpaceOnUse">
<stop stop-color="#A9ABAD"/>
<stop offset="1" stop-color="#5F6264"/>
</linearGradient>
<linearGradient id="paint59_linear_1001_7611" x1="75.0768" y1="35.4524" x2="74.872" y2="36.9484" gradientUnits="userSpaceOnUse">
<stop stop-color="#EDF0F2"/>
<stop offset="1" stop-color="#989C9E"/>
</linearGradient>
<linearGradient id="paint60_linear_1001_7611" x1="75.1118" y1="35.8991" x2="74.7267" y2="36.6198" gradientUnits="userSpaceOnUse">
<stop stop-color="#D0D2D4"/>
<stop offset="1" stop-color="#86898B"/>
</linearGradient>
<linearGradient id="paint61_linear_1001_7611" x1="75.652" y1="35.6865" x2="75.8562" y2="35.6865" gradientUnits="userSpaceOnUse">
<stop stop-color="#9FA1A3"/>
<stop offset="1" stop-color="#55585A"/>
</linearGradient>
<linearGradient id="paint62_linear_1001_7611" x1="75.5015" y1="36.292" x2="75.7057" y2="36.292" gradientUnits="userSpaceOnUse">
<stop stop-color="#9FA1A3"/>
<stop offset="1" stop-color="#55585A"/>
</linearGradient>
<linearGradient id="paint63_linear_1001_7611" x1="75.1173" y1="36.8383" x2="75.3161" y2="36.8383" gradientUnits="userSpaceOnUse">
<stop stop-color="#9FA1A3"/>
<stop offset="1" stop-color="#55585A"/>
</linearGradient>
<linearGradient id="paint64_linear_1001_7611" x1="74.6444" y1="37.11" x2="74.8432" y2="37.11" gradientUnits="userSpaceOnUse">
<stop stop-color="#9FA1A3"/>
<stop offset="1" stop-color="#55585A"/>
</linearGradient>
<linearGradient id="paint65_linear_1001_7611" x1="74.2628" y1="37.005" x2="74.4589" y2="37.005" gradientUnits="userSpaceOnUse">
<stop stop-color="#9FA1A3"/>
<stop offset="1" stop-color="#55585A"/>
</linearGradient>
<linearGradient id="paint66_linear_1001_7611" x1="74.1125" y1="36.5637" x2="74.3167" y2="36.5637" gradientUnits="userSpaceOnUse">
<stop stop-color="#9FA1A3"/>
<stop offset="1" stop-color="#55585A"/>
</linearGradient>
<linearGradient id="paint67_linear_1001_7611" x1="74.2629" y1="35.9611" x2="74.4644" y2="35.9611" gradientUnits="userSpaceOnUse">
<stop stop-color="#9FA1A3"/>
<stop offset="1" stop-color="#55585A"/>
</linearGradient>
<linearGradient id="paint68_linear_1001_7611" x1="74.6497" y1="35.4175" x2="74.8512" y2="35.4175" gradientUnits="userSpaceOnUse">
<stop stop-color="#9FA1A3"/>
<stop offset="1" stop-color="#55585A"/>
</linearGradient>
<linearGradient id="paint69_linear_1001_7611" x1="75.1253" y1="35.1429" x2="75.3241" y2="35.1429" gradientUnits="userSpaceOnUse">
<stop stop-color="#9FA1A3"/>
<stop offset="1" stop-color="#55585A"/>
</linearGradient>
<linearGradient id="paint70_linear_1001_7611" x1="75.5068" y1="35.2478" x2="75.7057" y2="35.2478" gradientUnits="userSpaceOnUse">
<stop stop-color="#9FA1A3"/>
<stop offset="1" stop-color="#55585A"/>
</linearGradient>
<linearGradient id="paint71_linear_1001_7611" x1="74.553" y1="34.4379" x2="75.0366" y2="34.4379" gradientUnits="userSpaceOnUse">
<stop stop-color="#858789"/>
<stop offset="1" stop-color="#3B3E40"/>
</linearGradient>
<linearGradient id="paint72_linear_1001_7611" x1="75.4639" y1="34.298" x2="75.8508" y2="34.298" gradientUnits="userSpaceOnUse">
<stop stop-color="#858789"/>
<stop offset="1" stop-color="#3B3E40"/>
</linearGradient>
<linearGradient id="paint73_linear_1001_7611" x1="76.0442" y1="34.7742" x2="76.2592" y2="34.7742" gradientUnits="userSpaceOnUse">
<stop stop-color="#858789"/>
<stop offset="1" stop-color="#3B3E40"/>
</linearGradient>
<linearGradient id="paint74_linear_1001_7611" x1="76.0441" y1="35.8184" x2="76.259" y2="35.8184" gradientUnits="userSpaceOnUse">
<stop stop-color="#858789"/>
<stop offset="1" stop-color="#3B3E40"/>
</linearGradient>
<linearGradient id="paint75_linear_1001_7611" x1="75.4611" y1="36.9619" x2="75.8534" y2="36.9619" gradientUnits="userSpaceOnUse">
<stop stop-color="#858789"/>
<stop offset="1" stop-color="#3B3E40"/>
</linearGradient>
<linearGradient id="paint76_linear_1001_7611" x1="74.5586" y1="37.7503" x2="75.0395" y2="37.7503" gradientUnits="userSpaceOnUse">
<stop stop-color="#858789"/>
<stop offset="1" stop-color="#3B3E40"/>
</linearGradient>
<linearGradient id="paint77_linear_1001_7611" x1="73.7417" y1="37.8956" x2="74.1339" y2="37.8956" gradientUnits="userSpaceOnUse">
<stop stop-color="#858789"/>
<stop offset="1" stop-color="#3B3E40"/>
</linearGradient>
<linearGradient id="paint78_linear_1001_7611" x1="73.3306" y1="37.4222" x2="73.5536" y2="37.4222" gradientUnits="userSpaceOnUse">
<stop stop-color="#858789"/>
<stop offset="1" stop-color="#3B3E40"/>
</linearGradient>
<linearGradient id="paint79_linear_1001_7611" x1="73.3279" y1="36.3836" x2="73.5536" y2="36.3836" gradientUnits="userSpaceOnUse">
<stop stop-color="#858789"/>
<stop offset="1" stop-color="#3B3E40"/>
</linearGradient>
<linearGradient id="paint80_linear_1001_7611" x1="73.7389" y1="35.2291" x2="74.1338" y2="35.2291" gradientUnits="userSpaceOnUse">
<stop stop-color="#858789"/>
<stop offset="1" stop-color="#3B3E40"/>
</linearGradient>
<linearGradient id="paint81_linear_1001_7611" x1="73.7309" y1="34.0747" x2="75.2773" y2="38.1928" gradientUnits="userSpaceOnUse">
<stop stop-color="#D4D7D9"/>
<stop offset="1" stop-color="#BABDBF"/>
</linearGradient>
<linearGradient id="paint82_linear_1001_7611" x1="26.8668" y1="59.923" x2="29.6964" y2="63.9256" gradientUnits="userSpaceOnUse">
<stop stop-color="#D4D7D9"/>
<stop offset="1" stop-color="#BABDBF"/>
</linearGradient>
<linearGradient id="paint83_linear_1001_7611" x1="55.1096" y1="26.8256" x2="65.6846" y2="8.5339" gradientUnits="userSpaceOnUse">
<stop/>
<stop offset="0.09" stop-color="white"/>
<stop offset="0.95" stop-color="white"/>
<stop offset="1"/>
</linearGradient>
<linearGradient id="paint84_linear_1001_7611" x1="13.1915" y1="67.4303" x2="13.4178" y2="68.2939" gradientUnits="userSpaceOnUse">
<stop stop-color="#FAFFFF"/>
<stop offset="1" stop-color="#D4D7D9"/>
</linearGradient>
<linearGradient id="paint85_linear_1001_7611" x1="14.3789" y1="67.2393" x2="14.6538" y2="68.2885" gradientUnits="userSpaceOnUse">
<stop stop-color="#FAFFFF"/>
<stop offset="1" stop-color="#D4D7D9"/>
</linearGradient>
<linearGradient id="paint86_linear_1001_7611" x1="15.279" y1="67.067" x2="15.4569" y2="67.7423" gradientUnits="userSpaceOnUse">
<stop stop-color="#FAFFFF"/>
<stop offset="1" stop-color="#D4D7D9"/>
</linearGradient>
<linearGradient id="paint87_linear_1001_7611" x1="13.6726" y1="69.6554" x2="13.7373" y2="70.1855" gradientUnits="userSpaceOnUse">
<stop/>
<stop offset="0.09" stop-color="#0A0A0A"/>
<stop offset="0.23" stop-color="#262626"/>
<stop offset="0.43" stop-color="#545454"/>
<stop offset="0.65" stop-color="#939393"/>
<stop offset="0.91" stop-color="#E2E2E2"/>
<stop offset="1" stop-color="white"/>
</linearGradient>
<linearGradient id="paint88_linear_1001_7611" x1="13.1917" y1="70.2128" x2="14.7849" y2="70.2128" gradientUnits="userSpaceOnUse">
<stop/>
<stop offset="0.09" stop-color="#0A0A0A"/>
<stop offset="0.23" stop-color="#262626"/>
<stop offset="0.43" stop-color="#545454"/>
<stop offset="0.65" stop-color="#939393"/>
<stop offset="0.91" stop-color="#E2E2E2"/>
<stop offset="1" stop-color="white"/>
</linearGradient>
<linearGradient id="paint89_linear_1001_7611" x1="13.4441" y1="67.2904" x2="14.6182" y2="69.2746" gradientUnits="userSpaceOnUse">
<stop stop-color="white"/>
<stop offset="1" stop-color="white"/>
</linearGradient>
<linearGradient id="paint90_linear_1001_7611" x1="4.44092" y1="62.8452" x2="3.43964" y2="64.0518" gradientUnits="userSpaceOnUse">
<stop stop-color="white"/>
<stop offset="1" stop-color="white"/>
</linearGradient>
<clipPath id="clip0_1001_7611">
<rect width="93" height="76" fill="white"/>
</clipPath>
</defs>
</svg>
