<svg width="172" height="128" viewBox="0 0 172 128" fill="none" xmlns="http://www.w3.org/2000/svg">
<g id="Frame 10" clip-path="url(#clip0_801_53311)">
<g id="Group" filter="url(#filter0_d_801_53311)">
<g id="Layer 1">
<path id="Vector" d="M137.857 49.4671C137 49.2499 136.168 49.4963 134.529 50.4405C134.154 50.6578 133.821 50.8583 133.522 51.0631L135.186 54.1129L139.371 55.7841V52.5587C139.383 51.2887 138.718 49.676 137.857 49.4671Z" fill="#091215"/>
<path id="Vector_2" d="M126.271 56.1851C125.414 55.9678 124.569 56.2227 122.943 57.1669C122.71 57.3006 122.498 57.4301 122.294 57.5596L123.858 60.9019L127.789 62.3433V59.2851C127.785 58.0317 127.132 56.3898 126.271 56.1851Z" fill="#091215"/>
<path id="Vector_3" d="M66.9443 90.5775C66.1122 90.3686 65.3094 90.5775 63.8242 91.4381L66.2454 95.5492L68.471 96.7733V93.6566C68.4835 92.399 67.8137 90.7822 66.9443 90.5775Z" fill="#091215"/>
<path id="Vector_4" fill-rule="evenodd" clip-rule="evenodd" d="M66.5909 91.8476L63.2628 89.9717C62.5182 89.6458 61.5448 89.7545 60.4798 90.3895C58.146 91.7431 56.2532 95.0353 56.2532 97.7426C56.2532 99.1463 56.7649 100.116 57.5885 100.533L60.563 102.205C61.3368 102.727 62.4433 102.693 63.6747 101.983C66.0085 100.625 67.9013 97.3331 67.9013 94.6426C67.8847 93.2388 67.3896 92.2904 66.5909 91.8476Z" fill="#3B4447"/>
<path id="Vector_5" fill-rule="evenodd" clip-rule="evenodd" d="M63.6583 101.966C61.3245 103.32 59.4316 102.221 59.4316 99.5263C59.4316 96.8316 61.3245 93.5269 63.6583 92.1732C65.992 90.8196 67.8849 91.9184 67.8849 94.6256C67.8849 97.3329 65.992 100.608 63.6583 101.966Z" fill="#555E61"/>
<path id="Vector_6" fill-rule="evenodd" clip-rule="evenodd" d="M63.6582 101.591C61.4992 102.844 59.752 101.829 59.752 99.3387C59.752 96.8487 61.4992 93.7946 63.6582 92.5454C65.8173 91.2963 67.5645 92.3073 67.5645 94.8099C67.5645 97.3124 65.8131 100.341 63.6582 101.591Z" fill="#3B4447"/>
<path id="Vector_7" fill-rule="evenodd" clip-rule="evenodd" d="M63.658 99.9903C62.2685 100.792 61.1328 100.149 61.1328 98.5406C61.1803 97.6608 61.4337 96.8047 61.8724 96.0418C62.3112 95.2788 62.9229 94.6306 63.658 94.1496C65.0599 93.3349 66.1831 93.9867 66.1831 95.6119C66.1357 96.4899 65.8822 97.3443 65.4434 98.1052C65.0045 98.8661 64.3927 99.512 63.658 99.9903Z" fill="url(#paint0_linear_801_53311)"/>
<path id="Vector_8" fill-rule="evenodd" clip-rule="evenodd" d="M63.6579 99.727C62.4099 100.458 61.3616 99.8732 61.3616 98.4068C61.4041 97.6065 61.6343 96.8276 62.0333 96.1335C62.4324 95.4394 62.989 94.8499 63.6579 94.4128C64.9309 93.6733 65.9543 94.2665 65.9543 95.7455C65.9105 96.5438 65.6797 97.3205 65.2806 98.0123C64.8816 98.7042 64.3256 99.2917 63.6579 99.727Z" fill="url(#paint1_linear_801_53311)"/>
<path id="Vector_9" fill-rule="evenodd" clip-rule="evenodd" d="M63.7453 98.7163C62.9133 99.1842 62.2935 98.8082 62.2935 97.8807C62.3184 97.3722 62.4629 96.8768 62.7153 96.4353C62.9677 95.9937 63.3206 95.6186 63.7453 95.3405C64.5524 94.8726 65.193 95.2611 65.193 96.197C65.1663 96.7017 65.0213 97.193 64.7697 97.6308C64.5182 98.0686 64.1672 98.4405 63.7453 98.7163Z" fill="url(#paint2_linear_801_53311)"/>
<path id="Vector_10" fill-rule="evenodd" clip-rule="evenodd" d="M63.9492 98.8039C63.1421 99.2718 62.5015 98.8958 62.4973 97.9683C62.5232 97.4606 62.6682 96.9662 62.9205 96.5255C63.1728 96.0848 63.5253 95.7102 63.9492 95.4323C64.7604 94.9602 65.401 95.3488 65.401 96.2679C65.3772 96.7761 65.233 97.2712 64.9805 97.7122C64.728 98.1533 64.3745 98.5275 63.9492 98.8039Z" fill="url(#paint3_linear_801_53311)"/>
<path id="Vector_11" fill-rule="evenodd" clip-rule="evenodd" d="M63.9492 98.1896C63.4333 98.4862 63.0173 98.2481 63.0173 97.659C63.0364 97.3363 63.1306 97.0227 63.2925 96.7433C63.4544 96.4639 63.6793 96.2266 63.9492 96.0505C64.4692 95.7497 64.8852 95.992 64.8852 96.5894C64.8644 96.911 64.7689 97.2233 64.6064 97.5011C64.4438 97.779 64.2188 98.0148 63.9492 98.1896Z" fill="url(#paint4_linear_801_53311)"/>
<path id="Vector_12" fill-rule="evenodd" clip-rule="evenodd" d="M63.9493 98.1394C63.4584 98.4235 63.0591 98.1937 63.0591 97.6339C63.0762 97.3235 63.1657 97.0216 63.3204 96.7524C63.475 96.4831 63.6904 96.2542 63.9493 96.0839C64.4444 95.7998 64.8437 96.0296 64.8437 96.6019C64.8252 96.9107 64.7345 97.2107 64.5792 97.4778C64.4238 97.7449 64.208 97.9715 63.9493 98.1394Z" fill="url(#paint5_linear_801_53311)"/>
<path id="Vector_13" fill-rule="evenodd" clip-rule="evenodd" d="M63.9491 97.4541C63.7994 97.5418 63.6746 97.4541 63.6746 97.2786C63.68 97.1826 63.7076 97.0892 63.7553 97.0058C63.8029 96.9224 63.8693 96.8513 63.9491 96.7982C64.1155 96.7021 64.2403 96.7982 64.2403 96.9527C64.2363 97.0539 64.2077 97.1525 64.1569 97.2399C64.1062 97.3273 64.0348 97.4008 63.9491 97.4541Z" fill="url(#paint6_linear_801_53311)"/>
<path id="Vector_14" fill-rule="evenodd" clip-rule="evenodd" d="M65.1387 96.6054C65.0474 96.6596 64.9851 96.6054 64.9851 96.5178C64.9867 96.4646 65.0016 96.4127 65.0284 96.3668C65.0553 96.3209 65.0932 96.2825 65.1387 96.2552C65.2259 96.2052 65.3006 96.2343 65.3006 96.3386C65.2967 96.3928 65.2799 96.4452 65.2518 96.4916C65.2236 96.538 65.1849 96.577 65.1387 96.6054Z" fill="url(#paint7_linear_801_53311)"/>
<path id="Vector_15" fill-rule="evenodd" clip-rule="evenodd" d="M64.8224 97.5659C64.7436 97.5659 64.7311 97.4534 64.7851 97.3408C64.8391 97.2282 64.9345 97.149 64.9968 97.1699C65.0591 97.1907 65.084 97.2949 65.0342 97.4117C64.9843 97.5284 64.8847 97.5868 64.8224 97.5659Z" fill="url(#paint8_linear_801_53311)"/>
<path id="Vector_16" fill-rule="evenodd" clip-rule="evenodd" d="M64.1654 98.356C64.1564 98.3047 64.1609 98.252 64.1784 98.2031C64.1959 98.1541 64.2257 98.1105 64.265 98.0766C64.3397 97.9891 64.431 97.9974 64.4559 98.0766C64.4652 98.1259 64.4616 98.1767 64.4456 98.2241C64.4296 98.2716 64.4017 98.3141 64.3646 98.3476C64.2774 98.4352 64.1903 98.4435 64.1654 98.356Z" fill="url(#paint9_linear_801_53311)"/>
<path id="Vector_17" fill-rule="evenodd" clip-rule="evenodd" d="M63.4334 98.6652C63.4442 98.6148 63.4668 98.5678 63.4992 98.5279C63.5317 98.488 63.5732 98.4565 63.6202 98.4359C63.7115 98.415 63.7489 98.4942 63.7239 98.611C63.7131 98.6614 63.69 98.7083 63.6566 98.7476C63.6233 98.7869 63.5808 98.8173 63.533 98.8361C63.4458 98.8611 63.4084 98.7777 63.4334 98.6652Z" fill="url(#paint10_linear_801_53311)"/>
<path id="Vector_18" fill-rule="evenodd" clip-rule="evenodd" d="M62.8884 98.394C62.9672 98.2898 63.0544 98.2523 63.1042 98.2981C63.1274 98.3414 63.1375 98.3905 63.133 98.4395C63.1286 98.4884 63.1099 98.535 63.0793 98.5733C63.0046 98.6775 62.9174 98.6984 62.8635 98.6567C62.8402 98.6156 62.8301 98.5684 62.8345 98.5214C62.839 98.4744 62.8578 98.4299 62.8884 98.394Z" fill="url(#paint11_linear_801_53311)"/>
<path id="Vector_19" fill-rule="evenodd" clip-rule="evenodd" d="M62.784 97.6171C62.8711 97.5671 62.9376 97.6171 62.9376 97.7047C62.9356 97.7578 62.9206 97.8096 62.8938 97.8555C62.867 97.9013 62.8292 97.9397 62.784 97.9673C62.6968 98.0174 62.6221 97.9673 62.6221 97.8881C62.6254 97.8332 62.6418 97.7799 62.67 97.7327C62.6982 97.6855 62.7373 97.6459 62.784 97.6171Z" fill="url(#paint12_linear_801_53311)"/>
<path id="Vector_20" fill-rule="evenodd" clip-rule="evenodd" d="M63.079 96.6605C63.1538 96.6605 63.1662 96.7814 63.1164 96.8856C63.0666 96.9898 62.967 97.0732 62.9047 97.0524C62.8424 97.0315 62.8134 96.9273 62.8632 96.8272C62.913 96.7272 63.0168 96.6355 63.079 96.6605Z" fill="url(#paint13_linear_801_53311)"/>
<path id="Vector_21" fill-rule="evenodd" clip-rule="evenodd" d="M63.7366 95.8665C63.7452 95.92 63.7402 95.9748 63.7221 96.0259C63.7039 96.0769 63.6732 96.1225 63.6328 96.1584C63.5581 96.2334 63.4709 96.2251 63.446 96.1584C63.4332 96.107 63.4345 96.0531 63.4498 96.0024C63.4652 95.9517 63.494 95.9062 63.5332 95.8707C63.6162 95.7873 63.7117 95.7957 63.7366 95.8665Z" fill="url(#paint14_linear_801_53311)"/>
<path id="Vector_22" fill-rule="evenodd" clip-rule="evenodd" d="M64.4683 95.5613C64.4568 95.6115 64.4334 95.6581 64.4002 95.6973C64.367 95.7365 64.3248 95.767 64.2774 95.7864C64.1902 95.7864 64.1528 95.7281 64.1777 95.6113C64.1885 95.5615 64.2111 95.515 64.2437 95.4758C64.2762 95.4366 64.3177 95.4059 64.3645 95.3862C64.4476 95.3654 64.4932 95.4446 64.4683 95.5613Z" fill="url(#paint15_linear_801_53311)"/>
<path id="Vector_23" fill-rule="evenodd" clip-rule="evenodd" d="M65.0093 95.833C64.9346 95.9331 64.835 95.979 64.7976 95.9248C64.7602 95.8706 64.7561 95.758 64.8225 95.6621C64.8889 95.5662 64.9844 95.5245 65.0342 95.5704C65.0575 95.6114 65.0676 95.6587 65.0632 95.7057C65.0587 95.7527 65.0399 95.7972 65.0093 95.833Z" fill="url(#paint16_linear_801_53311)"/>
<path id="Vector_24" fill-rule="evenodd" clip-rule="evenodd" d="M63.6579 94.4129C63.5277 94.4896 63.4026 94.5747 63.2834 94.6677C63.331 94.7188 63.3962 94.7498 63.4657 94.7545C63.5352 94.7591 63.6039 94.7371 63.6579 94.6928C63.8271 94.5823 63.9579 94.4217 64.0323 94.2332C63.9032 94.2836 63.778 94.3437 63.6579 94.4129Z" fill="url(#paint17_linear_801_53311)"/>
<path id="Vector_25" fill-rule="evenodd" clip-rule="evenodd" d="M64.8642 94.4419C64.9433 94.4454 65.0222 94.4302 65.0944 94.3975C65.1667 94.3649 65.2303 94.3157 65.2802 94.2539C65.0986 94.1477 64.8912 94.0942 64.6812 94.0993C64.6853 94.2706 64.7352 94.4085 64.8642 94.4419Z" fill="url(#paint18_linear_801_53311)"/>
<path id="Vector_26" fill-rule="evenodd" clip-rule="evenodd" d="M65.6963 94.6634C65.6013 94.8228 65.5715 95.013 65.6131 95.194C65.6224 95.2254 65.638 95.2546 65.6591 95.2797C65.6802 95.3047 65.7061 95.3252 65.7354 95.3397C65.7647 95.3542 65.7967 95.3625 65.8293 95.364C65.862 95.3655 65.8946 95.3603 65.9251 95.3486C65.8959 95.1069 65.8181 94.8738 65.6963 94.6634Z" fill="url(#paint19_linear_801_53311)"/>
<path id="Vector_27" fill-rule="evenodd" clip-rule="evenodd" d="M65.6134 96.673C65.5892 96.7441 65.5846 96.8204 65.5999 96.894C65.6153 96.9675 65.6501 97.0355 65.7008 97.0908C65.8083 96.7863 65.8836 96.4712 65.9254 96.1508C65.768 96.2865 65.6586 96.4697 65.6134 96.673Z" fill="url(#paint20_linear_801_53311)"/>
<path id="Vector_28" fill-rule="evenodd" clip-rule="evenodd" d="M64.8644 98.2899C64.7467 98.4458 64.6851 98.6373 64.6897 98.833C64.9134 98.5727 65.1139 98.2931 65.2887 97.9974C65.2019 98.0145 65.1195 98.0493 65.0465 98.0996C64.9735 98.1499 64.9116 98.2146 64.8644 98.2899Z" fill="url(#paint21_linear_801_53311)"/>
<path id="Vector_29" fill-rule="evenodd" clip-rule="evenodd" d="M64.0322 99.4596C63.9698 99.351 63.8159 99.3384 63.6662 99.4262C63.4935 99.5375 63.3608 99.7015 63.2876 99.8941C63.4121 99.8457 63.5331 99.7885 63.6495 99.7228C63.7802 99.6432 63.9065 99.5567 64.0281 99.4638L64.0322 99.4596Z" fill="url(#paint22_linear_801_53311)"/>
<path id="Vector_30" fill-rule="evenodd" clip-rule="evenodd" d="M62.6344 100.036C62.6344 99.8564 62.5845 99.7311 62.4597 99.6893C62.3806 99.6862 62.3019 99.7015 62.2297 99.7342C62.1575 99.7668 62.0938 99.8158 62.0437 99.8773C62.2245 99.9786 62.4275 100.033 62.6344 100.036Z" fill="url(#paint23_linear_801_53311)"/>
<path id="Vector_31" fill-rule="evenodd" clip-rule="evenodd" d="M61.3989 98.7829C61.4268 99.0293 61.5062 99.2671 61.6319 99.4806C61.7331 99.3159 61.7659 99.1179 61.7234 98.9291C61.7134 98.8969 61.6967 98.8671 61.6744 98.8418C61.6521 98.8165 61.6247 98.7963 61.594 98.7825C61.5633 98.7686 61.5301 98.7615 61.4964 98.7616C61.4628 98.7617 61.4296 98.7689 61.3989 98.7829Z" fill="url(#paint24_linear_801_53311)"/>
<path id="Vector_32" fill-rule="evenodd" clip-rule="evenodd" d="M61.7154 97.4712C61.7449 97.3958 61.752 97.3134 61.7357 97.2341C61.7195 97.1547 61.6806 97.0818 61.6238 97.0242C61.513 97.3383 61.4349 97.6631 61.3909 97.9935C61.5488 97.8561 61.6619 97.6741 61.7154 97.4712Z" fill="url(#paint25_linear_801_53311)"/>
<path id="Vector_33" fill-rule="evenodd" clip-rule="evenodd" d="M62.0229 96.1552C62.1095 96.1332 62.1908 96.0942 62.2623 96.0404C62.3337 95.9866 62.3937 95.9191 62.439 95.8418C62.5571 95.6812 62.6185 95.4857 62.6137 95.2862C62.3892 95.5559 62.1914 95.847 62.0229 96.1552Z" fill="url(#paint26_linear_801_53311)"/>
<path id="Vector_34" fill-rule="evenodd" clip-rule="evenodd" d="M125.867 57.4761L122.539 55.6002C121.799 55.2743 120.825 55.3829 119.756 56.018C117.422 57.3716 115.53 60.6638 115.53 63.3711C115.53 64.7748 116.045 65.7441 116.865 66.1619L119.844 67.833C120.613 68.3553 121.72 68.3218 122.951 67.6116C125.285 66.258 127.178 62.9616 127.178 60.2711C127.161 58.8673 126.666 57.9022 125.867 57.4761Z" fill="#3B4447"/>
<path id="Vector_35" fill-rule="evenodd" clip-rule="evenodd" d="M122.934 67.5951C120.601 68.9487 118.708 67.8499 118.708 65.1552C118.708 62.4604 120.601 59.1557 122.934 57.8021C125.268 56.4485 127.161 57.5472 127.161 60.2545C127.161 62.9618 125.268 66.2414 122.934 67.5951Z" fill="#555E61"/>
<path id="Vector_36" fill-rule="evenodd" clip-rule="evenodd" d="M122.935 67.2229C120.78 68.4763 119.028 67.4611 119.028 64.9711C119.028 62.481 120.78 59.4312 122.935 58.1778C125.09 56.9245 126.841 57.9439 126.841 60.4422C126.841 62.9406 125.094 65.9696 122.935 67.2229Z" fill="#3B4447"/>
<path id="Vector_37" fill-rule="evenodd" clip-rule="evenodd" d="M122.935 65.6186C121.545 66.4208 120.409 65.7774 120.409 64.1689C120.457 63.2891 120.71 62.433 121.149 61.6701C121.588 60.9071 122.2 60.2589 122.935 59.7779C124.337 58.9423 125.46 59.615 125.46 61.2402C125.412 62.1182 125.159 62.9726 124.72 63.7335C124.281 64.4944 123.669 65.1404 122.935 65.6186Z" fill="url(#paint27_linear_801_53311)"/>
<path id="Vector_38" fill-rule="evenodd" clip-rule="evenodd" d="M122.935 65.3555C121.687 66.0866 120.638 65.5017 120.638 64.0353C120.681 63.2351 120.912 62.4565 121.311 61.7625C121.71 61.0685 122.266 60.4788 122.935 60.0412C124.212 59.3017 125.231 59.895 125.231 61.374C125.188 62.1725 124.958 62.9496 124.559 63.6416C124.159 64.3336 123.603 64.9209 122.935 65.3555Z" fill="url(#paint28_linear_801_53311)"/>
<path id="Vector_39" fill-rule="evenodd" clip-rule="evenodd" d="M123.022 64.3405C122.215 64.8126 121.57 64.4366 121.57 63.505C121.594 62.9952 121.739 62.4984 121.991 62.0554C122.243 61.6124 122.597 61.2358 123.022 60.9565C123.829 60.4885 124.474 60.8771 124.474 61.8129C124.449 62.3197 124.304 62.8131 124.051 63.2526C123.799 63.6921 123.446 64.065 123.022 64.3405Z" fill="url(#paint29_linear_801_53311)"/>
<path id="Vector_40" fill-rule="evenodd" clip-rule="evenodd" d="M123.23 64.4321C122.423 64.9 121.778 64.524 121.778 63.5965C121.803 63.0886 121.948 62.5938 122.2 62.1529C122.452 61.7121 122.805 61.3377 123.23 61.0605C124.037 60.5884 124.682 60.977 124.682 61.8961C124.658 62.4043 124.514 62.8994 124.261 63.3404C124.009 63.7815 123.655 64.1557 123.23 64.4321Z" fill="url(#paint30_linear_801_53311)"/>
<path id="Vector_41" fill-rule="evenodd" clip-rule="evenodd" d="M123.23 63.8183C122.71 64.1149 122.294 63.8768 122.294 63.2877C122.311 62.9624 122.404 62.6457 122.567 62.3639C122.73 62.082 122.957 61.8431 123.23 61.6667C123.746 61.3659 124.162 61.6082 124.162 62.2056C124.141 62.5286 124.046 62.8423 123.885 63.1222C123.723 63.402 123.499 63.6403 123.23 63.8183Z" fill="url(#paint31_linear_801_53311)"/>
<path id="Vector_42" fill-rule="evenodd" clip-rule="evenodd" d="M123.23 63.768C122.735 64.0521 122.335 63.8223 122.335 63.2625C122.352 62.9516 122.442 62.6492 122.598 62.3798C122.753 62.1105 122.97 61.8818 123.23 61.7125C123.721 61.4284 124.12 61.6582 124.12 62.2305C124.101 62.5388 124.011 62.8383 123.857 63.1053C123.702 63.3722 123.487 63.5992 123.23 63.768Z" fill="url(#paint32_linear_801_53311)"/>
<path id="Vector_43" fill-rule="evenodd" clip-rule="evenodd" d="M123.23 63.0828C123.076 63.1705 122.951 63.0828 122.951 62.9073C122.956 62.8109 122.985 62.7171 123.033 62.6336C123.081 62.5501 123.149 62.4793 123.23 62.4269C123.392 62.3308 123.521 62.406 123.521 62.5814C123.516 62.6823 123.487 62.7805 123.436 62.8677C123.385 62.955 123.315 63.0287 123.23 63.0828Z" fill="url(#paint33_linear_801_53311)"/>
<path id="Vector_44" fill-rule="evenodd" clip-rule="evenodd" d="M124.415 62.234C124.328 62.2882 124.266 62.234 124.266 62.1465C124.267 62.0937 124.282 62.0422 124.308 61.9963C124.334 61.9505 124.371 61.9119 124.415 61.8838C124.502 61.8338 124.577 61.863 124.577 61.963C124.574 62.0179 124.557 62.0712 124.529 62.1184C124.501 62.1656 124.462 62.2053 124.415 62.234Z" fill="url(#paint34_linear_801_53311)"/>
<path id="Vector_45" fill-rule="evenodd" clip-rule="evenodd" d="M124.099 63.1948C124.025 63.1948 124.012 63.0823 124.062 62.9655C124.112 62.8488 124.211 62.7779 124.274 62.7988C124.336 62.8196 124.365 62.9238 124.315 63.0406C124.265 63.1573 124.162 63.2157 124.099 63.1948Z" fill="url(#paint35_linear_801_53311)"/>
<path id="Vector_46" fill-rule="evenodd" clip-rule="evenodd" d="M123.442 63.9845C123.433 63.9332 123.438 63.8805 123.455 63.8316C123.473 63.7826 123.503 63.739 123.542 63.7051C123.621 63.6176 123.708 63.6259 123.733 63.7051C123.742 63.754 123.738 63.8044 123.723 63.8517C123.708 63.899 123.681 63.9417 123.646 63.9761C123.558 64.0637 123.467 64.072 123.442 63.9845Z" fill="url(#paint36_linear_801_53311)"/>
<path id="Vector_47" fill-rule="evenodd" clip-rule="evenodd" d="M122.71 64.298C122.723 64.2482 122.746 64.2021 122.779 64.163C122.812 64.124 122.854 64.0931 122.901 64.0729C122.988 64.052 123.026 64.1312 123.001 64.248C122.991 64.2981 122.968 64.3449 122.936 64.3842C122.903 64.4235 122.861 64.4541 122.814 64.4731C122.723 64.4898 122.689 64.4064 122.71 64.298Z" fill="url(#paint37_linear_801_53311)"/>
<path id="Vector_48" fill-rule="evenodd" clip-rule="evenodd" d="M122.169 64.0228C122.243 63.9185 122.331 63.881 122.38 63.9269C122.405 63.9696 122.416 64.0191 122.412 64.0685C122.407 64.1178 122.388 64.1645 122.355 64.2021C122.281 64.3063 122.194 64.3271 122.144 64.2854C122.12 64.2444 122.11 64.1972 122.115 64.1501C122.119 64.1031 122.138 64.0587 122.169 64.0228Z" fill="url(#paint38_linear_801_53311)"/>
<path id="Vector_49" fill-rule="evenodd" clip-rule="evenodd" d="M122.044 63.2459C122.131 63.1958 122.193 63.2459 122.193 63.3334C122.192 63.3868 122.178 63.4391 122.151 63.4851C122.124 63.5311 122.085 63.5694 122.039 63.5961C121.952 63.6461 121.877 63.6169 121.877 63.5169C121.881 63.4615 121.898 63.4077 121.927 63.3605C121.956 63.3132 121.996 63.2738 122.044 63.2459Z" fill="url(#paint39_linear_801_53311)"/>
<path id="Vector_50" fill-rule="evenodd" clip-rule="evenodd" d="M122.356 62.2887C122.435 62.2887 122.447 62.4096 122.393 62.5138C122.339 62.6181 122.244 62.7015 122.182 62.6806C122.119 62.6598 122.094 62.5555 122.144 62.4555C122.194 62.3554 122.294 62.2637 122.356 62.2887Z" fill="url(#paint40_linear_801_53311)"/>
<path id="Vector_51" fill-rule="evenodd" clip-rule="evenodd" d="M123.013 61.4949C123.021 61.548 123.017 61.6024 122.999 61.6533C122.982 61.7041 122.952 61.75 122.913 61.7867C122.839 61.8618 122.747 61.8535 122.722 61.7867C122.71 61.735 122.711 61.6807 122.727 61.6299C122.744 61.5791 122.773 61.5338 122.814 61.4991C122.901 61.4157 122.988 61.424 123.013 61.4949Z" fill="url(#paint41_linear_801_53311)"/>
<path id="Vector_52" fill-rule="evenodd" clip-rule="evenodd" d="M123.745 61.1898C123.734 61.2396 123.712 61.2861 123.679 61.3253C123.647 61.3645 123.605 61.3953 123.558 61.4149C123.467 61.4358 123.43 61.3565 123.455 61.2398C123.466 61.1897 123.489 61.143 123.523 61.1038C123.556 61.0647 123.598 61.0341 123.646 61.0147C123.733 60.9938 123.77 61.0731 123.745 61.1898Z" fill="url(#paint42_linear_801_53311)"/>
<path id="Vector_53" fill-rule="evenodd" clip-rule="evenodd" d="M124.29 61.4613C124.211 61.5613 124.112 61.6072 124.074 61.553C124.037 61.4988 124.037 61.3862 124.099 61.2903C124.162 61.1944 124.265 61.1528 124.315 61.1986C124.338 61.2396 124.348 61.2869 124.344 61.3339C124.34 61.3809 124.321 61.4254 124.29 61.4613Z" fill="url(#paint43_linear_801_53311)"/>
<path id="Vector_54" fill-rule="evenodd" clip-rule="evenodd" d="M122.934 60.0413C122.806 60.1181 122.682 60.2032 122.564 60.2962C122.611 60.347 122.676 60.3779 122.744 60.3826C122.813 60.3872 122.881 60.3653 122.934 60.3212C123.104 60.2107 123.235 60.0501 123.309 59.8617C123.18 59.9129 123.055 59.9729 122.934 60.0413Z" fill="url(#paint44_linear_801_53311)"/>
<path id="Vector_55" fill-rule="evenodd" clip-rule="evenodd" d="M124.145 60.0705C124.224 60.0733 124.303 60.0578 124.375 60.0252C124.447 59.9926 124.511 59.9438 124.561 59.8825C124.378 59.7768 124.169 59.7233 123.958 59.7279C123.962 59.8992 124.012 60.0371 124.145 60.0705Z" fill="url(#paint45_linear_801_53311)"/>
<path id="Vector_56" fill-rule="evenodd" clip-rule="evenodd" d="M124.973 60.2919C124.88 60.452 124.85 60.6414 124.89 60.8224C124.9 60.8535 124.916 60.8823 124.937 60.9071C124.958 60.9318 124.984 60.952 125.013 60.9665C125.042 60.9809 125.074 60.9893 125.106 60.9911C125.139 60.9929 125.171 60.9881 125.202 60.977C125.173 60.7354 125.095 60.5023 124.973 60.2919Z" fill="url(#paint46_linear_801_53311)"/>
<path id="Vector_57" fill-rule="evenodd" clip-rule="evenodd" d="M124.89 62.3015C124.866 62.3726 124.861 62.4489 124.876 62.5225C124.892 62.596 124.927 62.664 124.977 62.7193C125.08 62.4187 125.15 62.1077 125.185 61.7918C125.036 61.9266 124.933 62.1048 124.89 62.3015Z" fill="url(#paint47_linear_801_53311)"/>
<path id="Vector_58" fill-rule="evenodd" clip-rule="evenodd" d="M124.145 63.9185C124.027 64.0744 123.966 64.2659 123.97 64.4616C124.195 64.2023 124.396 63.9226 124.569 63.626C124.395 63.6646 124.243 63.7694 124.145 63.9185Z" fill="url(#paint48_linear_801_53311)"/>
<path id="Vector_59" fill-rule="evenodd" clip-rule="evenodd" d="M123.313 65.0881C123.251 64.9794 123.101 64.9669 122.947 65.0547C122.774 65.166 122.642 65.33 122.568 65.5226C122.694 65.4758 122.815 65.4185 122.93 65.3513C123.062 65.2727 123.188 65.1862 123.309 65.0922L123.313 65.0881Z" fill="url(#paint49_linear_801_53311)"/>
<path id="Vector_60" fill-rule="evenodd" clip-rule="evenodd" d="M121.911 65.6646C121.911 65.4849 121.861 65.3596 121.736 65.3178C121.657 65.315 121.579 65.3305 121.507 65.3631C121.434 65.3957 121.371 65.4446 121.32 65.5058C121.5 65.609 121.704 65.6637 121.911 65.6646Z" fill="url(#paint50_linear_801_53311)"/>
<path id="Vector_61" fill-rule="evenodd" clip-rule="evenodd" d="M120.676 64.4114C120.703 64.6586 120.784 64.8967 120.913 65.1091C121.011 64.9432 121.042 64.7459 121 64.5576C120.99 64.5253 120.973 64.4956 120.951 64.4703C120.929 64.445 120.901 64.4248 120.871 64.4109C120.84 64.3971 120.807 64.39 120.773 64.3901C120.739 64.3901 120.706 64.3974 120.676 64.4114Z" fill="url(#paint51_linear_801_53311)"/>
<path id="Vector_62" fill-rule="evenodd" clip-rule="evenodd" d="M120.992 63.0995C121.022 63.0244 121.03 62.9423 121.014 62.8629C120.999 62.7836 120.961 62.7104 120.905 62.6524C120.79 62.9654 120.712 63.2906 120.672 63.6217C120.827 63.4829 120.938 63.3013 120.992 63.0995Z" fill="url(#paint52_linear_801_53311)"/>
<path id="Vector_63" fill-rule="evenodd" clip-rule="evenodd" d="M121.3 61.7919C121.387 61.7715 121.469 61.7331 121.541 61.6792C121.613 61.6252 121.672 61.5569 121.716 61.4785C121.834 61.3197 121.896 61.1254 121.891 60.927C121.668 61.197 121.471 61.4864 121.3 61.7919Z" fill="url(#paint53_linear_801_53311)"/>
<path id="Vector_64" fill-rule="evenodd" clip-rule="evenodd" d="M137.744 50.825L134.416 48.945C133.672 48.6233 132.698 48.7277 131.633 49.3627C129.299 50.7164 127.406 54.0086 127.406 56.7158C127.406 58.1196 127.918 59.0889 128.742 59.5066L131.716 61.1778C132.49 61.7 133.597 61.6666 134.828 60.9564C137.162 59.6027 139.055 56.3064 139.055 53.6158C139.038 52.2162 138.543 51.2553 137.744 50.825Z" fill="#3B4447"/>
<path id="Vector_65" fill-rule="evenodd" clip-rule="evenodd" d="M134.811 60.9564C132.478 62.31 130.585 61.2112 130.585 58.5165C130.585 55.8217 132.478 52.517 134.811 51.1634C137.145 49.8098 139.038 50.9085 139.038 53.6158C139.038 56.3231 137.145 59.5902 134.811 60.9564Z" fill="#555E61"/>
<path id="Vector_66" fill-rule="evenodd" clip-rule="evenodd" d="M134.811 60.5719C132.652 61.8252 130.905 60.8058 130.905 58.32C130.905 55.8341 132.652 52.7759 134.811 51.5226C136.97 50.2692 138.718 51.2886 138.718 53.787C138.718 56.2853 136.966 59.3185 134.811 60.5719Z" fill="#3B4447"/>
<path id="Vector_67" fill-rule="evenodd" clip-rule="evenodd" d="M134.812 58.9676C133.422 59.7697 132.286 59.1263 132.286 57.5179C132.334 56.6381 132.587 55.782 133.026 55.0191C133.465 54.2561 134.076 53.6079 134.812 53.1269C136.213 52.3164 137.337 52.9681 137.337 54.5892C137.289 55.4672 137.036 56.3216 136.597 57.0825C136.158 57.8434 135.546 58.4894 134.812 58.9676Z" fill="url(#paint54_linear_801_53311)"/>
<path id="Vector_68" fill-rule="evenodd" clip-rule="evenodd" d="M134.812 58.7044C133.564 59.4355 132.515 58.8506 132.515 57.3842C132.558 56.5839 132.789 55.8052 133.188 55.1111C133.587 54.4171 134.143 53.8275 134.812 53.3901C136.085 52.6506 137.108 53.2439 137.108 54.7229C137.064 55.5212 136.833 56.2978 136.434 56.9897C136.035 57.6815 135.479 58.269 134.812 58.7044Z" fill="url(#paint55_linear_801_53311)"/>
<path id="Vector_69" fill-rule="evenodd" clip-rule="evenodd" d="M134.899 57.6933C134.067 58.1612 133.447 57.7852 133.447 56.8577C133.472 56.3498 133.616 55.8551 133.869 55.4142C134.121 54.9733 134.474 54.5989 134.899 54.3218C135.706 53.8497 136.351 54.2382 136.351 55.1573C136.327 55.6655 136.183 56.1607 135.93 56.6017C135.678 57.0427 135.324 57.4169 134.899 57.6933Z" fill="url(#paint56_linear_801_53311)"/>
<path id="Vector_70" fill-rule="evenodd" clip-rule="evenodd" d="M135.103 57.7813C134.296 58.2492 133.651 57.8774 133.651 56.9457C133.676 56.4373 133.821 55.9421 134.073 55.5006C134.325 55.0591 134.678 54.6839 135.103 54.4056C135.935 53.9377 136.555 54.322 136.555 55.2621C136.529 55.7676 136.384 56.2598 136.132 56.6978C135.879 57.1359 135.527 57.5073 135.103 57.7813Z" fill="url(#paint57_linear_801_53311)"/>
<path id="Vector_71" fill-rule="evenodd" clip-rule="evenodd" d="M135.103 57.1668C134.587 57.4676 134.171 57.2253 134.171 56.6404C134.189 56.3153 134.283 55.999 134.445 55.7168C134.607 55.4347 134.832 55.1944 135.103 55.0152C135.623 54.7144 136.039 54.9567 136.039 55.5541C136.02 55.878 135.926 56.1928 135.763 56.473C135.6 56.7533 135.374 56.991 135.103 57.1668Z" fill="url(#paint58_linear_801_53311)"/>
<path id="Vector_72" fill-rule="evenodd" clip-rule="evenodd" d="M135.102 57.1167C134.612 57.405 134.212 57.1752 134.212 56.6154C134.229 56.3049 134.318 56.0027 134.473 55.7334C134.627 55.4641 134.843 55.2352 135.102 55.0654C135.597 54.7771 135.997 55.0069 135.997 55.5793C135.978 55.888 135.888 56.1881 135.732 56.4552C135.577 56.7222 135.361 56.9489 135.102 57.1167Z" fill="url(#paint59_linear_801_53311)"/>
<path id="Vector_73" fill-rule="evenodd" clip-rule="evenodd" d="M135.103 56.4359C134.953 56.5236 134.828 56.4359 134.828 56.2604C134.834 56.1638 134.861 56.0698 134.909 55.9857C134.956 55.9017 135.023 55.8298 135.103 55.7758C135.269 55.6797 135.394 55.7758 135.394 55.9304C135.39 56.032 135.361 56.131 135.31 56.219C135.259 56.307 135.188 56.3814 135.103 56.4359Z" fill="url(#paint60_linear_801_53311)"/>
<path id="Vector_74" fill-rule="evenodd" clip-rule="evenodd" d="M136.288 55.5827C136.201 55.6369 136.138 55.5827 136.138 55.4952C136.141 55.4426 136.155 55.3913 136.181 55.3456C136.207 55.2999 136.244 55.2611 136.288 55.2325C136.379 55.1825 136.454 55.2117 136.454 55.3159C136.45 55.3706 136.433 55.4235 136.404 55.4699C136.375 55.5164 136.335 55.5551 136.288 55.5827Z" fill="url(#paint61_linear_801_53311)"/>
<path id="Vector_75" fill-rule="evenodd" clip-rule="evenodd" d="M135.976 56.5437C135.897 56.5437 135.885 56.4353 135.939 56.3186C135.993 56.2018 136.088 56.1268 136.15 56.1476C136.213 56.1685 136.238 56.2727 136.188 56.3894C136.138 56.5062 136.038 56.5645 135.976 56.5437Z" fill="url(#paint62_linear_801_53311)"/>
<path id="Vector_76" fill-rule="evenodd" clip-rule="evenodd" d="M135.319 57.3335C135.31 57.2829 135.314 57.2308 135.332 57.1825C135.349 57.1342 135.379 57.0913 135.419 57.0584C135.493 56.9708 135.585 56.975 135.61 57.0584C135.619 57.1076 135.615 57.1584 135.599 57.2059C135.583 57.2533 135.555 57.2959 135.518 57.3294C135.431 57.4127 135.344 57.4211 135.319 57.3335Z" fill="url(#paint63_linear_801_53311)"/>
<path id="Vector_77" fill-rule="evenodd" clip-rule="evenodd" d="M134.587 57.6427C134.598 57.5923 134.62 57.5453 134.653 57.5054C134.685 57.4655 134.726 57.434 134.773 57.4134C134.865 57.3925 134.902 57.4717 134.877 57.5885C134.866 57.6391 134.842 57.6863 134.809 57.7261C134.776 57.766 134.734 57.7974 134.686 57.8178C134.599 57.8386 134.562 57.7594 134.587 57.6427Z" fill="url(#paint64_linear_801_53311)"/>
<path id="Vector_78" fill-rule="evenodd" clip-rule="evenodd" d="M134.042 57.3714C134.121 57.2672 134.208 57.2339 134.258 57.2755C134.281 57.3196 134.291 57.3694 134.286 57.4189C134.282 57.4684 134.263 57.5157 134.233 57.5549C134.158 57.6549 134.071 57.6758 134.017 57.6341C133.993 57.5931 133.983 57.5458 133.988 57.4988C133.992 57.4518 134.011 57.4073 134.042 57.3714Z" fill="url(#paint65_linear_801_53311)"/>
<path id="Vector_79" fill-rule="evenodd" clip-rule="evenodd" d="M133.921 56.5945C134.008 56.5444 134.075 56.5945 134.075 56.682C134.073 56.7352 134.058 56.787 134.031 56.8328C134.004 56.8787 133.966 56.9171 133.921 56.9447C133.834 56.9989 133.759 56.9697 133.759 56.8655C133.762 56.8105 133.779 56.7572 133.807 56.7101C133.835 56.6629 133.874 56.6232 133.921 56.5945Z" fill="url(#paint66_linear_801_53311)"/>
<path id="Vector_80" fill-rule="evenodd" clip-rule="evenodd" d="M134.233 55.638C134.307 55.638 134.32 55.763 134.27 55.8631C134.22 55.9632 134.121 56.0549 134.058 56.0299C133.996 56.0048 133.967 55.909 134.017 55.8047C134.067 55.7005 134.17 55.6171 134.233 55.638Z" fill="url(#paint67_linear_801_53311)"/>
<path id="Vector_81" fill-rule="evenodd" clip-rule="evenodd" d="M134.89 54.8482C134.898 54.9013 134.893 54.9556 134.876 55.0064C134.858 55.0572 134.829 55.1031 134.79 55.1401C134.711 55.211 134.624 55.2026 134.599 55.1401C134.587 55.0893 134.588 55.0361 134.604 54.9862C134.619 54.9362 134.648 54.8914 134.686 54.8566C134.774 54.7649 134.865 54.7732 134.89 54.8482Z" fill="url(#paint68_linear_801_53311)"/>
<path id="Vector_82" fill-rule="evenodd" clip-rule="evenodd" d="M135.622 54.5385C135.611 54.589 135.588 54.6359 135.555 54.6752C135.521 54.7145 135.479 54.7449 135.431 54.7637C135.344 54.7887 135.306 54.7053 135.331 54.5886C135.342 54.5387 135.365 54.4922 135.397 54.453C135.43 54.4138 135.471 54.3831 135.518 54.3634C135.609 54.3426 135.647 54.4218 135.622 54.5385Z" fill="url(#paint69_linear_801_53311)"/>
<path id="Vector_83" fill-rule="evenodd" clip-rule="evenodd" d="M136.163 54.8098C136.088 54.9099 135.989 54.9558 135.951 54.9057C135.914 54.8557 135.914 54.7348 135.976 54.6431C136.038 54.5514 136.138 54.5013 136.188 54.5472C136.211 54.5882 136.221 54.6355 136.217 54.6825C136.212 54.7295 136.194 54.774 136.163 54.8098Z" fill="url(#paint70_linear_801_53311)"/>
<path id="Vector_84" fill-rule="evenodd" clip-rule="evenodd" d="M134.811 53.3901C134.682 53.4683 134.557 53.5533 134.437 53.6449C134.485 53.696 134.55 53.7271 134.619 53.7317C134.689 53.7364 134.758 53.7143 134.811 53.67C134.98 53.5583 135.11 53.3981 135.186 53.2104C135.057 53.2608 134.932 53.3209 134.811 53.3901Z" fill="url(#paint71_linear_801_53311)"/>
<path id="Vector_85" fill-rule="evenodd" clip-rule="evenodd" d="M136.022 53.436C136.101 53.4395 136.18 53.4243 136.252 53.3916C136.324 53.359 136.388 53.3098 136.438 53.248C136.256 53.1438 136.049 53.0904 135.839 53.0934C135.839 53.248 135.889 53.3859 136.022 53.436Z" fill="url(#paint72_linear_801_53311)"/>
<path id="Vector_86" fill-rule="evenodd" clip-rule="evenodd" d="M136.833 53.6407C136.738 53.8017 136.708 53.9931 136.75 54.1755C136.76 54.2066 136.776 54.2353 136.797 54.2599C136.818 54.2845 136.844 54.3045 136.873 54.3186C136.903 54.3327 136.935 54.3406 136.967 54.3419C136.999 54.3431 137.032 54.3377 137.062 54.3259C137.032 54.0844 136.954 53.8514 136.833 53.6407Z" fill="url(#paint73_linear_801_53311)"/>
<path id="Vector_87" fill-rule="evenodd" clip-rule="evenodd" d="M136.766 55.6504C136.742 55.7215 136.738 55.7978 136.753 55.8713C136.768 55.9448 136.803 56.0129 136.854 56.0682C136.963 55.7642 137.039 55.4489 137.078 55.1281C136.92 55.2626 136.81 55.4464 136.766 55.6504Z" fill="url(#paint74_linear_801_53311)"/>
<path id="Vector_88" fill-rule="evenodd" clip-rule="evenodd" d="M136.022 57.2672C135.904 57.4232 135.843 57.6147 135.847 57.8103C136.073 57.5518 136.274 57.272 136.446 56.9748C136.36 56.9928 136.278 57.0279 136.205 57.0781C136.132 57.1283 136.07 57.1926 136.022 57.2672Z" fill="url(#paint75_linear_801_53311)"/>
<path id="Vector_89" fill-rule="evenodd" clip-rule="evenodd" d="M135.19 58.4494C135.128 58.3366 134.974 58.3241 134.824 58.4118C134.651 58.523 134.518 58.687 134.446 58.8798C134.57 58.8314 134.691 58.7741 134.807 58.7085C134.939 58.6303 135.065 58.5438 135.186 58.4494H135.19Z" fill="url(#paint76_linear_801_53311)"/>
<path id="Vector_90" fill-rule="evenodd" clip-rule="evenodd" d="M133.788 59.0135C133.788 58.8338 133.738 58.7085 133.613 58.6667C133.534 58.6634 133.455 58.6791 133.382 58.7125C133.31 58.7459 133.247 58.7961 133.197 58.8589C133.377 58.9613 133.581 59.0146 133.788 59.0135Z" fill="url(#paint77_linear_801_53311)"/>
<path id="Vector_91" fill-rule="evenodd" clip-rule="evenodd" d="M132.552 57.7603C132.581 58.0053 132.66 58.2415 132.785 58.4539C132.886 58.2906 132.919 58.094 132.877 57.9066C132.866 57.8747 132.849 57.8454 132.827 57.8204C132.805 57.7955 132.777 57.7755 132.747 57.7618C132.716 57.748 132.683 57.7408 132.65 57.7406C132.616 57.7403 132.583 57.747 132.552 57.7603Z" fill="url(#paint78_linear_801_53311)"/>
<path id="Vector_92" fill-rule="evenodd" clip-rule="evenodd" d="M132.869 56.4485C132.898 56.3731 132.905 56.2907 132.889 56.2113C132.873 56.1319 132.834 56.059 132.777 56.0014C132.666 56.3156 132.588 56.6404 132.544 56.9707C132.702 56.8333 132.815 56.6513 132.869 56.4485Z" fill="url(#paint79_linear_801_53311)"/>
<path id="Vector_93" fill-rule="evenodd" clip-rule="evenodd" d="M133.177 55.1323C133.267 55.1129 133.352 55.0751 133.427 55.0212C133.502 54.9672 133.566 54.8984 133.613 54.8189C133.732 54.6586 133.794 54.4629 133.788 54.2633C133.556 54.5321 133.352 54.8232 133.177 55.1323Z" fill="url(#paint80_linear_801_53311)"/>
<path id="Vector_94" fill-rule="evenodd" clip-rule="evenodd" d="M163 38.3958C163 38.3958 163 37.0129 163 36.0771C163 35.8264 162.351 35.6175 162.351 35.3167C162.351 30.7503 162.276 21.6258 162.222 18.7472C162.151 14.9871 161.149 12.8731 161.149 12.8731C157.717 10.4708 148.54 5.0772 142.516 1.88948C139.983 0.544202 138.252 1.65134 138.252 1.65134C138.252 1.65134 40.3661 58.5248 33.7183 62.3769C27.0706 66.2289 26.1762 72.997 24.6162 80.4169C23.0561 87.8369 24.1502 98.2816 24.1502 98.2816C24.1502 98.2816 23.9422 101.979 30.1573 105.384C36.3724 108.789 42.2839 111.739 45.1793 110.122C48.6279 108.196 53.3704 105.493 58.7909 102.372V99.2843C58.8828 97.5679 59.3974 95.9012 60.2886 94.4337C61.1455 93.218 61.9942 92.4952 63.6166 91.551C65.239 90.6068 66.0793 90.3561 66.9446 90.5776C67.8099 90.799 68.4714 92.3991 68.4714 93.6567V96.7734C90.79 83.8553 117.768 68.0337 117.768 68.0337L118.084 67.8541V64.8919C118.185 63.173 118.71 61.5062 119.611 60.0414C120.468 58.8257 121.3 58.1112 122.939 57.167C124.578 56.2228 125.414 55.968 126.267 56.1852C127.12 56.4025 127.781 58.0151 127.781 59.2727V62.356L129.691 61.2739V58.1697C129.691 56.9164 130.344 54.5224 131.205 53.3234C132.066 52.1243 132.906 51.3848 134.533 50.4406C136.16 49.4964 136.992 49.2499 137.861 49.4672C138.73 49.6844 139.388 51.2888 139.388 52.5505V55.7758L139.704 55.5961L153.324 47.4284C153.324 47.4284 159.09 43.2046 160.783 41.8217C161.834 40.9169 162.603 39.7277 163 38.3958Z" fill="white"/>
<path id="Vector_95" fill-rule="evenodd" clip-rule="evenodd" d="M46.8054 80.3627C43.2073 79.0382 39.7281 77.4085 36.4053 75.4913C33.302 73.6528 30.3575 71.5566 27.6026 69.2244C26.105 72.5124 25.4519 76.3603 24.6074 80.4045C24.0739 83.2143 23.7954 86.0669 23.7754 88.9273C24.312 91.9647 25.7431 93.3308 25.7431 93.335C26.9514 94.5624 28.3234 95.6156 29.8199 96.4642C33.3102 98.5072 36.476 100.157 39.1301 101.026C39.8546 101.159 40.5985 101.138 41.3146 100.966C42.0308 100.794 42.7035 100.475 43.2902 100.028L43.3526 99.3679C43.8268 94.6427 44.9292 87.0055 46.2896 82.602C46.4973 81.9239 46.8013 81.2795 47.1923 80.6886L46.8054 80.3627Z" fill="#141C1E"/>
<path id="Vector_96" fill-rule="evenodd" clip-rule="evenodd" d="M26.8457 71.7939C26.1516 74.1088 25.585 76.4603 25.1484 78.8378C25.0402 79.3726 24.9279 79.9157 24.8156 80.4588C24.3321 82.9655 24.0662 85.5097 24.021 88.0626C24.8031 89.6919 26.4421 91.9647 29.8451 93.9492C35.3488 97.1703 40.0746 99.4222 43.178 99.1674C43.594 95.1482 44.6299 87.4025 46.0568 82.7023C35.5776 78.0858 29.8451 74.2505 26.8457 71.7939Z" fill="#303E42"/>
<g id="Vector_97" style="mix-blend-mode:multiply" opacity="0.2">
<path d="M30.157 105.376C31.4757 106.098 32.7778 106.796 34.0425 107.439C33.8511 106.951 33.5474 106.332 33.173 106.132C32.5282 105.777 29.2958 103.984 28.8008 103.65C28.5054 103.45 28.2392 103.738 28.0603 104.068C28.7306 104.548 29.4309 104.985 30.157 105.376Z" fill="black"/>
</g>
<path id="Vector_98" fill-rule="evenodd" clip-rule="evenodd" d="M158.707 25.2773L66.9694 78.466C66.9694 78.466 63.0715 80.7346 58.0669 85.9026C58.0669 85.9026 52.7129 91.7516 51.4109 93.6609C50.1088 95.5702 45.3954 99.5852 44.2764 100.041C44.2764 100.041 45.4578 90.2476 46.4646 86.0279C47.4713 81.8083 49.0563 79.3809 53.0749 77.0538L158.707 15.8061V25.2773Z" fill="#141C1E"/>
<path id="Vector_99" fill-rule="evenodd" clip-rule="evenodd" d="M94.3966 53.3315L81.0969 61.0397V70.0389L94.3966 62.3307V53.3315Z" fill="#303E42"/>
<path id="Vector_100" fill-rule="evenodd" clip-rule="evenodd" d="M108.217 45.3184L95.0833 52.9347V61.9338L108.217 54.3176V45.3184Z" fill="#303E42"/>
<path id="Vector_101" fill-rule="evenodd" clip-rule="evenodd" d="M122.107 37.2635L108.903 44.9216V53.9207L122.107 46.2627V37.2635Z" fill="#303E42"/>
<path id="Vector_102" fill-rule="evenodd" clip-rule="evenodd" d="M80.4142 61.4366L67.5264 68.9108V77.91L80.4142 70.4357V61.4366Z" fill="#303E42"/>
<path id="Vector_103" fill-rule="evenodd" clip-rule="evenodd" d="M136.055 29.1754L122.789 36.8669V45.8702L136.055 38.1746V29.1754Z" fill="#303E42"/>
<path id="Vector_104" fill-rule="evenodd" clip-rule="evenodd" d="M66.8447 69.3122L53.1748 77.2502L53.075 77.3129C53.075 79.97 53.075 84.8957 53.1041 86.2285C53.1332 87.5612 54.0567 88.802 54.6225 89.4663C56.2407 87.6239 57.8049 85.911 57.9214 85.7814C62.7013 80.8265 66.5285 78.5036 66.8447 78.303V69.3122Z" fill="#303E42"/>
<path id="Vector_105" fill-rule="evenodd" clip-rule="evenodd" d="M150.624 20.7277V29.731L158.503 25.1604V16.1613L150.624 20.7277Z" fill="#303E42"/>
<path id="Vector_106" fill-rule="evenodd" clip-rule="evenodd" d="M149.942 21.1283L136.742 28.778V37.7771L149.942 30.1274V21.1283Z" fill="#303E42"/>
<path id="Vector_107" fill-rule="evenodd" clip-rule="evenodd" d="M51.8224 83.2412V78.0857C48.9478 80.0493 47.5791 82.2385 46.6639 86.078L46.6265 86.2325L51.8224 83.2412Z" fill="#303E42"/>
<path id="Vector_108" fill-rule="evenodd" clip-rule="evenodd" d="M46.3854 87.3608C45.5784 91.3757 44.7214 98.0227 44.5259 99.6814C46.0069 98.7915 50.0338 95.2946 51.236 93.544C51.3858 93.3268 51.5855 93.0636 51.8226 92.7628V84.3067L46.3854 87.3608Z" fill="#303E42"/>
<path id="Vector_109" opacity="0.7" fill-rule="evenodd" clip-rule="evenodd" d="M27.8901 72.617C27.8401 72.805 27.7944 72.993 27.7486 73.1852L27.7112 73.3398L28.356 72.968C28.1937 72.851 28.0398 72.734 27.8901 72.617Z" fill="#C5D0D3"/>
<path id="Vector_110" opacity="0.7" fill-rule="evenodd" clip-rule="evenodd" d="M29.1339 73.5317L27.4699 74.4675C26.6628 78.4866 25.8059 85.1337 25.6145 86.7881C27.0955 85.8982 31.1224 82.4055 32.3247 80.655C32.4703 80.4377 32.6741 80.1703 32.9071 79.8737V75.9966C31.4344 75.1067 30.1864 74.2795 29.1339 73.5317Z" fill="#C5D0D3"/>
<path id="Vector_111" fill-rule="evenodd" clip-rule="evenodd" d="M43.1739 99.1671C43.2612 98.3315 43.3736 97.3038 43.515 96.1883C39.4881 93.9949 25.7599 86.2282 25.7599 86.2282L24.0127 87.8993C24.0127 87.9537 24.0127 88.0038 24.0127 88.0581C24.7948 89.6875 26.4338 91.9603 29.8368 93.9447C35.328 97.1701 40.0705 99.4219 43.1739 99.1671Z" fill="#39464A"/>
<path id="Vector_112" d="M43.3153 92.0522C43.0158 91.1456 41.9051 90.0594 40.8193 89.6249C40.572 89.5165 40.3068 89.4556 40.0372 89.4452C39.4756 89.4452 39.2052 89.8254 39.4298 90.4772C39.7294 91.3838 40.8401 92.47 41.9259 92.9045C42.173 93.0132 42.4383 93.0742 42.708 93.0842C43.2696 93.0842 43.5317 92.7082 43.3153 92.0522ZM42.8993 92.5745C42.8394 92.6185 42.765 92.638 42.6913 92.6288C42.4801 92.6195 42.2725 92.5699 42.0798 92.4826C41.1355 92.0982 40.1163 91.1122 39.8583 90.3351C39.7835 90.1053 39.8043 89.9842 39.8292 89.9508C39.8542 89.9173 39.9166 89.9006 40.0372 89.9006C40.2485 89.9099 40.456 89.9595 40.6487 90.0469C41.5931 90.4312 42.6123 91.413 42.8702 92.1943C42.9617 92.4241 42.9409 92.541 42.916 92.5745H42.8993Z" fill="#3D4B4F"/>
<path id="Vector_113" fill-rule="evenodd" clip-rule="evenodd" d="M36.4265 93.5312L36.6553 92.3697L39.1056 90.097L43.1325 92.3739V95.9794L41.7264 96.5643L36.4265 93.5312Z" fill="#3D4B4F"/>
<path id="Vector_114" d="M26.5461 72.0739C25.9928 72.383 23.372 73.8745 22.0907 75.224C21.1525 76.1922 20.1182 77.0615 19.0039 77.8185V81.8209C19.5245 81.9553 20.0597 82.0241 20.5972 82.0256V78.136C20.5972 78.136 23.1806 75.529 25.8347 74.6809C26.051 73.791 26.2798 72.9178 26.5461 72.0739Z" fill="white"/>
<path id="Vector_115" d="M32.8322 107.514C32.7926 107.517 32.7534 107.506 32.7199 107.485L29.1547 105.451C29.0957 105.415 29.0466 105.364 29.0117 105.305C28.9769 105.245 28.9574 105.177 28.955 105.108V104.21C28.9488 104.186 28.9474 104.162 28.9508 104.138C28.9541 104.114 28.9623 104.091 28.9747 104.071C28.9871 104.05 29.0036 104.032 29.0231 104.018C29.0426 104.004 29.0647 103.994 29.0881 103.988C29.1292 103.989 29.1693 104.001 29.2046 104.022L32.7615 106.077C32.8212 106.113 32.8711 106.163 32.9067 106.222C32.9423 106.282 32.9625 106.35 32.9653 106.42V107.318C32.9707 107.361 32.9602 107.405 32.9357 107.441C32.9112 107.478 32.8744 107.504 32.8322 107.514Z" fill="#404B4D"/>
<path id="Vector_116" d="M32.8943 107.331C32.8943 107.427 32.8319 107.469 32.7445 107.419L29.1835 105.384C29.1378 105.355 29.0996 105.316 29.0721 105.27C29.0446 105.223 29.0286 105.171 29.0254 105.117L29.0046 104.218C29.0046 104.122 29.0712 104.08 29.1586 104.131L32.7196 106.165C32.7642 106.195 32.8015 106.235 32.8289 106.281C32.8563 106.327 32.8729 106.379 32.8776 106.433L32.8943 107.331Z" fill="white"/>
<path id="Vector_117" fill-rule="evenodd" clip-rule="evenodd" d="M139.791 52.5503C139.791 51.1131 139.034 49.3292 137.956 49.0743C137.735 49.0164 137.507 48.9869 137.278 48.9866C136.53 48.9866 135.706 49.2957 134.337 50.0895C132.64 51.0713 131.766 51.8317 130.88 53.0892C129.931 54.6209 129.383 56.3684 129.287 58.1696V61.5119L129.703 61.2821V58.1779C129.703 56.9245 130.356 54.5306 131.217 53.3316C132.078 52.1325 132.919 51.393 134.545 50.4488C136.172 49.5046 137.004 49.2581 137.873 49.4754C138.743 49.6926 139.4 51.2969 139.4 52.5587V55.784L139.716 55.6043L139.808 55.5542L139.791 52.5503Z" fill="url(#paint81_linear_801_53311)"/>
<path id="Vector_118" fill-rule="evenodd" clip-rule="evenodd" d="M67.0565 90.2017C66.8365 90.1438 66.61 90.1143 66.3826 90.1139C65.6296 90.1139 64.8018 90.4231 63.4331 91.2169C61.74 92.1987 60.8664 92.9549 59.9761 94.2124C59.0297 95.7448 58.4831 97.4921 58.387 99.2927V102.635L58.803 102.401V99.3136C58.8863 97.5883 59.3967 95.9111 60.2881 94.4339C61.1451 93.2181 61.9937 92.4953 63.6161 91.5511C65.2386 90.6069 66.0789 90.3562 66.9442 90.5777C67.8095 90.7991 68.4709 92.3992 68.4709 93.6568V96.7735L68.8869 96.5395V93.6568C68.8869 92.2196 68.134 90.4398 67.0565 90.2017Z" fill="url(#paint82_linear_801_53311)"/>
<g id="Vector_119" style="mix-blend-mode:multiply" opacity="0.2">
<path d="M49.6635 77.2124L49.7467 77.1371C38.136 71.9691 32.4867 67.7662 29.9698 65.4725L29.9199 65.5519C30.8257 66.3749 31.7756 67.1475 32.7654 67.8664C35.6941 70.0389 40.9482 73.3311 49.6635 77.2124Z" fill="black"/>
</g>
<g id="Group_2" style="mix-blend-mode:multiply">
<path id="Vector_120" fill-rule="evenodd" clip-rule="evenodd" d="M157.812 36.4823L145.012 43.9022V43.4928L157.812 36.0729V36.4823Z" fill="#555E61"/>
<path id="Vector_121" fill-rule="evenodd" clip-rule="evenodd" d="M157.812 37.2426L145.012 44.6625V44.2531L157.812 36.8332V37.2426Z" fill="#555E61"/>
<path id="Vector_122" fill-rule="evenodd" clip-rule="evenodd" d="M157.812 38.0032L145.012 45.4231V45.0137L157.812 37.5938V38.0032Z" fill="#555E61"/>
<path id="Vector_123" fill-rule="evenodd" clip-rule="evenodd" d="M157.812 38.7635L145.012 46.1834V45.774L157.812 38.3541V38.7635Z" fill="#555E61"/>
<path id="Vector_124" fill-rule="evenodd" clip-rule="evenodd" d="M157.812 39.5236L145.012 46.9435V46.534L157.812 39.1141V39.5236Z" fill="#555E61"/>
<path id="Vector_125" fill-rule="evenodd" clip-rule="evenodd" d="M157.812 40.2883L145.012 47.7082V47.2946L157.812 39.8747V40.2883Z" fill="#555E61"/>
<path id="Vector_126" fill-rule="evenodd" clip-rule="evenodd" d="M157.812 41.0487L145.012 48.4686V48.0717L157.812 40.6518V41.0487Z" fill="#555E61"/>
<path id="Vector_127" fill-rule="evenodd" clip-rule="evenodd" d="M157.812 41.8093L145.012 49.2292V48.8323L157.812 41.4124V41.8093Z" fill="#555E61"/>
<path id="Vector_128" fill-rule="evenodd" clip-rule="evenodd" d="M157.812 42.5819L145.012 50.0018V49.5924L157.812 42.1724V42.5819Z" fill="#555E61"/>
<path id="Vector_129" fill-rule="evenodd" clip-rule="evenodd" d="M157.812 43.3467L145.012 50.7625V50.353L157.812 42.9373V43.3467Z" fill="#555E61"/>
</g>
<g id="Vector_130" style="mix-blend-mode:multiply" opacity="0.1">
<path fill-rule="evenodd" clip-rule="evenodd" d="M103.844 41.4624V41.007C103.875 40.7888 103.958 40.5811 104.085 40.4013C104.286 40.0147 104.509 39.6408 104.755 39.2816C105.018 38.8721 105.384 38.5393 105.816 38.3165L133.351 22.3486C133.909 22.0269 134.096 22.0186 134.4 22.0938C134.644 22.1658 134.875 22.2788 135.082 22.428C135.232 22.545 135.306 22.6035 135.306 22.7664V23.2218L103.844 41.4624Z" fill="black"/>
</g>
<g id="Group_3" style="mix-blend-mode:multiply">
<path id="Vector_131" fill-rule="evenodd" clip-rule="evenodd" d="M114.752 34.5813C114.749 34.5974 114.751 34.6141 114.758 34.629C114.764 34.644 114.776 34.6565 114.79 34.6647C114.804 34.673 114.82 34.6766 114.837 34.6751C114.853 34.6736 114.868 34.6671 114.881 34.6565L117.593 33.0814C117.63 33.0579 117.66 33.0259 117.682 32.9881C117.704 32.9503 117.716 32.9078 117.718 32.8641V32.204C117.719 32.1889 117.716 32.1738 117.709 32.1604C117.702 32.147 117.691 32.1359 117.678 32.1285C117.665 32.121 117.65 32.1175 117.635 32.1183C117.62 32.1191 117.605 32.1242 117.593 32.133L114.881 33.7039C114.845 33.7296 114.815 33.7626 114.793 33.8007C114.771 33.8389 114.757 33.8814 114.752 33.9253V34.5813Z" fill="#555E61"/>
<path id="Vector_132" fill-rule="evenodd" clip-rule="evenodd" d="M110.754 36.9043C110.754 36.992 110.804 37.0213 110.878 36.9753L113.578 35.4086C113.617 35.3871 113.649 35.3557 113.672 35.3175C113.695 35.2793 113.707 35.2358 113.707 35.1914V34.5312C113.707 34.4602 113.657 34.4143 113.578 34.4602L110.878 36.0228C110.842 36.0474 110.812 36.0802 110.79 36.1187C110.768 36.1571 110.756 36.2001 110.754 36.2442V36.9043Z" fill="#555E61"/>
<path id="Vector_133" fill-rule="evenodd" clip-rule="evenodd" d="M106.74 39.2313C106.74 39.3191 106.802 39.3399 106.864 39.3023L109.581 37.7315C109.617 37.7066 109.647 37.6737 109.669 37.6353C109.69 37.5969 109.703 37.5541 109.706 37.51V36.8499C109.707 36.8348 109.704 36.8197 109.697 36.8063C109.69 36.7929 109.679 36.7818 109.666 36.7744C109.653 36.7669 109.638 36.7634 109.623 36.7642C109.608 36.765 109.593 36.7701 109.581 36.7789L106.881 38.3498C106.846 38.3757 106.816 38.4088 106.795 38.447C106.773 38.4852 106.76 38.5275 106.756 38.5712L106.74 39.2313Z" fill="#555E61"/>
</g>
<path id="Vector_134" d="M84.2211 49.5671C84.33 49.6228 84.4504 49.6519 84.5726 49.6519C84.6948 49.6519 84.8153 49.6228 84.9241 49.5671L93.2442 44.7416C93.2923 44.7319 93.3355 44.7058 93.3666 44.6677C93.3976 44.6296 93.4146 44.5819 93.4146 44.5327C93.4146 44.4835 93.3976 44.4358 93.3666 44.3977C93.3355 44.3596 93.2923 44.3335 93.2442 44.3238L84.7411 39.3897C84.6316 39.3362 84.5114 39.3083 84.3896 39.3083C84.2678 39.3083 84.1476 39.3362 84.0381 39.3897L75.718 44.2194C75.6699 44.2291 75.6267 44.2552 75.5956 44.2933C75.5646 44.3313 75.5476 44.379 75.5476 44.4283C75.5476 44.4775 75.5646 44.5252 75.5956 44.5633C75.6267 44.6014 75.6699 44.6275 75.718 44.6372L84.2211 49.5671Z" fill="#555E61"/>
<path id="Vector_135" d="M93.2485 44.7418L84.9284 49.5673C84.8196 49.623 84.6991 49.6521 84.5769 49.6521C84.4547 49.6521 84.3343 49.623 84.2254 49.5673L75.7223 44.6374C75.683 44.6197 75.6492 44.5917 75.6243 44.5565C75.5995 44.5212 75.5844 44.4799 75.5808 44.4368V44.8546C75.5837 44.8984 75.5984 44.9406 75.6233 44.9766C75.6482 45.0127 75.6824 45.0413 75.7223 45.0593L84.2254 49.9893C84.3343 50.045 84.4547 50.0741 84.5769 50.0741C84.6991 50.0741 84.8196 50.045 84.9284 49.9893L93.2485 45.1638C93.2884 45.1452 93.3227 45.1166 93.3482 45.0807C93.3738 45.0449 93.3896 45.0029 93.3941 44.9591V44.5413C93.3897 44.5847 93.3739 44.6261 93.3483 44.6613C93.3227 44.6965 93.2883 44.7243 93.2485 44.7418Z" fill="#3C4548"/>
<path id="Vector_136" d="M139.529 17.5063C139.637 17.562 139.757 17.5911 139.878 17.5911C140 17.5911 140.12 17.562 140.228 17.5063L148.548 12.6808C148.593 12.6679 148.633 12.6405 148.661 12.6028C148.69 12.5651 148.705 12.5192 148.705 12.472C148.705 12.4247 148.69 12.3788 148.661 12.3411C148.633 12.3034 148.593 12.276 148.548 12.2631L140.049 7.33316C139.94 7.2796 139.819 7.25177 139.697 7.25177C139.576 7.25177 139.455 7.2796 139.346 7.33316L131.009 12.1628C130.961 12.1725 130.918 12.1986 130.887 12.2367C130.856 12.2748 130.839 12.3225 130.839 12.3717C130.839 12.4209 130.856 12.4686 130.887 12.5067C130.918 12.5448 130.961 12.5709 131.009 12.5806L139.529 17.5063Z" fill="#555E61"/>
<path id="Vector_137" d="M148.552 12.6725L140.228 17.5063C140.12 17.562 140 17.5911 139.878 17.5911C139.757 17.5911 139.637 17.562 139.529 17.5063L131.009 12.568C130.969 12.5502 130.934 12.5218 130.908 12.4857C130.883 12.4497 130.867 12.4074 130.864 12.3633V12.7811C130.868 12.825 130.884 12.8669 130.909 12.9028C130.935 12.9387 130.969 12.9673 131.009 12.9858L139.529 17.9241C139.637 17.9798 139.757 18.0089 139.878 18.0089C140 18.0089 140.12 17.9798 140.228 17.9241L148.548 13.0945C148.588 13.0777 148.623 13.0501 148.649 13.0147C148.674 12.9794 148.69 12.9376 148.693 12.8939V12.4761C148.689 12.5183 148.673 12.5586 148.648 12.593C148.624 12.6274 148.59 12.6548 148.552 12.6725Z" fill="#3C4548"/>
<path id="Vector_138" d="M61.5363 63.1412C61.645 63.1947 61.7646 63.2225 61.8857 63.2225C62.0068 63.2225 62.1264 63.1947 62.2352 63.1412L70.5552 58.3116C70.7508 58.203 70.7508 58.0191 70.5552 57.8938L62.0563 52.9639C61.9474 52.9082 61.8269 52.8791 61.7047 52.8791C61.5825 52.8791 61.4621 52.9082 61.3532 52.9639L53.0331 57.7894C52.9879 57.8023 52.9482 57.8297 52.9198 57.8674C52.8915 57.9051 52.8762 57.951 52.8762 57.9983C52.8762 58.0455 52.8915 58.0914 52.9198 58.1291C52.9482 58.1668 52.9879 58.1942 53.0331 58.2072L61.5363 63.1412Z" fill="#555E61"/>
<path id="Vector_139" d="M70.572 58.3115L62.2519 63.1411C62.1431 63.1946 62.0236 63.2225 61.9025 63.2225C61.7813 63.2225 61.6618 63.1946 61.553 63.1411L53.0499 58.2112C53.0101 58.1927 52.9757 58.1641 52.9502 58.1282C52.9247 58.0923 52.9089 58.0504 52.9043 58.0065V58.4243C52.9087 58.4677 52.9246 58.5091 52.9501 58.5443C52.9757 58.5796 53.0101 58.6073 53.0499 58.6249L61.5364 63.5464C61.6445 63.6021 61.7643 63.6312 61.8858 63.6312C62.0074 63.6312 62.1272 63.6021 62.2353 63.5464L70.5554 58.7209C70.5963 58.7039 70.6316 58.6757 70.6573 58.6395C70.683 58.6033 70.6982 58.5606 70.701 58.5162V58.0984C70.7012 58.1425 70.6893 58.1857 70.6665 58.2233C70.6437 58.2609 70.611 58.2914 70.572 58.3115Z" fill="#3C4548"/>
<path id="Vector_140" style="mix-blend-mode:multiply" opacity="0.1" d="M121.37 14.3479C121.238 14.2756 121.099 14.2168 120.954 14.1724C120.651 14.1014 120.459 14.1097 119.906 14.4314L92.3624 30.3951C91.9315 30.6194 91.5671 30.9537 91.3058 31.3644C91.0663 31.7236 90.8496 32.0975 90.6568 32.484C90.5272 32.6625 90.4442 32.8708 90.4155 33.0898V33.5452L103.865 41.4832V41.0278C103.896 40.8095 103.979 40.6019 104.106 40.422C104.307 40.0355 104.53 39.6616 104.776 39.3023C105.039 38.8929 105.405 38.5601 105.837 38.3373L133.372 22.3694C133.93 22.0477 134.117 22.0393 134.421 22.1145C134.463 22.1238 134.505 22.1363 134.545 22.1521L121.37 14.3479Z" fill="url(#paint83_linear_801_53311)"/>
<g id="Vector_141" style="mix-blend-mode:multiply" opacity="0.15">
<path d="M90.3945 33.0898C90.404 32.9417 90.4497 32.7982 90.5276 32.672L89.2546 33.3823L102.87 41.3202L103.844 41.4623L90.3945 33.5243V33.0898Z" fill="black"/>
</g>
<g id="Group_4" style="mix-blend-mode:multiply" opacity="0.2">
<path id="Vector_142" d="M130.468 22.0344L115.287 30.9719L115.313 31.0152L130.493 22.0776L130.468 22.0344Z" fill="black"/>
</g>
<g id="Group_5" style="mix-blend-mode:multiply" opacity="0.2">
<path id="Vector_143" d="M129.17 21.3677L113.923 30.1906L113.948 30.234L129.195 21.4112L129.17 21.3677Z" fill="black"/>
</g>
<g id="Group_6" style="mix-blend-mode:multiply" opacity="0.2">
<path id="Vector_144" d="M112.65 29.5719L112.625 29.5301L127.818 20.6103L127.843 20.6563L112.65 29.5719Z" fill="black"/>
</g>
<g id="Group_7" style="mix-blend-mode:multiply" opacity="0.2">
<path id="Vector_145" d="M111.324 28.8618L111.299 28.8201L126.492 19.9003L126.517 19.9462L111.324 28.8618Z" fill="black"/>
</g>
<g id="Group_8" style="mix-blend-mode:multiply" opacity="0.2">
<path id="Vector_146" d="M125.161 19.1811L109.978 28.1133L110.003 28.1566L125.187 19.2244L125.161 19.1811Z" fill="black"/>
</g>
<g id="Group_9" style="mix-blend-mode:multiply" opacity="0.2">
<path id="Vector_147" d="M123.827 18.4465L108.662 27.4107L108.687 27.4539L123.852 18.4897L123.827 18.4465Z" fill="black"/>
</g>
<g id="Group_10" style="mix-blend-mode:multiply" opacity="0.2">
<path id="Vector_148" d="M107.347 26.7268L107.322 26.6851L122.514 17.7653L122.539 17.8112L107.347 26.7268Z" fill="black"/>
</g>
<g id="Group_11" style="mix-blend-mode:multiply" opacity="0.2">
<path id="Vector_149" d="M121.18 17.0413L105.996 25.9735L106.022 26.0167L121.205 17.0845L121.18 17.0413Z" fill="black"/>
</g>
<g id="Group_12" style="mix-blend-mode:multiply" opacity="0.2">
<path id="Vector_150" d="M104.697 25.3063L104.672 25.2603L119.86 16.3447L119.885 16.3865L104.697 25.3063Z" fill="black"/>
</g>
<path id="Vector_151" d="M46.5062 83.7844C43.7731 84.6617 41.8678 87.5111 41.3062 89.3159C41.1088 89.9046 41.0241 90.5255 41.0566 91.1458L40.9858 95.0981C41.0034 95.1745 41.0419 95.2443 41.0971 95.2997C41.1522 95.3551 41.2218 95.3939 41.2978 95.4114C41.6659 95.472 42.0435 95.4296 42.3891 95.2889C42.7348 95.1481 43.0351 94.9144 43.2572 94.6135V91.409L42.0092 90.9119C42.0092 90.9119 41.5641 90.7531 42.6665 88.8898C43.7689 87.0264 46.5312 85.7647 46.5312 85.7647L46.8848 84.0936L46.5062 83.7844Z" fill="#FFFBFA"/>
<path id="Vector_152" d="M41.9178 90.6736C41.9178 90.423 42.0551 89.9132 42.6624 88.8897C43.769 87.0263 46.5271 85.7646 46.5271 85.7646L46.7559 84.6784C46.262 84.7472 45.7883 84.921 45.3665 85.1881C44.4221 85.7437 41.6807 88.6557 41.9178 90.6736Z" fill="#ACACAC"/>
<path id="Vector_153" d="M41.2936 95.4115C41.6617 95.4721 42.0393 95.4297 42.3849 95.2889C42.7305 95.1482 43.0309 94.9145 43.253 94.6136V91.4091C43.253 91.4091 42.2213 92.3115 41.4891 92.182C41.3427 92.1483 41.2023 92.092 41.0731 92.0149L41.019 95.0982C41.0334 95.17 41.0664 95.2368 41.1146 95.2918C41.1628 95.3468 41.2245 95.3881 41.2936 95.4115Z" fill="#ACACAC"/>
<path id="Vector_154" d="M26.1761 73.3352C25.1227 73.8713 24.1005 74.4669 23.1143 75.1191C22.0553 75.9109 21.0414 76.7617 20.0775 77.6677L20.5517 78.1481C20.5517 78.1481 19.9527 78.3528 19 77.8181V81.8205C19.5206 81.9549 20.0558 82.0236 20.5933 82.0252V78.1356C20.5933 78.1356 23.1767 75.5286 25.8308 74.6805C25.9431 74.2251 26.0596 73.778 26.1761 73.3352Z" fill="#ACACAC"/>
<g id="Vector_155" style="mix-blend-mode:multiply" opacity="0.2">
<path fill-rule="evenodd" clip-rule="evenodd" d="M162.397 35.4465C162.369 35.4059 162.353 35.3581 162.351 35.3087C162.351 33.8965 162.351 32.0499 162.326 30.0863L161.91 30.4707L161.939 36.4492C162.109 36.1406 162.249 35.8159 162.355 35.4799L162.397 35.4465Z" fill="black"/>
</g>
<path id="Vector_156" fill-rule="evenodd" clip-rule="evenodd" d="M161.998 36.3442C162.141 36.067 162.259 35.7776 162.351 35.4794L162.397 35.446C162.369 35.4053 162.353 35.3575 162.351 35.3081C162.351 33.9294 162.351 32.1329 162.326 30.2194L161.998 30.5537V36.3442Z" fill="#B01120"/>
<g id="Vector_157" style="mix-blend-mode:multiply" opacity="0.2">
<path d="M26.8876 101.005C25.9975 100.193 25.1636 99.3205 24.3916 98.3942C23.6511 97.3915 23.9049 95.29 23.9174 95.2023V95.0435L24.0089 95.1772C24.0089 95.1772 25.3859 97.1951 25.9142 97.8636C26.4425 98.5321 26.9459 100.851 26.9667 100.947L27.0041 101.135L26.8876 101.005Z" fill="black"/>
</g>
<g id="Vector_158" style="mix-blend-mode:multiply" opacity="0.2">
<path fill-rule="evenodd" clip-rule="evenodd" d="M40.5865 107.147C39.3385 107.147 36.9756 106.495 36.9506 106.491L36.884 106.47L36.909 106.407C37.0839 105.974 37.2926 105.555 37.533 105.154C37.8627 104.721 38.3479 104.435 38.885 104.356C39.1845 104.293 39.5506 104.227 39.9417 104.151C41.1522 103.926 42.6582 103.642 43.0991 103.475H43.1782C43.2113 103.475 43.2437 103.484 43.2722 103.501C43.3007 103.518 43.3243 103.542 43.3404 103.571C43.5734 103.93 43.3196 105.304 43.1449 105.693C42.9048 106.147 42.5448 106.525 42.1045 106.787C41.6641 107.049 41.1605 107.183 40.6489 107.176L40.5865 107.147Z" fill="black"/>
</g>
<path id="Vector_159" fill-rule="evenodd" clip-rule="evenodd" d="M38.8931 104.406C38.3715 104.485 37.9004 104.763 37.5786 105.183C37.3423 105.584 37.1378 106.003 36.967 106.437C36.967 106.437 39.4339 107.113 40.6528 107.088C41.1505 107.097 41.6411 106.969 42.071 106.717C42.5009 106.465 42.8536 106.099 43.0906 105.66C43.307 105.175 43.5815 103.366 43.1198 103.537C42.5373 103.734 40.1412 104.151 38.8931 104.406Z" fill="#E3E3E4"/>
<path id="Vector_160" d="M40.3949 104.582C39.6703 104.471 38.9298 104.537 38.2358 104.774L38.6893 105.735L39.1552 106.654C39.7002 106.495 41.3226 104.824 40.3949 104.582Z" fill="url(#paint84_linear_801_53311)"/>
<path id="Vector_161" d="M42.4416 104.26C41.3101 103.976 39.8208 104.494 39.8208 104.494L40.3699 105.664L40.9315 106.784C41.5971 106.562 43.569 104.548 42.4416 104.26Z" fill="url(#paint85_linear_801_53311)"/>
<path id="Vector_162" d="M43.3691 103.955C42.8736 103.924 42.3766 103.988 41.9048 104.143L42.2584 104.895L42.6245 105.614C42.8531 105.504 43.0591 105.352 43.2318 105.167C43.3269 104.77 43.373 104.363 43.3691 103.955Z" fill="url(#paint86_linear_801_53311)"/>
<path id="Vector_163" d="M41.385 106.14C41.385 106.717 40.969 106.951 40.4865 106.662C40.2251 106.491 40.0075 106.26 39.8514 105.989C39.6953 105.717 39.605 105.413 39.5879 105.1C39.5879 104.523 40.0039 104.294 40.4865 104.578C40.7476 104.749 40.965 104.98 41.1211 105.251C41.2771 105.523 41.3675 105.827 41.385 106.14Z" fill="white"/>
<path id="Vector_164" d="M39.4091 106.153C39.4091 106.608 39.0888 106.796 38.6977 106.571C38.4878 106.434 38.3133 106.249 38.1889 106.031C38.0644 105.813 37.9936 105.568 37.9822 105.317C37.9822 104.862 38.3025 104.678 38.6977 104.9C38.9069 105.037 39.0805 105.222 39.2042 105.44C39.3279 105.658 39.3982 105.902 39.4091 106.153Z" fill="white"/>
<path id="Vector_165" d="M42.841 105.242C42.841 105.597 42.5914 105.743 42.2835 105.564C42.1222 105.457 41.9878 105.313 41.8911 105.145C41.7943 104.977 41.7378 104.788 41.7261 104.594C41.7261 104.235 41.9757 104.093 42.2835 104.269C42.4454 104.376 42.5801 104.52 42.6769 104.689C42.7736 104.858 42.8298 105.047 42.841 105.242Z" fill="#F09041"/>
<g id="Group_13">
<path id="Vector_166" style="mix-blend-mode:multiply" opacity="0.4" d="M39.7879 109.144C39.6697 109.096 39.5705 109.01 39.5058 108.9C39.4411 108.789 39.4145 108.661 39.4302 108.534C39.4302 108.396 39.53 108.312 39.6922 108.275C39.1473 108.212 38.8186 108.275 38.802 108.534C38.7863 108.661 38.8129 108.789 38.8776 108.9C38.9423 109.01 39.0415 109.096 39.1598 109.144C40.6532 109.858 41.5892 109.783 41.7972 109.754C41.0975 109.668 40.4177 109.462 39.7879 109.144Z" fill="url(#paint87_linear_801_53311)"/>
</g>
<g id="Group_14">
<path id="Vector_167" style="mix-blend-mode:multiply" opacity="0.2" d="M40.4283 108.401C40.1538 108.346 39.9042 108.3 39.692 108.275C39.5298 108.313 39.4382 108.396 39.4299 108.534C39.4143 108.661 39.4408 108.79 39.5055 108.9C39.5703 109.011 39.6694 109.096 39.7877 109.144C40.4175 109.462 41.0972 109.669 41.797 109.754H41.8427L41.8927 108.547C41.4 108.573 40.9062 108.524 40.4283 108.401Z" fill="url(#paint88_linear_801_53311)"/>
</g>
<g id="Group_15">
<path id="Vector_168" fill-rule="evenodd" clip-rule="evenodd" d="M38.8931 104.406C38.3715 104.485 37.9004 104.763 37.5786 105.183C37.3423 105.584 37.1378 106.003 36.967 106.437C36.967 106.437 39.4339 107.113 40.6528 107.088C41.1505 107.097 41.6411 106.969 42.071 106.717C42.5009 106.465 42.8536 106.099 43.0906 105.66C43.307 105.175 43.5815 103.366 43.1198 103.537C42.5373 103.734 40.1412 104.151 38.8931 104.406Z" fill="url(#paint89_linear_801_53311)"/>
</g>
<path id="Vector_169" d="M26.9288 100.96C26.9288 100.96 26.4213 98.5781 25.8888 97.9013C25.3563 97.2245 23.9835 95.2149 23.9835 95.2149C23.9835 95.2149 23.7172 97.3665 24.4494 98.3609C25.215 99.2837 26.0434 100.152 26.9288 100.96Z" fill="#E3E3E4"/>
<path id="Vector_170" d="M24.9901 96.978C24.9901 97.2955 24.7696 97.425 24.4951 97.2663C24.3501 97.1715 24.2295 97.0439 24.1427 96.8937C24.056 96.7434 24.0057 96.5748 23.9958 96.4014C23.9958 96.0797 24.2205 95.9502 24.4951 96.1132C24.6394 96.2081 24.7595 96.3359 24.8455 96.4862C24.9315 96.6364 24.981 96.8049 24.9901 96.978Z" fill="#F09041"/>
<path id="Vector_171" d="M25.8845 97.8971C25.7264 97.6924 25.4976 97.3749 25.248 97.0281L25.1939 96.9905C24.7779 96.744 24.4243 96.9446 24.4243 97.4375C24.4388 97.7061 24.516 97.9674 24.6497 98.2004C24.7834 98.4334 24.9698 98.6315 25.1939 98.7786C25.6099 99.0251 25.9635 98.8246 25.9635 98.3316C25.9611 98.1834 25.9344 98.0366 25.8845 97.8971Z" fill="white"/>
<path id="Vector_172" d="M26.642 99.8105C26.5588 99.5013 26.4589 99.1713 26.3507 98.8663C26.2803 98.7843 26.1975 98.7138 26.1053 98.6574C25.7933 98.4778 25.5437 98.624 25.5437 98.9833C25.554 99.1797 25.6103 99.3709 25.7078 99.5415C25.8054 99.7121 25.9416 99.8572 26.1053 99.9651C26.3591 100.107 26.592 100.036 26.642 99.8105Z" fill="white"/>
<g id="Group_16">
<path id="Vector_173" d="M26.9288 100.96C26.9288 100.96 26.4213 98.5781 25.8888 97.9013C25.3563 97.2245 23.9835 95.2149 23.9835 95.2149C23.9835 95.2149 23.7172 97.3665 24.4494 98.3609C25.215 99.2837 26.0434 100.152 26.9288 100.96Z" fill="url(#paint90_linear_801_53311)"/>
</g>
<path id="Vector_174" opacity="0.2" d="M39.2718 77.058C38.3358 76.5775 37.3707 76.0553 36.4138 75.4913C33.3105 73.6528 30.366 71.5566 27.6112 69.2244C26.1136 72.5124 25.4604 76.3603 24.6159 80.4045C24.0824 83.2143 23.8039 86.0669 23.7839 88.9273C24.3206 91.9647 25.7516 93.3308 25.7516 93.335C26.2939 93.8966 26.8765 94.4174 27.4947 94.8934C31.7005 84.3526 36.6967 79.1302 39.2718 77.058Z" fill="white"/>
<path id="Vector_175" d="M40.9316 109.194C40.9316 109.466 40.7403 109.574 40.5156 109.436C40.394 109.356 40.2929 109.248 40.2207 109.121C40.1484 108.994 40.1069 108.851 40.0996 108.705C40.0996 108.434 40.2868 108.325 40.5156 108.459C40.6371 108.54 40.738 108.649 40.8102 108.777C40.8824 108.905 40.924 109.047 40.9316 109.194Z" fill="white"/>
</g>
</g>
</g>
<defs>
<filter id="filter0_d_801_53311" x="10.6269" y="-2.12634" width="164.096" height="129.45" filterUnits="userSpaceOnUse" color-interpolation-filters="sRGB">
<feFlood flood-opacity="0" result="BackgroundImageFix"/>
<feColorMatrix in="SourceAlpha" type="matrix" values="0 0 0 0 0 0 0 0 0 0 0 0 0 0 0 0 0 0 127 0" result="hardAlpha"/>
<feOffset dx="1.67463" dy="6.69851"/>
<feGaussianBlur stdDeviation="5.02388"/>
<feComposite in2="hardAlpha" operator="out"/>
<feColorMatrix type="matrix" values="0 0 0 0 0 0 0 0 0 0 0 0 0 0 0 0 0 0 0.25 0"/>
<feBlend mode="normal" in2="BackgroundImageFix" result="effect1_dropShadow_801_53311"/>
<feBlend mode="normal" in="SourceGraphic" in2="effect1_dropShadow_801_53311" result="shape"/>
</filter>
<linearGradient id="paint0_linear_801_53311" x1="64.1946" y1="99.5224" x2="62.7728" y2="93.0993" gradientUnits="userSpaceOnUse">
<stop stop-color="#D0D2D4"/>
<stop offset="1" stop-color="#86898B"/>
</linearGradient>
<linearGradient id="paint1_linear_801_53311" x1="64.7395" y1="93.9866" x2="62.5975" y2="100.043" gradientUnits="userSpaceOnUse">
<stop stop-color="#EDF0F2"/>
<stop offset="1" stop-color="#989C9E"/>
</linearGradient>
<linearGradient id="paint2_linear_801_53311" x1="63.7453" y1="95.2361" x2="63.7453" y2="98.8374" gradientUnits="userSpaceOnUse">
<stop stop-color="#E9EAED"/>
<stop offset="1" stop-color="#656869"/>
</linearGradient>
<linearGradient id="paint3_linear_801_53311" x1="64.5857" y1="95.1942" x2="63.2651" y2="99.1556" gradientUnits="userSpaceOnUse">
<stop stop-color="#EDF0F2"/>
<stop offset="1" stop-color="#989C9E"/>
</linearGradient>
<linearGradient id="paint4_linear_801_53311" x1="64.0989" y1="96.0171" x2="63.7675" y2="98.4482" gradientUnits="userSpaceOnUse">
<stop stop-color="#A9ABAD"/>
<stop offset="1" stop-color="#5F6264"/>
</linearGradient>
<linearGradient id="paint5_linear_801_53311" x1="64.0949" y1="96.0672" x2="63.7761" y2="98.3855" gradientUnits="userSpaceOnUse">
<stop stop-color="#EDF0F2"/>
<stop offset="1" stop-color="#989C9E"/>
</linearGradient>
<linearGradient id="paint6_linear_801_53311" x1="64.1488" y1="96.7564" x2="63.5499" y2="97.8781" gradientUnits="userSpaceOnUse">
<stop stop-color="#D0D2D4"/>
<stop offset="1" stop-color="#86898B"/>
</linearGradient>
<linearGradient id="paint7_linear_801_53311" x1="64.9851" y1="96.4303" x2="65.3006" y2="96.4303" gradientUnits="userSpaceOnUse">
<stop stop-color="#9FA1A3"/>
<stop offset="1" stop-color="#55585A"/>
</linearGradient>
<linearGradient id="paint8_linear_801_53311" x1="64.7519" y1="97.37" x2="65.0674" y2="97.37" gradientUnits="userSpaceOnUse">
<stop stop-color="#9FA1A3"/>
<stop offset="1" stop-color="#55585A"/>
</linearGradient>
<linearGradient id="paint9_linear_801_53311" x1="64.157" y1="98.2184" x2="64.4642" y2="98.2184" gradientUnits="userSpaceOnUse">
<stop stop-color="#9FA1A3"/>
<stop offset="1" stop-color="#55585A"/>
</linearGradient>
<linearGradient id="paint10_linear_801_53311" x1="63.4251" y1="98.636" x2="63.7322" y2="98.636" gradientUnits="userSpaceOnUse">
<stop stop-color="#9FA1A3"/>
<stop offset="1" stop-color="#55585A"/>
</linearGradient>
<linearGradient id="paint11_linear_801_53311" x1="62.8344" y1="98.4774" x2="63.1374" y2="98.4774" gradientUnits="userSpaceOnUse">
<stop stop-color="#9FA1A3"/>
<stop offset="1" stop-color="#55585A"/>
</linearGradient>
<linearGradient id="paint12_linear_801_53311" x1="62.6013" y1="97.7922" x2="62.9168" y2="97.7922" gradientUnits="userSpaceOnUse">
<stop stop-color="#9FA1A3"/>
<stop offset="1" stop-color="#55585A"/>
</linearGradient>
<linearGradient id="paint13_linear_801_53311" x1="62.8341" y1="96.8564" x2="63.1455" y2="96.8564" gradientUnits="userSpaceOnUse">
<stop stop-color="#9FA1A3"/>
<stop offset="1" stop-color="#55585A"/>
</linearGradient>
<linearGradient id="paint14_linear_801_53311" x1="63.4335" y1="96.0125" x2="63.7449" y2="96.0125" gradientUnits="userSpaceOnUse">
<stop stop-color="#9FA1A3"/>
<stop offset="1" stop-color="#55585A"/>
</linearGradient>
<linearGradient id="paint15_linear_801_53311" x1="64.1694" y1="95.5863" x2="64.4766" y2="95.5863" gradientUnits="userSpaceOnUse">
<stop stop-color="#9FA1A3"/>
<stop offset="1" stop-color="#55585A"/>
</linearGradient>
<linearGradient id="paint16_linear_801_53311" x1="64.7602" y1="95.7497" x2="65.0674" y2="95.7497" gradientUnits="userSpaceOnUse">
<stop stop-color="#9FA1A3"/>
<stop offset="1" stop-color="#55585A"/>
</linearGradient>
<linearGradient id="paint17_linear_801_53311" x1="63.2834" y1="94.4922" x2="64.0323" y2="94.4922" gradientUnits="userSpaceOnUse">
<stop stop-color="#858789"/>
<stop offset="1" stop-color="#3B3E40"/>
</linearGradient>
<linearGradient id="paint18_linear_801_53311" x1="64.6936" y1="94.2748" x2="65.2927" y2="94.2748" gradientUnits="userSpaceOnUse">
<stop stop-color="#858789"/>
<stop offset="1" stop-color="#3B3E40"/>
</linearGradient>
<linearGradient id="paint19_linear_801_53311" x1="65.5923" y1="95.0101" x2="65.9251" y2="95.0101" gradientUnits="userSpaceOnUse">
<stop stop-color="#858789"/>
<stop offset="1" stop-color="#3B3E40"/>
</linearGradient>
<linearGradient id="paint20_linear_801_53311" x1="65.5926" y1="96.6312" x2="65.9254" y2="96.6312" gradientUnits="userSpaceOnUse">
<stop stop-color="#858789"/>
<stop offset="1" stop-color="#3B3E40"/>
</linearGradient>
<linearGradient id="paint21_linear_801_53311" x1="64.6897" y1="98.4068" x2="65.2971" y2="98.4068" gradientUnits="userSpaceOnUse">
<stop stop-color="#858789"/>
<stop offset="1" stop-color="#3B3E40"/>
</linearGradient>
<linearGradient id="paint22_linear_801_53311" x1="63.2918" y1="99.635" x2="64.0364" y2="99.635" gradientUnits="userSpaceOnUse">
<stop stop-color="#858789"/>
<stop offset="1" stop-color="#3B3E40"/>
</linearGradient>
<linearGradient id="paint23_linear_801_53311" x1="62.0271" y1="99.8606" x2="62.6344" y2="99.8606" gradientUnits="userSpaceOnUse">
<stop stop-color="#858789"/>
<stop offset="1" stop-color="#3B3E40"/>
</linearGradient>
<linearGradient id="paint24_linear_801_53311" x1="61.3906" y1="99.1255" x2="61.7359" y2="99.1255" gradientUnits="userSpaceOnUse">
<stop stop-color="#858789"/>
<stop offset="1" stop-color="#3B3E40"/>
</linearGradient>
<linearGradient id="paint25_linear_801_53311" x1="61.3867" y1="97.5088" x2="61.7362" y2="97.5088" gradientUnits="userSpaceOnUse">
<stop stop-color="#858789"/>
<stop offset="1" stop-color="#3B3E40"/>
</linearGradient>
<linearGradient id="paint26_linear_801_53311" x1="62.0229" y1="95.7207" x2="62.6345" y2="95.7207" gradientUnits="userSpaceOnUse">
<stop stop-color="#858789"/>
<stop offset="1" stop-color="#3B3E40"/>
</linearGradient>
<linearGradient id="paint27_linear_801_53311" x1="123.475" y1="65.1507" x2="122.049" y2="58.7277" gradientUnits="userSpaceOnUse">
<stop stop-color="#D0D2D4"/>
<stop offset="1" stop-color="#86898B"/>
</linearGradient>
<linearGradient id="paint28_linear_801_53311" x1="124.016" y1="59.6151" x2="121.878" y2="65.6715" gradientUnits="userSpaceOnUse">
<stop stop-color="#EDF0F2"/>
<stop offset="1" stop-color="#989C9E"/>
</linearGradient>
<linearGradient id="paint29_linear_801_53311" x1="123.022" y1="60.8645" x2="123.022" y2="64.4659" gradientUnits="userSpaceOnUse">
<stop stop-color="#E9EAED"/>
<stop offset="1" stop-color="#656869"/>
</linearGradient>
<linearGradient id="paint30_linear_801_53311" x1="123.866" y1="60.8224" x2="122.542" y2="64.7838" gradientUnits="userSpaceOnUse">
<stop stop-color="#EDF0F2"/>
<stop offset="1" stop-color="#989C9E"/>
</linearGradient>
<linearGradient id="paint31_linear_801_53311" x1="123.379" y1="61.6458" x2="123.044" y2="64.0769" gradientUnits="userSpaceOnUse">
<stop stop-color="#A9ABAD"/>
<stop offset="1" stop-color="#5F6264"/>
</linearGradient>
<linearGradient id="paint32_linear_801_53311" x1="123.371" y1="61.6958" x2="123.052" y2="64.0141" gradientUnits="userSpaceOnUse">
<stop stop-color="#EDF0F2"/>
<stop offset="1" stop-color="#989C9E"/>
</linearGradient>
<linearGradient id="paint33_linear_801_53311" x1="123.429" y1="62.3851" x2="122.826" y2="63.5068" gradientUnits="userSpaceOnUse">
<stop stop-color="#D0D2D4"/>
<stop offset="1" stop-color="#86898B"/>
</linearGradient>
<linearGradient id="paint34_linear_801_53311" x1="124.266" y1="62.0589" x2="124.577" y2="62.0589" gradientUnits="userSpaceOnUse">
<stop stop-color="#9FA1A3"/>
<stop offset="1" stop-color="#55585A"/>
</linearGradient>
<linearGradient id="paint35_linear_801_53311" x1="124.033" y1="62.9947" x2="124.344" y2="62.9947" gradientUnits="userSpaceOnUse">
<stop stop-color="#9FA1A3"/>
<stop offset="1" stop-color="#55585A"/>
</linearGradient>
<linearGradient id="paint36_linear_801_53311" x1="123.434" y1="63.8469" x2="123.741" y2="63.8469" gradientUnits="userSpaceOnUse">
<stop stop-color="#9FA1A3"/>
<stop offset="1" stop-color="#55585A"/>
</linearGradient>
<linearGradient id="paint37_linear_801_53311" x1="122.702" y1="64.2646" x2="123.009" y2="64.2646" gradientUnits="userSpaceOnUse">
<stop stop-color="#9FA1A3"/>
<stop offset="1" stop-color="#55585A"/>
</linearGradient>
<linearGradient id="paint38_linear_801_53311" x1="122.111" y1="64.1062" x2="122.414" y2="64.1062" gradientUnits="userSpaceOnUse">
<stop stop-color="#9FA1A3"/>
<stop offset="1" stop-color="#55585A"/>
</linearGradient>
<linearGradient id="paint39_linear_801_53311" x1="121.877" y1="63.421" x2="122.193" y2="63.421" gradientUnits="userSpaceOnUse">
<stop stop-color="#9FA1A3"/>
<stop offset="1" stop-color="#55585A"/>
</linearGradient>
<linearGradient id="paint40_linear_801_53311" x1="122.111" y1="62.4847" x2="122.426" y2="62.4847" gradientUnits="userSpaceOnUse">
<stop stop-color="#9FA1A3"/>
<stop offset="1" stop-color="#55585A"/>
</linearGradient>
<linearGradient id="paint41_linear_801_53311" x1="122.71" y1="61.6408" x2="123.021" y2="61.6408" gradientUnits="userSpaceOnUse">
<stop stop-color="#9FA1A3"/>
<stop offset="1" stop-color="#55585A"/>
</linearGradient>
<linearGradient id="paint42_linear_801_53311" x1="123.446" y1="61.2148" x2="123.753" y2="61.2148" gradientUnits="userSpaceOnUse">
<stop stop-color="#9FA1A3"/>
<stop offset="1" stop-color="#55585A"/>
</linearGradient>
<linearGradient id="paint43_linear_801_53311" x1="124.037" y1="61.3779" x2="124.344" y2="61.3779" gradientUnits="userSpaceOnUse">
<stop stop-color="#9FA1A3"/>
<stop offset="1" stop-color="#55585A"/>
</linearGradient>
<linearGradient id="paint44_linear_801_53311" x1="122.564" y1="60.1207" x2="123.309" y2="60.1207" gradientUnits="userSpaceOnUse">
<stop stop-color="#858789"/>
<stop offset="1" stop-color="#3B3E40"/>
</linearGradient>
<linearGradient id="paint45_linear_801_53311" x1="123.97" y1="59.8992" x2="124.574" y2="59.8992" gradientUnits="userSpaceOnUse">
<stop stop-color="#858789"/>
<stop offset="1" stop-color="#3B3E40"/>
</linearGradient>
<linearGradient id="paint46_linear_801_53311" x1="124.869" y1="60.6386" x2="125.202" y2="60.6386" gradientUnits="userSpaceOnUse">
<stop stop-color="#858789"/>
<stop offset="1" stop-color="#3B3E40"/>
</linearGradient>
<linearGradient id="paint47_linear_801_53311" x1="124.869" y1="62.2597" x2="125.202" y2="62.2597" gradientUnits="userSpaceOnUse">
<stop stop-color="#858789"/>
<stop offset="1" stop-color="#3B3E40"/>
</linearGradient>
<linearGradient id="paint48_linear_801_53311" x1="123.97" y1="64.0355" x2="124.573" y2="64.0355" gradientUnits="userSpaceOnUse">
<stop stop-color="#858789"/>
<stop offset="1" stop-color="#3B3E40"/>
</linearGradient>
<linearGradient id="paint49_linear_801_53311" x1="122.568" y1="65.2635" x2="123.313" y2="65.2635" gradientUnits="userSpaceOnUse">
<stop stop-color="#858789"/>
<stop offset="1" stop-color="#3B3E40"/>
</linearGradient>
<linearGradient id="paint50_linear_801_53311" x1="121.308" y1="65.4891" x2="121.915" y2="65.4891" gradientUnits="userSpaceOnUse">
<stop stop-color="#858789"/>
<stop offset="1" stop-color="#3B3E40"/>
</linearGradient>
<linearGradient id="paint51_linear_801_53311" x1="120.667" y1="64.7539" x2="121.013" y2="64.7539" gradientUnits="userSpaceOnUse">
<stop stop-color="#858789"/>
<stop offset="1" stop-color="#3B3E40"/>
</linearGradient>
<linearGradient id="paint52_linear_801_53311" x1="120.667" y1="63.1371" x2="121.013" y2="63.1371" gradientUnits="userSpaceOnUse">
<stop stop-color="#858789"/>
<stop offset="1" stop-color="#3B3E40"/>
</linearGradient>
<linearGradient id="paint53_linear_801_53311" x1="121.3" y1="61.349" x2="121.916" y2="61.349" gradientUnits="userSpaceOnUse">
<stop stop-color="#858789"/>
<stop offset="1" stop-color="#3B3E40"/>
</linearGradient>
<linearGradient id="paint54_linear_801_53311" x1="135.348" y1="58.4997" x2="133.926" y2="52.0766" gradientUnits="userSpaceOnUse">
<stop stop-color="#D0D2D4"/>
<stop offset="1" stop-color="#86898B"/>
</linearGradient>
<linearGradient id="paint55_linear_801_53311" x1="135.893" y1="52.964" x2="133.751" y2="59.0203" gradientUnits="userSpaceOnUse">
<stop stop-color="#EDF0F2"/>
<stop offset="1" stop-color="#989C9E"/>
</linearGradient>
<linearGradient id="paint56_linear_801_53311" x1="134.899" y1="54.2173" x2="134.899" y2="57.8187" gradientUnits="userSpaceOnUse">
<stop stop-color="#E9EAED"/>
<stop offset="1" stop-color="#656869"/>
</linearGradient>
<linearGradient id="paint57_linear_801_53311" x1="135.739" y1="54.1758" x2="134.419" y2="58.1331" gradientUnits="userSpaceOnUse">
<stop stop-color="#EDF0F2"/>
<stop offset="1" stop-color="#989C9E"/>
</linearGradient>
<linearGradient id="paint58_linear_801_53311" x1="135.256" y1="54.9943" x2="134.921" y2="57.4254" gradientUnits="userSpaceOnUse">
<stop stop-color="#A9ABAD"/>
<stop offset="1" stop-color="#5F6264"/>
</linearGradient>
<linearGradient id="paint59_linear_801_53311" x1="135.248" y1="55.0445" x2="134.929" y2="57.367" gradientUnits="userSpaceOnUse">
<stop stop-color="#EDF0F2"/>
<stop offset="1" stop-color="#989C9E"/>
</linearGradient>
<linearGradient id="paint60_linear_801_53311" x1="135.302" y1="55.7382" x2="134.704" y2="56.8557" gradientUnits="userSpaceOnUse">
<stop stop-color="#D0D2D4"/>
<stop offset="1" stop-color="#86898B"/>
</linearGradient>
<linearGradient id="paint61_linear_801_53311" x1="136.138" y1="55.4076" x2="136.454" y2="55.4076" gradientUnits="userSpaceOnUse">
<stop stop-color="#9FA1A3"/>
<stop offset="1" stop-color="#55585A"/>
</linearGradient>
<linearGradient id="paint62_linear_801_53311" x1="135.905" y1="56.3478" x2="136.221" y2="56.3478" gradientUnits="userSpaceOnUse">
<stop stop-color="#9FA1A3"/>
<stop offset="1" stop-color="#55585A"/>
</linearGradient>
<linearGradient id="paint63_linear_801_53311" x1="135.311" y1="57.1959" x2="135.618" y2="57.1959" gradientUnits="userSpaceOnUse">
<stop stop-color="#9FA1A3"/>
<stop offset="1" stop-color="#55585A"/>
</linearGradient>
<linearGradient id="paint64_linear_801_53311" x1="134.578" y1="57.6176" x2="134.886" y2="57.6176" gradientUnits="userSpaceOnUse">
<stop stop-color="#9FA1A3"/>
<stop offset="1" stop-color="#55585A"/>
</linearGradient>
<linearGradient id="paint65_linear_801_53311" x1="133.988" y1="57.4548" x2="134.291" y2="57.4548" gradientUnits="userSpaceOnUse">
<stop stop-color="#9FA1A3"/>
<stop offset="1" stop-color="#55585A"/>
</linearGradient>
<linearGradient id="paint66_linear_801_53311" x1="133.755" y1="56.7696" x2="134.07" y2="56.7696" gradientUnits="userSpaceOnUse">
<stop stop-color="#9FA1A3"/>
<stop offset="1" stop-color="#55585A"/>
</linearGradient>
<linearGradient id="paint67_linear_801_53311" x1="133.988" y1="55.8339" x2="134.299" y2="55.8339" gradientUnits="userSpaceOnUse">
<stop stop-color="#9FA1A3"/>
<stop offset="1" stop-color="#55585A"/>
</linearGradient>
<linearGradient id="paint68_linear_801_53311" x1="134.587" y1="54.99" x2="134.898" y2="54.99" gradientUnits="userSpaceOnUse">
<stop stop-color="#9FA1A3"/>
<stop offset="1" stop-color="#55585A"/>
</linearGradient>
<linearGradient id="paint69_linear_801_53311" x1="135.323" y1="54.5636" x2="135.63" y2="54.5636" gradientUnits="userSpaceOnUse">
<stop stop-color="#9FA1A3"/>
<stop offset="1" stop-color="#55585A"/>
</linearGradient>
<linearGradient id="paint70_linear_801_53311" x1="135.914" y1="54.7265" x2="136.221" y2="54.7265" gradientUnits="userSpaceOnUse">
<stop stop-color="#9FA1A3"/>
<stop offset="1" stop-color="#55585A"/>
</linearGradient>
<linearGradient id="paint71_linear_801_53311" x1="134.437" y1="53.4695" x2="135.186" y2="53.4695" gradientUnits="userSpaceOnUse">
<stop stop-color="#858789"/>
<stop offset="1" stop-color="#3B3E40"/>
</linearGradient>
<linearGradient id="paint72_linear_801_53311" x1="135.847" y1="53.2522" x2="136.446" y2="53.2522" gradientUnits="userSpaceOnUse">
<stop stop-color="#858789"/>
<stop offset="1" stop-color="#3B3E40"/>
</linearGradient>
<linearGradient id="paint73_linear_801_53311" x1="136.746" y1="53.9917" x2="137.079" y2="53.9917" gradientUnits="userSpaceOnUse">
<stop stop-color="#858789"/>
<stop offset="1" stop-color="#3B3E40"/>
</linearGradient>
<linearGradient id="paint74_linear_801_53311" x1="136.746" y1="55.6128" x2="137.078" y2="55.6128" gradientUnits="userSpaceOnUse">
<stop stop-color="#858789"/>
<stop offset="1" stop-color="#3B3E40"/>
</linearGradient>
<linearGradient id="paint75_linear_801_53311" x1="135.843" y1="57.3884" x2="136.45" y2="57.3884" gradientUnits="userSpaceOnUse">
<stop stop-color="#858789"/>
<stop offset="1" stop-color="#3B3E40"/>
</linearGradient>
<linearGradient id="paint76_linear_801_53311" x1="134.446" y1="58.6124" x2="135.19" y2="58.6124" gradientUnits="userSpaceOnUse">
<stop stop-color="#858789"/>
<stop offset="1" stop-color="#3B3E40"/>
</linearGradient>
<linearGradient id="paint77_linear_801_53311" x1="133.181" y1="58.838" x2="133.788" y2="58.838" gradientUnits="userSpaceOnUse">
<stop stop-color="#858789"/>
<stop offset="1" stop-color="#3B3E40"/>
</linearGradient>
<linearGradient id="paint78_linear_801_53311" x1="132.544" y1="58.1029" x2="132.889" y2="58.1029" gradientUnits="userSpaceOnUse">
<stop stop-color="#858789"/>
<stop offset="1" stop-color="#3B3E40"/>
</linearGradient>
<linearGradient id="paint79_linear_801_53311" x1="132.54" y1="56.4902" x2="132.889" y2="56.4902" gradientUnits="userSpaceOnUse">
<stop stop-color="#858789"/>
<stop offset="1" stop-color="#3B3E40"/>
</linearGradient>
<linearGradient id="paint80_linear_801_53311" x1="133.177" y1="54.6978" x2="133.788" y2="54.6978" gradientUnits="userSpaceOnUse">
<stop stop-color="#858789"/>
<stop offset="1" stop-color="#3B3E40"/>
</linearGradient>
<linearGradient id="paint81_linear_801_53311" x1="133.164" y1="52.9054" x2="135.57" y2="59.295" gradientUnits="userSpaceOnUse">
<stop stop-color="#D4D7D9"/>
<stop offset="1" stop-color="#BABDBF"/>
</linearGradient>
<linearGradient id="paint82_linear_801_53311" x1="60.6001" y1="93.0384" x2="64.9973" y2="99.2416" gradientUnits="userSpaceOnUse">
<stop stop-color="#D4D7D9"/>
<stop offset="1" stop-color="#BABDBF"/>
</linearGradient>
<linearGradient id="paint83_linear_801_53311" x1="104.331" y1="41.6503" x2="120.772" y2="13.2891" gradientUnits="userSpaceOnUse">
<stop/>
<stop offset="0.09" stop-color="white"/>
<stop offset="0.95" stop-color="white"/>
<stop offset="1"/>
</linearGradient>
<linearGradient id="paint84_linear_801_53311" x1="39.4256" y1="104.694" x2="39.7779" y2="106.035" gradientUnits="userSpaceOnUse">
<stop stop-color="#FAFFFF"/>
<stop offset="1" stop-color="#D4D7D9"/>
</linearGradient>
<linearGradient id="paint85_linear_801_53311" x1="41.2643" y1="104.398" x2="41.6921" y2="106.026" gradientUnits="userSpaceOnUse">
<stop stop-color="#FAFFFF"/>
<stop offset="1" stop-color="#D4D7D9"/>
</linearGradient>
<linearGradient id="paint86_linear_801_53311" x1="42.6578" y1="104.13" x2="42.9345" y2="105.178" gradientUnits="userSpaceOnUse">
<stop stop-color="#FAFFFF"/>
<stop offset="1" stop-color="#D4D7D9"/>
</linearGradient>
<linearGradient id="paint87_linear_801_53311" x1="40.1706" y1="108.149" x2="40.2713" y2="108.972" gradientUnits="userSpaceOnUse">
<stop/>
<stop offset="0.09" stop-color="#0A0A0A"/>
<stop offset="0.23" stop-color="#262626"/>
<stop offset="0.43" stop-color="#545454"/>
<stop offset="0.65" stop-color="#939393"/>
<stop offset="0.91" stop-color="#E2E2E2"/>
<stop offset="1" stop-color="white"/>
</linearGradient>
<linearGradient id="paint88_linear_801_53311" x1="39.4258" y1="109.015" x2="41.8927" y2="109.015" gradientUnits="userSpaceOnUse">
<stop/>
<stop offset="0.09" stop-color="#0A0A0A"/>
<stop offset="0.23" stop-color="#262626"/>
<stop offset="0.43" stop-color="#545454"/>
<stop offset="0.65" stop-color="#939393"/>
<stop offset="0.91" stop-color="#E2E2E2"/>
<stop offset="1" stop-color="white"/>
</linearGradient>
<linearGradient id="paint89_linear_801_53311" x1="39.8167" y1="104.477" x2="41.642" y2="107.554" gradientUnits="userSpaceOnUse">
<stop stop-color="white"/>
<stop offset="1" stop-color="white"/>
</linearGradient>
<linearGradient id="paint90_linear_801_53311" x1="25.8763" y1="97.5754" x2="24.3209" y2="99.4448" gradientUnits="userSpaceOnUse">
<stop stop-color="white"/>
<stop offset="1" stop-color="white"/>
</linearGradient>
<clipPath id="clip0_801_53311">
<rect width="172" height="128" fill="white"/>
</clipPath>
</defs>
</svg>
