<svg width="90" height="76" viewBox="0 0 90 76" fill="none" xmlns="http://www.w3.org/2000/svg">
<g id="Frame 10" clip-path="url(#clip0_1001_7895)">
<g id="Group 48208" filter="url(#filter0_d_1001_7895)">
<path id="Vector" d="M29.4591 60.5474L32.2652 63.9384L34.9334 64.8124L35.4 63.7609L35.8468 60.876L29.4591 60.5474Z" fill="#222B2E"/>
<path id="Vector_2" d="M76.5588 39.439L76.0364 40.6285L73.3715 40.0765L70.6738 37.3788H77.4033L76.5588 39.439Z" fill="#222B2E"/>
<path id="Vector_3" d="M32.906 61.9241L30.8425 60.9778C30.2313 60.7708 29.4591 60.8825 28.618 61.3688C26.6464 62.5123 25.0298 65.2921 25.0298 67.5791C25.0298 68.7785 25.4734 69.6032 26.1798 69.9515L28.1185 70.8518C28.7461 71.1213 29.5709 71.026 30.4679 70.5233C32.4394 69.3798 34.0528 66.5966 34.0528 64.3097C34.0528 63.0972 33.6092 62.2724 32.906 61.9241Z" fill="#3B4447"/>
<path id="Vector_4" d="M34.0528 64.2967C34.0528 66.5968 32.4493 69.3668 30.4679 70.5102C28.4866 71.6537 26.8798 70.7271 26.8798 68.4369C26.8798 66.1466 28.4866 63.37 30.4679 62.2266C32.4493 61.0831 34.0528 62.0097 34.0528 64.2967Z" fill="#555E61"/>
<path id="Vector_5" d="M33.7374 64.543C33.7374 66.6296 32.2752 69.163 30.4515 70.2046C28.6279 71.2462 27.1656 70.405 27.1656 68.3185C27.1656 66.232 28.6279 63.6986 30.4515 62.657C32.2752 61.6153 33.7374 62.4598 33.7374 64.543Z" fill="#3B4447"/>
<path id="Vector_6" d="M32.7287 65.2823C32.6905 66.0328 32.4749 66.7636 32.0996 67.4148C31.7244 68.0659 31.2001 68.6188 30.5698 69.0282C29.4756 69.6853 28.3913 69.0282 28.4143 67.773C28.4508 67.0219 28.6653 66.2904 29.0401 65.6385C29.4149 64.9867 29.9392 64.4332 30.5698 64.0238C31.6673 63.3633 32.7517 64.0106 32.7287 65.2823Z" fill="url(#paint0_linear_1001_7895)"/>
<path id="Vector_7" d="M32.6398 65.3842C32.6047 66.0992 32.4001 66.7955 32.0431 67.416C31.686 68.0364 31.1867 68.5631 30.5862 68.9527C29.5445 69.5803 28.5095 68.9527 28.5325 67.7566C28.5671 67.0415 28.7714 66.3449 29.1285 65.7244C29.4856 65.1039 29.9853 64.5773 30.5862 64.1881C31.6376 63.5573 32.6628 64.175 32.6398 65.3842Z" fill="#CCCBCA"/>
<path id="Vector_8" opacity="0.5" d="M31.4602 63.9385C32.0254 64.0601 32.446 64.5956 32.4197 65.3415C32.3849 66.0477 32.1827 66.7354 31.8296 67.3479C31.4765 67.9604 30.9827 68.4801 30.389 68.864C30.2088 68.9869 30.0025 69.0663 29.7864 69.0959C29.5704 69.1256 29.3503 69.1047 29.1437 69.0349C29.3678 69.1573 29.6217 69.2145 29.8767 69.2C30.1316 69.1854 30.3774 69.0998 30.5862 68.9527C31.1867 68.5631 31.6861 68.0364 32.0431 67.416C32.4002 66.7956 32.6047 66.0992 32.6398 65.3843C32.6563 64.5234 32.1371 63.9648 31.4602 63.9385Z" fill="white"/>
<path id="Vector_9" d="M31.7954 65.9921C31.7771 66.3729 31.6682 66.7438 31.4779 67.074C31.2877 67.4043 31.0214 67.6845 30.7012 67.8914C30.5935 67.9733 30.464 68.0214 30.3289 68.0297C30.1938 68.0379 30.0594 68.0058 29.9425 67.9376C29.8257 67.8693 29.7318 67.7679 29.6726 67.6462C29.6135 67.5245 29.5918 67.388 29.6103 67.2539C29.6288 66.8736 29.7374 66.5031 29.927 66.1729C30.1167 65.8427 30.382 65.5623 30.7012 65.3547C30.8089 65.2716 30.9388 65.2225 31.0745 65.2137C31.2102 65.2049 31.3454 65.2368 31.4628 65.3052C31.5803 65.3736 31.6747 65.4755 31.7339 65.5979C31.7932 65.7203 31.8146 65.8575 31.7954 65.9921Z" fill="#E7E8E7"/>
<path id="Vector_10" fill-rule="evenodd" clip-rule="evenodd" d="M29.9093 65.8574L29.4099 65.3645C29.3198 65.4926 29.2364 65.6253 29.1602 65.7621L29.7878 66.0512C29.8239 65.9855 29.8666 65.9198 29.9093 65.8574Z" fill="#343433"/>
<path id="Vector_11" fill-rule="evenodd" clip-rule="evenodd" d="M30.6519 65.1346C30.6811 65.1157 30.7119 65.0992 30.7439 65.0854L30.6157 64.2146L30.5697 64.2409C30.4476 64.3182 30.3302 64.4027 30.2181 64.4939L30.5237 65.2168L30.6519 65.1346Z" fill="#343433"/>
<path id="Vector_12" fill-rule="evenodd" clip-rule="evenodd" d="M29.6432 66.3371L28.986 66.0874C28.9137 66.2426 28.8501 66.4016 28.7954 66.5639L29.5314 66.6131C29.5629 66.5189 29.6002 66.4267 29.6432 66.3371Z" fill="#343433"/>
<path id="Vector_13" fill-rule="evenodd" clip-rule="evenodd" d="M30.2707 65.4303L29.9782 64.7074C29.8614 64.821 29.7517 64.9417 29.6497 65.0688L30.0933 65.634C30.1425 65.5584 30.205 65.4927 30.2707 65.4303Z" fill="#343433"/>
<path id="Vector_14" fill-rule="evenodd" clip-rule="evenodd" d="M31.71 65.2562L32.0846 64.6253C32.0616 64.5793 32.0353 64.5366 32.009 64.4938C31.9766 64.4451 31.9403 64.3989 31.9006 64.3558L31.6082 65.1477C31.647 65.179 31.6812 65.2155 31.71 65.2562Z" fill="#343433"/>
<path id="Vector_15" fill-rule="evenodd" clip-rule="evenodd" d="M31.871 65.6141L32.2653 65.1574C32.2456 65.0654 32.2226 64.9734 32.1963 64.8879L31.802 65.4005C31.8328 65.469 31.8559 65.5406 31.871 65.6141Z" fill="#343433"/>
<path id="Vector_16" fill-rule="evenodd" clip-rule="evenodd" d="M31.4635 65.0555L31.7132 64.1848C31.6236 64.1232 31.5233 64.0787 31.4175 64.0533L31.3091 64.9997C31.3629 65.0112 31.4148 65.03 31.4635 65.0555Z" fill="#343433"/>
<path id="Vector_17" fill-rule="evenodd" clip-rule="evenodd" d="M31.1284 64.9866L31.2335 64.0337C31.1113 64.0354 30.9902 64.0576 30.8754 64.0994L30.9641 65.0096C31.0179 64.9962 31.073 64.9885 31.1284 64.9866Z" fill="#343433"/>
<path id="Vector_18" fill-rule="evenodd" clip-rule="evenodd" d="M29.4592 66.9253H28.7002C28.662 67.0798 28.6345 67.2368 28.618 67.3952L29.4264 67.198C29.4323 67.1066 29.4432 67.0155 29.4592 66.9253Z" fill="#343433"/>
<path id="Vector_19" fill-rule="evenodd" clip-rule="evenodd" d="M30.9805 67.773L30.9542 68.233C31.0397 68.1541 31.1251 68.072 31.204 67.9833L31.1382 67.6218C31.0725 67.6744 31.0167 67.7237 30.9805 67.773Z" fill="#343433"/>
<path id="Vector_20" fill-rule="evenodd" clip-rule="evenodd" d="M31.3683 67.3262L31.48 67.6252C31.5796 67.489 31.6717 67.3475 31.756 67.2014L31.4899 67.1455C31.4504 67.2014 31.411 67.2671 31.3683 67.3262Z" fill="#343433"/>
<path id="Vector_21" fill-rule="evenodd" clip-rule="evenodd" d="M31.6606 66.8202L31.9202 66.8826C31.9955 66.719 32.0614 66.5511 32.1174 66.3799L31.7888 66.4916C31.7539 66.604 31.7111 66.7138 31.6606 66.8202Z" fill="#343433"/>
<path id="Vector_22" fill-rule="evenodd" clip-rule="evenodd" d="M29.4394 67.4807L28.5983 67.6943C28.5983 67.714 28.5983 67.7337 28.5983 67.7567C28.5966 67.8682 28.6132 67.9792 28.6475 68.0853L29.492 67.6844C29.4671 67.6187 29.4495 67.5503 29.4394 67.4807Z" fill="#343433"/>
<path id="Vector_23" fill-rule="evenodd" clip-rule="evenodd" d="M31.8906 65.8672C31.8866 65.9774 31.8745 66.0873 31.8545 66.1958L32.2094 66.0578C32.2544 65.8764 32.2851 65.6919 32.3014 65.5057L31.8906 65.8672Z" fill="#343433"/>
<path id="Vector_24" fill-rule="evenodd" clip-rule="evenodd" d="M30.6519 67.9997L30.5369 68.0588L30.2806 68.693L30.3431 68.67L30.3825 68.6503C30.4712 68.5944 30.5567 68.5353 30.6421 68.4728L30.7538 67.9307L30.6519 67.9997Z" fill="#343433"/>
<path id="Vector_25" fill-rule="evenodd" clip-rule="evenodd" d="M29.5676 67.8257L28.7593 68.312C28.8075 68.3868 28.8674 68.4533 28.9367 68.5091C28.9644 68.5326 28.9941 68.5535 29.0254 68.5716L29.6826 67.9505C29.6388 67.9143 29.6001 67.8723 29.5676 67.8257Z" fill="#343433"/>
<path id="Vector_26" fill-rule="evenodd" clip-rule="evenodd" d="M29.8173 68.0621L29.2192 68.67C29.3101 68.7071 29.4049 68.7335 29.5018 68.7489L29.9158 68.0917C29.8822 68.0845 29.8493 68.0746 29.8173 68.0621Z" fill="#343433"/>
<path id="Vector_27" fill-rule="evenodd" clip-rule="evenodd" d="M30.0802 68.1444L29.7516 68.7687H29.768C29.8471 68.7681 29.9262 68.7626 30.0046 68.7523L30.2938 68.1378C30.2231 68.1487 30.1514 68.1509 30.0802 68.1444Z" fill="#343433"/>
<path id="Vector_28" d="M74.0255 38.2396L71.9488 37.2998C71.3377 37.0928 70.5655 37.2045 69.7243 37.6908C67.7528 38.8343 66.1394 41.6142 66.1394 43.9044C66.1394 45.1038 66.583 45.9285 67.2862 46.2768L69.2281 47.1574C69.8557 47.4236 70.6772 47.3316 71.5742 46.8288C73.5458 45.6854 75.1624 42.9055 75.1624 40.6153C75.1624 39.4126 74.7188 38.5879 74.0255 38.2396Z" fill="#3B4447"/>
<path id="Vector_29" d="M75.1623 40.612C75.1623 42.9121 73.5555 45.6821 71.5741 46.8256C69.5928 47.9691 67.9893 47.0424 67.9893 44.7555C67.9893 42.4685 69.5928 39.6854 71.5741 38.5419C73.5555 37.3984 75.1623 38.3283 75.1623 40.612Z" fill="#555E61"/>
<path id="Vector_30" d="M74.8437 40.8618C74.8437 42.945 73.3814 45.4817 71.5578 46.5234C69.7341 47.565 68.2883 46.7205 68.2883 44.634C68.2883 42.5475 69.7538 40.014 71.5578 38.9724C73.3617 37.9308 74.8437 38.7753 74.8437 40.8618Z" fill="#3B4447"/>
<path id="Vector_31" d="M73.835 41.5979C73.7979 42.3488 73.5832 43.0802 73.2085 43.732C72.8338 44.3837 72.3097 44.9373 71.6794 45.3471C70.582 46.0043 69.4976 45.3471 69.5206 44.0886C69.5575 43.3373 69.7725 42.6055 70.1479 41.9536C70.5232 41.3018 71.0482 40.7485 71.6794 40.3394C72.7736 39.679 73.858 40.3296 73.835 41.5979Z" fill="url(#paint1_linear_1001_7895)"/>
<path id="Vector_32" d="M73.7462 41.7029C73.7102 42.4176 73.5054 43.1137 73.1484 43.734C72.7914 44.3543 72.2925 44.8811 71.6925 45.2713C70.6509 45.8989 69.6191 45.2713 69.6421 44.072C69.6758 43.3571 69.8794 42.6605 70.236 42.0399C70.5925 41.4194 71.0918 40.8927 71.6925 40.5035C72.7374 39.8759 73.7692 40.4937 73.7462 41.7029Z" fill="#CCCBCA"/>
<path id="Vector_33" opacity="0.5" d="M72.5698 40.2572C73.1317 40.3755 73.5556 40.8979 73.526 41.657C73.4916 42.3637 73.2899 43.0522 72.9374 43.6657C72.5849 44.2792 72.0918 44.8003 71.4986 45.186C71.3177 45.3086 71.1107 45.3876 70.894 45.4167C70.6774 45.4457 70.4569 45.4242 70.25 45.3536C70.4738 45.4765 70.7276 45.5342 70.9825 45.5203C71.2375 45.5064 71.4834 45.4213 71.6925 45.2747C72.2925 44.8846 72.7914 44.3577 73.1484 43.7374C73.5054 43.1171 73.7102 42.4211 73.7462 41.7063C73.7626 40.8421 73.2434 40.2802 72.5698 40.2572Z" fill="white"/>
<path id="Vector_34" d="M72.9017 42.3107C72.8826 42.6913 72.7734 43.0619 72.5832 43.392C72.393 43.7222 72.1272 44.0025 71.8076 44.21C71.6999 44.2919 71.5703 44.34 71.4352 44.3483C71.3002 44.3565 71.1657 44.3244 71.0489 44.2562C70.932 44.1879 70.8381 44.0865 70.7789 43.9648C70.7198 43.8431 70.6981 43.7065 70.7166 43.5725C70.7352 43.1922 70.8437 42.8217 71.0334 42.4915C71.223 42.1613 71.4884 41.8809 71.8076 41.6733C71.9152 41.5902 72.0451 41.5411 72.1808 41.5323C72.3165 41.5235 72.4517 41.5554 72.5692 41.6238C72.6866 41.6922 72.781 41.7941 72.8403 41.9165C72.8995 42.0389 72.9209 42.1761 72.9017 42.3107Z" fill="#E7E8E7"/>
<path id="Vector_35" fill-rule="evenodd" clip-rule="evenodd" d="M71.0189 42.1728L70.5195 41.6799C70.4283 41.808 70.3438 41.9407 70.2665 42.0775L70.8941 42.3667C70.9335 42.301 70.9729 42.2287 71.0189 42.1728Z" fill="#343433"/>
<path id="Vector_36" fill-rule="evenodd" clip-rule="evenodd" d="M71.7648 41.45L71.8601 41.4007L71.7286 40.5332L71.6859 40.5562C71.5628 40.6335 71.4443 40.718 71.3311 40.8092L71.6366 41.5354L71.7648 41.45Z" fill="#343433"/>
<path id="Vector_37" fill-rule="evenodd" clip-rule="evenodd" d="M70.7396 42.6526L70.0824 42.4028C70.0079 42.557 69.9442 42.7162 69.8918 42.8793L70.6246 42.9319C70.658 42.8368 70.6964 42.7436 70.7396 42.6526Z" fill="#343433"/>
<path id="Vector_38" fill-rule="evenodd" clip-rule="evenodd" d="M71.3968 41.7489L71.101 41.0227C70.9842 41.1363 70.8744 41.257 70.7725 41.3841L71.2161 41.9493C71.2713 41.8782 71.3317 41.8112 71.3968 41.7489Z" fill="#343433"/>
<path id="Vector_39" fill-rule="evenodd" clip-rule="evenodd" d="M72.8162 41.5715L73.1941 40.9406C73.1678 40.8979 73.1448 40.8519 73.1185 40.8124C73.0922 40.773 73.0462 40.7171 73.0101 40.6711L72.7144 41.463C72.7524 41.4951 72.7866 41.5315 72.8162 41.5715Z" fill="#343433"/>
<path id="Vector_40" fill-rule="evenodd" clip-rule="evenodd" d="M72.9772 41.9295L73.3715 41.4761C73.3559 41.3835 73.3328 41.2923 73.3025 41.2034L72.9082 41.7192C72.94 41.7862 72.9632 41.8568 72.9772 41.9295Z" fill="#343433"/>
<path id="Vector_41" fill-rule="evenodd" clip-rule="evenodd" d="M72.5731 41.3711L72.8228 40.5036C72.7336 40.4413 72.6332 40.3967 72.5271 40.3722L72.4055 41.3152C72.4629 41.3289 72.519 41.3476 72.5731 41.3711Z" fill="#343433"/>
<path id="Vector_42" fill-rule="evenodd" clip-rule="evenodd" d="M72.2347 41.302L72.3431 40.3491C72.2205 40.35 72.0991 40.3734 71.985 40.4181L72.0737 41.3283C72.1263 41.3139 72.1803 41.3051 72.2347 41.302Z" fill="#343433"/>
<path id="Vector_43" fill-rule="evenodd" clip-rule="evenodd" d="M70.5687 43.2406H69.8064C69.771 43.3968 69.7436 43.5548 69.7242 43.7138L70.5359 43.5133C70.5405 43.4218 70.5515 43.3306 70.5687 43.2406Z" fill="#343433"/>
<path id="Vector_44" fill-rule="evenodd" clip-rule="evenodd" d="M72.0704 44.0884L72.0474 44.5484C72.1328 44.4696 72.2149 44.3874 72.2938 44.2987L72.2281 43.9406C72.1787 43.9932 72.1261 44.0426 72.0704 44.0884Z" fill="#343433"/>
<path id="Vector_45" fill-rule="evenodd" clip-rule="evenodd" d="M72.4778 43.6448L72.5895 43.9438C72.6884 43.8067 72.7795 43.6641 72.8622 43.5167L72.5961 43.4608L72.4778 43.6448Z" fill="#343433"/>
<path id="Vector_46" fill-rule="evenodd" clip-rule="evenodd" d="M72.7703 43.1355L73.0266 43.2012C73.1044 43.0382 73.1713 42.8703 73.227 42.6985L72.8984 42.8102C72.8621 42.9211 72.8193 43.0297 72.7703 43.1355Z" fill="#343433"/>
<path id="Vector_47" fill-rule="evenodd" clip-rule="evenodd" d="M70.5458 43.796L69.7079 44.0129C69.7063 44.0326 69.7063 44.0524 69.7079 44.072C69.7069 44.1835 69.7235 44.2944 69.7572 44.4006L70.6016 43.9965C70.5755 43.932 70.5567 43.8647 70.5458 43.796Z" fill="#343433"/>
<path id="Vector_48" fill-rule="evenodd" clip-rule="evenodd" d="M72.997 42.1858C72.9942 42.296 72.9832 42.4058 72.9641 42.5144L73.319 42.3764C73.3613 42.1946 73.391 42.0102 73.4077 41.8243L72.997 42.1858Z" fill="#343433"/>
<path id="Vector_49" fill-rule="evenodd" clip-rule="evenodd" d="M71.7647 44.3152L71.6497 44.3776L71.3934 45.0085L71.4559 44.9888L71.4986 44.9658C71.584 44.9132 71.6727 44.8508 71.7549 44.7884L71.8699 44.2462C71.8364 44.2715 71.8013 44.2945 71.7647 44.3152Z" fill="#343433"/>
<path id="Vector_50" fill-rule="evenodd" clip-rule="evenodd" d="M70.6738 44.1443L69.8655 44.6306C69.9157 44.7028 69.9754 44.768 70.0429 44.8245C70.0711 44.8482 70.1007 44.8701 70.1316 44.8902L70.7888 44.2692C70.7468 44.2311 70.7083 44.1893 70.6738 44.1443Z" fill="#343433"/>
<path id="Vector_51" fill-rule="evenodd" clip-rule="evenodd" d="M70.9236 44.3776L70.3256 44.9887C70.4172 45.0228 70.5118 45.0481 70.6081 45.0643L71.0222 44.4236C70.9881 44.411 70.9551 44.3956 70.9236 44.3776Z" fill="#343433"/>
<path id="Vector_52" fill-rule="evenodd" clip-rule="evenodd" d="M71.1898 44.4598L70.8612 45.0874C70.9411 45.0922 71.0212 45.0922 71.1011 45.0874L71.3869 44.4697C71.3211 44.4756 71.2547 44.4723 71.1898 44.4598Z" fill="#343433"/>
<path id="Vector_53" d="M85.7265 27.4784C85.7265 27.4784 85.4866 21.6164 84.8097 18.2418C84.1328 14.8672 83.0123 11.4762 82.3519 10.4773C81.6914 9.47836 78.1821 6.76751 76.6049 5.87704C75.0276 4.98656 69.4022 2.26258 68.8206 2.20672C68.239 2.15086 67.0068 2.76531 67.0068 2.76531L33.3956 21.9943C33.3956 21.9943 27.8885 25.2078 25.6738 27.0841C23.4591 28.9603 19.8052 33.9844 19.8052 33.9844L13.1218 44.4992C13.1218 44.4992 10.4471 47.3546 9.62889 48.3108C8.81071 49.267 6.87204 51.7577 6.49417 52.7106C6.11629 53.6635 6.00786 56.3579 6.00786 56.3579C6.00786 56.3579 5.47883 56.887 5.47883 57.2451C5.27511 58.953 5.73243 60.6741 6.75704 62.0556C8.43283 64.3558 12.0342 66.2517 14.676 67.8125C17.3178 69.3733 21.2839 70.4806 22.5292 70.3492C23.5511 70.2408 25.2006 69.5606 25.7527 69.3207C26.2999 67.7593 27.0442 66.2742 27.9674 64.9012C29.8567 62.0031 32.1207 61.0633 33.7604 61.6153C35.0517 62.0556 35.009 63.991 34.9334 64.7928L66.9871 45.784H67.2336C67.55 44.568 67.9904 43.3876 68.5479 42.2615C69.9247 39.4422 72.5501 37.6252 74.4822 37.9176C75.9576 38.141 76.0627 39.8267 76.0331 40.6087C76.6344 40.198 81.0408 37.1783 81.9477 36.5835C82.9335 35.9461 85.3814 34.2834 85.5622 33.5507C85.7429 32.8179 85.6246 30.0578 85.6246 30.0578L85.7265 27.4784Z" fill="white"/>
<path id="Vector_54" d="M33.7603 61.6351C33.9944 61.7246 34.205 61.8664 34.3758 62.0498C34.5467 62.2332 34.6733 62.4533 34.7461 62.6932L35.6201 62.036L68.1108 43.2638C68.2423 42.9352 68.3934 42.6066 68.5577 42.278C68.8678 41.6439 69.2481 41.0465 69.6913 40.4971L68.354 40.7632L34.6705 60.347L33.4941 61.5595C33.5843 61.5793 33.6732 61.6045 33.7603 61.6351Z" fill="#404B4D"/>
<path id="Vector_55" d="M74.4855 37.9374C74.7423 37.9703 74.9871 38.0657 75.1985 38.2152C75.4099 38.3647 75.5814 38.5638 75.698 38.795L83.5348 33.8662L83.4461 35.5649C84.4318 34.8519 85.4537 34.0206 85.5655 33.554C85.7199 32.9297 85.6575 30.876 85.6345 30.2451L75.5895 36.3897L74.3311 37.9012L74.4855 37.9374Z" fill="#404B4D"/>
<g id="Vector_56" style="mix-blend-mode:multiply" opacity="0.2">
<path d="M25.1021 69.5803C25.0528 69.6033 25.0002 69.623 24.9443 69.6427C25.0002 69.623 25.0659 69.6033 25.1021 69.5803Z" fill="black"/>
</g>
<path id="Vector_57" d="M26.3803 39.2188C23.4033 37.5397 21.0966 35.6044 19.8282 33.9614L13.1448 44.4762L13.0462 44.5781C13.0462 44.5781 11.952 46.6876 18.9608 51.025C25.9695 55.3623 29.6662 54.8103 29.6662 54.8103L35.3244 43.4806C32.2701 42.2185 29.2846 40.7959 26.3803 39.2188Z" fill="#141C1E"/>
<path id="Vector_58" d="M26.2391 39.4488C23.5643 37.9373 21.2577 36.1202 19.8415 34.4214L13.526 44.3579L13.6246 44.6865C13.7954 45.015 13.9795 46.1454 20.1963 49.9833C25.6607 53.3612 27.2117 53.5978 28.6016 53.8738L29.2916 53.9099C29.4329 53.9099 29.8437 53.831 29.9192 53.8245L34.9926 43.6383C32.0035 42.3958 29.0817 40.9973 26.2391 39.4488Z" fill="#303E42"/>
<path id="Vector_59" d="M31.9958 48.6427C31.6672 47.6963 30.5106 46.5561 29.3671 46.0994C29.1066 45.985 28.8267 45.9215 28.5424 45.9121C27.9509 45.9121 27.6749 46.3097 27.9016 46.9932C28.2302 47.9428 29.3868 49.083 30.5139 49.5397C30.7749 49.6526 31.0545 49.7161 31.3386 49.727C31.9465 49.727 32.2225 49.3261 31.9958 48.6427ZM31.5752 49.1947C31.5108 49.2389 31.4328 49.2587 31.3551 49.2506C31.128 49.2427 30.9047 49.1902 30.6979 49.0961C29.7121 48.6952 28.6311 47.6635 28.3583 46.8453C28.2795 46.6021 28.3025 46.4773 28.3255 46.4444C28.3899 46.4002 28.468 46.3804 28.5456 46.3886C28.7727 46.3968 28.9959 46.4492 29.2028 46.543C30.1886 46.9439 31.2663 47.9756 31.5391 48.7938C31.6377 49.0337 31.5982 49.1618 31.5752 49.1947Z" fill="#3D4B4F"/>
<path id="Vector_60" d="M41.3376 40.6284C41.3376 40.6284 42.5172 39.7281 42.4811 41.1114C42.4449 42.4948 42.3299 45.0775 42.1919 46.0402C42.1317 46.6333 41.9479 47.2072 41.6525 47.725C41.3571 48.2429 40.9566 48.6931 40.4767 49.0468C39.2051 50.0654 30.7209 56.785 30.7209 56.785L33.7374 50.1804C33.7374 50.1804 36.1361 45.2319 36.8064 44.141C37.4767 43.0501 41.3376 40.6284 41.3376 40.6284Z" fill="#141C1E"/>
<path id="Vector_61" d="M33.9575 53.8968L36.5862 51.8005V45.0513C35.6596 46.7895 33.9772 50.2627 33.9575 50.3087V50.3448V53.8968Z" fill="#303E42"/>
<path id="Vector_62" d="M42.1295 40.6349C42.1295 40.6349 42.1 40.6021 42.0375 40.6021C41.84 40.6328 41.6535 40.713 41.4954 40.8353C40.434 41.4925 37.5687 43.4246 37.0463 44.2757C37.0134 44.3315 36.974 44.3939 36.9346 44.4662V51.5374L40.3289 48.8397C40.7826 48.5063 41.1612 48.0813 41.4403 47.5922C41.7193 47.1032 41.8926 46.561 41.9488 46.0007C42.0835 45.0478 42.2018 42.5079 42.238 41.0719C42.2314 40.7631 42.1525 40.6579 42.1295 40.6349Z" fill="#303E42"/>
<g id="Group" opacity="0.7">
<path id="Vector_63" d="M19.2172 40.7762L23.3179 37.5725C22.1065 36.714 20.9955 35.722 20.0058 34.6152L19.2172 40.7762Z" fill="#C5D0D3"/>
<path id="Vector_64" d="M19.6607 34.704L17.4099 38.2462C17.1043 40.0468 16.6311 42.7938 16.6311 42.7938L18.8852 41.0359L19.6607 34.704Z" fill="#C5D0D3"/>
</g>
<path id="Vector_65" d="M20.1831 49.9701C25.6475 53.3479 27.1984 53.5845 28.5883 53.8605L29.2784 53.8967C29.4197 53.8967 29.8304 53.8178 29.906 53.8113L31.1645 51.2483C28.971 49.4613 26.6233 47.8724 24.1491 46.5002C20.6825 44.6305 16.263 42.5999 16.263 42.5999C15.0735 42.7609 13.5292 44.3709 13.5292 44.3709L13.6278 44.6995C13.7953 45.0084 13.9793 46.1322 20.1831 49.9701Z" fill="#39464A"/>
<path id="Vector_66" d="M27.6026 47.105C27.6026 47.105 25.3485 49.7337 25.4635 50.2693C25.5785 50.8049 28.2203 52.3262 29.1075 52.3492C29.9947 52.3722 31.8939 50.1444 31.9005 49.7764C31.9071 49.4084 30.3233 47.0425 27.6026 47.105Z" fill="#3D4B4F"/>
<path id="Vector_67" opacity="0.2" d="M19.8415 34.4214L13.526 44.3579L13.6246 44.6865C13.7232 44.8836 13.8283 45.3436 15.1196 46.451C18.175 43.2694 21.9323 40.8467 26.0912 39.3765C23.4789 37.8716 21.2314 36.0906 19.8415 34.4214Z" fill="white"/>
<g id="Vector_68" style="mix-blend-mode:multiply" opacity="0.2">
<path d="M46.0429 46.1717C45.642 45.0578 44.7121 39.9022 44.7121 39.4159C44.7121 38.9296 44.9848 38.486 45.6617 38.1016C46.3386 37.7171 80.7549 17.5846 80.7549 17.5846C80.7549 17.5846 81.5796 17.1278 82.1317 17.4236C81.5928 16.9603 80.6234 17.4926 80.6234 17.4926C80.6234 17.4926 46.2072 37.6284 45.5303 38.0129C44.8534 38.3973 44.5807 38.8343 44.5807 39.3272C44.5807 39.8201 45.5106 44.969 45.9115 46.083C46.001 46.3577 46.1865 46.5909 46.4339 46.7401C46.2539 46.5901 46.1187 46.3934 46.0429 46.1717Z" fill="black"/>
</g>
<path id="Vector_69" d="M83.4723 24.0643C83.4723 24.0643 82.4866 19.566 82.204 17.9198C82.1758 17.707 82.0881 17.5066 81.951 17.3414C81.538 17.29 81.1193 17.3705 80.7549 17.5715C80.7549 17.5715 46.3387 37.7204 45.6618 38.1016C44.9849 38.4828 44.7122 38.9264 44.7122 39.4159C44.7122 39.9055 45.6421 45.0578 46.0429 46.1717C46.1076 46.3742 46.2203 46.558 46.3715 46.7073C46.6215 46.7802 46.8871 46.7802 47.1371 46.7073C47.1371 46.7073 82.2401 25.819 82.986 25.3951C83.7319 24.9712 83.4723 24.0643 83.4723 24.0643Z" fill="#141C1E"/>
<path id="Vector_70" d="M57.3956 31.8487L58.8546 38.6767L71.607 31.1455L70.1613 24.3766L57.3956 31.8487Z" fill="#303E42"/>
<path id="Vector_71" d="M45.9181 38.5583C45.3036 38.8869 45.2346 39.2154 45.2346 39.4093C45.2346 39.8956 46.0298 44.532 46.4011 45.567C46.4312 45.6535 46.4733 45.7353 46.526 45.8102H46.6311C46.6902 45.8152 46.7495 45.8152 46.8086 45.8102C47.5807 45.3502 52.2434 42.5933 57.9805 39.2089L56.5085 32.371C50.7385 35.7456 46.1645 38.417 45.9181 38.5583Z" fill="#303E42"/>
<path id="Vector_72" d="M82.9729 23.8704V23.8507V23.831C82.9335 23.647 81.9871 19.648 81.7046 18.0084C81.694 17.9503 81.6786 17.8931 81.6586 17.8375C81.4374 17.8604 81.2224 17.9239 81.0244 18.0248L71.0485 23.8605L72.4942 30.6229C78.0999 27.314 82.4636 24.7411 82.733 24.59C82.8469 24.5134 82.9322 24.4013 82.9756 24.2711C83.019 24.1409 83.018 24 82.9729 23.8704Z" fill="#303E42"/>
<path id="Vector_73" d="M26.2751 64.9011L23.6004 66.0939C23.6004 66.0939 22.6146 66.5572 20.2127 66.0118C18.9275 65.735 17.6645 65.3638 16.4339 64.9011C16.3451 64.9182 16.2549 64.927 16.1645 64.9274C16.0995 64.9267 16.0347 64.9213 15.9706 64.911C14.8665 64.75 12.3561 63.4422 11.1732 62.6503C11.0845 62.5944 10.9925 62.532 10.8972 62.4663C9.74715 61.704 8.05821 60.5802 7.64091 59.1804C7.18746 58.5791 6.26741 57.2812 5.99797 56.3414C5.99797 56.3414 5.46895 56.8705 5.46895 57.2286C5.26522 58.9365 5.72254 60.6576 6.74715 62.0391C8.42295 64.3392 12.0243 66.2352 14.6661 67.796C17.308 69.3568 21.274 70.4641 22.5193 70.3327C23.5413 70.2243 25.1908 69.5441 25.7428 69.3042C26.2944 67.748 27.0419 66.2685 27.9673 64.9011L28.0495 64.7763L26.2751 64.9011Z" fill="#404B4D"/>
<path id="Vector_74" d="M17.9225 62.233C16.6081 61.5759 14.2095 60.2845 12.7965 59.4499C11.3836 58.6153 8.49532 56.6372 8.07801 56.3579C8.02451 56.321 7.96582 56.2922 7.90386 56.2725C7.90299 56.2823 7.90299 56.2922 7.90386 56.302C7.88606 57.0715 7.93443 57.841 8.04844 58.6021C8.24231 60.1794 10.3486 61.4609 11.5446 62.2692C12.7407 63.0775 15.2116 64.336 16.2368 64.4871C16.5256 64.5216 16.8173 64.4542 17.0616 64.2966C17.5057 63.9169 17.8794 63.462 18.1656 62.9526C18.216 62.8946 18.2502 62.8245 18.265 62.7492C18.2799 62.6738 18.2747 62.5959 18.2502 62.5232C18.2256 62.4505 18.1824 62.3854 18.1249 62.3345C18.0675 62.2836 17.9977 62.2486 17.9225 62.233Z" fill="#1B2628"/>
<path id="Vector_75" d="M17.1174 64.1488L17.3277 64.0798C17.3803 64.0272 17.4295 63.9746 17.4788 63.9188L17.4263 63.9352L17.3704 63.6756L17.6004 63.6L17.6333 63.7347L17.7154 63.6263V63.5672L17.7877 63.5442C17.8238 63.4949 17.86 63.4456 17.8896 63.3963L17.6924 63.462L17.6365 63.2057L17.8666 63.1269L17.9191 63.3569L17.998 63.232L17.9684 63.094L18.113 63.048L18.1689 62.9527L18.1886 62.91L17.9454 62.9889L17.8863 62.7326L18.2707 62.6077C18.2689 62.5716 18.2611 62.5361 18.2477 62.5025L17.8633 62.6274L17.8074 62.3678L18.044 62.289L17.9356 62.2331H17.9126L17.7844 62.2725L17.7548 62.1542L17.6333 62.0918L17.6826 62.3087L17.4493 62.3843L17.3934 62.1247L17.5774 62.0622L17.4427 61.9965L17.3704 62.0195V61.9505L17.2455 61.8848L17.285 62.0524L17.0517 62.1312L16.9958 61.8717L17.1305 61.8257L16.9991 61.7566H16.9695V61.7304L16.8447 61.6646L16.8709 61.7895L16.6409 61.8651L16.5818 61.6088L16.6771 61.5759L16.4405 61.4511L16.4569 61.5365L16.1941 61.6154L16.1349 61.3558H16.1875L16.0002 61.2539V61.3032L15.7702 61.3788L15.711 61.1192L15.5664 61.0403L15.3332 61.1192L15.2806 60.876L15.1294 60.7939L14.9191 60.8629L14.8731 60.6559L14.6858 60.5507L14.5051 60.6099L14.4657 60.4292L14.2422 60.3076L14.0911 60.3569L14.0549 60.2024L13.9301 60.1334L13.9892 60.3897L13.7559 60.4653L13.7001 60.209L13.9301 60.1334L13.8052 60.0611L13.6771 60.1039L13.6475 59.9724L13.5226 59.9001L13.5752 60.1367L13.3419 60.2123L13.2861 59.9527L13.4931 59.8837L13.3715 59.8147L13.2631 59.8508L13.2368 59.7391L13.1119 59.6668L13.1612 59.8837L12.9279 59.9593L12.872 59.6997L13.0626 59.6373L12.9377 59.565L12.8457 59.5945L12.826 59.4993L12.7669 59.4631L12.7012 59.4237L12.7439 59.6274L12.5139 59.7063L12.4547 59.4467L12.6387 59.3875L12.5467 59.3152L12.4613 59.3415L12.4416 59.2495L12.3134 59.1707L12.3594 59.3744L12.1294 59.45L12.0703 59.1937L12.251 59.1345L12.136 59.0589L12.0473 59.0885L12.0243 58.9932C11.9848 58.9637 11.9421 58.9374 11.8994 58.9111L11.9454 59.1214L11.7154 59.197L11.6563 58.9407L11.8468 58.8782L11.7285 58.8027L11.6333 58.8355L11.607 58.7271L11.4821 58.6416L11.5314 58.8684L11.2981 58.9439L11.2422 58.6844L11.4427 58.6186L11.3277 58.5431L11.2192 58.5792L11.1897 58.4543L11.0615 58.3722L11.1174 58.6154L10.8841 58.6909L10.8249 58.4313L11.0451 58.3591L10.9301 58.2868L10.8019 58.3262L10.7724 58.1816L10.5358 58.0239L10.3879 58.0732L10.3518 57.9023L10.1415 57.7643L9.97389 57.8202L9.93117 57.623L9.75045 57.5047L9.55987 57.5672L9.51058 57.3437L9.35943 57.2419L9.14585 57.3109L9.08999 57.0611L8.96184 56.9757L8.73183 57.0513L8.67926 56.8114H8.7154C8.65297 56.772 8.59382 56.7326 8.54125 56.6931V56.7556L8.30795 56.8311L8.25538 56.5913L8.33424 56.565L8.10751 56.4138L8.13051 56.519L7.89722 56.5945V56.5255C7.89722 56.6504 7.89722 56.8311 7.89722 57.0776L7.94979 57.3174H7.90707C7.90707 57.3536 7.90707 57.3897 7.90707 57.4292L7.96622 57.4094L8.02208 57.6625L7.92679 57.6953V57.8037L8.03851 57.7676L8.09437 58.0272L7.94979 58.0732C7.94979 58.1093 7.94979 58.1455 7.94979 58.1816L8.10423 58.1323L8.16337 58.3886L7.97936 58.4511C7.97936 58.4872 7.97936 58.5201 7.97936 58.5595L8.17323 58.4938L8.22909 58.7534L8.02208 58.8224C8.02208 58.8552 8.03851 58.8914 8.04837 58.9242L8.25209 58.8585L8.31124 59.1148L8.13051 59.174C8.13051 59.2068 8.16009 59.2397 8.17323 59.2725L8.33424 59.22L8.39338 59.4795L8.29481 59.5124L8.35067 59.6044L8.41639 59.5847L8.45582 59.7687C8.5051 59.8377 8.55768 59.9067 8.61354 59.979L8.59711 59.9133L8.83041 59.8377L8.88626 60.0973L8.74826 60.1433L8.82712 60.2287L8.91255 60.2024L8.94541 60.3569C9.00127 60.4127 9.05384 60.4686 9.11299 60.5244L9.32657 60.4554L9.38243 60.715H9.33314L9.53358 60.8892L9.5073 60.7709L9.74059 60.6953L9.79645 60.9549L9.66502 60.9976L9.76359 61.0765H9.81945L9.83917 61.152L9.9706 61.2539L9.9246 61.0403L10.1546 60.9648L10.2138 61.2243L10.0166 61.2868L10.1218 61.3656L10.2368 61.3295L10.2663 61.4708L10.4963 61.6318L10.6508 61.5825L10.6902 61.7698L10.8808 61.8979L11.0648 61.8355L11.1141 62.0524L11.2718 62.1575L11.4788 62.0885L11.5347 62.3317C11.5774 62.3612 11.6201 62.3908 11.6661 62.4171L11.8928 62.3448L11.952 62.5978L12.0768 62.6734L12.3069 62.5978L12.3627 62.841L12.504 62.9231L12.7242 62.8508L12.7735 63.071L12.9476 63.1663L13.1382 63.1039L13.1809 63.2912C13.2532 63.3306 13.3255 63.37 13.4011 63.4062L13.5522 63.3602L13.5851 63.5015L13.7066 63.5606L13.6541 63.324L13.8874 63.2484L13.9432 63.508L13.7362 63.577L13.8709 63.6427L13.9662 63.6132L13.9859 63.6986L14.1075 63.7578L14.1239 63.5869L14.3572 63.508L14.4131 63.7676L14.2718 63.8136L14.4164 63.8793H14.4361V63.899L14.5577 63.9549L14.5314 63.8465L14.7647 63.7709L14.8206 64.0272L14.768 64.0469L14.952 64.1258V64.0995L15.182 64.0239L15.228 64.2342L15.4646 64.3196L15.596 64.2769L15.619 64.3755L15.7373 64.4116L15.6979 64.2441L15.9312 64.1685L15.987 64.4248L15.8918 64.4576L16.1152 64.5135L16.3485 64.4379L16.3748 64.5595H16.4832L16.4503 64.4084L16.6804 64.3328L16.7231 64.5102L16.8217 64.4774L16.7822 64.2966L17.0155 64.2211L17.0484 64.3689L17.1305 64.2999L17.1174 64.1488ZM17.3474 63.5737L17.2882 63.3142L17.5215 63.2386L17.5774 63.4949L17.3474 63.5737ZM17.7746 62.7654L17.8304 63.0217L17.5971 63.1006L17.5413 62.841L17.7746 62.7654ZM17.6924 62.4007L17.7483 62.6603L17.5183 62.7358L17.4591 62.4763L17.6924 62.4007ZM17.4394 62.8738L17.4985 63.1334L17.2652 63.209L17.2061 62.9494L17.4394 62.8738ZM17.3573 62.5124L17.4164 62.7687L17.1831 62.8443L17.1272 62.588L17.3573 62.5124ZM17.1798 63.2583L16.9465 63.3339L16.8907 63.0776L17.1207 62.9987L17.1798 63.2583ZM17.2948 62.1641L17.3507 62.4237L17.1207 62.4993L17.0615 62.2397L17.2948 62.1641ZM17.0418 62.6373L17.0977 62.8968L16.8677 62.9724L16.8085 62.7128L17.0418 62.6373ZM8.89612 58.2736L8.95198 58.5299L8.72197 58.6088L8.66283 58.3492L8.89612 58.2736ZM8.63982 58.2441L8.58396 57.9845L8.81398 57.9089L8.87312 58.1685L8.63982 58.2441ZM8.96841 58.6351L9.02756 58.8947L8.79426 58.9702L8.7384 58.7106L8.96841 58.6351ZM8.99141 58.2408L9.22142 58.1619L9.28057 58.4215L9.04727 58.4971L8.99141 58.2408ZM9.30357 58.5266L9.36272 58.7862L9.12942 58.8618L9.07356 58.6022L9.30357 58.5266ZM9.38572 58.8881L9.44158 59.1477L9.21157 59.2232L9.15242 58.9669L9.38572 58.8881ZM9.40543 58.4938L9.63873 58.4182L9.69459 58.6745L9.46129 58.7501L9.40543 58.4938ZM9.46458 59.2528L9.52373 59.5124L9.29043 59.588L9.23457 59.3284L9.46458 59.2528ZM9.48758 58.8552L9.71759 58.7796L9.77674 59.0392L9.54344 59.1148L9.48758 58.8552ZM9.81617 59.1444L9.87203 59.4007L9.64202 59.4763L9.58287 59.22L9.81617 59.1444ZM9.83588 58.7468L10.0692 58.6712L10.125 58.9308L9.89503 59.0064L9.83588 58.7468ZM9.89503 59.5058L9.95417 59.7654L9.72088 59.841L9.66502 59.5814L9.89503 59.5058ZM9.91803 59.1115L10.148 59.0327L10.2072 59.2922L9.97389 59.3678L9.91803 59.1115ZM10.2466 59.3974L10.2795 59.6438L10.0495 59.7194L9.99032 59.4598L10.2466 59.3974ZM10.2663 58.9998L10.4996 58.9242L10.5555 59.1838L10.3255 59.2594L10.2663 58.9998ZM10.3288 59.7588L10.3846 60.0184L10.1546 60.094L10.0955 59.8377L10.3288 59.7588ZM10.3485 59.3645L10.5818 59.2857L10.6376 59.5453L10.4076 59.6208L10.3485 59.3645ZM10.6606 59.6504L10.7198 59.91L10.4865 59.9856L10.4306 59.726L10.6606 59.6504ZM10.7428 60.0151L10.7986 60.2714L10.5686 60.347L10.5095 60.0907L10.7428 60.0151ZM10.7625 59.6175L10.9958 59.542L11.0517 59.7983L10.8216 59.8771L10.7625 59.6175ZM10.8216 60.3766L10.8808 60.6362L10.6508 60.7117L10.5916 60.4522L10.8216 60.3766ZM10.8446 59.979L11.0747 59.9034L11.1338 60.163L10.9005 60.2386L10.8446 59.979ZM11.1732 60.2681L11.2291 60.5244L10.9991 60.6033L10.9399 60.3437L11.1732 60.2681ZM11.1929 59.8706L11.4262 59.795L11.4821 60.0546L11.2521 60.1301L11.1929 59.8706ZM11.2554 60.6296L11.3112 60.8892L11.0812 60.9648L11.0221 60.7052L11.2554 60.6296ZM11.2751 60.2353L11.5051 60.1564L11.5643 60.416L11.3342 60.4916L11.2751 60.2353ZM11.6037 60.5212L11.6628 60.7807L11.4295 60.8563L11.3737 60.5967L11.6037 60.5212ZM11.6267 60.1236L11.8567 60.048L11.9158 60.3076L11.6825 60.3832L11.6267 60.1236ZM11.6858 60.8826L11.7417 61.1422L11.5117 61.2178L11.4525 60.9615L11.6858 60.8826ZM11.7055 60.4883L11.9388 60.4127L11.9947 60.669L11.7647 60.7446L11.7055 60.4883ZM12.0341 60.7742L12.0933 61.0338L11.86 61.1093L11.8041 60.8497L12.0341 60.7742ZM12.0571 60.3799L12.2871 60.301L12.3463 60.5606L12.113 60.6362L12.0571 60.3799ZM12.1163 61.1389L12.1721 61.3952L11.9421 61.4741L11.883 61.2145L12.1163 61.1389ZM12.136 60.7413L12.3693 60.6657L12.4252 60.9253L12.1951 61.0009L12.136 60.7413ZM12.4482 61.0272L12.5073 61.2868L12.274 61.3623L12.2181 61.106L12.4482 61.0272ZM12.4712 60.6329L12.7012 60.5573L12.7603 60.8136L12.527 60.8892L12.4712 60.6329ZM12.5303 61.3919L12.5862 61.6515L12.3561 61.7271L12.297 61.4675L12.5303 61.3919ZM12.55 60.9943L12.7833 60.9188L12.8392 61.1783L12.6092 61.2539L12.55 60.9943ZM12.8786 61.2835L12.9345 61.5398L12.7045 61.6154L12.6453 61.3591L12.8786 61.2835ZM12.8983 60.8859L13.1316 60.8103L13.1875 61.0699L12.9542 61.1455L12.8983 60.8859ZM12.9575 61.6449L13.0166 61.9045L12.7833 61.9801L12.7275 61.7205L12.9575 61.6449ZM12.9772 61.2473L13.2105 61.1718L13.2696 61.4314L13.0363 61.5069L12.9772 61.2473ZM13.3058 61.5365L13.3616 61.7961L13.1316 61.8717L13.0725 61.6121L13.3058 61.5365ZM13.3255 61.1389L13.5588 61.0633L13.6146 61.3229L13.3846 61.3985L13.3255 61.1389ZM13.3846 61.8979L13.4438 62.1575L13.2105 62.2331L13.1546 61.9768L13.3846 61.8979ZM13.4076 61.5036L13.6376 61.4281L13.6968 61.6844L13.4635 61.7599L13.4076 61.5036ZM13.7198 61.7895L13.7756 62.0491L13.5456 62.1247L13.4898 61.8651L13.7198 61.7895ZM13.7395 61.3919L13.9728 61.3163L14.0287 61.5759L13.7986 61.6515L13.7395 61.3919ZM13.8019 62.1542L13.8578 62.4105L13.6245 62.4861L13.5686 62.2298L13.8019 62.1542ZM13.8216 61.7566L14.0517 61.6811L14.1108 61.9374L13.8808 62.0162L13.8216 61.7566ZM14.0747 61.2835L14.3047 61.2079L14.3638 61.4675L14.1305 61.5431L14.0747 61.2835ZM14.1338 62.0425L14.193 62.3021L13.9597 62.3777L13.9038 62.1214L14.1338 62.0425ZM14.1535 61.6482L14.3868 61.5726L14.4427 61.8289L14.2127 61.9045L14.1535 61.6482ZM14.4821 61.9341L14.538 62.1937L14.308 62.2692L14.2488 62.0097L14.4821 61.9341ZM14.5018 61.5365L14.7351 61.4609L14.791 61.7205L14.5577 61.7961L14.5018 61.5365ZM14.561 62.2988L14.6201 62.5551L14.3868 62.6307L14.331 62.3744L14.561 62.2988ZM14.584 61.9012L14.814 61.8257L14.8731 62.082L14.6398 62.1608L14.584 61.9012ZM14.9126 62.1871L14.9684 62.4467L14.7384 62.5223L14.5511 62.2725L14.9126 62.1871ZM14.9323 61.7928L15.1656 61.7139L15.2214 61.9735L14.9914 62.0491L14.9323 61.7928ZM14.9947 62.5518L15.0506 62.8081L14.8173 62.887L14.7614 62.6274L14.9947 62.5518ZM15.0144 62.1542L15.2444 62.0787L15.3036 62.3383L15.0703 62.4138L15.0144 62.1542ZM15.343 62.4401L15.3989 62.6997L15.1689 62.7753L15.1097 62.519L15.343 62.4401ZM15.3627 62.0458L15.596 61.9702L15.6519 62.2265L15.4219 62.3021L15.3627 62.0458ZM15.4219 62.8048L15.481 63.0644L15.251 63.14L15.1919 62.8804L15.4219 62.8048ZM15.4449 62.4073L15.6782 62.3317L15.734 62.5913L15.5007 62.6668L15.4449 62.4073ZM15.757 62.6964L15.8162 62.9527L15.5829 63.0283L15.527 62.772L15.757 62.6964ZM15.7767 62.2988L16.01 62.2232L16.0692 62.4795L15.8359 62.5584L15.7767 62.2988ZM15.8392 63.0579L15.895 63.3174L15.665 63.393L15.6059 63.1334L15.8392 63.0579ZM15.8589 62.6603L16.0922 62.5847L16.148 62.8443L15.918 62.9199L15.8589 62.6603ZM16.171 62.9494L16.2302 63.209L15.9969 63.2846L15.941 63.025L16.171 62.9494ZM16.1941 62.5518L16.4241 62.4763L16.4832 62.7358L16.2499 62.8114L16.1941 62.5518ZM16.5226 62.841L16.5785 63.0973L16.3485 63.1729L16.2893 62.9166L16.5226 62.841ZM16.6015 63.2024L16.6606 63.462L16.4273 63.5376L16.3715 63.278L16.6015 63.2024ZM16.6245 62.8048L16.8545 62.7293L16.9137 62.9889L16.6804 63.0644L16.6245 62.8048ZM16.9367 63.094L16.9958 63.3536L16.7625 63.4259L16.7066 63.1696L16.9367 63.094ZM17.1075 62.2594L17.1667 62.5157L16.9334 62.5913L16.8775 62.335L17.1075 62.2594ZM16.8512 61.8947L16.9104 62.1542L16.6804 62.2298L16.6212 61.9702L16.8512 61.8947ZM16.6015 62.3678L16.6574 62.6241L16.4273 62.703L16.3682 62.4434L16.6015 62.3678ZM16.5752 62.2627L16.3452 62.3383L16.2893 62.0787L16.5194 62.0031L16.5752 62.2627ZM16.4372 61.6416L16.4964 61.8979L16.2631 61.9768L16.2072 61.7172L16.4372 61.6416ZM16.1941 62.1115L16.2532 62.3711L16.0232 62.4467L15.964 62.1904L16.1941 62.1115ZM16.171 62.0097L15.941 62.0852L15.8819 61.8257L16.1152 61.7501L16.171 62.0097ZM16.033 61.3853L16.0922 61.6449L15.8589 61.7205L15.803 61.4642L16.033 61.3853ZM15.78 61.8585L15.8392 62.1181L15.6059 62.1937L15.5369 61.9439L15.78 61.8585ZM15.757 61.7534L15.527 61.8322L15.4679 61.5726L15.7012 61.4971L15.757 61.7534ZM15.619 61.1323L15.6782 61.3919L15.4449 61.4675L15.3857 61.2112L15.619 61.1323ZM15.366 61.6154L15.4252 61.8749L15.2083 61.9439L15.1491 61.6844L15.366 61.6154ZM15.343 61.5102L15.113 61.5858L15.0539 61.3295L15.2839 61.2539L15.343 61.5102ZM15.2083 60.8793L15.2641 61.1389L15.0341 61.2145L14.975 60.9549L15.2083 60.8793ZM14.9553 61.3525L15.0144 61.6088L14.7811 61.6876L14.722 61.4281L14.9553 61.3525ZM14.9323 61.2473L14.699 61.3229L14.6431 61.0666L14.8731 60.9878L14.9323 61.2473ZM14.791 60.6296L14.8468 60.8859L14.6168 60.9648L14.5577 60.7052L14.791 60.6296ZM14.5511 61.0995L14.607 61.3558L14.377 61.4314L14.3178 61.1751L14.5511 61.0995ZM14.5281 60.9943L14.2948 61.0699L14.239 60.8103L14.469 60.7347L14.5281 60.9943ZM14.3901 60.3733L14.446 60.6296L14.2127 60.7052L14.1568 60.4489L14.3901 60.3733ZM14.1338 60.8465L14.193 61.1028L13.9629 61.1783L13.9038 60.922L14.1338 60.8465ZM14.0549 60.4817L14.1141 60.7413L13.8808 60.8169L13.8249 60.5573L14.0549 60.4817ZM13.7888 60.9582L13.8479 61.2145L13.6146 61.2933L13.5588 61.0338L13.7888 60.9582ZM13.7066 60.5935L13.7658 60.853L13.5358 60.9286L13.4766 60.669L13.7066 60.5935ZM13.6278 60.232L13.6836 60.4883L13.4536 60.5672L13.3945 60.3076L13.6278 60.232ZM13.3748 60.7052L13.4339 60.9615L13.2006 61.037L13.1415 60.7807L13.3748 60.7052ZM13.2926 60.3404L13.3518 60.6L13.1185 60.6756L13.0626 60.416L13.2926 60.3404ZM13.2138 59.979L13.2696 60.2353L13.0396 60.3109L12.9805 60.0546L13.2138 59.979ZM12.9607 60.4489L13.0166 60.7085L12.7866 60.784L12.7275 60.5244L12.9607 60.4489ZM12.8786 60.0874L12.9377 60.3437L12.7045 60.4226L12.6486 60.163L12.8786 60.0874ZM12.7965 59.7227L12.8556 59.9823L12.6223 60.0579L12.5664 59.7983L12.7965 59.7227ZM12.5467 60.1959L12.6026 60.4554L12.3726 60.531L12.3134 60.2714L12.5467 60.1959ZM12.4646 59.8344L12.5237 60.0907L12.2904 60.1663L12.251 59.9067L12.4646 59.8344ZM12.3824 59.4697L12.4416 59.7293L12.2083 59.8048L12.1524 59.5453L12.3824 59.4697ZM12.1294 59.9428L12.1886 60.2024L11.9553 60.278L11.8994 60.0184L12.1294 59.9428ZM12.0506 59.5781L12.1064 59.8377L11.8764 59.9133L11.8173 59.657L12.0506 59.5781ZM11.9684 59.2167L12.0276 59.473L11.7943 59.5518L11.7384 59.2922L11.9684 59.2167ZM11.7154 59.6898L11.7745 59.9461L11.5413 60.025L11.4854 59.7654L11.7154 59.6898ZM11.6365 59.3152L11.6924 59.5748L11.4624 59.6504L11.4032 59.3908L11.6365 59.3152ZM11.5544 58.9538L11.6135 59.2101L11.3802 59.2857L11.3244 59.0294L11.5544 58.9538ZM11.3014 59.4237L11.3605 59.6833L11.1272 59.7588L11.0714 59.5025L11.3014 59.4237ZM11.2192 59.0622L11.2652 59.3152L11.0352 59.3908L10.9761 59.1312L11.2192 59.0622ZM11.1404 58.7008L11.1962 58.9571L10.9662 59.0327L10.9071 58.7764L11.1404 58.7008ZM10.8874 59.1707L10.9465 59.4303L10.7132 59.5058L10.6541 59.2462L10.8874 59.1707ZM10.8052 58.8092L10.8644 59.0655L10.6311 59.1444L10.5752 58.8848L10.8052 58.8092ZM10.7822 58.7041L10.5522 58.7796L10.4931 58.5201L10.7264 58.4445L10.7822 58.7041ZM10.6442 58.083L10.7001 58.3426L10.4701 58.4182L10.4142 58.1586L10.6442 58.083ZM10.3912 58.5562L10.4503 58.8125L10.217 58.8881L10.1612 58.6318L10.3912 58.5562ZM10.3682 58.4511L10.1349 58.5266L10.079 58.2671L10.3123 58.1915L10.3682 58.4511ZM10.2302 57.8267L10.2893 58.0863L10.056 58.1619L9.99689 57.9056L10.2302 57.8267ZM9.97718 58.2999L10.0363 58.5595L9.80302 58.6351L9.74716 58.3755L9.97718 58.2999ZM9.95417 58.1981L9.72088 58.2736L9.66502 58.014L9.89503 57.9385L9.95417 58.1981ZM9.81617 57.5737L9.87203 57.8333L9.64202 57.9089L9.58287 57.6493L9.81617 57.5737ZM9.56316 58.0469L9.6223 58.3295L9.39229 58.4051L9.33314 58.1455L9.56316 58.0469ZM9.54015 57.9418L9.30686 58.0173L9.251 57.761L9.48101 57.6855L9.54015 57.9418ZM9.40215 57.3437L9.45801 57.6033L9.228 57.6789L9.16885 57.4193L9.40215 57.3437ZM9.14914 57.8169L9.20499 58.0765L8.97498 58.152L8.91584 57.8925L9.14914 57.8169ZM9.12613 57.7117L8.89284 57.7873L8.83369 57.531L9.06699 57.4522L9.12613 57.7117ZM8.98813 57.094L9.04399 57.347L8.81069 57.4259L8.75483 57.1696L8.98813 57.094ZM8.73183 57.5639L8.79098 57.8202L8.56096 57.8957L8.50182 57.6394L8.73183 57.5639ZM8.70883 57.4587L8.47882 57.5343L8.42296 57.278L8.65297 57.2024L8.70883 57.4587ZM8.57739 56.8574L8.62997 57.0973L8.39667 57.1761L8.3441 56.9363L8.57739 56.8574ZM7.92022 56.6997L8.15351 56.6241L8.20609 56.864L7.97279 56.9396L7.92022 56.6997ZM8.05165 57.2846L8.01222 57.0151L8.24223 56.9396L8.29481 57.1794L8.05165 57.2846ZM8.13051 57.6427L8.07465 57.3897L8.30795 57.3109L8.36381 57.5672L8.13051 57.6427ZM8.21266 58.0075L8.1568 57.7479L8.38681 57.6723L8.44596 57.9319L8.21266 58.0075ZM8.29481 58.3689L8.23566 58.1126L8.46896 58.0338L8.52482 58.2933L8.29481 58.3689ZM8.37367 58.7336L8.31781 58.4741L8.54782 58.3985L8.63654 58.6581L8.37367 58.7336ZM8.45582 59.0951L8.39667 58.8388L8.62997 58.7632L8.68583 59.0195L8.45582 59.0951ZM8.47882 59.2002L8.71211 59.1247L8.76797 59.3843L8.53796 59.4598L8.47882 59.2002ZM8.61682 59.8213L8.56096 59.565L8.79098 59.4861L8.85012 59.7457L8.61682 59.8213ZM8.86984 59.3514L8.81398 59.0918L9.04399 59.0162L9.10313 59.2725L8.86984 59.3514ZM8.95198 59.7128L8.89284 59.4533L9.12613 59.3777L9.18199 59.6373L8.95198 59.7128ZM8.97498 59.818L9.20499 59.7424L9.29371 59.9724L9.06042 60.0513L8.97498 59.818ZM9.11299 60.439L9.05713 60.1794L9.28714 60.1039L9.34629 60.3634L9.11299 60.439ZM9.366 59.9658L9.30686 59.7096L9.54015 59.6307L9.5993 59.8903L9.366 59.9658ZM9.389 60.071L9.6223 59.9724L9.67816 60.232L9.44815 60.3076L9.389 60.071ZM9.52701 60.692L9.47115 60.4357L9.70116 60.3569L9.76031 60.6165L9.52701 60.692ZM9.78002 60.2221L9.72416 59.9626L9.95417 59.887L10.0133 60.1433L9.78002 60.2221ZM9.86217 60.5836L9.80302 60.324L10.0363 60.2484L10.0922 60.508L9.86217 60.5836ZM9.94103 60.945L9.88517 60.6887L10.1152 60.6132L10.1743 60.8695L9.94103 60.945ZM10.194 60.4752L10.1382 60.2156L10.3682 60.14L10.4273 60.3996L10.194 60.4752ZM10.2762 60.8366L10.217 60.5803L10.4503 60.5014L10.5062 60.761L10.2762 60.8366ZM10.2992 60.9418L10.5325 60.8662L10.5883 61.1225L10.3551 61.2013L10.2992 60.9418ZM10.4372 61.5628L10.3813 61.3065L10.6113 61.2276L10.6705 61.4872L10.4372 61.5628ZM10.6902 61.0896L10.6344 60.8333L10.8644 60.7577L10.9235 61.014L10.6902 61.0896ZM10.7132 61.1948L10.9465 61.1192L11.0024 61.3788L10.7724 61.4543L10.7132 61.1948ZM10.8512 61.8158L10.7954 61.5595L11.0254 61.4839L11.0845 61.7402L10.8512 61.8158ZM11.1042 61.3459L11.0484 61.0863L11.2784 61.0108L11.3375 61.2671L11.1042 61.3459ZM11.1272 61.4478L11.3605 61.3722L11.4197 61.6318L11.1864 61.7074L11.1272 61.4478ZM11.2652 62.0721L11.2094 61.8125L11.4394 61.7369L11.4985 61.9965L11.2652 62.0721ZM11.5183 61.5989L11.4624 61.3393L11.6957 61.2638L11.7515 61.5234L11.5183 61.5989ZM11.5413 61.7041L11.7745 61.6252L11.8337 61.8848L11.6004 61.9604L11.5413 61.7041ZM11.6825 62.3251L11.6234 62.0655L11.8567 61.9899L11.9126 62.2495L11.6825 62.3251ZM11.9356 61.8519L11.8764 61.5924L12.1097 61.5168L12.1656 61.7764L11.9356 61.8519ZM11.9586 61.9571L12.1886 61.8815L12.2477 62.1378L12.0144 62.2167L11.9586 61.9571ZM12.0966 62.5781L12.0374 62.3185L12.2707 62.243L12.3266 62.5025L12.0966 62.5781ZM12.3496 62.105L12.2904 61.8487L12.5237 61.7698L12.5796 62.0294L12.3496 62.105ZM12.3726 62.2101L12.6026 62.1345L12.6617 62.3941L12.4284 62.4697L12.3726 62.2101ZM12.5106 62.8311L12.4547 62.5748L12.6847 62.496L12.7439 62.7556L12.5106 62.8311ZM12.7636 62.358L12.7045 62.1017L12.9377 62.0261L12.9969 62.2824L12.7636 62.358ZM12.7866 62.4631L13.0199 62.3875L13.0758 62.6471L12.8457 62.7227L12.7866 62.4631ZM12.9246 63.0841L12.8687 62.8278L13.0988 62.7523L13.1579 63.0119L12.9246 63.0841ZM13.1776 62.6143L13.1218 62.3547L13.3518 62.2791L13.4109 62.5387L13.1776 62.6143ZM13.2006 62.7194L13.4339 62.6406L13.4898 62.9001L13.2598 62.9757L13.2006 62.7194ZM13.3386 63.3404L13.2828 63.0809L13.5128 63.0053L13.5719 63.2649L13.3386 63.3404ZM13.5916 62.8673L13.5654 62.6011L13.7954 62.5255L13.8545 62.7851L13.5916 62.8673ZM13.6738 63.2287L13.6146 62.9724L13.8479 62.8968L13.9071 63.1531L13.6738 63.2287ZM13.9268 62.7588L13.8677 62.4993L14.1009 62.4237L14.1568 62.68L13.9268 62.7588ZM14.0057 63.1203L13.9498 62.8607L14.1831 62.7851L14.239 63.0447L14.0057 63.1203ZM14.0878 63.485L14.0287 63.2254L14.262 63.1499L14.3211 63.4062L14.0878 63.485ZM14.3408 63.0119L14.2817 62.7523L14.515 62.6767L14.5708 62.9363L14.3408 63.0119ZM14.423 63.3733L14.3638 63.117L14.5971 63.0381L14.653 63.2977L14.423 63.3733ZM14.5018 63.738L14.446 63.4784L14.676 63.4029L14.7351 63.6625L14.5018 63.738ZM14.7548 63.2649L14.6957 63.0053L14.929 62.9297L14.9881 63.1893L14.7548 63.2649ZM14.7778 63.37L15.0111 63.2944L15.067 63.5507L14.837 63.6296L14.7778 63.37ZM14.9158 63.991L14.86 63.7315L15.09 63.6559L15.1491 63.9155L14.9158 63.991ZM15.1689 63.5179L15.113 63.2616L15.343 63.186L15.4022 63.4423L15.1689 63.5179ZM15.1919 63.623L15.4252 63.5475L15.481 63.807L15.251 63.8826L15.1919 63.623ZM15.3332 64.2441L15.274 63.9878L15.5073 63.9122L15.5632 64.1685L15.3332 64.2441ZM15.5862 63.7709L15.527 63.5146L15.757 63.439L15.8162 63.6953L15.5862 63.7709ZM15.665 64.1356L15.6092 63.876L15.8392 63.8005L15.8983 64.0601L15.665 64.1356ZM15.918 63.6625L15.8655 63.3897L16.0988 63.3109L16.1546 63.5705L15.918 63.6625ZM15.941 63.7676L16.1743 63.692L16.2302 63.9516L16.0002 64.0272L15.941 63.7676ZM16.079 64.3886L16.0232 64.1323L16.2532 64.0535L16.3123 64.3131L16.079 64.3886ZM16.3321 63.9155L16.2762 63.6592L16.5062 63.5836L16.5654 63.8399L16.3321 63.9155ZM16.4142 64.2802L16.3551 64.0206L16.5884 63.945L16.6442 64.2046L16.4142 64.2802ZM16.6672 63.807L16.6081 63.5475L16.8414 63.4719L16.8972 63.7315L16.6672 63.807ZM16.7461 64.1718L16.6902 63.9122L16.9202 63.8366L16.9794 64.0929L16.7461 64.1718ZM16.9991 63.6986L16.9432 63.439L17.1732 63.3634L17.2324 63.623L16.9991 63.6986ZM17.0221 63.8038L17.2554 63.7282L17.3112 63.9845L17.0812 64.0601L17.0221 63.8038Z" fill="#354042"/>
<path id="Vector_76" d="M33.7176 51.8267C33.7176 51.8267 32.8731 52.1553 32.86 52.6449C32.8468 53.1345 32.8107 54.4719 32.8107 54.4719C32.8107 54.4719 32.8107 54.9187 33.1393 54.8366C33.3828 54.7739 33.6212 54.6926 33.8523 54.5934C34.3227 54.8623 34.8192 55.0825 35.3342 55.2506C35.8074 55.3426 36.5336 55.4051 36.6946 55.129C36.8556 54.853 36.7373 53.2988 36.6584 52.7304C36.5796 52.1619 36.504 51.6394 35.9355 51.3503C35.6438 51.1943 35.3419 51.0582 35.0319 50.9428C34.8987 50.9035 34.7582 50.8954 34.6214 50.9194C34.4846 50.9433 34.3552 50.9986 34.2433 51.0808C34.137 51.1949 34.0564 51.3306 34.0071 51.4785C33.9577 51.6265 33.9408 51.7834 33.9574 51.9385L33.7176 51.8267Z" fill="#5A6567"/>
<g id="Vector_77" style="mix-blend-mode:multiply" opacity="0.3">
<path d="M32.8731 52.5529C32.8683 52.5833 32.8683 52.6144 32.8731 52.6449C32.8731 53.1279 32.8239 54.4718 32.8239 54.4718C32.8239 54.4718 32.8239 54.9187 33.1524 54.8365C33.396 54.7738 33.6343 54.6925 33.8655 54.5934L33.9706 53.1115L32.8731 52.5529Z" fill="#5A6567"/>
</g>
<g id="Vector_78" style="mix-blend-mode:multiply" opacity="0.3">
<path d="M36.7603 53.8082C36.7373 53.3844 36.6946 52.9671 36.6617 52.7239C36.6347 52.4538 36.5751 52.1879 36.4843 51.932C36.1586 52.0642 35.8133 52.1419 35.4624 52.162C35.5032 52.2018 35.5395 52.2459 35.5708 52.2935C35.9586 52.8783 35.9356 53.2792 35.9684 54.104C36.2597 54.1057 36.5415 54.0005 36.7603 53.8082Z" fill="#5A6567"/>
</g>
<g id="Vector_79" style="mix-blend-mode:multiply" opacity="0.3">
<path d="M36.7603 53.8081C36.7603 53.8081 36.6322 54.2714 36.3364 54.3174C36.2132 54.3303 36.0886 54.3157 35.9717 54.2747C35.9863 54.6235 35.9621 54.9729 35.8994 55.3163C36.2543 55.336 36.596 55.2999 36.6979 55.1225C36.7947 54.6913 36.8159 54.2465 36.7603 53.8081Z" fill="#5A6567"/>
</g>
<g id="Vector_80" style="mix-blend-mode:multiply" opacity="0.5">
<path d="M35.6168 54.1202C35.745 54.1202 35.8633 54.1202 35.9684 54.1037C35.9356 53.2626 35.9684 52.8781 35.5708 52.2932C35.2817 51.8496 34.4405 51.5736 34.0101 51.4553C33.9662 51.6101 33.9496 51.7713 33.9608 51.9318V53.1114L32.8731 52.5528C32.8683 52.5833 32.8683 52.6143 32.8731 52.6448C32.8731 53.1278 32.8239 54.4718 32.8239 54.4718C32.8239 54.4718 32.8239 54.9186 33.1524 54.8365C33.396 54.7737 33.6343 54.6925 33.8655 54.5933C34.3358 54.8622 34.8324 55.0824 35.3474 55.2505C35.5328 55.2876 35.7205 55.3117 35.9093 55.3228C35.9719 54.9793 35.9962 54.63 35.9816 54.2812C35.8545 54.2409 35.7322 54.1869 35.6168 54.1202Z" fill="#5A6567"/>
</g>
<path id="Vector_81" d="M14.1174 42.9384L15.366 40.9669C15.366 40.4182 15.3397 39.5113 15.1656 39.2484C14.8928 38.9161 14.5755 38.6231 14.2225 38.3776C14.1153 38.3483 14.0018 38.351 13.8961 38.3854C13.7904 38.4199 13.6971 38.4846 13.6278 38.5715C13.4339 38.8672 13.2992 40.3985 13.2565 41.0688C13.2847 41.7814 13.5943 42.4537 14.1174 42.9384Z" fill="#5A6567"/>
<g id="Vector_82" style="mix-blend-mode:multiply" opacity="0.5">
<path d="M14.4131 40.1816C14.4262 40.056 14.4109 39.929 14.3682 39.8101C14.3256 39.6912 14.2567 39.5835 14.1667 39.4949L13.5095 38.9691C13.3808 39.6627 13.2995 40.3642 13.2664 41.0688C13.2929 41.7804 13.6 42.4526 14.1207 42.9385L14.4197 42.4686C14.4164 41.5912 14.4164 40.4806 14.4131 40.1816Z" fill="#5A6567"/>
</g>
<g id="Vector_83" style="mix-blend-mode:multiply" opacity="0.3">
<path d="M14.9717 41.5945L14.4164 41.3612L15.2148 41.2134L15.366 40.9735C15.3829 40.4465 15.3377 39.9193 15.2313 39.4028C14.9816 39.6151 14.6891 39.7709 14.3737 39.8596C14.4011 39.9669 14.4144 40.0774 14.4131 40.1882C14.4131 40.4872 14.4131 41.5978 14.4131 42.4883L14.9717 41.5945Z" fill="#5A6567"/>
</g>
<g id="Group_2" style="mix-blend-mode:screen" opacity="0.3">
<path id="Vector_84" d="M68.6136 3.67554C68.6136 3.67554 68.6136 3.67554 68.5972 3.67554L68.5742 3.69197L30.9082 25.3787C30.8056 25.428 30.6881 25.4362 30.5796 25.4017L30.4219 25.3393H30.3956C30.3893 25.3416 30.3823 25.3416 30.3759 25.3393C30.3266 25.3853 30.3431 25.4412 30.4219 25.4707L30.5796 25.5332C30.6885 25.5666 30.8061 25.5572 30.9082 25.5069L68.5742 3.81026C68.6399 3.78397 68.6531 3.71825 68.6136 3.67554Z" fill="white"/>
<path id="Vector_85" d="M70.4636 4.76965L70.4439 4.78608H70.4209L32.7549 26.4564C32.7046 26.4825 32.6497 26.4983 32.5932 26.5028C32.5368 26.5073 32.48 26.5005 32.4263 26.4827L32.2653 26.4203C32.2566 26.4221 32.2477 26.4221 32.239 26.4203C32.2326 26.4225 32.2256 26.4225 32.2193 26.4203C32.1733 26.4663 32.1897 26.5189 32.2686 26.5517L32.4296 26.6141C32.5384 26.6483 32.6562 26.6388 32.7582 26.5879L70.411 4.8978C70.4899 4.86166 70.4997 4.8058 70.4636 4.76965Z" fill="white"/>
<path id="Vector_86" d="M72.4121 5.89343C72.4121 5.89343 72.4121 5.89343 72.3957 5.89343L72.3727 5.90986L34.7067 27.5933C34.6564 27.6195 34.6015 27.6352 34.5451 27.6397C34.4886 27.6443 34.4318 27.6374 34.3781 27.6196L34.2171 27.5572H34.1875H34.1711C34.1218 27.6032 34.1382 27.6558 34.2171 27.6886L34.3781 27.7478C34.4865 27.7829 34.6043 27.7747 34.7067 27.7248L72.3825 6.02815C72.4417 5.98872 72.4515 5.93615 72.4121 5.89343Z" fill="white"/>
<path id="Vector_87" d="M74.2851 6.95483L74.2654 6.97126C74.2578 6.97277 74.25 6.97277 74.2424 6.97126L36.5665 28.658C36.4647 28.7094 36.3467 28.7188 36.238 28.6843L36.077 28.6219H36.0507H36.031C35.9817 28.6679 35.9981 28.7205 36.077 28.75L36.238 28.8125C36.3467 28.8469 36.4647 28.8375 36.5665 28.7862L74.2424 7.09284C74.3114 7.06984 74.3245 6.99755 74.2851 6.95483Z" fill="white"/>
<path id="Vector_88" d="M76.043 7.98657H76.02L38.354 29.6733C38.2514 29.7226 38.1339 29.7308 38.0254 29.6963L37.8644 29.6372H37.8382L37.8184 29.6208C37.7724 29.6668 37.7889 29.7226 37.8644 29.7522L38.0254 29.8146C38.1343 29.8481 38.2519 29.8387 38.354 29.7884L75.997 8.12458C76.0693 8.08515 76.0824 8.02929 76.043 7.98657Z" fill="white"/>
<path id="Vector_89" d="M77.8766 9.04126C77.8766 9.04126 77.8766 9.04126 77.8601 9.04126L77.8371 9.05769L40.181 30.7477C40.1308 30.7738 40.0758 30.7896 40.0194 30.7941C39.9629 30.7987 39.9062 30.7918 39.8524 30.774L39.6914 30.7116H39.6618H39.6421C39.5961 30.7576 39.6125 30.8102 39.6914 30.843L39.8524 30.9022C39.9608 30.9373 40.0786 30.9291 40.181 30.8792L77.8371 9.18255C77.9061 9.14312 77.9193 9.09055 77.8766 9.04126Z" fill="white"/>
<path id="Vector_90" d="M79.7133 10.1058C79.7096 10.1128 79.7039 10.1186 79.6969 10.1223C79.6893 10.1238 79.6815 10.1238 79.6739 10.1223L42.0079 31.809C41.9055 31.8589 41.7877 31.8672 41.6793 31.832L41.5183 31.7729H41.4887H41.469C41.423 31.8189 41.4395 31.8748 41.5183 31.9043L41.6793 31.9668C41.7881 32.0009 41.9059 31.9915 42.0079 31.9405L79.6739 10.2438C79.7396 10.2044 79.7528 10.1486 79.7133 10.1058Z" fill="white"/>
</g>
<g id="Vector_91" style="mix-blend-mode:multiply" opacity="0.2">
<path d="M30.4055 25.2867L68.1109 3.59331C68.1622 3.5688 68.2184 3.55609 68.2752 3.55609C68.3321 3.55609 68.3882 3.5688 68.4395 3.59331L68.5677 3.65246C68.5848 3.66202 68.6003 3.67422 68.6137 3.6886C68.6564 3.6426 68.6399 3.58674 68.5677 3.5506L68.4395 3.49145C68.3882 3.46694 68.3321 3.45422 68.2752 3.45422C68.2184 3.45422 68.1622 3.46694 68.1109 3.49145L30.3989 25.1782C30.3299 25.2177 30.3201 25.2669 30.3661 25.3064C30.3774 25.2966 30.3909 25.2898 30.4055 25.2867Z" fill="black"/>
</g>
<g id="Vector_92" style="mix-blend-mode:multiply" opacity="0.2">
<path d="M32.2522 26.3743L69.9642 4.68752C70.0155 4.66301 70.0716 4.65029 70.1285 4.65029C70.1853 4.65029 70.2414 4.66301 70.2927 4.68752L70.4209 4.74995C70.4396 4.75701 70.4565 4.76825 70.4702 4.78281C70.5096 4.7368 70.4932 4.68094 70.4209 4.6448L70.2927 4.58237C70.2412 4.55874 70.1852 4.54651 70.1285 4.54651C70.0717 4.54651 70.0157 4.55874 69.9642 4.58237L32.2522 26.2691C32.1832 26.3086 32.1733 26.3579 32.216 26.3973L32.2522 26.3743Z" fill="black"/>
</g>
<g id="Vector_93" style="mix-blend-mode:multiply" opacity="0.2">
<path d="M34.204 27.5048L71.9159 5.81801C71.9675 5.79438 72.0235 5.78215 72.0802 5.78215C72.1369 5.78215 72.193 5.79438 72.2445 5.81801L72.3727 5.87715C72.3905 5.88559 72.4063 5.89795 72.4187 5.9133C72.4614 5.8673 72.445 5.81144 72.3727 5.77529L72.2445 5.71286C72.193 5.68923 72.1369 5.677 72.0802 5.677C72.0235 5.677 71.9675 5.68923 71.9159 5.71286L34.204 27.3996C34.135 27.4391 34.1251 27.4916 34.1678 27.5311L34.204 27.5048Z" fill="black"/>
</g>
<g id="Vector_94" style="mix-blend-mode:multiply" opacity="0.2">
<path d="M36.0736 28.566L73.7856 6.87923C73.8373 6.85602 73.8933 6.84402 73.9499 6.84402C74.0065 6.84402 74.0625 6.85602 74.1142 6.87923L74.2391 6.94167C74.2571 6.94989 74.2738 6.96098 74.2883 6.97453C74.3278 6.92852 74.3113 6.87266 74.2391 6.8398L74.1142 6.77737C74.0628 6.75331 74.0067 6.74084 73.9499 6.74084C73.8931 6.74084 73.837 6.75331 73.7856 6.77737L36.0736 28.4641C36.0046 28.5036 35.9948 28.5562 36.0408 28.5956C36.0502 28.5841 36.0612 28.5742 36.0736 28.566Z" fill="black"/>
</g>
<g id="Vector_95" style="mix-blend-mode:multiply" opacity="0.2">
<path d="M37.8348 29.5979L75.5435 7.91109C75.5952 7.88788 75.6512 7.87588 75.7078 7.87588C75.7645 7.87588 75.8204 7.88788 75.8721 7.91109L75.997 7.97353C76.0159 7.98012 76.0329 7.99143 76.0463 8.00639C76.0857 7.96038 76.0725 7.90452 75.997 7.87167L75.8721 7.80923C75.8207 7.78517 75.7646 7.77271 75.7078 7.77271C75.651 7.77271 75.595 7.78517 75.5435 7.80923L37.8348 29.496C37.7658 29.5354 37.756 29.588 37.7987 29.6242L37.8348 29.5979Z" fill="black"/>
</g>
<g id="Vector_96" style="mix-blend-mode:multiply" opacity="0.2">
<path d="M39.6683 30.6591L77.3803 8.97231C77.4319 8.94868 77.4879 8.93645 77.5446 8.93645C77.6013 8.93645 77.6573 8.94868 77.7089 8.97231L77.837 9.03145C77.8549 9.03989 77.8706 9.05225 77.883 9.0676C77.9258 9.02159 77.9093 8.96573 77.837 8.92959L77.7089 8.86716C77.6573 8.84353 77.6013 8.8313 77.5446 8.8313C77.4879 8.8313 77.4319 8.84353 77.3803 8.86716L39.6683 30.5539C39.5993 30.5934 39.5895 30.6459 39.6322 30.6854L39.6683 30.6591Z" fill="black"/>
</g>
<g id="Vector_97" style="mix-blend-mode:multiply" opacity="0.2">
<path d="M41.4952 31.7138L79.2171 10.027C79.2686 10.0034 79.3247 9.99117 79.3814 9.99117C79.4381 9.99117 79.4941 10.0034 79.5457 10.027L79.6738 10.0895C79.6914 10.0969 79.7071 10.1081 79.7198 10.1223C79.7592 10.0763 79.7461 10.0205 79.6738 9.98431L79.5457 9.92517C79.4944 9.90066 79.4382 9.88794 79.3814 9.88794C79.3245 9.88794 79.2684 9.90066 79.2171 9.92517L41.4952 31.6152C41.4262 31.6547 41.4164 31.7072 41.4591 31.7434L41.4952 31.7138Z" fill="black"/>
</g>
<path id="Vector_98" style="mix-blend-mode:screen" opacity="0.5" d="M42.4252 50.7292C42.4123 50.965 42.3439 51.1943 42.2258 51.3987C42.1076 51.6031 41.9429 51.7768 41.745 51.9056C41.3704 52.1191 41.0681 51.945 41.0681 51.5113C41.0809 51.2763 41.1489 51.0477 41.2665 50.8439C41.3841 50.6401 41.548 50.4668 41.745 50.3382C42.1196 50.1148 42.4252 50.2988 42.4252 50.7292Z" fill="url(#paint2_linear_1001_7895)"/>
<path id="Vector_99" style="mix-blend-mode:multiply" opacity="0.3" d="M42.4252 50.7292C42.4123 50.965 42.3439 51.1943 42.2258 51.3987C42.1076 51.6031 41.9429 51.7768 41.745 51.9056C41.3704 52.1191 41.0681 51.945 41.0681 51.5113C41.0809 51.2763 41.1489 51.0477 41.2665 50.8439C41.3841 50.6401 41.548 50.4668 41.745 50.3382C42.1196 50.1148 42.4252 50.2988 42.4252 50.7292Z" fill="url(#paint3_linear_1001_7895)"/>
<path id="Vector_100" d="M42.9016 50.3119C42.9016 50.3119 41.6727 51.0315 40.9137 51.4389C40.9137 51.4389 40.6508 51.5572 40.6738 51.7182C40.6968 51.8792 40.8447 51.8497 41.0024 51.8365C41.5708 51.6063 42.1201 51.3316 42.6453 51.0151C43.0002 50.7982 43.2105 50.6865 43.1875 50.4433C43.1645 50.2002 43.0265 50.2264 42.9016 50.3119Z" fill="#3C4548"/>
<path id="Vector_101" d="M42.2214 50.946C42.5622 50.7769 42.8703 50.5488 43.1316 50.2724C43.0725 50.2198 42.9837 50.2724 42.9016 50.3118C42.9016 50.3118 41.6727 51.0314 40.9136 51.4389C40.8277 51.4774 40.753 51.5374 40.6968 51.613C41.1667 51.5473 41.561 51.3074 42.2214 50.946Z" fill="#565F62"/>
<path id="Vector_102" d="M17.9256 63.3239C17.9684 63.2615 18.0045 63.2056 18.0374 63.1498C16.1158 62.2872 14.2394 61.3276 12.4152 60.2746C10.8077 59.3136 9.27048 58.2397 7.815 57.061L7.79529 57.2713C9.24986 58.4512 10.7872 59.5251 12.3955 60.4849C13.9464 61.3655 16.6179 62.7949 17.9256 63.3239Z" fill="#404B4D"/>
<path id="Vector_103" d="M17.078 64.3064C17.1339 64.2637 17.1864 64.2144 17.2423 64.1651C15.8294 63.508 13.8053 62.4105 12.5336 61.6909C10.9261 60.7298 9.38888 59.6559 7.9334 58.4773L7.9104 58.6876C9.37259 59.8665 10.9164 60.9404 12.5303 61.9012C13.7428 62.6011 15.6749 63.6394 17.078 64.3064Z" fill="#404B4D"/>
<path id="Vector_104" d="M12.5796 59.795C10.9647 58.837 9.4207 57.7641 7.95961 56.5847L7.80518 57.0612C9.26065 58.2398 10.7979 59.3137 12.4054 60.2748C14.2295 61.3278 16.106 62.2874 18.0275 63.1499L18.1458 62.9527C18.1928 62.8734 18.2262 62.7868 18.2444 62.6964C17.0089 62.2233 14.1831 60.7118 12.5796 59.795Z" fill="#5A6567"/>
<path id="Vector_105" d="M17.2422 64.1652C17.3585 64.0533 17.4682 63.9348 17.5708 63.8103C16.1612 63.1728 13.9563 61.98 12.5861 61.2079C10.9755 60.2508 9.43596 59.1791 7.97934 58.0009L7.93005 58.4839C9.38505 59.6632 10.9224 60.7371 12.5303 61.6975C13.8052 62.4105 15.8293 63.5047 17.2422 64.1652Z" fill="#5A6567"/>
<g id="Group_3">
<path id="Vector_106" d="M26.2752 64.9011L23.6005 66.0939C23.6005 66.0939 22.6147 66.5572 20.2127 66.0118C18.9275 65.735 17.6645 65.3638 16.434 64.9011C16.3451 64.9182 16.255 64.927 16.1645 64.9274C16.0996 64.9267 16.0348 64.9213 15.9707 64.911C14.8666 64.75 12.3562 63.4422 11.1733 62.6503C11.0846 62.5944 10.9926 62.532 10.8973 62.4663C9.74721 61.704 8.05827 60.5802 7.64096 59.1804C7.18751 58.5791 6.26746 57.2812 5.99802 56.3414C5.99802 56.3414 5.469 56.8705 5.469 57.2286C5.469 57.337 5.43614 57.5999 5.42957 57.9811C6.7242 60.0216 8.9586 61.9504 11.1141 63.3633C13.7264 65.0851 18.4942 66.7839 20.5314 67.1355C21.7624 67.341 23.0258 67.2197 24.1952 66.7839L28.0397 64.7927L26.2752 64.9011Z" fill="url(#paint4_linear_1001_7895)"/>
</g>
<path id="Vector_107" d="M14.2586 66.8004L9.53681 63.9549C9.50364 63.9331 9.46476 63.9217 9.42509 63.922C9.40203 63.9223 9.37928 63.9274 9.35834 63.9371C9.3374 63.9468 9.31873 63.9607 9.30354 63.9781C9.28835 63.9955 9.27699 64.0158 9.27019 64.0379C9.26339 64.0599 9.26131 64.0831 9.26408 64.106L9.23779 65.0261C9.23893 65.0969 9.25752 65.1663 9.29191 65.2282C9.3263 65.2901 9.37543 65.3426 9.43494 65.3809L14.1305 68.1871C14.1638 68.2085 14.2026 68.2199 14.2422 68.2199C14.2653 68.2191 14.2881 68.2136 14.3091 68.2039C14.3302 68.1941 14.349 68.1803 14.3647 68.1632C14.3803 68.146 14.3923 68.1259 14.4 68.1041C14.4078 68.0822 14.4111 68.0591 14.4098 68.0359L14.4492 67.1619C14.4505 67.0905 14.4336 67.0199 14.4003 66.9567C14.367 66.8935 14.3183 66.8397 14.2586 66.8004Z" fill="#404B4D"/>
<path id="Vector_108" d="M14.1864 66.9155L9.46786 64.0732C9.45394 64.0689 9.43906 64.0689 9.42514 64.0732C9.40543 64.0732 9.39886 64.1093 9.39886 64.1225L9.37585 65.0425C9.378 65.0886 9.39066 65.1336 9.41287 65.174C9.43508 65.2145 9.46626 65.2493 9.504 65.2758L14.1995 68.0754C14.2135 68.0789 14.2282 68.0789 14.2422 68.0754C14.2652 68.0754 14.2718 68.0392 14.2718 68.0228L14.3112 67.1488C14.3092 67.103 14.297 67.0583 14.2754 67.0179C14.2538 66.9775 14.2233 66.9425 14.1864 66.9155Z" fill="white"/>
<path id="Vector_109" d="M22.2729 53.6799C22.1371 53.616 21.9853 53.5944 21.837 53.6178C21.6888 53.6413 21.551 53.7087 21.4416 53.8113C21.0111 54.1662 20.5544 54.6229 20.5544 54.6229C20.5544 54.6229 20.1469 55.0074 20.7417 55.2637C21.9604 55.7857 23.213 56.2248 24.4909 56.578C25.4766 56.7785 26.6595 55.9209 26.791 55.8387C26.9224 55.7566 27.2871 55.3984 26.4788 55.1815C25.0485 54.7641 23.6441 54.2627 22.2729 53.6799Z" fill="#4F5A5C"/>
<path id="Vector_110" d="M26.446 55.4871C25.0124 55.0632 23.6057 54.5529 22.2336 53.9592C22.1482 53.9195 22.055 53.8993 21.9608 53.9C21.7877 53.9026 21.6212 53.9667 21.491 54.0808C21.0704 54.4291 20.6136 54.8858 20.607 54.8924C20.5743 54.9266 20.5467 54.9653 20.5249 55.0074C20.5865 55.0944 20.6738 55.1599 20.7746 55.1947C21.9881 55.7159 23.2351 56.155 24.5074 56.509C24.6036 56.5291 24.7016 56.539 24.7998 56.5386C25.1711 56.5386 25.7856 56.4137 26.6991 55.8091L26.7352 55.7829C26.7789 55.754 26.8168 55.7172 26.8469 55.6744C26.7329 55.5765 26.5943 55.5117 26.446 55.4871Z" fill="#354042"/>
<path id="Vector_111" d="M20.5248 55.0073C20.5466 54.9653 20.5742 54.9266 20.607 54.8923C20.607 54.8923 21.0703 54.429 21.4909 54.0807C21.6211 53.9666 21.7876 53.9026 21.9607 53.9C22.0549 53.8992 22.1481 53.9194 22.2335 53.9591C23.6056 54.5529 25.0123 55.0631 26.446 55.4871C26.5939 55.5107 26.7325 55.5744 26.8468 55.6711C26.8779 55.6347 26.8933 55.5874 26.8896 55.5397C26.8896 55.4805 26.8107 55.3688 26.446 55.2768C25.0128 54.8513 23.6061 54.3411 22.2335 53.7488C22.1486 53.7071 22.0553 53.6857 21.9607 53.6864C21.7873 53.6902 21.6208 53.7554 21.4909 53.8704C21.0703 54.2187 20.6135 54.6755 20.607 54.682C20.5708 54.7146 20.5423 54.7548 20.5236 54.7996C20.5048 54.8445 20.4963 54.893 20.4985 54.9416C20.5038 54.9648 20.5127 54.9869 20.5248 55.0073Z" fill="#424D4F"/>
<path id="Vector_112" d="M23.4427 56.2002L23.5906 56.2495C24.1065 55.7369 24.5008 55.3787 25.0068 54.9351L24.8557 54.8826C24.3595 55.3196 23.9685 55.6778 23.4427 56.2002Z" fill="#4F5A5C"/>
<path id="Vector_113" d="M23.7516 56.2988L23.8995 56.3448C24.4088 55.8388 24.7603 55.5201 25.3091 55.0305L25.1579 54.9812C24.6191 55.4577 24.2675 55.7764 23.7516 56.2988Z" fill="#4F5A5C"/>
<path id="Vector_114" d="M23.147 56.1016L23.2915 56.1509C23.8107 55.635 24.2445 55.2407 24.7078 54.8365L24.5599 54.7839C24.0999 55.1815 23.6661 55.5824 23.147 56.1016Z" fill="#4F5A5C"/>
<path id="Vector_115" d="M24.0538 56.3909L24.2083 56.4336C24.7044 55.9407 25.01 55.6614 25.6081 55.1192L25.4569 55.0699C24.8884 55.5825 24.5697 55.875 24.0538 56.3909Z" fill="#4F5A5C"/>
<path id="Vector_116" d="M24.7144 56.532H24.9115C25.3288 56.118 25.5687 55.8749 26.2259 55.3163L26.0681 55.2703C25.4208 55.8453 25.1809 56.0654 24.7144 56.532Z" fill="#4F5A5C"/>
<path id="Vector_117" d="M24.3726 56.4761L24.5073 56.5057H24.5303C25.0067 56.0325 25.2893 55.7795 25.9136 55.2209L25.7592 55.1716C25.1513 55.7204 24.872 55.9734 24.3726 56.4761Z" fill="#4F5A5C"/>
<path id="Vector_118" d="M26.3803 55.3722C25.7461 55.9374 25.5161 56.1477 25.1448 56.5157C25.2312 56.5008 25.3168 56.481 25.4011 56.4565C25.6968 56.1707 25.9465 55.9472 26.5347 55.4182C26.4844 55.3991 26.4328 55.3837 26.3803 55.3722Z" fill="#4F5A5C"/>
<path id="Vector_119" d="M22.8479 55.9965L22.9925 56.0491C23.5116 55.5365 23.9782 55.1126 24.412 54.7183L24.2641 54.6658C23.8271 55.0601 23.3671 55.484 22.8479 55.9965Z" fill="#4F5A5C"/>
<path id="Vector_120" d="M20.5741 55.0699C20.6095 55.1011 20.6481 55.1286 20.6891 55.152C21.1688 54.6822 21.78 54.1203 22.1217 53.8114C22.0698 53.792 22.0158 53.7788 21.9607 53.772C21.6059 54.094 21.0275 54.6263 20.5741 55.0699Z" fill="#4F5A5C"/>
<path id="Vector_121" d="M20.8271 55.2177L20.9652 55.2736C21.4449 54.8037 22.0396 54.2582 22.3945 53.9362L22.2565 53.8771C21.8852 54.2122 21.297 54.7544 20.8271 55.2177Z" fill="#4F5A5C"/>
<path id="Vector_122" d="M21.1229 55.3327L21.2642 55.3919C21.7341 54.9286 22.3026 54.4061 22.687 54.0578L22.5457 53.9987C22.135 54.3568 21.5698 54.8793 21.1229 55.3327Z" fill="#4F5A5C"/>
<path id="Vector_123" d="M22.5555 55.8913L22.7001 55.9439C23.2127 55.4346 23.7089 54.9811 24.1196 54.6131L23.9718 54.5573C23.5577 54.9286 23.0649 55.3721 22.5555 55.8913Z" fill="#4F5A5C"/>
<path id="Vector_124" d="M26.6727 55.4674C26.1831 55.9044 25.9433 56.1246 25.7166 56.3349C25.8447 56.2856 25.9761 56.2232 26.1207 56.1509C26.285 55.9997 26.4887 55.8223 26.7779 55.5561C26.749 55.52 26.7132 55.4898 26.6727 55.4674Z" fill="#4F5A5C"/>
<path id="Vector_125" d="M21.3955 55.4478L21.5368 55.5037C21.8358 55.208 22.2925 54.7742 22.9596 54.1729L22.815 54.1138C22.1447 54.7151 21.688 55.1587 21.3955 55.4478Z" fill="#4F5A5C"/>
<path id="Vector_126" d="M21.6815 55.5628L21.8228 55.6154C22.3223 55.1258 22.8809 54.6132 23.2456 54.2846L23.101 54.2288C22.7264 54.5705 22.1678 55.0798 21.6815 55.5628Z" fill="#4F5A5C"/>
<path id="Vector_127" d="M22.2631 55.783L22.4044 55.8355C22.9137 55.3328 23.4328 54.8498 23.8271 54.5212L23.6793 54.4653C23.2784 54.8103 22.7658 55.2802 22.2631 55.783Z" fill="#4F5A5C"/>
<path id="Vector_128" d="M21.9706 55.6712L22.1152 55.7271C22.6179 55.2276 23.1568 54.7413 23.5347 54.3963L23.3901 54.3405C22.9991 54.692 22.4667 55.1784 21.9706 55.6712Z" fill="#4F5A5C"/>
<path id="Vector_129" d="M13.792 51.071C13.9432 51.2025 14.2652 51.5146 14.6299 51.1269C14.9021 50.8235 15.1545 50.5031 15.3857 50.1674C15.4408 50.0562 15.4546 49.929 15.4245 49.8086C15.3944 49.6882 15.3224 49.5824 15.2214 49.5103C14.6771 49.1145 14.1661 48.6749 13.6934 48.1959C13.3477 47.7922 13.0273 47.3675 12.734 46.9243C12.734 46.9243 12.5401 46.5694 12.2049 47.0426C11.9741 47.3813 11.7656 47.7348 11.5806 48.1006C11.5806 48.1006 11.3539 48.5968 11.5806 48.8958C11.8074 49.1948 13.4339 50.772 13.792 51.071Z" fill="#4F5A5C"/>
<path id="Vector_130" d="M14.009 50.9955L13.9893 50.979C13.6048 50.6505 12.0177 49.0897 11.7877 48.8038C11.5577 48.5179 11.7877 48.0908 11.7877 48.0842C11.9699 47.7234 12.1763 47.3754 12.4055 47.0426C12.4488 46.9768 12.502 46.918 12.5632 46.8684H12.527C12.4515 46.8684 12.3562 46.944 12.2609 47.082C12.0323 47.417 11.8249 47.766 11.6399 48.1269C11.6399 48.1269 11.4361 48.5836 11.6399 48.8432C11.8436 49.1028 13.4569 50.6833 13.8414 51.0185L13.8611 51.0349C13.9644 51.1477 14.1039 51.2209 14.2554 51.2419C14.3055 51.2421 14.3549 51.2309 14.4 51.2091C14.2488 51.1856 14.1105 51.11 14.009 50.9955Z" fill="#424D4F"/>
<path id="Vector_131" d="M14.5741 51.071C14.8419 50.7742 15.0899 50.4603 15.3167 50.1312C15.367 50.0356 15.3803 49.9249 15.3543 49.8201C15.3282 49.7153 15.2646 49.6237 15.1754 49.5627C14.627 49.1671 14.1116 48.7275 13.6343 48.2484C13.28 47.8405 12.9508 47.4115 12.6486 46.9636C12.627 46.9275 12.5949 46.8989 12.5566 46.8815C12.4954 46.9311 12.4422 46.9898 12.3988 47.0556C12.1697 47.3885 11.9633 47.7365 11.7811 48.0972C11.7811 48.0972 11.5774 48.554 11.7811 48.8168C11.9848 49.0797 13.5982 50.6537 13.9826 50.9921L14.0023 51.0085C14.1057 51.1213 14.2451 51.1945 14.3967 51.2155C14.4646 51.1792 14.5248 51.1301 14.5741 51.071Z" fill="#354042"/>
<path id="Vector_132" d="M13.2663 47.7916C13.2368 47.7522 13.2072 47.7161 13.1809 47.6766C12.9115 48.0447 12.4843 48.6624 12.1031 49.2473L12.2017 49.3491C12.5796 48.7807 12.9969 48.1629 13.2663 47.7916Z" fill="#4F5A5C"/>
<path id="Vector_133" d="M13.4241 47.9922L13.3354 47.8805C13.0626 48.2485 12.6552 48.84 12.2708 49.415L12.3693 49.5169C12.7439 48.955 13.1514 48.3635 13.4241 47.9922Z" fill="#4F5A5C"/>
<path id="Vector_134" d="M13.7559 48.3633L13.6606 48.2615C13.4109 48.5901 13.0593 49.0895 12.6058 49.7533L12.7077 49.8518C13.1579 49.1881 13.5095 48.6919 13.7559 48.3633Z" fill="#4F5A5C"/>
<path id="Vector_135" d="M13.1119 47.5879L13.0265 47.4696C12.7702 47.8311 12.3266 48.4817 11.9388 49.0731L12.0374 49.1783C12.412 48.6032 12.849 47.9559 13.1119 47.5879Z" fill="#4F5A5C"/>
<path id="Vector_136" d="M15.3364 49.75C14.8764 50.2659 14.5741 50.6569 14.1732 51.1925C14.2148 51.212 14.2591 51.2253 14.3047 51.2319C14.6628 50.7522 14.9618 50.3842 15.3528 49.9176C15.3586 49.8612 15.353 49.8042 15.3364 49.75Z" fill="#4F5A5C"/>
<path id="Vector_137" d="M12.9607 47.3809L12.8786 47.2593C12.6256 47.6174 12.159 48.3108 11.7745 48.9022C11.8008 48.9351 11.8337 48.9679 11.8731 49.0106C12.251 48.3995 12.7143 47.7357 12.9607 47.3809Z" fill="#4F5A5C"/>
<path id="Vector_138" d="M12.665 46.9537C12.6455 46.9179 12.6142 46.89 12.5763 46.8749H12.5434C12.3758 47.1279 12.0735 47.5781 11.7712 48.0381C11.7576 48.0613 11.7455 48.0855 11.7351 48.1104C11.6834 48.2314 11.6523 48.3602 11.6431 48.4915C12.0177 47.9198 12.4547 47.2692 12.665 46.9537Z" fill="#4F5A5C"/>
<path id="Vector_139" d="M12.8129 47.1576C12.78 47.1116 12.7504 47.0689 12.7307 47.036C12.5007 47.3646 12.0374 48.0546 11.653 48.6494C11.6619 48.7059 11.6832 48.7598 11.7154 48.8071C12.1064 48.2124 12.5796 47.519 12.8129 47.1576Z" fill="#4F5A5C"/>
<path id="Vector_140" d="M13.585 48.1827L13.493 48.0742C13.1644 48.508 12.7175 49.1717 12.4382 49.5857L12.5368 49.6843C12.9081 49.129 13.3057 48.5605 13.585 48.1827Z" fill="#4F5A5C"/>
<path id="Vector_141" d="M15.0801 49.4905L14.9684 49.4083C14.5642 49.8749 14.2291 50.3185 13.8052 50.9001L13.907 50.9954C14.3375 50.4039 14.6726 49.9604 15.0801 49.4905Z" fill="#4F5A5C"/>
<path id="Vector_142" d="M14.8797 49.3393L14.7713 49.2539C14.4 49.6844 14.0648 50.1378 13.6311 50.7391L13.733 50.8344C14.17 50.2298 14.5084 49.7862 14.8797 49.3393Z" fill="#4F5A5C"/>
<path id="Vector_143" d="M14.6858 49.1848L14.5774 49.0961C14.2488 49.5068 13.8841 49.98 13.4569 50.578L13.5588 50.6733C13.9892 50.0687 14.3375 49.5955 14.6858 49.1848Z" fill="#4F5A5C"/>
<path id="Vector_144" d="M15.274 49.6515C15.2459 49.617 15.2126 49.5871 15.1754 49.5627C14.7318 50.0622 14.4065 50.4861 13.9827 51.0611C14.0155 51.0874 14.0517 51.1202 14.0911 51.1465C14.5117 50.5682 14.8337 50.1476 15.274 49.6515Z" fill="#4F5A5C"/>
<path id="Vector_145" d="M13.9334 48.5343L13.8348 48.439C13.5292 48.8333 13.1349 49.3952 12.7767 49.9176L12.8753 50.0162C13.2368 49.4937 13.6278 48.9318 13.9334 48.5343Z" fill="#4F5A5C"/>
<path id="Vector_146" d="M14.4919 49.0271L14.3868 48.9384C14.0582 49.3359 13.7066 49.8223 13.286 50.4137L13.3879 50.509C13.8117 49.9143 14.1633 49.4247 14.4919 49.0271Z" fill="#4F5A5C"/>
<path id="Vector_147" d="M14.1174 48.7019L14.0155 48.6099C13.687 49.0107 13.3124 49.5529 12.9476 50.0852C12.9805 50.1181 13.0133 50.1477 13.0462 50.1838C13.4142 49.6482 13.802 49.1027 14.1174 48.7019Z" fill="#4F5A5C"/>
<path id="Vector_148" d="M14.3014 48.8662L14.1996 48.7742C13.871 49.1685 13.5161 49.6778 13.1152 50.2495L13.2171 50.3481C13.618 49.7862 13.986 49.2605 14.3014 48.8662Z" fill="#4F5A5C"/>
<path id="Vector_149" d="M18.0111 64.7303C18.0111 64.7303 19.3879 62.8147 20.4755 62.2429C21.5631 61.6712 25.0757 61.2736 25.2006 61.2572C25.3255 61.2407 25.562 61.313 25.4109 61.6285C25.2597 61.9439 24.4251 63.8267 23.6661 64.5332C22.9071 65.2397 22.5916 65.657 21.0374 65.473C20.005 65.3344 18.9904 65.0855 18.0111 64.7303Z" fill="#E3E3E4"/>
<path id="Vector_150" d="M21.1032 63.8694C20.8642 64.3695 20.4731 64.7813 19.986 65.0458L19.6936 64.3886L19.365 63.6723C19.5471 63.6011 19.7351 63.5461 19.9269 63.508C19.9269 63.508 20.9356 63.3075 21.1032 63.5441C21.1315 63.5937 21.1463 63.6497 21.1463 63.7068C21.1463 63.7638 21.1315 63.8199 21.1032 63.8694Z" fill="url(#paint5_linear_1001_7895)"/>
<path id="Vector_151" d="M20.2652 64.6548C20.2652 65.0031 20.0188 65.1444 19.7198 64.9834C19.5612 64.88 19.4292 64.7408 19.3345 64.577C19.2397 64.4131 19.1849 64.2293 19.1743 64.0403C19.1743 63.692 19.4175 63.5507 19.7198 63.7117C19.878 63.8155 20.0097 63.9548 20.1044 64.1186C20.1991 64.2823 20.2542 64.4659 20.2652 64.6548Z" fill="white"/>
<path id="Vector_152" d="M24.1163 62.8968C23.8567 63.7314 22.5227 64.9734 21.9641 65.1575L21.4022 63.8957L20.745 62.5123C21.0973 62.3788 21.46 62.2744 21.8293 62.2002C21.8293 62.2002 23.7713 61.8124 24.0966 62.2659C24.1526 62.3609 24.1837 62.4686 24.1871 62.5788C24.1906 62.6891 24.1662 62.7984 24.1163 62.8968Z" fill="url(#paint6_linear_1001_7895)"/>
<path id="Vector_153" d="M22.503 64.4083C22.503 65.0655 22.0331 65.3481 21.4515 65.0129C21.1463 64.8137 20.8924 64.5453 20.7103 64.2296C20.5282 63.9139 20.423 63.5598 20.4033 63.1959C20.4033 62.5387 20.8732 62.2561 21.4515 62.5913C21.7584 62.789 22.0138 63.0569 22.1967 63.3728C22.3795 63.6888 22.4845 64.0438 22.503 64.4083Z" fill="white"/>
<path id="Vector_154" d="M24.6256 62.5124C24.3397 63.111 23.8699 63.6026 23.2849 63.9154L22.9333 63.1301L22.5292 62.2725C22.7425 62.1899 22.9623 62.1251 23.1863 62.0786C23.1863 62.0786 24.3988 61.8388 24.5993 62.1214C24.6368 62.1788 24.6589 62.245 24.6635 62.3134C24.6681 62.3819 24.655 62.4504 24.6256 62.5124Z" fill="url(#paint7_linear_1001_7895)"/>
<path id="Vector_155" d="M23.6201 63.4554C23.6201 63.8727 23.3277 64.0403 22.963 63.8333C22.7721 63.7092 22.6131 63.542 22.4989 63.345C22.3847 63.148 22.3186 62.927 22.3058 62.6997C22.3058 62.2824 22.5982 62.1148 22.963 62.3218C23.1539 62.4458 23.3128 62.6131 23.427 62.8101C23.5412 63.007 23.6073 63.2281 23.6201 63.4554Z" fill="white"/>
<g id="Group_4">
<path id="Vector_156" d="M18.0111 64.7303C18.0111 64.7303 19.3879 62.8147 20.4755 62.2429C21.5631 61.6712 25.0757 61.2736 25.2006 61.2572C25.3255 61.2407 25.562 61.313 25.4109 61.6285C25.2597 61.9439 24.4251 63.8267 23.6661 64.5332C22.9071 65.2397 22.5916 65.657 21.0374 65.473C20.005 65.3344 18.9904 65.0855 18.0111 64.7303Z" fill="url(#paint8_linear_1001_7895)"/>
</g>
<path id="Vector_157" d="M84.4089 25.0599V31.0566L85.6345 30.2812C85.6345 30.1629 85.6345 30.0939 85.6345 30.0939L85.7331 27.4948C85.7331 27.4948 85.6673 25.9208 85.5129 23.9362L84.606 24.5933C84.5353 24.6471 84.4799 24.7185 84.4453 24.8004C84.4107 24.8822 84.3982 24.9717 84.4089 25.0599Z" fill="#B01120"/>
<path id="Vector_158" d="M84.4088 28.0995L85.7232 27.2419C85.7232 26.9691 85.6837 26.4828 85.6476 25.8519L84.4154 26.6865L84.4088 28.0995Z" fill="#E3E3E4"/>
<path id="Vector_159" d="M84.6782 29.174V30.2419L85.6443 29.5847L85.687 28.4971L84.6782 29.174Z" fill="#E3E3E4"/>
<path id="Vector_160" d="M44.4788 55.9078C44.4768 55.9488 44.4651 55.9886 44.4445 56.0241C44.4239 56.0595 44.3951 56.0895 44.3605 56.1115L43.5785 56.5617C43.5128 56.6011 43.4602 56.5617 43.4602 56.496V56.3317C43.4622 56.2908 43.474 56.2509 43.4946 56.2154C43.5151 56.18 43.5439 56.15 43.5785 56.128L44.3605 55.6745C44.4263 55.6384 44.4788 55.6745 44.4788 55.7435V55.9078Z" fill="#D77728"/>
<path id="Vector_161" d="M44.6169 55.9702C44.615 56.0108 44.6036 56.0504 44.5836 56.0857C44.5637 56.1211 44.5357 56.1513 44.5019 56.1739L43.7166 56.6241C43.6541 56.6635 43.5983 56.6241 43.5983 56.5584V56.3941C43.601 56.3533 43.6131 56.3137 43.6336 56.2784C43.6542 56.2431 43.6825 56.213 43.7166 56.1904L44.5019 55.7369C44.5643 55.7008 44.6169 55.7369 44.6169 55.8059V55.9702Z" fill="#F09041"/>
<path id="Vector_162" d="M67.3518 42.7085C67.3494 42.7485 67.3378 42.7874 67.3178 42.8222C67.2979 42.857 67.2702 42.8867 67.2368 42.9089L66.4679 43.3624C66.4055 43.3985 66.3529 43.3624 66.3529 43.2934V43.1291C66.3548 43.0885 66.3662 43.0489 66.3862 43.0135C66.4061 42.9782 66.4341 42.948 66.4679 42.9254L67.2532 42.4752C67.3157 42.4358 67.3682 42.4752 67.3682 42.5409L67.3518 42.7085Z" fill="#D77728"/>
<path id="Vector_163" d="M67.4931 42.7708C67.4906 42.8111 67.4786 42.8503 67.458 42.8852C67.4375 42.92 67.4089 42.9495 67.3748 42.9712L66.5928 43.4246C66.5271 43.4608 66.4745 43.4246 66.4745 43.3556V43.1913C66.4772 43.1506 66.4894 43.111 66.5099 43.0757C66.5304 43.0404 66.5587 43.0102 66.5928 42.9876L67.3748 42.5375C67.4405 42.498 67.4931 42.5375 67.4931 42.6032V42.7708Z" fill="#F09041"/>
<path id="Vector_164" d="M83.9094 32.7883C83.9074 32.8293 83.8956 32.8691 83.875 32.9046C83.8544 32.94 83.8256 32.97 83.7911 32.992L83.009 33.4455C82.9433 33.4816 82.8907 33.4455 82.8907 33.3765V33.2122C82.8927 33.1712 82.9045 33.1314 82.9251 33.0959C82.9457 33.0605 82.9745 33.0305 83.009 33.0085L83.7911 32.555C83.8568 32.5189 83.9094 32.555 83.9094 32.624V32.7883Z" fill="#D77728"/>
<path id="Vector_165" d="M84.0474 32.8507C84.0454 32.8916 84.0337 32.9315 84.0131 32.9669C83.9925 33.0024 83.9637 33.0324 83.9291 33.0544L83.1471 33.5079C83.0814 33.544 83.0288 33.5079 83.0288 33.4389V33.2746C83.0308 33.2336 83.0426 33.1938 83.0632 33.1583C83.0837 33.1229 83.1125 33.0929 83.1471 33.0708L83.9291 32.6174C83.9949 32.5812 84.0474 32.6174 84.0474 32.6864V32.8507Z" fill="#F09041"/>
<g id="Vector_166" style="mix-blend-mode:multiply" opacity="0.1">
<path d="M76.5852 61.5594C76.7184 61.7407 76.8633 61.913 77.0189 62.0753C76.9064 61.8788 76.7595 61.7041 76.5852 61.5594Z" fill="black"/>
</g>
</g>
</g>
<defs>
<filter id="filter0_d_1001_7895" x="0.421509" y="0.203125" width="92.3115" height="80.7969" filterUnits="userSpaceOnUse" color-interpolation-filters="sRGB">
<feFlood flood-opacity="0" result="BackgroundImageFix"/>
<feColorMatrix in="SourceAlpha" type="matrix" values="0 0 0 0 0 0 0 0 0 0 0 0 0 0 0 0 0 0 127 0" result="hardAlpha"/>
<feOffset dx="1" dy="4"/>
<feGaussianBlur stdDeviation="3"/>
<feComposite in2="hardAlpha" operator="out"/>
<feColorMatrix type="matrix" values="0 0 0 0 0 0 0 0 0 0 0 0 0 0 0 0 0 0 0.25 0"/>
<feBlend mode="normal" in2="BackgroundImageFix" result="effect1_dropShadow_1001_7895"/>
<feBlend mode="normal" in="SourceGraphic" in2="effect1_dropShadow_1001_7895" result="shape"/>
</filter>
<linearGradient id="paint0_linear_1001_7895" x1="32.4494" y1="64.5232" x2="28.3453" y2="68.9" gradientUnits="userSpaceOnUse">
<stop stop-color="#C1C0C0"/>
<stop offset="1" stop-color="#DEDDDC"/>
</linearGradient>
<linearGradient id="paint1_linear_1001_7895" x1="73.559" y1="40.8389" x2="69.4516" y2="45.2189" gradientUnits="userSpaceOnUse">
<stop stop-color="#C1C0C0"/>
<stop offset="1" stop-color="#DEDDDC"/>
</linearGradient>
<linearGradient id="paint2_linear_1001_7895" x1="42.0079" y1="51.7511" x2="41.469" y2="50.4565" gradientUnits="userSpaceOnUse">
<stop stop-color="white"/>
<stop offset="1"/>
</linearGradient>
<linearGradient id="paint3_linear_1001_7895" x1="42.0079" y1="51.7511" x2="41.469" y2="50.4565" gradientUnits="userSpaceOnUse">
<stop stop-color="white"/>
<stop offset="1"/>
</linearGradient>
<linearGradient id="paint4_linear_1001_7895" x1="18.5304" y1="62.0621" x2="25.457" y2="62.4564" gradientUnits="userSpaceOnUse">
<stop stop-color="white"/>
<stop offset="0.52" stop-color="white"/>
<stop offset="1" stop-color="white"/>
</linearGradient>
<linearGradient id="paint5_linear_1001_7895" x1="20.2292" y1="63.6" x2="20.4855" y2="64.5792" gradientUnits="userSpaceOnUse">
<stop stop-color="#FAFFFF"/>
<stop offset="1" stop-color="#D4D7D9"/>
</linearGradient>
<linearGradient id="paint6_linear_1001_7895" x1="22.4372" y1="62.3743" x2="22.9301" y2="64.2604" gradientUnits="userSpaceOnUse">
<stop stop-color="#FAFFFF"/>
<stop offset="1" stop-color="#D4D7D9"/>
</linearGradient>
<linearGradient id="paint7_linear_1001_7895" x1="23.5807" y1="62.1871" x2="23.8862" y2="63.3634" gradientUnits="userSpaceOnUse">
<stop stop-color="#FAFFFF"/>
<stop offset="1" stop-color="#D4D7D9"/>
</linearGradient>
<linearGradient id="paint8_linear_1001_7895" x1="18.0111" y1="63.3733" x2="25.4602" y2="63.3733" gradientUnits="userSpaceOnUse">
<stop stop-color="white"/>
<stop offset="1" stop-color="white"/>
</linearGradient>
<clipPath id="clip0_1001_7895">
<rect width="90" height="76" fill="white"/>
</clipPath>
</defs>
</svg>
