<svg width="139" height="122" viewBox="0 0 139 122" fill="none" xmlns="http://www.w3.org/2000/svg">
<g id="Frame 10" clip-path="url(#clip0_801_53588)">
<g id="Group 48208" filter="url(#filter0_d_801_53588)">
<path id="Vector" d="M45.498 93.2111L49.832 98.4315L53.9527 99.777L54.6734 98.1583L55.3636 93.7169L45.498 93.2111Z" fill="#222B2E"/>
<path id="Vector_2" d="M118.241 60.7153L117.434 62.5465L113.319 61.6967L109.152 57.5436H119.545L118.241 60.7153Z" fill="#222B2E"/>
<path id="Vector_3" d="M50.8216 95.3306L47.6346 93.8737C46.6907 93.5551 45.4981 93.727 44.199 94.4757C41.1541 96.2361 38.6572 100.516 38.6572 104.036C38.6572 105.883 39.3423 107.152 40.4334 107.689L43.4276 109.075C44.3969 109.489 45.6707 109.343 47.0561 108.569C50.101 106.808 52.5928 102.524 52.5928 99.0031C52.5928 97.1365 51.9077 95.8668 50.8216 95.3306Z" fill="#3B4447"/>
<path id="Vector_4" d="M52.5928 98.9831C52.5928 102.524 50.1163 106.788 47.0561 108.549C43.996 110.309 41.5144 108.883 41.5144 105.357C41.5144 101.831 43.996 97.5565 47.0561 95.7962C50.1163 94.0358 52.5928 95.4623 52.5928 98.9831Z" fill="#555E61"/>
<path id="Vector_5" d="M52.1055 99.3624C52.1055 102.575 49.8472 106.475 47.0307 108.078C44.2141 109.682 41.9558 108.387 41.9558 105.175C41.9558 101.962 44.2141 98.0624 47.0307 96.4588C49.8472 94.8553 52.1055 96.1553 52.1055 99.3624Z" fill="#3B4447"/>
<path id="Vector_6" d="M50.5476 100.5C50.4886 101.656 50.1557 102.781 49.5761 103.783C48.9966 104.786 48.1869 105.637 47.2134 106.267C45.5235 107.279 43.8488 106.267 43.8843 104.335C43.9408 103.179 44.272 102.052 44.8508 101.049C45.4296 100.045 46.2394 99.1933 47.2134 98.563C48.9084 97.5462 50.5831 98.5427 50.5476 100.5Z" fill="url(#paint0_linear_801_53588)"/>
<path id="Vector_7" d="M50.4106 100.657C50.3563 101.758 50.0404 102.83 49.4889 103.785C48.9375 104.74 48.1662 105.551 47.2388 106.151C45.63 107.117 44.0315 106.151 44.067 104.309C44.1205 103.209 44.436 102.136 44.9875 101.181C45.539 100.226 46.3107 99.4151 47.2388 98.8159C48.8627 97.8447 50.4461 98.7957 50.4106 100.657Z" fill="#CCCBCA"/>
<path id="Vector_8" opacity="0.5" d="M48.5888 98.4317C49.4616 98.6189 50.1112 99.4434 50.0706 100.592C50.0169 101.679 49.7045 102.737 49.1592 103.68C48.6139 104.623 47.8512 105.423 46.9344 106.014C46.656 106.204 46.3375 106.326 46.0037 106.371C45.67 106.417 45.3301 106.385 45.011 106.277C45.3571 106.466 45.7493 106.554 46.143 106.532C46.5368 106.509 46.9164 106.377 47.2388 106.151C48.1663 105.551 48.9376 104.74 49.489 103.785C50.0405 102.83 50.3563 101.758 50.4106 100.657C50.436 99.3321 49.6342 98.4722 48.5888 98.4317Z" fill="white"/>
<path id="Vector_9" d="M49.1062 101.593C49.0778 102.179 48.9097 102.75 48.6158 103.259C48.3219 103.767 47.9107 104.199 47.4162 104.517C47.2499 104.643 47.0498 104.717 46.8412 104.73C46.6326 104.743 46.4249 104.693 46.2445 104.588C46.064 104.483 45.9189 104.327 45.8276 104.14C45.7362 103.952 45.7028 103.742 45.7314 103.536C45.76 102.95 45.9276 102.38 46.2206 101.872C46.5135 101.363 46.9233 100.932 47.4162 100.612C47.5825 100.484 47.7832 100.408 47.9927 100.395C48.2022 100.381 48.4111 100.43 48.5925 100.536C48.7739 100.641 48.9197 100.798 49.0112 100.986C49.1027 101.175 49.1358 101.386 49.1062 101.593Z" fill="#E7E8E7"/>
<path id="Vector_10" fill-rule="evenodd" clip-rule="evenodd" d="M46.1934 101.386L45.4221 100.627C45.2829 100.824 45.1541 101.029 45.0364 101.239L46.0057 101.684C46.0615 101.583 46.1275 101.482 46.1934 101.386Z" fill="#343433"/>
<path id="Vector_11" fill-rule="evenodd" clip-rule="evenodd" d="M47.3403 100.273C47.3855 100.244 47.433 100.219 47.4824 100.197L47.2845 98.8568L47.2134 98.8972C47.0248 99.0162 46.8435 99.1463 46.6704 99.2867L47.1424 100.4L47.3403 100.273Z" fill="#343433"/>
<path id="Vector_12" fill-rule="evenodd" clip-rule="evenodd" d="M45.7822 102.124L44.7672 101.74C44.6556 101.979 44.5574 102.224 44.4729 102.473L45.6097 102.549C45.6582 102.404 45.7158 102.262 45.7822 102.124Z" fill="#343433"/>
<path id="Vector_13" fill-rule="evenodd" clip-rule="evenodd" d="M46.7516 100.728L46.3 99.6154C46.1195 99.7903 45.95 99.9761 45.7925 100.172L46.4776 101.042C46.5537 100.926 46.6501 100.824 46.7516 100.728Z" fill="#343433"/>
<path id="Vector_14" fill-rule="evenodd" clip-rule="evenodd" d="M48.9745 100.46L49.553 99.489C49.5175 99.4182 49.4769 99.3524 49.4363 99.2867C49.3861 99.2116 49.3301 99.1405 49.2688 99.0742L48.8171 100.293C48.8771 100.341 48.93 100.398 48.9745 100.46Z" fill="#343433"/>
<path id="Vector_15" fill-rule="evenodd" clip-rule="evenodd" d="M49.223 101.011L49.832 100.308C49.8016 100.166 49.766 100.025 49.7254 99.8933L49.1165 100.682C49.164 100.788 49.1998 100.898 49.223 101.011Z" fill="#343433"/>
<path id="Vector_16" fill-rule="evenodd" clip-rule="evenodd" d="M48.5937 100.151L48.9794 98.8109C48.8409 98.7161 48.6861 98.6475 48.5227 98.6085L48.3552 100.065C48.4383 100.083 48.5185 100.112 48.5937 100.151Z" fill="#343433"/>
<path id="Vector_17" fill-rule="evenodd" clip-rule="evenodd" d="M48.0761 100.045L48.2385 98.5782C48.0497 98.5808 47.8627 98.615 47.6853 98.6794L47.8223 100.081C47.9054 100.06 47.9905 100.048 48.0761 100.045Z" fill="#343433"/>
<path id="Vector_18" fill-rule="evenodd" clip-rule="evenodd" d="M45.4981 103.03H44.3258C44.2668 103.268 44.2244 103.509 44.199 103.753L45.4474 103.45C45.4565 103.309 45.4734 103.169 45.4981 103.03Z" fill="#343433"/>
<path id="Vector_19" fill-rule="evenodd" clip-rule="evenodd" d="M47.8477 104.335L47.8071 105.043C47.9391 104.922 48.071 104.795 48.1928 104.659L48.0913 104.102C47.9898 104.183 47.9036 104.259 47.8477 104.335Z" fill="#343433"/>
<path id="Vector_20" fill-rule="evenodd" clip-rule="evenodd" d="M48.4465 103.647L48.6191 104.107C48.7728 103.898 48.9151 103.68 49.0454 103.455L48.6343 103.369C48.5734 103.455 48.5125 103.556 48.4465 103.647Z" fill="#343433"/>
<path id="Vector_21" fill-rule="evenodd" clip-rule="evenodd" d="M48.8982 102.868L49.2991 102.964C49.4154 102.712 49.5171 102.454 49.6036 102.19L49.0961 102.362C49.0422 102.535 48.9761 102.704 48.8982 102.868Z" fill="#343433"/>
<path id="Vector_22" fill-rule="evenodd" clip-rule="evenodd" d="M45.4678 103.885L44.1686 104.214C44.1686 104.244 44.1686 104.274 44.1686 104.31C44.1661 104.481 44.1918 104.652 44.2448 104.816L45.549 104.198C45.5105 104.097 45.4833 103.992 45.4678 103.885Z" fill="#343433"/>
<path id="Vector_23" fill-rule="evenodd" clip-rule="evenodd" d="M49.2536 101.401C49.2473 101.571 49.2286 101.74 49.1978 101.907L49.7458 101.694C49.8153 101.415 49.8629 101.131 49.8879 100.844L49.2536 101.401Z" fill="#343433"/>
<path id="Vector_24" fill-rule="evenodd" clip-rule="evenodd" d="M47.3403 104.684L47.1627 104.775L46.7668 105.751L46.8633 105.716L46.9242 105.685C47.0612 105.599 47.1931 105.508 47.3251 105.412L47.4976 104.578L47.3403 104.684Z" fill="#343433"/>
<path id="Vector_25" fill-rule="evenodd" clip-rule="evenodd" d="M45.6656 104.416L44.4172 105.165C44.4917 105.28 44.5842 105.382 44.6913 105.468C44.734 105.504 44.7798 105.536 44.8283 105.564L45.8433 104.608C45.7756 104.552 45.7158 104.488 45.6656 104.416Z" fill="#343433"/>
<path id="Vector_26" fill-rule="evenodd" clip-rule="evenodd" d="M46.0513 104.78L45.1277 105.716C45.268 105.773 45.4145 105.814 45.5641 105.837L46.2036 104.825C46.1517 104.814 46.1007 104.799 46.0513 104.78Z" fill="#343433"/>
<path id="Vector_27" fill-rule="evenodd" clip-rule="evenodd" d="M46.4572 104.907L45.9497 105.868H45.9751C46.0973 105.867 46.2193 105.858 46.3405 105.842L46.7871 104.896C46.6779 104.913 46.5672 104.917 46.4572 104.907Z" fill="#343433"/>
<path id="Vector_28" d="M114.328 58.8689L111.121 57.4221C110.177 57.1034 108.985 57.2754 107.685 58.0241C104.64 59.7845 102.149 64.064 102.149 67.5898C102.149 69.4361 102.834 70.7058 103.92 71.242L106.919 72.5977C107.888 73.0074 109.157 72.8658 110.542 72.0918C113.587 70.3315 116.084 66.052 116.084 62.5262C116.084 60.6748 115.399 59.4051 114.328 58.8689Z" fill="#3B4447"/>
<path id="Vector_29" d="M116.084 62.5211C116.084 66.0621 113.603 70.3264 110.543 72.0868C107.482 73.8472 105.006 72.4207 105.006 68.8999C105.006 65.3792 107.482 61.0946 110.543 59.3343C113.603 57.5739 116.084 59.0055 116.084 62.5211Z" fill="#555E61"/>
<path id="Vector_30" d="M115.592 62.9057C115.592 66.1128 113.334 70.018 110.517 71.6215C107.701 73.2251 105.468 71.925 105.468 68.7129C105.468 65.5007 107.731 61.6006 110.517 59.997C113.303 58.3935 115.592 59.6935 115.592 62.9057Z" fill="#3B4447"/>
<path id="Vector_31" d="M114.034 64.039C113.977 65.1949 113.645 66.3209 113.066 67.3243C112.488 68.3277 111.678 69.1798 110.705 69.8107C109.01 70.8224 107.335 69.8107 107.371 67.8733C107.428 66.7167 107.76 65.5901 108.339 64.5866C108.919 63.5831 109.73 62.7313 110.705 62.1016C112.395 61.0848 114.069 62.0864 114.034 64.039Z" fill="url(#paint1_linear_801_53588)"/>
<path id="Vector_32" d="M113.897 64.2004C113.841 65.3008 113.525 66.3724 112.974 67.3274C112.422 68.2823 111.652 69.0933 110.725 69.694C109.116 70.6602 107.523 69.694 107.558 67.8476C107.611 66.7471 107.925 65.6747 108.476 64.7193C109.026 63.764 109.797 62.9532 110.725 62.3541C112.339 61.3879 113.932 62.3389 113.897 64.2004Z" fill="#CCCBCA"/>
<path id="Vector_33" opacity="0.5" d="M112.08 61.9749C112.948 62.157 113.603 62.9613 113.557 64.1298C113.504 65.2178 113.192 66.2777 112.648 67.2222C112.103 68.1667 111.342 68.9689 110.426 69.5627C110.146 69.7515 109.827 69.873 109.492 69.9178C109.157 69.9625 108.817 69.9293 108.497 69.8207C108.843 70.0099 109.235 70.0988 109.629 70.0773C110.022 70.0558 110.402 69.9249 110.725 69.6993C111.652 69.0986 112.422 68.2875 112.974 67.3326C113.525 66.3777 113.841 65.3061 113.897 64.2057C113.922 62.8753 113.121 62.0103 112.08 61.9749Z" fill="white"/>
<path id="Vector_34" d="M112.593 65.1363C112.563 65.7222 112.395 66.2927 112.101 66.801C111.807 67.3092 111.396 67.7408 110.903 68.0601C110.736 68.1863 110.536 68.2604 110.328 68.2731C110.119 68.2857 109.911 68.2364 109.731 68.1313C109.551 68.0262 109.406 67.8701 109.314 67.6827C109.223 67.4953 109.189 67.2851 109.218 67.0788C109.247 66.4933 109.414 65.9229 109.707 65.4146C110 64.9063 110.41 64.4746 110.903 64.155C111.069 64.0271 111.27 63.9515 111.479 63.938C111.689 63.9244 111.898 63.9734 112.079 64.0788C112.26 64.1841 112.406 64.341 112.498 64.5294C112.589 64.7178 112.622 64.9291 112.593 65.1363Z" fill="#E7E8E7"/>
<path id="Vector_35" fill-rule="evenodd" clip-rule="evenodd" d="M109.685 64.924L108.913 64.1652C108.773 64.3623 108.642 64.5666 108.523 64.7773L109.492 65.2225C109.553 65.1213 109.614 65.01 109.685 64.924Z" fill="#343433"/>
<path id="Vector_36" fill-rule="evenodd" clip-rule="evenodd" d="M110.837 63.8112L110.984 63.7353L110.781 62.3999L110.715 62.4353C110.525 62.5542 110.342 62.6843 110.167 62.8248L110.639 63.9427L110.837 63.8112Z" fill="#343433"/>
<path id="Vector_37" fill-rule="evenodd" clip-rule="evenodd" d="M109.254 65.6625L108.239 65.278C108.124 65.5154 108.025 65.7605 107.944 66.0115L109.076 66.0925C109.128 65.9461 109.187 65.8026 109.254 65.6625Z" fill="#343433"/>
<path id="Vector_38" fill-rule="evenodd" clip-rule="evenodd" d="M110.268 64.2714L109.812 63.1535C109.631 63.3283 109.462 63.5141 109.304 63.7099L109.989 64.58C110.075 64.4704 110.168 64.3673 110.268 64.2714Z" fill="#343433"/>
<path id="Vector_39" fill-rule="evenodd" clip-rule="evenodd" d="M112.461 63.9982L113.044 63.0269C113.004 62.9612 112.968 62.8904 112.928 62.8297C112.887 62.769 112.816 62.683 112.76 62.6121L112.303 63.8312C112.362 63.8805 112.415 63.9366 112.461 63.9982Z" fill="#343433"/>
<path id="Vector_40" fill-rule="evenodd" clip-rule="evenodd" d="M112.709 64.5495L113.318 63.8515C113.294 63.7089 113.259 63.5685 113.212 63.4316L112.603 64.2258C112.652 64.3288 112.688 64.4376 112.709 64.5495Z" fill="#343433"/>
<path id="Vector_41" fill-rule="evenodd" clip-rule="evenodd" d="M112.085 63.6898L112.471 62.3543C112.333 62.2584 112.178 62.1897 112.014 62.152L111.826 63.6038C111.915 63.6248 112.002 63.6536 112.085 63.6898Z" fill="#343433"/>
<path id="Vector_42" fill-rule="evenodd" clip-rule="evenodd" d="M111.562 63.5834L111.73 62.1164C111.541 62.1178 111.353 62.1538 111.177 62.2227L111.314 63.6239C111.395 63.6017 111.478 63.5881 111.562 63.5834Z" fill="#343433"/>
<path id="Vector_43" fill-rule="evenodd" clip-rule="evenodd" d="M108.99 66.5678H107.812C107.758 66.8083 107.715 67.0515 107.685 67.2962L108.939 66.9877C108.946 66.8467 108.963 66.7064 108.99 66.5678Z" fill="#343433"/>
<path id="Vector_44" fill-rule="evenodd" clip-rule="evenodd" d="M111.309 67.8729L111.273 68.5811C111.405 68.4597 111.532 68.3333 111.654 68.1967L111.552 67.6453C111.476 67.7263 111.395 67.8024 111.309 67.8729Z" fill="#343433"/>
<path id="Vector_45" fill-rule="evenodd" clip-rule="evenodd" d="M111.938 67.1901L112.111 67.6504C112.264 67.4393 112.404 67.2197 112.532 66.9928L112.121 66.9068L111.938 67.1901Z" fill="#343433"/>
<path id="Vector_46" fill-rule="evenodd" clip-rule="evenodd" d="M112.39 66.4061L112.785 66.5072C112.906 66.2563 113.009 65.9978 113.095 65.7333L112.588 65.9053C112.531 66.0759 112.465 66.2431 112.39 66.4061Z" fill="#343433"/>
<path id="Vector_47" fill-rule="evenodd" clip-rule="evenodd" d="M108.954 67.4229L107.66 67.7567C107.657 67.787 107.657 67.8175 107.66 67.8478C107.658 68.0193 107.684 68.1901 107.736 68.3536L109.04 67.7314C109 67.6322 108.971 67.5287 108.954 67.4229Z" fill="#343433"/>
<path id="Vector_48" fill-rule="evenodd" clip-rule="evenodd" d="M112.74 64.944C112.736 65.1136 112.719 65.2827 112.689 65.4498L113.237 65.2374C113.303 64.9576 113.348 64.6737 113.374 64.3876L112.74 64.944Z" fill="#343433"/>
<path id="Vector_49" fill-rule="evenodd" clip-rule="evenodd" d="M110.837 68.2221L110.659 68.3182L110.263 69.2895L110.36 69.2591L110.426 69.2237C110.558 69.1428 110.695 69.0467 110.822 68.9506L110.999 68.1159C110.948 68.1548 110.893 68.1903 110.837 68.2221Z" fill="#343433"/>
<path id="Vector_50" fill-rule="evenodd" clip-rule="evenodd" d="M109.152 67.959L107.904 68.7077C107.981 68.8189 108.073 68.9193 108.178 69.0061C108.221 69.0427 108.267 69.0765 108.315 69.1073L109.33 68.1513C109.265 68.0927 109.205 68.0283 109.152 67.959Z" fill="#343433"/>
<path id="Vector_51" fill-rule="evenodd" clip-rule="evenodd" d="M109.538 68.3181L108.614 69.259C108.755 69.3114 108.902 69.3504 109.05 69.3754L109.69 68.3889C109.637 68.3696 109.586 68.3459 109.538 68.3181Z" fill="#343433"/>
<path id="Vector_52" fill-rule="evenodd" clip-rule="evenodd" d="M109.949 68.4448L109.441 69.411C109.565 69.4184 109.688 69.4184 109.812 69.411L110.253 68.46C110.151 68.4691 110.049 68.464 109.949 68.4448Z" fill="#343433"/>
<path id="Vector_53" d="M132.4 42.3023C132.4 42.3023 132.029 33.2779 130.984 28.0828C129.938 22.8877 128.208 17.6673 127.188 16.1296C126.168 14.5918 120.748 10.4185 118.312 9.04763C115.876 7.67677 107.188 3.48326 106.29 3.39727C105.391 3.31127 103.488 4.25721 103.488 4.25721L51.5776 33.8597C51.5776 33.8597 43.0722 38.8069 39.6517 41.6953C36.2313 44.5837 30.588 52.3182 30.588 52.3182L20.2658 68.5054C20.2658 68.5054 16.1349 72.9013 14.8712 74.3733C13.6076 75.8454 10.6134 79.6797 10.0298 81.1467C9.44621 82.6136 9.27874 86.7616 9.27874 86.7616C9.27874 86.7616 8.46169 87.5761 8.46169 88.1274C8.14705 90.7567 8.85336 93.4063 10.4358 95.5331C13.024 99.0741 18.586 101.993 22.6662 104.396C26.7464 106.798 32.8717 108.503 34.7951 108.301C36.3734 108.134 38.9209 107.087 39.7735 106.717C40.6187 104.314 41.7681 102.027 43.194 99.9138C46.112 95.4522 49.6086 94.0054 52.1409 94.8553C54.1353 95.5331 54.0694 98.5126 53.9527 99.7468L103.458 70.4833H103.838C104.327 68.6113 105.007 66.7942 105.868 65.0606C107.995 60.7204 112.05 57.923 115.034 58.3732C117.312 58.7172 117.475 61.3122 117.429 62.5162C118.358 61.8839 125.163 57.2351 126.564 56.3195C128.086 55.3381 131.867 52.7785 132.146 51.6505C132.425 50.5224 132.242 46.2733 132.242 46.2733L132.4 42.3023Z" fill="white"/>
<path id="Vector_54" d="M52.141 94.8856C52.5026 95.0234 52.8278 95.2418 53.0917 95.5241C53.3556 95.8064 53.5512 96.1452 53.6635 96.5145L55.0134 95.5028L105.194 66.6034C105.397 66.0976 105.63 65.5917 105.884 65.0859C106.363 64.1096 106.95 63.19 107.635 62.3442L105.569 62.7539L53.5468 92.9027L51.73 94.7693C51.8693 94.7997 52.0065 94.8385 52.141 94.8856Z" fill="#404B4D"/>
<path id="Vector_55" d="M115.039 58.4036C115.435 58.4544 115.814 58.6012 116.14 58.8314C116.466 59.0616 116.731 59.368 116.911 59.7239L129.015 52.1361L128.878 54.7514C130.4 53.6537 131.979 52.3739 132.151 51.6556C132.39 50.6944 132.293 47.5329 132.258 46.5616L116.744 56.0211L114.8 58.348L115.039 58.4036Z" fill="#404B4D"/>
<g id="Vector_56" style="mix-blend-mode:multiply" opacity="0.2">
<path d="M38.7682 107.117C38.6923 107.152 38.6112 107.183 38.5251 107.213C38.6112 107.183 38.7125 107.152 38.7682 107.117Z" fill="black"/>
</g>
<path id="Vector_57" d="M40.7431 60.3765C36.1453 57.7916 32.5828 54.8121 30.6239 52.2828L20.3016 68.4701L20.1494 68.6269C20.1494 68.6269 18.4595 71.8745 29.2841 78.5517C40.1088 85.229 45.818 84.3791 45.818 84.3791L54.5569 66.9374C49.8396 64.9943 45.2286 62.8043 40.7431 60.3765Z" fill="#141C1E"/>
<path id="Vector_58" d="M40.5247 60.7303C36.3938 58.4034 32.8313 55.6061 30.644 52.9908L20.8901 68.2878L21.0424 68.7936C21.3063 69.2995 21.5905 71.0396 31.1921 76.9479C39.6316 82.1481 42.0269 82.5123 44.1736 82.9372L45.2393 82.9929C45.4575 82.9929 46.0918 82.8715 46.2086 82.8613L54.0441 67.1799C49.4277 65.2671 44.915 63.1143 40.5247 60.7303Z" fill="#303E42"/>
<path id="Vector_59" d="M49.4159 74.8841C48.9085 73.4273 47.1221 71.672 45.3561 70.9688C44.9538 70.7928 44.5214 70.6949 44.0823 70.6805C43.1688 70.6805 42.7425 71.2926 43.0927 72.3448C43.6002 73.8067 45.3865 75.562 47.1272 76.2651C47.5303 76.4389 47.9622 76.5366 48.401 76.5534C49.3398 76.5534 49.7661 75.9363 49.4159 74.8841ZM48.7664 75.734C48.6669 75.802 48.5463 75.8325 48.4264 75.82C48.0757 75.8078 47.7308 75.7271 47.4114 75.5822C45.8889 74.9651 44.2193 73.3767 43.7981 72.1171C43.6763 71.7428 43.7118 71.5506 43.7473 71.5C43.8468 71.4319 43.9674 71.4015 44.0874 71.414C44.438 71.4266 44.7828 71.5074 45.1023 71.6517C46.6248 72.2689 48.2893 73.8572 48.7105 75.1168C48.8628 75.4861 48.8019 75.6834 48.7664 75.734Z" fill="#3D4B4F"/>
<path id="Vector_60" d="M63.8436 62.5464C63.8436 62.5464 65.6655 61.1603 65.6097 63.29C65.5538 65.4196 65.3762 69.3956 65.1631 70.8777C65.07 71.7908 64.7862 72.6743 64.33 73.4715C63.8737 74.2686 63.2551 74.9617 62.514 75.5063C60.55 77.0744 47.4468 87.4191 47.4468 87.4191L52.1055 77.2515C52.1055 77.2515 55.8101 69.6333 56.8454 67.9539C57.8807 66.2745 63.8436 62.5464 63.8436 62.5464Z" fill="#141C1E"/>
<path id="Vector_61" d="M52.4456 82.9728L56.5054 79.7455V69.3553C55.0743 72.0312 52.476 77.3781 52.4456 77.4489V77.5045V82.9728Z" fill="#303E42"/>
<path id="Vector_62" d="M65.0668 62.5564C65.0668 62.5564 65.0211 62.5058 64.9247 62.5058C64.6196 62.5531 64.3315 62.6766 64.0873 62.8649C62.4482 63.8767 58.0229 66.8511 57.216 68.1612C57.1653 68.2472 57.1044 68.3433 57.0435 68.4546V79.3405L62.2858 75.1875C62.9865 74.6742 63.5713 74.0199 64.0022 73.267C64.4332 72.5141 64.7008 71.6794 64.7877 70.8169C64.9957 69.35 65.1784 65.4397 65.2343 63.2292C65.2241 62.7537 65.1023 62.5918 65.0668 62.5564Z" fill="#303E42"/>
<g id="Group" opacity="0.7">
<path id="Vector_63" d="M29.6797 62.774L36.0131 57.842C34.1422 56.5203 32.4263 54.9931 30.8977 53.2893L29.6797 62.774Z" fill="#C5D0D3"/>
<path id="Vector_64" d="M30.3648 53.4257L26.8885 58.8787C26.4166 61.6508 25.6858 65.8797 25.6858 65.8797L29.1671 63.1734L30.3648 53.4257Z" fill="#C5D0D3"/>
</g>
<path id="Vector_65" d="M31.1718 76.9277C39.6113 82.1279 42.0066 82.4921 44.1533 82.917L45.219 82.9726C45.4372 82.9726 46.0716 82.8512 46.1883 82.8411L48.132 78.8955C44.7443 76.1445 41.1185 73.6984 37.2972 71.5859C31.9432 68.7076 25.1175 65.5814 25.1175 65.5814C23.2804 65.8293 20.8953 68.308 20.8953 68.308L21.0475 68.8138C21.3063 69.2893 21.5905 71.0194 31.1718 76.9277Z" fill="#39464A"/>
<path id="Vector_66" d="M42.6309 72.5169C42.6309 72.5169 39.1495 76.5637 39.3271 77.3883C39.5047 78.2128 43.5849 80.5549 44.9551 80.5903C46.3254 80.6257 49.2586 77.196 49.2688 76.6295C49.2789 76.0629 46.8328 72.4208 42.6309 72.5169Z" fill="#3D4B4F"/>
<path id="Vector_67" opacity="0.2" d="M30.644 52.9908L20.8901 68.2878L21.0424 68.7936C21.1946 69.0971 21.357 69.8053 23.3514 71.51C28.0703 66.612 33.8732 62.8823 40.2964 60.619C36.2619 58.3022 32.7907 55.5605 30.644 52.9908Z" fill="white"/>
<g id="Vector_68" style="mix-blend-mode:multiply" opacity="0.2">
<path d="M71.1108 71.0801C70.4917 69.3653 69.0555 61.4284 69.0555 60.6798C69.0555 59.9311 69.4767 59.2482 70.5222 58.6564C71.5676 58.0645 124.722 27.071 124.722 27.071C124.722 27.071 125.995 26.3679 126.848 26.8231C126.016 26.1099 124.519 26.9294 124.519 26.9294C124.519 26.9294 71.3646 57.928 70.3192 58.5198C69.2738 59.1116 68.8525 59.7844 68.8525 60.5432C68.8525 61.302 70.2887 69.2287 70.9079 70.9435C71.0462 71.3664 71.3326 71.7256 71.7148 71.9552C71.4368 71.7242 71.2279 71.4215 71.1108 71.0801Z" fill="black"/>
</g>
<path id="Vector_69" d="M128.919 37.0465C128.919 37.0465 127.396 30.1214 126.96 27.587C126.916 27.2595 126.781 26.9509 126.569 26.6967C125.931 26.6175 125.285 26.7414 124.722 27.0508C124.722 27.0508 71.5677 58.0697 70.5223 58.6565C69.4769 59.2432 69.0557 59.9261 69.0557 60.6799C69.0557 61.4336 70.4918 69.3653 71.111 71.0802C71.2108 71.3919 71.3849 71.6748 71.6185 71.9047C72.0046 72.017 72.4148 72.017 72.8009 71.9047C72.8009 71.9047 127.016 39.7477 128.168 39.0952C129.32 38.4426 128.919 37.0465 128.919 37.0465Z" fill="#141C1E"/>
<path id="Vector_70" d="M88.6445 49.0302L90.8978 59.5418L110.593 47.9477L108.36 37.5271L88.6445 49.0302Z" fill="#303E42"/>
<path id="Vector_71" d="M70.9181 59.3595C69.9691 59.8654 69.8625 60.3712 69.8625 60.6697C69.8625 61.4183 71.0907 68.5559 71.6641 70.1494C71.7106 70.2825 71.7756 70.4084 71.857 70.5237H72.0194C72.1105 70.5314 72.2022 70.5314 72.2934 70.5237C73.486 69.8155 80.6872 65.5714 89.5479 60.3611L87.2744 49.8343C78.3629 55.0294 71.2987 59.142 70.9181 59.3595Z" fill="#303E42"/>
<path id="Vector_72" d="M128.147 36.7479V36.7176V36.6872C128.086 36.4039 126.625 30.2477 126.188 27.7235C126.172 27.634 126.148 27.5461 126.117 27.4605C125.776 27.4957 125.444 27.5935 125.138 27.7488L109.73 36.7327L111.963 47.1432C120.621 42.0492 127.361 38.0884 127.777 37.8557C127.953 37.7378 128.084 37.5652 128.151 37.3648C128.218 37.1643 128.217 36.9474 128.147 36.7479Z" fill="#303E42"/>
<path id="Vector_73" d="M40.5805 99.9136L36.4496 101.75C36.4496 101.75 34.9271 102.463 31.2174 101.623C29.2325 101.197 27.2818 100.626 25.3813 99.9136C25.2442 99.9398 25.1049 99.9534 24.9652 99.9541C24.8649 99.953 24.7648 99.9446 24.6658 99.9288C22.9606 99.6809 19.0834 97.6676 17.2565 96.4485C17.1195 96.3625 16.9774 96.2664 16.8302 96.1652C15.054 94.9917 12.4455 93.2616 11.801 91.1067C11.1007 90.181 9.67974 88.1829 9.2636 86.7362C9.2636 86.7362 8.44655 87.5506 8.44655 88.102C8.13192 90.7312 8.83822 93.3808 10.4207 95.5076C13.0088 99.0486 18.5709 101.967 22.6511 104.37C26.7312 106.773 32.8566 108.478 34.78 108.275C36.3582 108.108 38.9058 107.061 39.7584 106.692C40.6103 104.296 41.7648 102.019 43.1941 99.9136L43.3209 99.7214L40.5805 99.9136Z" fill="#404B4D"/>
<path id="Vector_74" d="M27.6802 95.8061C25.6502 94.7944 21.9456 92.8064 19.7634 91.5215C17.5812 90.2367 13.1204 87.1914 12.4759 86.7615C12.3933 86.7046 12.3027 86.6603 12.207 86.63C12.2056 86.6451 12.2056 86.6603 12.207 86.6755C12.1795 87.86 12.2542 89.0447 12.4303 90.2164C12.7297 92.6445 15.9827 94.6174 17.8299 95.8617C19.6771 97.1061 23.4934 99.0436 25.0768 99.2762C25.5227 99.3293 25.9732 99.2255 26.3506 98.9829C27.0364 98.3984 27.6136 97.698 28.0557 96.9139C28.1334 96.8246 28.1863 96.7166 28.2092 96.6007C28.2321 96.4847 28.2242 96.3648 28.1862 96.2528C28.1483 96.1408 28.0816 96.0407 27.9928 95.9623C27.9041 95.884 27.7963 95.8301 27.6802 95.8061Z" fill="#1B2628"/>
<path id="Vector_75" d="M26.4371 98.7554L26.7618 98.6492C26.843 98.5682 26.9192 98.4873 26.9953 98.4013L26.9141 98.4266L26.8278 98.027L27.1831 97.9106L27.2338 98.118L27.3607 97.9511V97.86L27.4723 97.8246C27.5281 97.7488 27.584 97.6729 27.6296 97.597L27.3251 97.6982L27.2389 97.3036L27.5941 97.1822L27.6753 97.5363L27.7971 97.3441L27.7514 97.1316L27.9747 97.0608L28.061 96.9141L28.0915 96.8483L27.7159 96.9697L27.6246 96.5752L28.2183 96.383C28.2155 96.3274 28.2035 96.2727 28.1828 96.2211L27.589 96.4133L27.5028 96.0137L27.8682 95.8923L27.7007 95.8063H27.6652L27.4672 95.867L27.4216 95.6849L27.2338 95.5888L27.3099 95.9226L26.9496 96.039L26.8633 95.6394L27.1475 95.5432L26.9395 95.4421L26.8278 95.4775V95.3713L26.635 95.2701L26.6959 95.5281L26.3356 95.6495L26.2493 95.2498L26.4573 95.179L26.2544 95.0728H26.2087V95.0323L26.0158 94.9312L26.0564 95.1234L25.7012 95.2397L25.6099 94.8452L25.757 94.7946L25.3916 94.6024L25.417 94.7339L25.011 94.8553L24.9197 94.4557H25.0009L24.7116 94.2988V94.3747L24.3564 94.4911L24.265 94.0914L24.0417 93.97L23.6814 94.0914L23.6002 93.7171L23.3668 93.5907L23.042 93.6969L22.9709 93.3782L22.6817 93.2163L22.4025 93.3074L22.3416 93.0292L21.9966 92.842L21.7631 92.9179L21.7073 92.6801L21.5144 92.5739L21.6058 92.9685L21.2455 93.0848L21.1592 92.6902L21.5144 92.5739L21.3216 92.4626L21.1237 92.5284L21.078 92.326L20.8852 92.2147L20.9664 92.5789L20.606 92.6953L20.5198 92.2957L20.8395 92.1894L20.6517 92.0832L20.4843 92.1389L20.4437 91.9669L20.2508 91.8556L20.3269 92.1894L19.9666 92.3058L19.8803 91.9062L20.1747 91.8101L19.9818 91.6988L19.8397 91.7443L19.8093 91.5976L19.7179 91.542L19.6165 91.4813L19.6824 91.7949L19.3272 91.9163L19.2358 91.5167L19.52 91.4256L19.3779 91.3143L19.246 91.3548L19.2155 91.2132L19.0176 91.0917L19.0887 91.4054L18.7334 91.5217L18.6421 91.1272L18.9212 91.0361L18.7436 90.9198L18.6066 90.9653L18.571 90.8186C18.5101 90.7731 18.4442 90.7326 18.3782 90.6921L18.4492 91.0159L18.094 91.1322L18.0026 90.7376L18.297 90.6415L18.1143 90.5252L17.9671 90.5758L17.9265 90.4088L17.7337 90.2773L17.8098 90.6264L17.4495 90.7427L17.3632 90.3431L17.6728 90.2419L17.4952 90.1256L17.3277 90.1812L17.282 89.989L17.0841 89.8625L17.1704 90.2369L16.8101 90.3532L16.7187 89.9536L17.0587 89.8423L16.8811 89.731L16.6832 89.7917L16.6375 89.5691L16.2721 89.3263L16.0438 89.4022L15.9879 89.1392L15.6631 88.9267L15.4043 89.0127L15.3384 88.7092L15.0592 88.5271L14.7649 88.6232L14.6888 88.2792L14.4553 88.1224L14.1255 88.2286L14.0392 87.8442L13.8413 87.7127L13.486 87.829L13.4048 87.4597H13.4607C13.3642 87.399 13.2729 87.3383 13.1917 87.2776V87.3737L12.8314 87.4901L12.7502 87.1208L12.872 87.0803L12.5218 86.8476L12.5573 87.0095L12.197 87.1259V87.0196C12.197 87.2119 12.197 87.4901 12.197 87.8695L12.2782 88.2387H12.2122C12.2122 88.2944 12.2122 88.35 12.2122 88.4107L12.3036 88.3804L12.3899 88.7699L12.2427 88.8205V88.9874L12.4152 88.9318L12.5015 89.3314L12.2782 89.4022C12.2782 89.4578 12.2782 89.5135 12.2782 89.5691L12.5167 89.4933L12.6081 89.8878L12.3239 89.9839C12.3239 90.0396 12.3239 90.0902 12.3239 90.1509L12.6233 90.0497L12.7096 90.4493L12.3899 90.5555C12.3899 90.6061 12.4152 90.6618 12.4305 90.7124L12.7451 90.6112L12.8365 91.0058L12.5573 91.0968C12.5573 91.1474 12.603 91.198 12.6233 91.2486L12.872 91.1676L12.9633 91.5672L12.8111 91.6178L12.8974 91.7595L12.9988 91.7291L13.0597 92.0124C13.1359 92.1186 13.2171 92.2249 13.3033 92.3361L13.278 92.235L13.6383 92.1186L13.7246 92.5182L13.5114 92.5891L13.6332 92.7206L13.7652 92.6801L13.8159 92.9179C13.9022 93.0039 13.9834 93.0899 14.0747 93.1759L14.4046 93.0696L14.4909 93.4692H14.4147L14.7243 93.7373L14.6837 93.5552L15.044 93.4389L15.1303 93.8385L14.9273 93.9043L15.0795 94.0257H15.1658L15.1963 94.142L15.3993 94.2988L15.3282 93.97L15.6834 93.8537L15.7748 94.2533L15.4703 94.3494L15.6327 94.4708L15.8103 94.4152L15.856 94.6327L16.2112 94.8806L16.4497 94.8047L16.5106 95.093L16.805 95.2903L17.0892 95.1942L17.1653 95.5281L17.4089 95.6899L17.7286 95.5837L17.8149 95.958C17.8809 96.0036 17.9468 96.0491 18.0179 96.0896L18.368 95.9783L18.4594 96.3678L18.6522 96.4841L19.0075 96.3678L19.0937 96.7421L19.312 96.8686L19.652 96.7573L19.7281 97.0962L19.9971 97.2429L20.2914 97.1468L20.3574 97.4351C20.469 97.4958 20.5807 97.5565 20.6974 97.6122L20.9308 97.5414L20.9816 97.7589L21.1694 97.8499L21.0882 97.4857L21.4485 97.3694L21.5347 97.769L21.215 97.8752L21.4231 97.9764L21.5703 97.9309L21.6007 98.0624L21.7885 98.1534L21.8139 97.8904L22.1742 97.769L22.2605 98.1686L22.0422 98.2394L22.2655 98.3406H22.296V98.371L22.4837 98.4569L22.4431 98.29L22.8035 98.1737L22.8897 98.5682L22.8085 98.5986L23.0927 98.72V98.6795L23.448 98.5632L23.519 98.8869L23.8844 99.0184L24.0874 98.9527L24.1229 99.1044L24.3056 99.1601L24.2447 98.9021L24.605 98.7858L24.6913 99.1803L24.5441 99.2309L24.8892 99.3169L25.2495 99.2005L25.2901 99.3877H25.4576L25.4069 99.155L25.7621 99.0387L25.8281 99.3118L25.9803 99.2613L25.9194 98.983L26.2797 98.8667L26.3305 99.0943L26.4573 98.9881L26.4371 98.7554ZM26.7923 97.8702L26.7009 97.4705L27.0613 97.3542L27.1475 97.7488L26.7923 97.8702ZM27.452 96.6258L27.5383 97.0203L27.178 97.1417L27.0917 96.7421L27.452 96.6258ZM27.3251 96.0643L27.4114 96.4639L27.0562 96.5802L26.9648 96.1806L27.3251 96.0643ZM26.9344 96.7927L27.0257 97.1923L26.6654 97.3087L26.5741 96.909L26.9344 96.7927ZM26.8075 96.2363L26.8989 96.6308L26.5385 96.7472L26.4523 96.3526L26.8075 96.2363ZM26.5335 97.3845L26.1732 97.5009L26.0869 97.1063L26.4421 96.9849L26.5335 97.3845ZM26.7111 95.7001L26.7974 96.0997L26.4421 96.216L26.3508 95.8164L26.7111 95.7001ZM26.3203 96.4285L26.4066 96.8281L26.0514 96.9445L25.96 96.5448L26.3203 96.4285ZM13.7398 89.7108L13.826 90.1053L13.4708 90.2267L13.3795 89.8271L13.7398 89.7108ZM13.3439 89.6652L13.2577 89.2656L13.6129 89.1493L13.7043 89.5489L13.3439 89.6652ZM13.8514 90.2672L13.9428 90.6668L13.5825 90.7832L13.4962 90.3836L13.8514 90.2672ZM13.8869 89.6602L14.2422 89.5388L14.3335 89.9384L13.9732 90.0547L13.8869 89.6602ZM14.3691 90.1003L14.4604 90.4999L14.1001 90.6162L14.0138 90.2166L14.3691 90.1003ZM14.4959 90.6567L14.5822 91.0563L14.227 91.1727L14.1356 90.7781L14.4959 90.6567ZM14.5264 90.0497L14.8867 89.9333L14.973 90.3279L14.6126 90.4443L14.5264 90.0497ZM14.6177 91.2182L14.7091 91.6178L14.3488 91.7342L14.2625 91.3346L14.6177 91.2182ZM14.6532 90.6061L15.0085 90.4898L15.0998 90.8894L14.7395 91.0058L14.6532 90.6061ZM15.1607 91.0513L15.247 91.4458L14.8918 91.5622L14.8004 91.1676L15.1607 91.0513ZM15.1912 90.4392L15.5515 90.3228L15.6378 90.7225L15.2825 90.8388L15.1912 90.4392ZM15.2825 91.6077L15.3739 92.0073L15.0136 92.1237L14.9273 91.7241L15.2825 91.6077ZM15.3181 91.0007L15.6733 90.8793L15.7646 91.2789L15.4043 91.3953L15.3181 91.0007ZM15.8255 91.4408L15.8763 91.8202L15.521 91.9365L15.4297 91.5369L15.8255 91.4408ZM15.856 90.8287L16.2163 90.7124L16.3026 91.112L15.9473 91.2283L15.856 90.8287ZM15.9524 91.9972L16.0387 92.3968L15.6834 92.5132L15.5921 92.1186L15.9524 91.9972ZM15.9829 91.3902L16.3432 91.2688L16.4294 91.6684L16.0742 91.7848L15.9829 91.3902ZM16.465 91.8303L16.5563 92.2299L16.196 92.3463L16.1097 91.9466L16.465 91.8303ZM16.5918 92.3918L16.6781 92.7864L16.3229 92.9027L16.2315 92.5081L16.5918 92.3918ZM16.6223 91.7797L16.9826 91.6634L17.0689 92.0579L16.7136 92.1793L16.6223 91.7797ZM16.7136 92.9482L16.805 93.3478L16.4497 93.4642L16.3584 93.0646L16.7136 92.9482ZM16.7492 92.3361L17.1044 92.2198L17.1957 92.6194L16.8354 92.7358L16.7492 92.3361ZM17.2566 92.7813L17.3429 93.1759L16.9877 93.2973L16.8963 92.8976L17.2566 92.7813ZM17.2871 92.1692L17.6474 92.0529L17.7337 92.4525L17.3784 92.5688L17.2871 92.1692ZM17.3835 93.3377L17.4698 93.7373L17.1146 93.8537L17.0232 93.4541L17.3835 93.3377ZM17.414 92.7307L17.7692 92.6093L17.8606 93.0089L17.5053 93.1253L17.414 92.7307ZM17.9215 93.1708L18.0128 93.5704L17.6525 93.6868L17.5662 93.2871L17.9215 93.1708ZM17.957 92.5587L18.3122 92.4424L18.4036 92.842L18.0432 92.9583L17.957 92.5587ZM18.0483 93.7272L18.1346 94.1269L17.7794 94.2432L17.688 93.8486L18.0483 93.7272ZM18.0788 93.1202L18.4391 93.0039L18.5254 93.3984L18.1701 93.5148L18.0788 93.1202ZM18.5863 93.5603L18.6776 93.9599L18.3173 94.0763L18.231 93.6766L18.5863 93.5603ZM18.6218 92.9533L18.977 92.8319L19.0684 93.2315L18.7081 93.3478L18.6218 92.9533ZM18.7131 94.1218L18.7994 94.5164L18.4442 94.6378L18.3528 94.2381L18.7131 94.1218ZM18.7436 93.5097L19.1039 93.3934L19.1902 93.793L18.8349 93.9093L18.7436 93.5097ZM19.2257 93.9498L19.317 94.3494L18.9567 94.4658L18.8705 94.0712L19.2257 93.9498ZM19.2612 93.3428L19.6165 93.2264L19.7078 93.621L19.3475 93.7373L19.2612 93.3428ZM19.3526 94.5113L19.4388 94.9109L19.0836 95.0273L18.9922 94.6277L19.3526 94.5113ZM19.383 93.8992L19.7433 93.7829L19.8296 94.1825L19.4744 94.2988L19.383 93.8992ZM19.8905 94.3444L19.9768 94.7389L19.6215 94.8553L19.5302 94.4607L19.8905 94.3444ZM19.9209 93.7323L20.2813 93.6159L20.3675 94.0156L20.0072 94.1319L19.9209 93.7323ZM20.0123 94.9008L20.1036 95.3004L19.7433 95.4168L19.6571 95.0172L20.0123 94.9008ZM20.0427 94.2887L20.4031 94.1724L20.4944 94.572L20.1341 94.6884L20.0427 94.2887ZM20.5502 94.7339L20.6365 95.1335L20.2813 95.2498L20.1899 94.8502L20.5502 94.7339ZM20.5807 94.1218L20.941 94.0055L21.0273 94.4051L20.672 94.5214L20.5807 94.1218ZM20.672 95.2903L20.7634 95.6899L20.4031 95.8063L20.3168 95.4117L20.672 95.2903ZM20.7075 94.6833L21.0628 94.5669L21.1541 94.9615L20.7938 95.0779L20.7075 94.6833ZM21.1897 95.1234L21.2759 95.523L20.9207 95.6394L20.8344 95.2397L21.1897 95.1234ZM21.2201 94.5113L21.5804 94.395L21.6667 94.7946L21.3115 94.9109L21.2201 94.5113ZM21.3165 95.6849L21.4028 96.0794L21.0425 96.1958L20.9562 95.8012L21.3165 95.6849ZM21.347 95.0728L21.7022 94.9565L21.7936 95.351L21.4383 95.4724L21.347 95.0728ZM21.7377 94.3444L22.093 94.228L22.1843 94.6277L21.824 94.744L21.7377 94.3444ZM21.8291 95.5129L21.9204 95.9125L21.5601 96.0289L21.4738 95.6343L21.8291 95.5129ZM21.8595 94.9059L22.2199 94.7895L22.3061 95.1841L21.9509 95.3004L21.8595 94.9059ZM22.367 95.346L22.4533 95.7456L22.0981 95.8619L22.0067 95.4623L22.367 95.346ZM22.3975 94.7339L22.7578 94.6175L22.8441 95.0172L22.4837 95.1335L22.3975 94.7339ZM22.4888 95.9075L22.5802 96.302L22.2199 96.4184L22.1336 96.0238L22.4888 95.9075ZM22.5243 95.2954L22.8796 95.179L22.9709 95.5736L22.6106 95.695L22.5243 95.2954ZM23.0318 95.7355L23.1181 96.1351L22.7629 96.2514L22.4736 95.867L23.0318 95.7355ZM23.0623 95.1284L23.4226 95.007L23.5089 95.4067L23.1536 95.523L23.0623 95.1284ZM23.1587 96.297L23.245 96.6915L22.8847 96.8129L22.7984 96.4133L23.1587 96.297ZM23.1891 95.6849L23.5444 95.5685L23.6357 95.9682L23.2754 96.0845L23.1891 95.6849ZM23.6966 96.125L23.7829 96.5246L23.4277 96.6409L23.3363 96.2464L23.6966 96.125ZM23.7271 95.5179L24.0874 95.4016L24.1737 95.7962L23.8184 95.9125L23.7271 95.5179ZM23.8184 96.6865L23.9098 97.0861L23.5545 97.2024L23.4632 96.8028L23.8184 96.6865ZM23.854 96.0744L24.2143 95.958L24.3005 96.3577L23.9402 96.474L23.854 96.0744ZM24.3361 96.5195L24.4274 96.9141L24.0671 97.0304L23.9808 96.6359L24.3361 96.5195ZM24.3665 95.9075L24.7268 95.7911L24.8182 96.1857L24.4579 96.3071L24.3665 95.9075ZM24.4629 97.076L24.5492 97.4756L24.194 97.5919L24.1026 97.1923L24.4629 97.076ZM24.4934 96.4639L24.8537 96.3475L24.94 96.7472L24.5847 96.8635L24.4934 96.4639ZM24.9755 96.909L25.0668 97.3087L24.7065 97.425L24.6203 97.0254L24.9755 96.909ZM25.011 96.297L25.3663 96.1806L25.4576 96.5802L25.0973 96.6966L25.011 96.297ZM25.5185 96.7421L25.6048 97.1367L25.2495 97.253L25.1582 96.8585L25.5185 96.7421ZM25.6403 97.2985L25.7316 97.6982L25.3713 97.8145L25.2851 97.4149L25.6403 97.2985ZM25.6758 96.6865L26.0311 96.5701L26.1224 96.9697L25.7621 97.0861L25.6758 96.6865ZM26.1579 97.1316L26.2493 97.5312L25.889 97.6425L25.8027 97.248L26.1579 97.1316ZM26.4218 95.8468L26.5132 96.2413L26.1529 96.3577L26.0666 95.9631L26.4218 95.8468ZM26.026 95.2853L26.1173 95.6849L25.7621 95.8012L25.6707 95.4016L26.026 95.2853ZM25.6403 96.0137L25.7266 96.4083L25.3713 96.5297L25.28 96.13L25.6403 96.0137ZM25.5997 95.8518L25.2445 95.9682L25.1582 95.5685L25.5134 95.4522L25.5997 95.8518ZM25.3866 94.8958L25.4779 95.2903L25.1176 95.4117L25.0313 95.0121L25.3866 94.8958ZM25.011 95.6191L25.1024 96.0187L24.7471 96.1351L24.6558 95.7405L25.011 95.6191ZM24.9755 95.4623L24.6203 95.5786L24.5289 95.179L24.8892 95.0627L24.9755 95.4623ZM24.7624 94.5012L24.8537 94.9008L24.4934 95.0172L24.4071 94.6226L24.7624 94.5012ZM24.3716 95.2296L24.4629 95.6292L24.1026 95.7456L23.996 95.3611L24.3716 95.2296ZM24.3361 95.0677L23.9808 95.1891L23.8895 94.7895L24.2498 94.6732L24.3361 95.0677ZM24.1229 94.1117L24.2143 94.5113L23.854 94.6277L23.7626 94.2331L24.1229 94.1117ZM23.7322 94.8553L23.8235 95.2549L23.4886 95.3611L23.3972 94.9615L23.7322 94.8553ZM23.6966 94.6934L23.3414 94.8098L23.25 94.4152L23.6053 94.2988L23.6966 94.6934ZM23.4886 93.7222L23.5748 94.1218L23.2196 94.2381L23.1282 93.8385L23.4886 93.7222ZM23.0978 94.4506L23.1891 94.8452L22.8288 94.9666L22.7375 94.5669L23.0978 94.4506ZM23.0623 94.2887L22.702 94.4051L22.6157 94.0105L22.9709 93.8891L23.0623 94.2887ZM22.8441 93.3377L22.9303 93.7323L22.5751 93.8537L22.4837 93.4541L22.8441 93.3377ZM22.4736 94.0611L22.5599 94.4557L22.2046 94.572L22.1133 94.1774L22.4736 94.0611ZM22.4381 93.8992L22.0778 94.0156L21.9915 93.6159L22.3467 93.4996L22.4381 93.8992ZM22.2249 92.9432L22.3112 93.3377L21.9509 93.4541L21.8646 93.0595L22.2249 92.9432ZM21.8291 93.6716L21.9204 94.0662L21.5652 94.1825L21.4738 93.7879L21.8291 93.6716ZM21.7073 93.1101L21.7986 93.5097L21.4383 93.6261L21.3521 93.2264L21.7073 93.1101ZM21.2962 93.8436L21.3876 94.2381L21.0273 94.3595L20.941 93.9599L21.2962 93.8436ZM21.1694 93.2821L21.2607 93.6817L20.9055 93.7981L20.8141 93.3984L21.1694 93.2821ZM21.0476 92.7256L21.1338 93.1202L20.7786 93.2416L20.6872 92.842L21.0476 92.7256ZM20.6568 93.4541L20.7481 93.8486L20.3878 93.965L20.2965 93.5704L20.6568 93.4541ZM20.5299 92.8926L20.6213 93.2922L20.261 93.4085L20.1747 93.0089L20.5299 92.8926ZM20.4081 92.3361L20.4944 92.7307L20.1392 92.8471L20.0478 92.4525L20.4081 92.3361ZM20.0174 93.0595L20.1036 93.4591L19.7484 93.5755L19.6571 93.1759L20.0174 93.0595ZM19.8905 92.5031L19.9818 92.8976L19.6215 93.019L19.5353 92.6194L19.8905 92.5031ZM19.7636 91.9416L19.855 92.3412L19.4947 92.4575L19.4084 92.0579L19.7636 91.9416ZM19.3779 92.67L19.4642 93.0696L19.109 93.186L19.0176 92.7864L19.3779 92.67ZM19.2511 92.1136L19.3424 92.5081L18.9821 92.6245L18.9212 92.2249L19.2511 92.1136ZM19.1242 91.5521L19.2155 91.9517L18.8552 92.068L18.769 91.6684L19.1242 91.5521ZM18.7334 92.2805L18.8248 92.6801L18.4645 92.7965L18.3782 92.3968L18.7334 92.2805ZM18.6116 91.719L18.6979 92.1186L18.3427 92.235L18.2513 91.8404L18.6116 91.719ZM18.4848 91.1626L18.5761 91.5571L18.2158 91.6785L18.1295 91.2789L18.4848 91.1626ZM18.094 91.891L18.1853 92.2856L17.825 92.407L17.7388 92.0073L18.094 91.891ZM17.9722 91.3143L18.0585 91.7139L17.7032 91.8303L17.6119 91.4307L17.9722 91.3143ZM17.8453 90.7579L17.9367 91.1524L17.5764 91.2688L17.4901 90.8742L17.8453 90.7579ZM17.4546 91.4813L17.5459 91.8809L17.1856 91.9972L17.0993 91.6027L17.4546 91.4813ZM17.3277 90.9248L17.3987 91.3143L17.0435 91.4307L16.9522 91.031L17.3277 90.9248ZM17.2059 90.3684L17.2922 90.7629L16.9369 90.8793L16.8456 90.4847L17.2059 90.3684ZM16.8151 91.0917L16.9065 91.4914L16.5462 91.6077L16.4548 91.2081L16.8151 91.0917ZM16.6883 90.5353L16.7796 90.9299L16.4193 91.0513L16.333 90.6517L16.6883 90.5353ZM16.6527 90.3734L16.2975 90.4898L16.2062 90.0902L16.5665 89.9738L16.6527 90.3734ZM16.4396 89.4174L16.5259 89.817L16.1706 89.9333L16.0844 89.5337L16.4396 89.4174ZM16.0488 90.1458L16.1402 90.5404L15.7799 90.6567L15.6936 90.2621L16.0488 90.1458ZM16.0133 89.9839L15.653 90.1003L15.5667 89.7007L15.927 89.5843L16.0133 89.9839ZM15.8002 89.0228L15.8915 89.4224L15.5312 89.5388L15.4399 89.1442L15.8002 89.0228ZM15.4094 89.7512L15.5007 90.1509L15.1404 90.2672L15.0542 89.8676L15.4094 89.7512ZM15.3739 89.5944L15.0136 89.7108L14.9273 89.3111L15.2825 89.1948L15.3739 89.5944ZM15.1607 88.6333L15.247 89.0329L14.8918 89.1493L14.8004 88.7496L15.1607 88.6333ZM14.77 89.3617L14.8613 89.7968L14.5061 89.9131L14.4147 89.5135L14.77 89.3617ZM14.7344 89.1999L14.3741 89.3162L14.2879 88.9216L14.6431 88.8053L14.7344 89.1999ZM14.5213 88.2792L14.6076 88.6788L14.2523 88.7952L14.161 88.3956L14.5213 88.2792ZM14.1305 89.0076L14.2168 89.4073L13.8616 89.5236L13.7702 89.124L14.1305 89.0076ZM14.095 88.8458L13.7347 88.9621L13.6434 88.5675L14.0037 88.4461L14.095 88.8458ZM13.8819 87.8948L13.9681 88.2843L13.6078 88.4057L13.5216 88.0111L13.8819 87.8948ZM13.486 88.6181L13.5774 89.0127L13.2221 89.129L13.1308 88.7345L13.486 88.6181ZM13.4505 88.4563L13.0953 88.5726L13.009 88.178L13.3642 88.0617L13.4505 88.4563ZM13.2475 87.5306L13.3287 87.8998L12.9684 88.0212L12.8872 87.652L13.2475 87.5306ZM12.2325 87.2877L12.5929 87.1714L12.6741 87.5407L12.3137 87.657L12.2325 87.2877ZM12.4355 88.1882L12.3746 87.7734L12.7299 87.657L12.8111 88.0263L12.4355 88.1882ZM12.5573 88.7395L12.4711 88.35L12.8314 88.2286L12.9176 88.6232L12.5573 88.7395ZM12.6842 89.301L12.5979 88.9014L12.9532 88.7851L13.0445 89.1847L12.6842 89.301ZM12.8111 89.8575L12.7197 89.4629L13.08 89.3415L13.1663 89.7411L12.8111 89.8575ZM12.9329 90.419L12.8466 90.0193L13.2018 89.903L13.3389 90.3026L12.9329 90.419ZM13.0597 90.9754L12.9684 90.5808L13.3287 90.4645L13.415 90.8591L13.0597 90.9754ZM13.0953 91.1373L13.4556 91.0209L13.5419 91.4206L13.1866 91.5369L13.0953 91.1373ZM13.3084 92.0933L13.2221 91.6988L13.5774 91.5774L13.6687 91.977L13.3084 92.0933ZM13.6992 91.37L13.6129 90.9703L13.9681 90.854L14.0595 91.2486L13.6992 91.37ZM13.826 91.9264L13.7347 91.5268L14.095 91.4104L14.1813 91.8101L13.826 91.9264ZM13.8616 92.0883L14.2168 91.9719L14.3538 92.326L13.9935 92.4474L13.8616 92.0883ZM14.0747 93.0443L13.9884 92.6447L14.3437 92.5284L14.435 92.928L14.0747 93.0443ZM14.4655 92.3159L14.3741 91.9213L14.7344 91.7999L14.8258 92.1996L14.4655 92.3159ZM14.501 92.4778L14.8613 92.326L14.9476 92.7256L14.5924 92.842L14.501 92.4778ZM14.7141 93.4338L14.6279 93.0393L14.9831 92.9179L15.0745 93.3175L14.7141 93.4338ZM15.1049 92.7105L15.0186 92.3108L15.3739 92.1945L15.4652 92.5891L15.1049 92.7105ZM15.2318 93.2669L15.1404 92.8673L15.5007 92.7509L15.587 93.1506L15.2318 93.2669ZM15.3536 93.8233L15.2673 93.4288L15.6225 93.3124L15.7139 93.707L15.3536 93.8233ZM15.7443 93.1L15.6581 92.7004L16.0133 92.584L16.1047 92.9836L15.7443 93.1ZM15.8712 93.6564L15.7799 93.2619L16.1402 93.1404L16.2265 93.5401L15.8712 93.6564ZM15.9067 93.8183L16.2671 93.7019L16.3533 94.0965L15.993 94.2179L15.9067 93.8183ZM16.1199 94.7743L16.0336 94.3798L16.3888 94.2584L16.4802 94.658L16.1199 94.7743ZM16.5106 94.0459L16.4244 93.6514L16.7796 93.535L16.871 93.9296L16.5106 94.0459ZM16.5462 94.2078L16.9065 94.0914L16.9928 94.4911L16.6375 94.6074L16.5462 94.2078ZM16.7593 95.1639L16.673 94.7693L17.0283 94.6529L17.1196 95.0475L16.7593 95.1639ZM17.1501 94.4405L17.0638 94.0409L17.419 93.9245L17.5104 94.3191L17.1501 94.4405ZM17.1856 94.5973L17.5459 94.4809L17.6373 94.8806L17.2769 94.9969L17.1856 94.5973ZM17.3987 95.5584L17.3125 95.1588L17.6677 95.0424L17.7591 95.4421L17.3987 95.5584ZM17.7895 94.83L17.7032 94.4304L18.0635 94.314L18.1498 94.7136L17.7895 94.83ZM17.825 94.9919L18.1853 94.8705L18.2767 95.2701L17.9164 95.3864L17.825 94.9919ZM18.0432 95.9479L17.9519 95.5483L18.3122 95.432L18.3985 95.8316L18.0432 95.9479ZM18.434 95.2195L18.3427 94.8199L18.703 94.7035L18.7893 95.1032L18.434 95.2195ZM18.4695 95.3814L18.8248 95.265L18.9161 95.6596L18.5558 95.781L18.4695 95.3814ZM18.6827 96.3374L18.5913 95.9378L18.9516 95.8215L19.0379 96.2211L18.6827 96.3374ZM19.0734 95.609L18.9821 95.2144L19.3424 95.093L19.4287 95.4927L19.0734 95.609ZM19.109 95.7709L19.4642 95.6545L19.5556 96.0541L19.1952 96.1705L19.109 95.7709ZM19.3221 96.7269L19.2358 96.3324L19.5911 96.211L19.6824 96.6106L19.3221 96.7269ZM19.7129 95.9985L19.6215 95.6039L19.9818 95.4876L20.0732 95.8822L19.7129 95.9985ZM19.7484 96.1604L20.1087 96.044L20.195 96.4437L19.8397 96.56L19.7484 96.1604ZM19.9615 97.1164L19.8753 96.7219L20.2305 96.6055L20.3219 97.0052L19.9615 97.1164ZM20.3523 96.3931L20.266 95.9934L20.6213 95.8771L20.7126 96.2767L20.3523 96.3931ZM20.3878 96.5549L20.7481 96.4335L20.8344 96.8332L20.4792 96.9495L20.3878 96.5549ZM20.601 97.511L20.5147 97.1114L20.8699 96.995L20.9613 97.3947L20.601 97.511ZM20.9917 96.7826L20.9511 96.3728L21.3064 96.2565L21.3977 96.6561L20.9917 96.7826ZM21.1186 97.339L21.0273 96.9445L21.3876 96.8281L21.4789 97.2227L21.1186 97.339ZM21.5094 96.6156L21.418 96.216L21.7783 96.0997L21.8646 96.4942L21.5094 96.6156ZM21.6312 97.1721L21.5449 96.7725L21.9052 96.6561L21.9915 97.0557L21.6312 97.1721ZM21.758 97.7336L21.6667 97.334L22.027 97.2176L22.1184 97.6122L21.758 97.7336ZM22.1488 97.0052L22.0575 96.6055L22.4178 96.4892L22.504 96.8888L22.1488 97.0052ZM22.2757 97.5616L22.1843 97.167L22.5446 97.0456L22.6309 97.4452L22.2757 97.5616ZM22.3975 98.1231L22.3112 97.7235L22.6664 97.6071L22.7578 98.0067L22.3975 98.1231ZM22.7882 97.3947L22.6969 96.995L23.0572 96.8787L23.1485 97.2783L22.7882 97.3947ZM22.8238 97.5565L23.1841 97.4402L23.2703 97.8347L22.9151 97.9562L22.8238 97.5565ZM23.0369 98.5126L22.9506 98.113L23.3059 97.9966L23.3972 98.3962L23.0369 98.5126ZM23.4277 97.7842L23.3414 97.3896L23.6966 97.2733L23.788 97.6678L23.4277 97.7842ZM23.4632 97.946L23.8235 97.8297L23.9098 98.2293L23.5545 98.3457L23.4632 97.946ZM23.6814 98.9021L23.5901 98.5075L23.9504 98.3912L24.0366 98.7858L23.6814 98.9021ZM24.0722 98.1737L23.9808 97.7791L24.3361 97.6628L24.4274 98.0573L24.0722 98.1737ZM24.194 98.7352L24.1077 98.3355L24.4629 98.2192L24.5543 98.6188L24.194 98.7352ZM24.5847 98.0067L24.5035 97.5869L24.8638 97.4655L24.9501 97.8651L24.5847 98.0067ZM24.6203 98.1686L24.9806 98.0523L25.0668 98.4519L24.7116 98.5682L24.6203 98.1686ZM24.8334 99.1247L24.7471 98.7301L25.1024 98.6087L25.1937 99.0083L24.8334 99.1247ZM25.2242 98.3962L25.1379 98.0017L25.4931 97.8853L25.5845 98.2799L25.2242 98.3962ZM25.351 98.9577L25.2597 98.5581L25.62 98.4418L25.7063 98.8414L25.351 98.9577ZM25.7418 98.2293L25.6504 97.8297L26.0108 97.7133L26.097 98.113L25.7418 98.2293ZM25.8636 98.7908L25.7773 98.3912L26.1326 98.2748L26.2239 98.6694L25.8636 98.7908ZM26.2544 98.0624L26.1681 97.6628L26.5233 97.5464L26.6147 97.946L26.2544 98.0624ZM26.2899 98.2243L26.6502 98.1079L26.7365 98.5025L26.3812 98.6188L26.2899 98.2243Z" fill="#354042"/>
<path id="Vector_76" d="M52.075 79.786C52.075 79.786 50.7707 80.2918 50.7504 81.0456C50.7301 81.7993 50.6743 83.8581 50.6743 83.8581C50.6743 83.8581 50.6743 84.5461 51.1818 84.4196C51.5579 84.323 51.9261 84.1979 52.283 84.0453C53.0095 84.4591 53.7764 84.7981 54.5718 85.057C55.3026 85.1986 56.4241 85.2947 56.6728 84.8698C56.9215 84.4449 56.7388 82.0522 56.617 81.1771C56.4952 80.302 56.3785 79.4977 55.5005 79.0525C55.05 78.8124 54.5837 78.6028 54.1049 78.4252C53.8992 78.3646 53.6822 78.3523 53.4709 78.3891C53.2596 78.426 53.0598 78.5111 52.887 78.6377C52.7227 78.8133 52.5982 79.0222 52.5221 79.25C52.4459 79.4778 52.4198 79.7192 52.4454 79.958L52.075 79.786Z" fill="#5A6567"/>
<g id="Vector_77" style="mix-blend-mode:multiply" opacity="0.3">
<path d="M50.7709 80.9037C50.7635 80.9507 50.7635 80.9984 50.7709 81.0454C50.7709 81.789 50.6948 83.8579 50.6948 83.8579C50.6948 83.8579 50.6948 84.5459 51.2023 84.4194C51.5784 84.3228 51.9466 84.1977 52.3036 84.0451L52.4659 81.7637L50.7709 80.9037Z" fill="#5A6567"/>
</g>
<g id="Vector_78" style="mix-blend-mode:multiply" opacity="0.3">
<path d="M56.7746 82.8365C56.7391 82.1839 56.6731 81.5415 56.6223 81.1671C56.5806 80.7513 56.4886 80.3419 56.3483 79.948C55.8453 80.1516 55.312 80.2712 54.77 80.3021C54.833 80.3634 54.8891 80.4312 54.9375 80.5045C55.5363 81.4049 55.5008 82.022 55.5515 83.2917C56.0014 83.2944 56.4366 83.1324 56.7746 82.8365Z" fill="#5A6567"/>
</g>
<g id="Vector_79" style="mix-blend-mode:multiply" opacity="0.3">
<path d="M56.7744 82.8362C56.7744 82.8362 56.5765 83.5494 56.1198 83.6202C55.9294 83.6401 55.7371 83.6176 55.5565 83.5545C55.579 84.0914 55.5416 84.6293 55.4448 85.158C55.9929 85.1884 56.5207 85.1327 56.678 84.8596C56.8276 84.1958 56.8602 83.5111 56.7744 82.8362Z" fill="#5A6567"/>
</g>
<g id="Vector_80" style="mix-blend-mode:multiply" opacity="0.5">
<path d="M55.0084 83.3166C55.2064 83.3166 55.3891 83.3166 55.5515 83.2913C55.5007 81.9963 55.5515 81.4045 54.9374 80.5041C54.4908 79.8212 53.1917 79.3962 52.5268 79.2141C52.4592 79.4524 52.4334 79.7006 52.4507 79.9476V81.7636L50.7709 80.9037C50.7635 80.9506 50.7635 80.9984 50.7709 81.0453C50.7709 81.7889 50.6948 83.8579 50.6948 83.8579C50.6948 83.8579 50.6948 84.5458 51.2023 84.4194C51.5784 84.3228 51.9466 84.1976 52.3036 84.045C53.03 84.4589 53.7969 84.7979 54.5923 85.0567C54.8786 85.1138 55.1686 85.151 55.4601 85.168C55.5568 84.6393 55.5943 84.1015 55.5718 83.5645C55.3755 83.5025 55.1866 83.4194 55.0084 83.3166Z" fill="#5A6567"/>
</g>
<path id="Vector_81" d="M21.8037 66.1027L23.7322 63.0675C23.7322 62.2228 23.6916 60.8266 23.4226 60.4219C23.0013 59.9104 22.5112 59.4593 21.9661 59.0814C21.8005 59.0362 21.6252 59.0403 21.462 59.0934C21.2987 59.1464 21.1546 59.246 21.0476 59.3799C20.7482 59.8351 20.5401 62.1924 20.4741 63.2244C20.5177 64.3214 20.9959 65.3564 21.8037 66.1027Z" fill="#5A6567"/>
<g id="Vector_82" style="mix-blend-mode:multiply" opacity="0.5">
<path d="M22.2604 61.8586C22.2806 61.6652 22.2569 61.4697 22.1911 61.2867C22.1252 61.1037 22.0188 60.9378 21.8798 60.8013L20.8648 59.992C20.666 61.0597 20.5405 62.1396 20.4893 63.2244C20.5302 64.3199 21.0046 65.3547 21.8087 66.1027L22.2705 65.3793C22.2655 64.0287 22.2655 62.3189 22.2604 61.8586Z" fill="#5A6567"/>
</g>
<g id="Vector_83" style="mix-blend-mode:multiply" opacity="0.3">
<path d="M23.1231 64.0337L22.2654 63.6745L23.4986 63.4469L23.7321 63.0776C23.7582 62.2663 23.6884 61.4547 23.524 60.6596C23.1385 60.9864 22.6866 61.2262 22.1995 61.3628C22.2419 61.528 22.2624 61.6981 22.2604 61.8686C22.2604 62.3289 22.2604 64.0387 22.2604 65.4096L23.1231 64.0337Z" fill="#5A6567"/>
</g>
<g id="Group_2" style="mix-blend-mode:screen" opacity="0.3">
<path id="Vector_84" d="M105.97 5.65837C105.97 5.65837 105.97 5.65837 105.945 5.65837L105.909 5.68366L47.7361 39.0699C47.5776 39.1457 47.3961 39.1583 47.2286 39.1053L46.985 39.0092H46.9444C46.9345 39.0126 46.9238 39.0126 46.9139 39.0092C46.8378 39.08 46.8632 39.166 46.985 39.2115L47.2286 39.3076C47.3967 39.3591 47.5783 39.3446 47.7361 39.2672L105.909 5.86577C106.011 5.8253 106.031 5.72413 105.97 5.65837Z" fill="white"/>
<path id="Vector_85" d="M108.827 7.34275L108.797 7.36804H108.761L50.5881 40.729C50.5106 40.7692 50.4257 40.7934 50.3385 40.8004C50.2513 40.8073 50.1637 40.7968 50.0807 40.7694L49.832 40.6733C49.8186 40.6761 49.8048 40.6761 49.7914 40.6733C49.7815 40.6768 49.7708 40.6768 49.7609 40.6733C49.6899 40.7441 49.7153 40.8251 49.8371 40.8757L50.0857 40.9718C50.2538 41.0243 50.4357 41.0098 50.5932 40.9313L108.746 7.54003C108.868 7.48439 108.883 7.39839 108.827 7.34275Z" fill="white"/>
<path id="Vector_86" d="M111.837 9.07281C111.837 9.07281 111.837 9.07281 111.811 9.07281L111.776 9.09811L53.6027 42.4793C53.5251 42.5194 53.4402 42.5437 53.3531 42.5507C53.2659 42.5576 53.1782 42.5471 53.0952 42.5197L52.8466 42.4236H52.8009H52.7755C52.6994 42.4944 52.7248 42.5754 52.8466 42.626L53.0952 42.717C53.2626 42.7711 53.4445 42.7584 53.6027 42.6816L111.791 9.28021C111.882 9.21951 111.898 9.13857 111.837 9.07281Z" fill="white"/>
<path id="Vector_87" d="M114.729 10.7067L114.699 10.732C114.687 10.7343 114.675 10.7343 114.663 10.732L56.475 44.1182C56.3176 44.1972 56.1355 44.2118 55.9675 44.1587L55.7189 44.0626H55.6783H55.6478C55.5717 44.1334 55.5971 44.2143 55.7189 44.2599L55.9675 44.356C56.1355 44.409 56.3176 44.3945 56.475 44.3155L114.663 10.9192C114.77 10.8838 114.79 10.7725 114.729 10.7067Z" fill="white"/>
<path id="Vector_88" d="M117.444 12.2951H117.409L59.2359 45.6813C59.0774 45.7571 58.8959 45.7698 58.7284 45.7168L58.4797 45.6257H58.4391L58.4087 45.6004C58.3376 45.6712 58.363 45.7572 58.4797 45.8028L58.7284 45.8989C58.8965 45.9503 59.0781 45.9359 59.2359 45.8584L117.373 12.5076C117.485 12.4469 117.505 12.3609 117.444 12.2951Z" fill="white"/>
<path id="Vector_89" d="M120.276 13.9187C120.276 13.9187 120.276 13.9187 120.251 13.9187L120.215 13.944L62.0573 47.3353C61.9797 47.3755 61.8949 47.3998 61.8077 47.4067C61.7205 47.4137 61.6329 47.4031 61.5498 47.3758L61.3012 47.2796H61.2555H61.2251C61.154 47.3505 61.1794 47.4314 61.3012 47.482L61.5498 47.573C61.7172 47.6271 61.8991 47.6144 62.0573 47.5376L120.215 14.1362C120.322 14.0755 120.342 13.9946 120.276 13.9187Z" fill="white"/>
<path id="Vector_90" d="M123.113 15.5577C123.107 15.5684 123.098 15.5773 123.088 15.5829C123.076 15.5853 123.064 15.5853 123.052 15.5829L64.8791 48.9692C64.7209 49.046 64.539 49.0587 64.3716 49.0046L64.123 48.9135H64.0773H64.0468C63.9758 48.9843 64.0012 49.0703 64.123 49.1159L64.3716 49.212C64.5397 49.2645 64.7216 49.25 64.8791 49.1715L123.052 15.7701C123.154 15.7094 123.174 15.6234 123.113 15.5577Z" fill="white"/>
</g>
<g id="Vector_91" style="mix-blend-mode:multiply" opacity="0.2">
<path d="M46.9597 38.9281L105.194 5.53179C105.273 5.49407 105.36 5.47449 105.447 5.47449C105.535 5.47449 105.622 5.49407 105.701 5.53179L105.899 5.62285C105.925 5.63757 105.949 5.65635 105.97 5.67849C106.036 5.60767 106.011 5.52168 105.899 5.46604L105.701 5.37498C105.622 5.33725 105.535 5.31767 105.447 5.31767C105.36 5.31767 105.273 5.33725 105.194 5.37498L46.9495 38.7612C46.8429 38.8219 46.8277 38.8978 46.8988 38.9585C46.9162 38.9434 46.9371 38.933 46.9597 38.9281Z" fill="black"/>
</g>
<g id="Vector_92" style="mix-blend-mode:multiply" opacity="0.2">
<path d="M49.8119 40.6026L108.056 7.21641C108.135 7.17868 108.222 7.1591 108.31 7.1591C108.398 7.1591 108.484 7.17868 108.563 7.21641L108.761 7.31252C108.79 7.32338 108.816 7.34069 108.838 7.3631C108.898 7.29228 108.873 7.20629 108.761 7.15064L108.563 7.05453C108.484 7.01816 108.397 6.99933 108.31 6.99933C108.222 6.99933 108.136 7.01816 108.056 7.05453L49.8119 40.4407C49.7054 40.5014 49.6901 40.5773 49.7561 40.638L49.8119 40.6026Z" fill="black"/>
</g>
<g id="Vector_93" style="mix-blend-mode:multiply" opacity="0.2">
<path d="M52.8263 42.3429L111.07 8.95665C111.15 8.92027 111.237 8.90144 111.324 8.90144C111.412 8.90144 111.498 8.92027 111.578 8.95665L111.776 9.0477C111.803 9.06069 111.828 9.07971 111.847 9.10334C111.913 9.03252 111.887 8.94653 111.776 8.89089L111.578 8.79477C111.498 8.7584 111.412 8.73957 111.324 8.73957C111.237 8.73957 111.15 8.7584 111.07 8.79477L52.8263 42.181C52.7198 42.2417 52.7045 42.3226 52.7705 42.3833L52.8263 42.3429Z" fill="black"/>
</g>
<g id="Vector_94" style="mix-blend-mode:multiply" opacity="0.2">
<path d="M55.7139 43.9767L113.958 10.5905C114.038 10.5548 114.124 10.5363 114.212 10.5363C114.299 10.5363 114.386 10.5548 114.465 10.5905L114.658 10.6866C114.686 10.6993 114.712 10.7163 114.734 10.7372C114.795 10.6664 114.77 10.5804 114.658 10.5298L114.465 10.4337C114.386 10.3966 114.299 10.3774 114.212 10.3774C114.124 10.3774 114.037 10.3966 113.958 10.4337L55.7139 43.8199C55.6073 43.8806 55.5921 43.9615 55.6632 44.0222C55.6777 44.0046 55.6948 43.9893 55.7139 43.9767Z" fill="black"/>
</g>
<g id="Vector_95" style="mix-blend-mode:multiply" opacity="0.2">
<path d="M58.434 45.5651L116.673 12.1789C116.753 12.1432 116.839 12.1247 116.927 12.1247C117.014 12.1247 117.101 12.1432 117.18 12.1789L117.373 12.275C117.403 12.2852 117.429 12.3026 117.449 12.3256C117.51 12.2548 117.49 12.1688 117.373 12.1182L117.18 12.0221C117.101 11.9851 117.014 11.9659 116.927 11.9659C116.839 11.9659 116.752 11.9851 116.673 12.0221L58.434 45.4083C58.3274 45.469 58.3122 45.5499 58.3782 45.6056L58.434 45.5651Z" fill="black"/>
</g>
<g id="Vector_96" style="mix-blend-mode:multiply" opacity="0.2">
<path d="M61.2655 47.1988L119.51 13.8126C119.589 13.7762 119.676 13.7574 119.763 13.7574C119.851 13.7574 119.937 13.7762 120.017 13.8126L120.215 13.9037C120.243 13.9167 120.267 13.9357 120.286 13.9593C120.352 13.8885 120.327 13.8025 120.215 13.7469L120.017 13.6507C119.937 13.6144 119.851 13.5955 119.763 13.5955C119.676 13.5955 119.589 13.6144 119.51 13.6507L61.2655 47.037C61.159 47.0977 61.1437 47.1786 61.2097 47.2393L61.2655 47.1988Z" fill="black"/>
</g>
<g id="Vector_97" style="mix-blend-mode:multiply" opacity="0.2">
<path d="M64.0873 48.8226L122.347 15.4364C122.426 15.4001 122.513 15.3812 122.6 15.3812C122.688 15.3812 122.774 15.4001 122.854 15.4364L123.052 15.5325C123.079 15.5439 123.103 15.5612 123.123 15.5831C123.184 15.5123 123.164 15.4263 123.052 15.3707L122.854 15.2796C122.775 15.2419 122.688 15.2223 122.6 15.2223C122.513 15.2223 122.426 15.2419 122.347 15.2796L64.0873 48.6709C63.9807 48.7316 63.9655 48.8125 64.0315 48.8682L64.0873 48.8226Z" fill="black"/>
</g>
<path id="Vector_98" style="mix-blend-mode:screen" opacity="0.5" d="M65.5234 78.0964C65.5035 78.4593 65.3979 78.8124 65.2154 79.127C65.0329 79.4417 64.7785 79.709 64.4729 79.9073C63.8944 80.2361 63.4275 79.968 63.4275 79.3003C63.4473 78.9386 63.5522 78.5866 63.7338 78.2729C63.9155 77.9591 64.1686 77.6924 64.4729 77.4944C65.0514 77.1504 65.5234 77.4337 65.5234 78.0964Z" fill="url(#paint2_linear_801_53588)"/>
<path id="Vector_99" style="mix-blend-mode:multiply" opacity="0.3" d="M65.5234 78.0964C65.5035 78.4593 65.3979 78.8124 65.2154 79.127C65.0329 79.4417 64.7785 79.709 64.4729 79.9073C63.8944 80.2361 63.4275 79.968 63.4275 79.3003C63.4473 78.9386 63.5522 78.5866 63.7338 78.2729C63.9155 77.9591 64.1686 77.6924 64.4729 77.4944C65.0514 77.1504 65.5234 77.4337 65.5234 78.0964Z" fill="url(#paint3_linear_801_53588)"/>
<path id="Vector_100" d="M66.2594 77.4539C66.2594 77.4539 64.3614 78.5617 63.1891 79.1889C63.1891 79.1889 62.7831 79.371 62.8186 79.6189C62.8541 79.8668 63.0825 79.8212 63.3261 79.801C64.2039 79.4466 65.0524 79.0238 65.8635 78.5364C66.4116 78.2025 66.7364 78.0305 66.7009 77.6562C66.6653 77.2819 66.4522 77.3223 66.2594 77.4539Z" fill="#3C4548"/>
<path id="Vector_101" d="M65.2087 78.43C65.735 78.1697 66.2109 77.8187 66.6145 77.393C66.5231 77.3121 66.3861 77.393 66.2592 77.4537C66.2592 77.4537 64.3612 78.5615 63.1889 79.1888C63.0562 79.2482 62.9409 79.3405 62.854 79.4569C63.5797 79.3557 64.1887 78.9865 65.2087 78.43Z" fill="#565F62"/>
<path id="Vector_102" d="M27.6853 97.4855C27.7513 97.3894 27.8071 97.3034 27.8579 97.2174C24.8902 95.8895 21.9921 94.4122 19.1748 92.7912C16.6921 91.3117 14.3179 89.6584 12.07 87.8439L12.0396 88.1677C14.2861 89.984 16.6604 91.6373 19.1443 93.1149C21.5397 94.4706 25.6655 96.6711 27.6853 97.4855Z" fill="#404B4D"/>
<path id="Vector_103" d="M26.3761 98.9982C26.4624 98.9324 26.5436 98.8565 26.6299 98.7806C24.4477 97.7689 21.3216 96.0794 19.3576 94.9716C16.8749 93.4921 14.5007 91.8388 12.2528 90.0243L12.2173 90.3481C14.4756 92.163 16.8599 93.8162 19.3525 95.2953C21.2251 96.3728 24.2092 97.9713 26.3761 98.9982Z" fill="#404B4D"/>
<path id="Vector_104" d="M19.4284 92.0529C16.9343 90.578 14.5498 88.9263 12.2932 87.1107L12.0547 87.8442C14.3026 89.6587 16.6768 91.3119 19.1595 92.7914C21.9767 94.4125 24.8748 95.8898 27.8425 97.2176L28.0252 96.9141C28.0978 96.792 28.1493 96.6587 28.1775 96.5195C26.2693 95.7911 21.905 93.4642 19.4284 92.0529Z" fill="#5A6567"/>
<path id="Vector_105" d="M26.6297 98.7806C26.8092 98.6084 26.9787 98.426 27.1372 98.2343C24.9601 97.2529 21.5548 95.4167 19.4386 94.228C16.9511 92.7546 14.5733 91.1047 12.3237 89.2908L12.2476 90.0344C14.4947 91.8499 16.869 93.5032 19.3523 94.9817C21.3214 96.0794 24.4475 97.7639 26.6297 98.7806Z" fill="#5A6567"/>
<g id="Group_3">
<path id="Vector_106" d="M40.5806 99.9136L36.4497 101.75C36.4497 101.75 34.9272 102.463 31.2175 101.623C29.2326 101.197 27.2819 100.626 25.3814 99.9136C25.2443 99.9398 25.1049 99.9534 24.9653 99.9541C24.865 99.953 24.7649 99.9446 24.6659 99.9288C22.9607 99.6809 19.0835 97.6676 17.2566 96.4485C17.1196 96.3625 16.9775 96.2664 16.8303 96.1652C15.0541 94.9917 12.4456 93.2616 11.8011 91.1067C11.1008 90.181 9.67983 88.1829 9.26369 86.7362C9.26369 86.7362 8.44664 87.5506 8.44664 88.102C8.44664 88.2689 8.39589 88.6736 8.38574 89.2604C10.3852 92.4017 13.8361 95.371 17.1652 97.5462C21.1997 100.197 28.5634 102.812 31.7098 103.353C33.6109 103.67 35.5621 103.483 37.3682 102.812L43.3058 99.7467L40.5806 99.9136Z" fill="url(#paint4_linear_801_53588)"/>
</g>
<path id="Vector_107" d="M22.0219 102.838L14.7294 98.4569C14.6782 98.4234 14.6181 98.4058 14.5568 98.4063C14.5212 98.4068 14.4861 98.4147 14.4538 98.4295C14.4214 98.4444 14.3926 98.4659 14.3691 98.4926C14.3457 98.5194 14.3281 98.5507 14.3176 98.5846C14.3071 98.6186 14.3039 98.6543 14.3082 98.6896L14.2676 100.106C14.2693 100.215 14.298 100.322 14.3512 100.417C14.4043 100.512 14.4801 100.593 14.5721 100.652L21.824 104.972C21.8755 105.005 21.9354 105.023 21.9966 105.023C22.0324 105.022 22.0675 105.013 22.1 104.998C22.1325 104.983 22.1616 104.962 22.1857 104.935C22.2098 104.909 22.2284 104.878 22.2404 104.845C22.2523 104.811 22.2574 104.775 22.2554 104.74L22.3163 103.394C22.3182 103.284 22.2923 103.175 22.2408 103.078C22.1894 102.981 22.1141 102.898 22.0219 102.838Z" fill="#404B4D"/>
<path id="Vector_108" d="M21.9101 103.015L14.6226 98.639C14.6011 98.6324 14.5781 98.6324 14.5566 98.639C14.5261 98.639 14.516 98.6947 14.516 98.7149L14.4805 100.131C14.4838 100.202 14.5033 100.271 14.5376 100.334C14.5719 100.396 14.6201 100.45 14.6784 100.49L21.9304 104.8C21.952 104.806 21.9747 104.806 21.9963 104.8C22.0318 104.8 22.042 104.745 22.042 104.719L22.1029 103.374C22.0998 103.303 22.0809 103.234 22.0475 103.172C22.0141 103.11 21.9671 103.056 21.9101 103.015Z" fill="white"/>
<path id="Vector_109" d="M34.3994 82.6389C34.1896 82.5405 33.9551 82.5073 33.7262 82.5433C33.4973 82.5794 33.2845 82.6832 33.1154 82.8412C32.4506 83.3875 31.7452 84.0907 31.7452 84.0907C31.7452 84.0907 31.1159 84.6825 32.0345 85.0771C33.9167 85.8806 35.8513 86.5566 37.8249 87.1005C39.3473 87.409 41.1743 86.0888 41.3773 85.9623C41.5803 85.8358 42.1436 85.2845 40.8952 84.9506C38.6862 84.308 36.5171 83.5361 34.3994 82.6389Z" fill="#4F5A5C"/>
<path id="Vector_110" d="M40.8443 85.421C38.6301 84.7683 36.4575 83.9828 34.3384 83.0687C34.2065 83.0076 34.0626 82.9765 33.9172 82.9777C33.6498 82.9817 33.3926 83.0803 33.1915 83.2559C32.5419 83.7921 31.8365 84.4952 31.8263 84.5054C31.7758 84.558 31.7331 84.6177 31.6995 84.6824C31.7946 84.8164 31.9295 84.9172 32.0852 84.9708C33.9592 85.7731 35.8852 86.4491 37.8502 86.9942C37.9987 87.0251 38.1501 87.0403 38.3018 87.0397C38.8753 87.0397 39.8243 86.8475 41.2351 85.9167L41.2909 85.8762C41.3584 85.8318 41.4169 85.7752 41.4635 85.7093C41.2874 85.5585 41.0733 85.4588 40.8443 85.421Z" fill="#354042"/>
<path id="Vector_111" d="M31.6996 84.6824C31.7332 84.6177 31.7759 84.5581 31.8265 84.5054C31.8265 84.5054 32.542 83.7921 33.1916 83.2559C33.3927 83.0803 33.65 82.9817 33.9173 82.9777C34.0628 82.9765 34.2066 83.0076 34.3385 83.0688C36.4576 83.9828 38.6303 84.7683 40.8445 85.421C41.0729 85.4574 41.287 85.5553 41.4636 85.7042C41.5116 85.6482 41.5354 85.5754 41.5296 85.5019C41.5296 85.4108 41.4078 85.2389 40.8445 85.0972C38.631 84.4423 36.4585 83.6568 34.3385 82.745C34.2075 82.6808 34.0633 82.6479 33.9173 82.6489C33.6494 82.6547 33.3922 82.7551 33.1916 82.9322C32.542 83.4684 31.8366 84.1715 31.8265 84.1816C31.7706 84.2317 31.7266 84.2936 31.6977 84.3627C31.6687 84.4318 31.6555 84.5064 31.659 84.5813C31.6672 84.6169 31.6809 84.651 31.6996 84.6824Z" fill="#424D4F"/>
<path id="Vector_112" d="M36.2061 86.5188L36.4344 86.5946C37.2312 85.8055 37.8402 85.2541 38.6217 84.5712L38.3882 84.4903C37.6219 85.1631 37.018 85.7145 36.2061 86.5188Z" fill="#4F5A5C"/>
<path id="Vector_113" d="M36.6831 86.6706L36.9115 86.7414C37.6981 85.9624 38.2411 85.4717 39.0886 84.718L38.8551 84.6421C38.0229 85.3756 37.4799 85.8663 36.6831 86.6706Z" fill="#4F5A5C"/>
<path id="Vector_114" d="M35.7493 86.3669L35.9726 86.4428C36.7744 85.6486 37.4443 85.0416 38.1598 84.4194L37.9315 84.3385C37.221 84.9505 36.5511 85.5677 35.7493 86.3669Z" fill="#4F5A5C"/>
<path id="Vector_115" d="M37.1499 86.8123L37.3884 86.878C38.1547 86.1193 38.6267 85.6893 39.5503 84.8546L39.3169 84.7787C38.4389 85.5679 37.9467 86.0181 37.1499 86.8123Z" fill="#4F5A5C"/>
<path id="Vector_116" d="M38.1702 87.0296H38.4747C39.1192 86.3923 39.4896 86.0179 40.5046 85.158L40.261 85.0872C39.2613 85.9724 38.8908 86.3113 38.1702 87.0296Z" fill="#4F5A5C"/>
<path id="Vector_117" d="M37.6423 86.9436L37.8504 86.9891H37.8859C38.6218 86.2607 39.0582 85.8712 40.0224 85.0112L39.7839 84.9353C38.8451 85.7801 38.4137 86.1696 37.6423 86.9436Z" fill="#4F5A5C"/>
<path id="Vector_118" d="M40.7429 85.244C39.7634 86.1141 39.4082 86.4378 38.8347 87.0044C38.9683 86.9815 39.1004 86.9511 39.2306 86.9133C39.6873 86.4732 40.073 86.1293 40.9814 85.3148C40.9037 85.2855 40.824 85.2618 40.7429 85.244Z" fill="#4F5A5C"/>
<path id="Vector_119" d="M35.2876 86.2053L35.5109 86.2862C36.3127 85.4971 37.0333 84.8446 37.7032 84.2375L37.4749 84.1566C36.7999 84.7636 36.0894 85.4162 35.2876 86.2053Z" fill="#4F5A5C"/>
<path id="Vector_120" d="M31.7756 84.7787C31.8304 84.8268 31.8899 84.8691 31.9533 84.9052C32.6942 84.1818 33.6381 83.3168 34.1659 82.8413C34.0857 82.8115 34.0022 82.7911 33.9172 82.7806C33.3691 83.2763 32.476 84.0958 31.7756 84.7787Z" fill="#4F5A5C"/>
<path id="Vector_121" d="M32.1665 85.0062L32.3796 85.0922C33.1206 84.3689 34.0391 83.5291 34.5872 83.0334L34.3741 82.9424C33.8006 83.4583 32.8922 84.293 32.1665 85.0062Z" fill="#4F5A5C"/>
<path id="Vector_122" d="M32.6233 85.1833L32.8415 85.2743C33.5672 84.561 34.4452 83.7567 35.0389 83.2205L34.8207 83.1295C34.1863 83.6809 33.3135 84.4852 32.6233 85.1833Z" fill="#4F5A5C"/>
<path id="Vector_123" d="M34.8359 86.0432L35.0592 86.1241C35.8509 85.3401 36.6172 84.642 37.2516 84.0754L37.0232 83.9894C36.3838 84.561 35.6225 85.2439 34.8359 86.0432Z" fill="#4F5A5C"/>
<path id="Vector_124" d="M41.1946 85.3907C40.4384 86.0635 40.0679 86.4024 39.7178 86.7261C39.9157 86.6503 40.1187 86.5542 40.342 86.4429C40.5957 86.2102 40.9104 85.937 41.3569 85.5273C41.3123 85.4716 41.2571 85.4252 41.1946 85.3907Z" fill="#4F5A5C"/>
<path id="Vector_125" d="M33.0444 85.3605L33.2627 85.4465C33.7245 84.9912 34.4299 84.3235 35.4601 83.3978L35.2368 83.3067C34.2015 84.2324 33.4961 84.9153 33.0444 85.3605Z" fill="#4F5A5C"/>
<path id="Vector_126" d="M33.4858 85.5376L33.7041 85.6185C34.4754 84.8648 35.3382 84.0757 35.9015 83.5698L35.6782 83.4838C35.0996 84.0099 34.2369 84.794 33.4858 85.5376Z" fill="#4F5A5C"/>
<path id="Vector_127" d="M34.3843 85.8764L34.6025 85.9573C35.3891 85.1834 36.1909 84.4398 36.7999 83.9339L36.5715 83.8479C35.9524 84.3791 35.1607 85.1024 34.3843 85.8764Z" fill="#4F5A5C"/>
<path id="Vector_128" d="M33.9326 85.7045L34.1559 85.7904C34.9324 85.0216 35.7646 84.2729 36.3482 83.7417L36.125 83.6558C35.521 84.197 34.6989 84.9457 33.9326 85.7045Z" fill="#4F5A5C"/>
<path id="Vector_129" d="M21.3012 78.6226C21.5347 78.825 22.032 79.3055 22.5953 78.7086C23.0156 78.2416 23.4055 77.7482 23.7625 77.2315C23.8477 77.0603 23.8689 76.8645 23.8224 76.6791C23.7759 76.4938 23.6648 76.3309 23.5088 76.2198C22.6682 75.6105 21.879 74.9338 21.149 74.1964C20.615 73.575 20.1201 72.9212 19.6671 72.2388C19.6671 72.2388 19.3677 71.6924 18.8501 72.4209C18.4936 72.9424 18.1715 73.4865 17.8859 74.0497C17.8859 74.0497 17.5357 74.8136 17.8859 75.2739C18.236 75.7342 20.7481 78.1623 21.3012 78.6226Z" fill="#4F5A5C"/>
<path id="Vector_130" d="M21.6362 78.5062L21.6058 78.4809C21.012 77.975 18.5609 75.5722 18.2056 75.1321C17.8504 74.692 18.2056 74.0344 18.2056 74.0243C18.487 73.469 18.8058 72.9332 19.1597 72.4208C19.2266 72.3195 19.3088 72.2291 19.4033 72.1527H19.3475C19.2307 72.1527 19.0836 72.269 18.9364 72.4815C18.5833 72.9972 18.263 73.5345 17.9772 74.0901C17.9772 74.0901 17.6626 74.7932 17.9772 75.1928C18.2919 75.5925 20.7836 78.0256 21.3774 78.5416L21.4078 78.5669C21.5674 78.7405 21.7828 78.8532 22.0168 78.8855C22.0941 78.8859 22.1705 78.8686 22.2401 78.835C22.0065 78.7988 21.793 78.6825 21.6362 78.5062Z" fill="#424D4F"/>
<path id="Vector_131" d="M22.5089 78.6224C22.9224 78.1656 23.3056 77.6823 23.6558 77.1756C23.7334 77.0285 23.7541 76.858 23.7139 76.6967C23.6736 76.5353 23.5753 76.3943 23.4376 76.3005C22.5906 75.6914 21.7946 75.0147 21.0575 74.2771C20.5102 73.6492 20.0018 72.9887 19.535 72.2992C19.5016 72.2437 19.4521 72.1995 19.3929 72.1728C19.2984 72.2492 19.2163 72.3396 19.1493 72.4409C18.7954 72.9533 18.4767 73.4891 18.1953 74.0444C18.1953 74.0444 17.8806 74.7475 18.1953 75.1522C18.5099 75.5569 21.0017 77.9799 21.5954 78.501L21.6259 78.5263C21.7855 78.6999 22.0008 78.8126 22.2348 78.8449C22.3397 78.789 22.4328 78.7135 22.5089 78.6224Z" fill="#354042"/>
<path id="Vector_132" d="M20.4894 73.574C20.4437 73.5133 20.398 73.4576 20.3574 73.3969C19.9413 73.9635 19.2816 74.9145 18.6929 75.8149L18.8451 75.9717C19.4287 75.0966 20.0732 74.1456 20.4894 73.574Z" fill="#4F5A5C"/>
<path id="Vector_133" d="M20.7329 73.8828L20.5959 73.7108C20.1747 74.2773 19.5454 75.1879 18.9517 76.0731L19.1039 76.2299C19.6824 75.3649 20.3117 74.4544 20.7329 73.8828Z" fill="#4F5A5C"/>
<path id="Vector_134" d="M21.2454 74.4542L21.0983 74.2973C20.7126 74.8032 20.1696 75.5721 19.4692 76.5939L19.6266 76.7457C20.3218 75.7238 20.8648 74.96 21.2454 74.4542Z" fill="#4F5A5C"/>
<path id="Vector_135" d="M20.2509 73.2603L20.119 73.0782C19.7231 73.6346 19.038 74.6362 18.4392 75.5468L18.5915 75.7086C19.17 74.8234 19.8449 73.8269 20.2509 73.2603Z" fill="#4F5A5C"/>
<path id="Vector_136" d="M23.6864 76.5888C22.9759 77.383 22.509 77.985 21.8899 78.8095C21.9542 78.8396 22.0226 78.8601 22.0929 78.8702C22.646 78.1317 23.1079 77.5651 23.7118 76.8468C23.7207 76.76 23.7121 76.6723 23.6864 76.5888Z" fill="#4F5A5C"/>
<path id="Vector_137" d="M20.0173 72.9416L19.8905 72.7544C19.4997 73.3058 18.7791 74.3732 18.1853 75.2837C18.2259 75.3343 18.2766 75.3849 18.3375 75.4506C18.9212 74.5097 19.6367 73.4879 20.0173 72.9416Z" fill="#4F5A5C"/>
<path id="Vector_138" d="M19.5605 72.2841C19.5305 72.2289 19.482 72.1859 19.4234 72.1627H19.3727C19.1139 72.5522 18.647 73.2452 18.1801 73.9534C18.159 73.9892 18.1404 74.0264 18.1243 74.0647C18.0445 74.2511 17.9965 74.4494 17.9822 74.6515C18.5607 73.7713 19.2357 72.7697 19.5605 72.2841Z" fill="#4F5A5C"/>
<path id="Vector_139" d="M19.789 72.5979C19.7382 72.527 19.6926 72.4613 19.6621 72.4107C19.3069 72.9165 18.5913 73.9788 17.9976 74.8944C18.0113 74.9815 18.0443 75.0644 18.094 75.1372C18.6979 74.2216 19.4287 73.1543 19.789 72.5979Z" fill="#4F5A5C"/>
<path id="Vector_140" d="M20.9816 74.176L20.8395 74.009C20.332 74.6767 19.6418 75.6986 19.2104 76.3359L19.3627 76.4877C19.9362 75.6328 20.5502 74.7577 20.9816 74.176Z" fill="#4F5A5C"/>
<path id="Vector_141" d="M23.2906 76.1893L23.118 76.0629C22.4938 76.7812 21.9762 77.4641 21.3215 78.3594L21.4789 78.5061C22.1437 77.5956 22.6613 76.9127 23.2906 76.1893Z" fill="#4F5A5C"/>
<path id="Vector_142" d="M22.9809 75.9567L22.8135 75.8252C22.24 76.4878 21.7224 77.1859 21.0525 78.1116L21.2098 78.2583C21.8848 77.3276 22.4075 76.6447 22.9809 75.9567Z" fill="#4F5A5C"/>
<path id="Vector_143" d="M22.6814 75.7187L22.514 75.5821C22.0065 76.2144 21.4432 76.9428 20.7834 77.8635L20.9408 78.0102C21.6056 77.0794 22.1435 76.351 22.6814 75.7187Z" fill="#4F5A5C"/>
<path id="Vector_144" d="M23.5901 76.4371C23.5466 76.3841 23.4953 76.3381 23.4379 76.3005C22.7528 77.0694 22.2504 77.722 21.5957 78.6072C21.6465 78.6477 21.7023 78.6982 21.7632 78.7387C22.4128 77.8484 22.9101 77.2009 23.5901 76.4371Z" fill="#4F5A5C"/>
<path id="Vector_145" d="M21.5195 74.7173L21.3673 74.5706C20.8953 75.1776 20.2863 76.0426 19.7332 76.8469L19.8854 76.9987C20.4436 76.1944 21.0475 75.3294 21.5195 74.7173Z" fill="#4F5A5C"/>
<path id="Vector_146" d="M22.3822 75.476L22.2198 75.3394C21.7124 75.9515 21.1694 76.7001 20.5198 77.6107L20.6771 77.7574C21.3318 76.8418 21.8748 76.0881 22.3822 75.476Z" fill="#4F5A5C"/>
<path id="Vector_147" d="M21.8035 74.9753L21.6462 74.8336C21.1387 75.4508 20.5601 76.2854 19.9968 77.1049C20.0476 77.1555 20.0983 77.201 20.1491 77.2567C20.7175 76.4321 21.3163 75.5924 21.8035 74.9753Z" fill="#4F5A5C"/>
<path id="Vector_148" d="M22.0879 75.2283L21.9306 75.0867C21.4231 75.6937 20.875 76.4778 20.2559 77.3579L20.4132 77.5097C21.0323 76.6447 21.6007 75.8353 22.0879 75.2283Z" fill="#4F5A5C"/>
<path id="Vector_149" d="M27.8174 99.6507C27.8174 99.6507 29.9437 96.7016 31.6235 95.8214C33.3033 94.9412 38.7283 94.3291 38.9212 94.3038C39.114 94.2785 39.4794 94.3898 39.2459 94.8754C39.0125 95.3611 37.7235 98.2596 36.5512 99.3472C35.3789 100.435 34.8917 101.077 32.4913 100.794C30.8968 100.581 29.3298 100.197 27.8174 99.6507Z" fill="#E3E3E4"/>
<path id="Vector_150" d="M32.5928 98.3253C32.2236 99.0952 31.6197 99.7291 30.8673 100.136L30.4157 99.1246L29.9082 98.0218C30.1895 97.9123 30.4798 97.8276 30.776 97.7689C30.776 97.7689 32.334 97.4603 32.5928 97.8245C32.6364 97.9008 32.6593 97.9871 32.6593 98.0749C32.6593 98.1627 32.6364 98.249 32.5928 98.3253Z" fill="url(#paint5_linear_801_53588)"/>
<path id="Vector_151" d="M31.2986 99.5345C31.2986 100.071 30.918 100.288 30.4562 100.04C30.2113 99.8812 30.0075 99.6668 29.8611 99.4146C29.7148 99.1624 29.63 98.8794 29.6138 98.5885C29.6138 98.0523 29.9893 97.8348 30.4562 98.0827C30.7005 98.2424 30.9039 98.4568 31.0502 98.7089C31.1965 98.961 31.2816 99.2437 31.2986 99.5345Z" fill="white"/>
<path id="Vector_152" d="M37.2463 96.828C36.8454 98.1129 34.785 100.025 33.9223 100.308L33.0545 98.3658L32.0396 96.2362C32.5837 96.0307 33.1438 95.8699 33.7143 95.7556C33.7143 95.7556 36.7135 95.1587 37.2159 95.8568C37.3023 96.0031 37.3504 96.1688 37.3558 96.3385C37.3611 96.5082 37.3235 96.6766 37.2463 96.828Z" fill="url(#paint6_linear_801_53588)"/>
<path id="Vector_153" d="M34.7548 99.155C34.7548 100.167 34.0291 100.602 33.1308 100.086C32.6595 99.779 32.2673 99.3659 31.9861 98.8799C31.7048 98.3939 31.5424 97.8486 31.512 97.2884C31.512 96.2767 32.2377 95.8417 33.1308 96.3576C33.6048 96.662 33.9993 97.0744 34.2817 97.5609C34.5641 98.0473 34.7262 98.5937 34.7548 99.155Z" fill="white"/>
<path id="Vector_154" d="M38.0329 96.2361C37.5914 97.1577 36.8659 97.9145 35.9624 98.3961L35.4194 97.1871L34.7952 95.8669C35.1247 95.7397 35.4641 95.6399 35.8101 95.5684C35.8101 95.5684 37.6828 95.1991 37.9923 95.6342C38.0502 95.7227 38.0843 95.8245 38.0914 95.9299C38.0986 96.0353 38.0784 96.1407 38.0329 96.2361Z" fill="url(#paint7_linear_801_53588)"/>
<path id="Vector_155" d="M36.4801 97.688C36.4801 98.3305 36.0285 98.5884 35.4652 98.2697C35.1703 98.0788 34.9248 97.8212 34.7485 97.518C34.5721 97.2148 34.4699 96.8745 34.4502 96.5246C34.4502 95.8821 34.9019 95.6241 35.4652 95.9428C35.76 96.1338 36.0055 96.3913 36.1819 96.6945C36.3582 96.9977 36.4604 97.3381 36.4801 97.688Z" fill="white"/>
<g id="Group_4">
<path id="Vector_156" d="M27.8174 99.6507C27.8174 99.6507 29.9437 96.7016 31.6235 95.8214C33.3033 94.9412 38.7283 94.3291 38.9212 94.3038C39.114 94.2785 39.4794 94.3898 39.2459 94.8754C39.0125 95.3611 37.7235 98.2596 36.5512 99.3472C35.3789 100.435 34.8917 101.077 32.4913 100.794C30.8968 100.581 29.3298 100.197 27.8174 99.6507Z" fill="url(#paint8_linear_801_53588)"/>
</g>
<path id="Vector_157" d="M130.365 38.5792V47.811L132.258 46.6172C132.258 46.4351 132.258 46.3288 132.258 46.3288L132.41 42.3275C132.41 42.3275 132.309 39.9045 132.07 36.8492L130.669 37.8609C130.56 37.9437 130.475 38.0536 130.421 38.1796C130.368 38.3056 130.348 38.4434 130.365 38.5792Z" fill="#B01120"/>
<path id="Vector_158" d="M130.365 43.2584L132.395 41.9381C132.395 41.5183 132.334 40.7696 132.278 39.7984L130.375 41.0832L130.365 43.2584Z" fill="#E3E3E4"/>
<path id="Vector_159" d="M130.781 44.9126V46.5567L132.273 45.545L132.339 43.8706L130.781 44.9126Z" fill="#E3E3E4"/>
<path id="Vector_160" d="M68.6953 86.0687C68.6922 86.1317 68.674 86.1931 68.6422 86.2477C68.6104 86.3023 68.566 86.3484 68.5126 86.3823L67.3048 87.0753C67.2033 87.136 67.1221 87.0753 67.1221 86.9742V86.7213C67.1251 86.6582 67.1433 86.5969 67.1751 86.5423C67.2069 86.4877 67.2514 86.4415 67.3048 86.4076L68.5126 85.7095C68.6141 85.6539 68.6953 85.7096 68.6953 85.8158V86.0687Z" fill="#D77728"/>
<path id="Vector_161" d="M68.9084 86.1647C68.9055 86.2272 68.8879 86.2881 68.8571 86.3426C68.8262 86.3971 68.783 86.4436 68.7308 86.4783L67.5179 87.1714C67.4215 87.2321 67.3352 87.1714 67.3352 87.0702V86.8173C67.3395 86.7545 67.3582 86.6936 67.3899 86.6392C67.4215 86.5848 67.4653 86.5384 67.5179 86.5036L68.7308 85.8056C68.8272 85.7499 68.9084 85.8056 68.9084 85.9118V86.1647Z" fill="#F09041"/>
<path id="Vector_162" d="M104.021 65.7487C104.018 65.8103 104 65.8702 103.969 65.9238C103.938 65.9773 103.895 66.023 103.844 66.0573L102.656 66.7554C102.56 66.811 102.479 66.7554 102.479 66.6491V66.3962C102.481 66.3337 102.499 66.2728 102.53 66.2183C102.561 66.1638 102.604 66.1173 102.656 66.0826L103.869 65.3896C103.965 65.3289 104.047 65.3896 104.047 65.4907L104.021 65.7487Z" fill="#D77728"/>
<path id="Vector_163" d="M104.239 65.8445C104.236 65.9066 104.217 65.967 104.185 66.0206C104.154 66.0742 104.109 66.1196 104.057 66.153L102.849 66.8511C102.747 66.9068 102.666 66.8511 102.666 66.7449V66.492C102.671 66.4292 102.689 66.3683 102.721 66.3139C102.753 66.2595 102.796 66.2131 102.849 66.1783L104.057 65.4853C104.158 65.4246 104.239 65.4853 104.239 65.5865V65.8445Z" fill="#F09041"/>
<path id="Vector_164" d="M129.593 50.4768C129.59 50.5398 129.572 50.6012 129.54 50.6557C129.509 50.7103 129.464 50.7565 129.411 50.7904L128.203 51.4885C128.101 51.5441 128.02 51.4885 128.02 51.3822V51.1293C128.023 51.0663 128.042 51.0049 128.073 50.9503C128.105 50.8958 128.15 50.8496 128.203 50.8157L129.411 50.1176C129.512 50.062 129.593 50.1176 129.593 50.2238V50.4768Z" fill="#D77728"/>
<path id="Vector_165" d="M129.807 50.5728C129.804 50.6358 129.785 50.6972 129.754 50.7518C129.722 50.8063 129.677 50.8525 129.624 50.8864L128.416 51.5845C128.315 51.6401 128.233 51.5845 128.233 51.4783V51.2253C128.236 51.1623 128.255 51.1009 128.286 51.0464C128.318 50.9918 128.363 50.9456 128.416 50.9117L129.624 50.2136C129.725 50.158 129.807 50.2136 129.807 50.3199V50.5728Z" fill="#F09041"/>
<g id="Vector_166" style="mix-blend-mode:multiply" opacity="0.1">
<path d="M118.282 94.7692C118.487 95.0482 118.711 95.3135 118.952 95.5634C118.778 95.2608 118.551 94.9919 118.282 94.7692Z" fill="black"/>
</g>
</g>
</g>
<defs>
<filter id="filter0_d_801_53588" x="0.000156879" y="0.0424852" width="144.132" height="126.006" filterUnits="userSpaceOnUse" color-interpolation-filters="sRGB">
<feFlood flood-opacity="0" result="BackgroundImageFix"/>
<feColorMatrix in="SourceAlpha" type="matrix" values="0 0 0 0 0 0 0 0 0 0 0 0 0 0 0 0 0 0 127 0" result="hardAlpha"/>
<feOffset dx="1.67463" dy="6.69851"/>
<feGaussianBlur stdDeviation="5.02388"/>
<feComposite in2="hardAlpha" operator="out"/>
<feColorMatrix type="matrix" values="0 0 0 0 0 0 0 0 0 0 0 0 0 0 0 0 0 0 0.25 0"/>
<feBlend mode="normal" in2="BackgroundImageFix" result="effect1_dropShadow_801_53588"/>
<feBlend mode="normal" in="SourceGraphic" in2="effect1_dropShadow_801_53588" result="shape"/>
</filter>
<linearGradient id="paint0_linear_801_53588" x1="50.1163" y1="99.3319" x2="43.7995" y2="106.09" gradientUnits="userSpaceOnUse">
<stop stop-color="#C1C0C0"/>
<stop offset="1" stop-color="#DEDDDC"/>
</linearGradient>
<linearGradient id="paint1_linear_801_53588" x1="113.608" y1="62.8704" x2="107.286" y2="69.6338" gradientUnits="userSpaceOnUse">
<stop stop-color="#C1C0C0"/>
<stop offset="1" stop-color="#DEDDDC"/>
</linearGradient>
<linearGradient id="paint2_linear_801_53588" x1="64.8789" y1="79.6696" x2="64.0512" y2="77.6746" gradientUnits="userSpaceOnUse">
<stop stop-color="white"/>
<stop offset="1"/>
</linearGradient>
<linearGradient id="paint3_linear_801_53588" x1="64.8789" y1="79.6696" x2="64.0512" y2="77.6746" gradientUnits="userSpaceOnUse">
<stop stop-color="white"/>
<stop offset="1"/>
</linearGradient>
<linearGradient id="paint4_linear_801_53588" x1="28.6192" y1="95.543" x2="39.3167" y2="96.154" gradientUnits="userSpaceOnUse">
<stop stop-color="white"/>
<stop offset="0.52" stop-color="white"/>
<stop offset="1" stop-color="white"/>
</linearGradient>
<linearGradient id="paint5_linear_801_53588" x1="31.2429" y1="97.9105" x2="31.6363" y2="99.4186" gradientUnits="userSpaceOnUse">
<stop stop-color="#FAFFFF"/>
<stop offset="1" stop-color="#D4D7D9"/>
</linearGradient>
<linearGradient id="paint6_linear_801_53588" x1="34.6531" y1="96.0237" x2="35.4097" y2="98.9285" gradientUnits="userSpaceOnUse">
<stop stop-color="#FAFFFF"/>
<stop offset="1" stop-color="#D4D7D9"/>
</linearGradient>
<linearGradient id="paint7_linear_801_53588" x1="36.4191" y1="95.7353" x2="36.8882" y2="97.547" gradientUnits="userSpaceOnUse">
<stop stop-color="#FAFFFF"/>
<stop offset="1" stop-color="#D4D7D9"/>
</linearGradient>
<linearGradient id="paint8_linear_801_53588" x1="27.8174" y1="97.5615" x2="39.3221" y2="97.5615" gradientUnits="userSpaceOnUse">
<stop stop-color="white"/>
<stop offset="1" stop-color="white"/>
</linearGradient>
<clipPath id="clip0_801_53588">
<rect width="139" height="122" fill="white"/>
</clipPath>
</defs>
</svg>
