<svg width="90" height="75" viewBox="0 0 90 75" fill="none" xmlns="http://www.w3.org/2000/svg">
<g id="Frame 13">
<g id="Group 48204" filter="url(#filter0_d_1001_8689)">
<path id="Vector" d="M44.5666 56.4635L44.2769 56.2936C44.2769 56.2936 44.2296 55.295 43.6192 55.2577C43.0088 55.2204 39.3649 52.1106 39.3649 52.1106C39.3649 52.1106 41.7387 49.235 43.6582 51.429C45.5778 53.6231 45.2366 55.8171 44.5666 56.4635Z" fill="#222527"/>
<path id="Vector_2" d="M81.1724 33.7939C81.1724 33.7939 80.8743 32.9818 80.0296 32.9548C79.185 32.9279 76.209 30.7711 76.209 30.7711C76.209 30.7711 79.7029 28.6786 80.6298 29.6917C81.5567 30.7048 82.1137 32.441 81.1724 33.7939Z" fill="#222527"/>
<path id="Vector_3" d="M80.7594 34.4713C80.7594 32.9009 80.1716 31.8339 79.2385 31.4071L76.0755 29.671C75.3932 29.6192 74.2443 29.9507 73.4037 30.4375C70.8018 31.9541 68.4712 34.4796 67.982 37.6536C67.9532 37.8339 68.0334 39.5182 67.9656 39.8352L67.9943 39.8559L73.1098 42.802C73.9319 43.2164 75.0109 43.1128 76.2091 42.4167C78.7206 40.954 80.7594 37.3967 80.7594 34.4713Z" fill="#2E373A"/>
<path id="Vector_4" d="M80.7592 34.4713C80.7592 37.3967 78.7204 40.954 76.209 42.4167C73.6975 43.8793 71.6587 42.6943 71.6587 39.7689C71.6587 36.8435 73.6954 33.2862 76.209 31.8235C78.7225 30.3608 80.7592 31.548 80.7592 34.4713Z" fill="#555E61"/>
<path id="Vector_5" d="M80.6298 34.6495C80.6298 37.3781 78.7308 40.695 76.3879 42.0583C74.0449 43.4215 72.1459 42.3172 72.1459 39.5887C72.1459 36.8601 74.0449 33.5452 76.3879 32.1799C78.7308 30.8146 80.6298 31.923 80.6298 34.6495Z" fill="#3B4447"/>
<path id="Vector_6" d="M79.3432 35.4182C79.3432 33.5349 78.032 32.7704 76.4124 33.711C74.7929 34.6516 73.4817 36.9472 73.4817 38.8304C73.4817 40.7137 74.795 41.4782 76.4124 40.5355C78.0299 39.5929 79.3432 37.3014 79.3432 35.4182Z" fill="#393B3D"/>
<path id="Vector_7" d="M78.5415 35.8841C78.5415 34.5167 77.5879 33.9615 76.4123 34.6411C75.2367 35.3206 74.2852 36.9884 74.2852 38.3579C74.2852 39.7273 75.2388 40.2805 76.4123 39.6009C77.5859 38.9214 78.5415 37.2453 78.5415 35.8841Z" fill="url(#paint0_linear_1001_8689)"/>
<path id="Vector_8" d="M76.4186 33.6384C74.723 34.6246 73.348 37.0237 73.3501 38.9961C73.3522 40.9684 74.723 41.7682 76.4186 40.782C78.1141 39.7958 79.485 37.3967 79.485 35.4243C79.485 33.452 78.1121 32.6522 76.4186 33.6384ZM76.4186 40.3697C74.9182 41.2419 73.7036 40.5334 73.7036 38.7889C73.7036 37.0445 74.9182 34.9229 76.4186 34.0507C77.9189 33.1785 79.1315 33.885 79.1315 35.6315C79.1315 37.378 77.9168 39.4975 76.4186 40.3697Z" fill="url(#paint1_linear_1001_8689)"/>
<path id="Vector_9" d="M76.4185 33.4044C74.612 34.4548 73.1487 37.0114 73.1487 39.1122C73.1487 41.213 74.612 42.0666 76.4185 41.0162C78.2251 39.9658 79.6864 37.4092 79.6864 35.3063C79.6864 33.2034 78.223 32.354 76.4185 33.4044ZM76.4185 40.7821C74.723 41.7682 73.3501 40.9685 73.3501 38.9962C73.3501 37.0238 74.723 34.6247 76.4185 33.6385C78.1141 32.6523 79.4849 33.452 79.4849 35.4244C79.4849 37.3968 78.1121 39.7959 76.4185 40.7821Z" fill="#D0D2D4"/>
<path id="Vector_10" d="M76.4186 33.2676C74.5463 34.3573 73.0316 36.9968 73.0316 39.1805C73.0316 41.3642 74.5463 42.2405 76.4186 41.1528C78.2909 40.0651 79.8036 37.4236 79.8036 35.2378C79.8036 33.0521 78.2889 32.1778 76.4186 33.2676ZM76.4186 41.0161C74.6121 42.0665 73.1488 41.2233 73.1488 39.1121C73.1488 37.001 74.6121 34.4547 76.4186 33.4043C78.2252 32.3539 79.6864 33.1971 79.6864 35.3062C79.6864 37.4153 78.2231 39.9657 76.4186 41.0161Z" fill="url(#paint2_linear_1001_8689)"/>
<path id="Vector_11" d="M76.4185 33.4044C74.612 34.4548 73.1487 37.0114 73.1487 39.1122C73.1487 41.213 74.612 42.0666 76.4185 41.0162C78.2251 39.9658 79.6864 37.4092 79.6864 35.3063C79.6864 33.2034 78.223 32.354 76.4185 33.4044ZM76.4185 40.7821C74.723 41.7682 73.3501 40.9685 73.3501 38.9962C73.3501 37.0238 74.723 34.6247 76.4185 33.6385C78.1141 32.6523 79.4849 33.452 79.4849 35.4244C79.4849 37.3968 78.1121 39.7959 76.4185 40.7821Z" fill="#D0D2D4"/>
<path id="Vector_12" d="M79.4192 36.2096C78.1861 36.4727 77.9271 36.4769 77.9271 36.3339C77.9271 36.191 78.2929 35.8056 79.4213 34.7304L79.5939 34.461L79.5569 34.3181L79.337 34.4113C78.0689 35.4741 77.7853 35.6544 77.7236 35.5736C77.662 35.4928 77.9045 34.981 78.7019 33.5018L78.78 33.2097L78.6773 33.1496L78.4717 33.3567C77.514 34.9334 77.2777 35.2566 77.1708 35.2462C77.0639 35.2359 77.1194 34.749 77.3763 33.2552L77.3393 33.019L77.1975 33.0563L77.0619 33.3402C76.6693 35.008 76.5439 35.3788 76.4227 35.4493C76.3014 35.5197 76.1493 35.182 75.7897 34.0777L75.6458 33.9596L75.504 34.086L75.4752 34.3595C75.7527 35.671 75.7732 35.9921 75.6664 36.1247C75.5595 36.2573 75.2553 36.1558 74.3736 35.7393L74.1681 35.7704L74.0653 35.9506L74.1475 36.1412C75.0231 36.7462 75.1752 36.9306 75.1217 37.0881C75.0683 37.2455 74.6675 37.4133 73.5104 37.7925L73.2885 37.9665L73.2515 38.153L73.4262 38.2089C74.6593 37.9458 74.9183 37.9416 74.9183 38.0846C74.9183 38.2276 74.5524 38.6129 73.4241 39.6882L73.2515 39.9575L73.2885 40.1005L73.5084 40.0072C74.7764 38.9444 75.0601 38.7641 75.1217 38.8449C75.1834 38.9257 74.9409 39.4375 74.1434 40.9167L74.0653 41.2089L74.1681 41.269L74.3736 41.0514C75.3314 39.4748 75.5677 39.1516 75.6725 39.1619C75.7773 39.1723 75.726 39.6592 75.467 41.1529L75.504 41.3891L75.6458 41.3518L75.7814 41.068C76.174 39.4106 76.2994 39.0293 76.4227 38.9568C76.546 38.8843 76.694 39.2262 77.0536 40.3304L77.1975 40.4485L77.3393 40.3221L77.3681 40.0487C77.0906 38.7352 77.0701 38.4161 77.1749 38.2835C77.2797 38.1509 77.5859 38.2503 78.4697 38.6688L78.6752 38.6378L78.778 38.4575L78.6958 38.2669C77.8202 37.6599 77.6681 37.4776 77.7216 37.3201C77.775 37.1626 78.1758 36.9948 79.3329 36.6157L79.5548 36.4417L79.5918 36.2552L79.4192 36.2096ZM75.7424 38.5756C75.6643 38.6212 75.5985 38.5756 75.5985 38.4907C75.6018 38.4406 75.6165 38.3919 75.6415 38.3484C75.6664 38.3049 75.7009 38.2678 75.7424 38.24C75.8226 38.1944 75.8863 38.24 75.8863 38.3249C75.8836 38.3752 75.8692 38.4241 75.8442 38.4677C75.8192 38.5112 75.7843 38.5482 75.7424 38.5756ZM75.7424 37.0052C75.6643 37.0528 75.5985 37.0052 75.5985 36.9223C75.6015 36.8719 75.6161 36.8228 75.641 36.7789C75.666 36.7351 75.7007 36.6976 75.7424 36.6696C75.8226 36.624 75.8863 36.6696 75.8863 36.7545C75.8839 36.8048 75.8696 36.8539 75.8446 36.8975C75.8196 36.9411 75.7845 36.9781 75.7424 37.0052ZM77.0988 37.7863C77.0187 37.8339 76.955 37.7863 76.955 37.7034C76.9577 37.6528 76.9721 37.6036 76.9971 37.5597C77.022 37.5158 77.0569 37.4785 77.0988 37.4506C77.179 37.405 77.2427 37.4506 77.2427 37.5356C77.2408 37.5855 77.2272 37.6343 77.2029 37.6779C77.1786 37.7215 77.1443 37.7587 77.103 37.7863H77.0988ZM77.0988 36.2179C77.0187 36.2635 76.955 36.2179 76.955 36.133C76.9573 36.0826 76.9716 36.0336 76.9966 35.99C77.0217 35.9463 77.0567 35.9094 77.0988 35.8823C77.179 35.8346 77.2427 35.8823 77.2427 35.9652C77.2393 36.0139 77.2249 36.0612 77.2007 36.1036C77.1765 36.1459 77.1431 36.1822 77.103 36.2096L77.0988 36.2179Z" fill="url(#paint3_linear_1001_8689)"/>
<path id="Vector_13" d="M77.9272 36.3317C77.9344 36.2805 77.9558 36.2324 77.9888 36.1929C77.9845 35.9759 77.9296 35.763 77.8285 35.5713C77.771 35.5962 77.7401 35.5921 77.7237 35.5713C77.7073 35.5506 77.7134 35.5092 77.734 35.4388C77.6201 35.3015 77.4624 35.2085 77.288 35.1756C77.2346 35.2336 77.1996 35.2523 77.1708 35.2502C77.1421 35.2481 77.1338 35.2212 77.1256 35.1611C76.9103 35.1651 76.699 35.2204 76.5091 35.3227C76.4901 35.3748 76.4565 35.4201 76.4125 35.4533C76.3837 35.4698 76.3549 35.4533 76.322 35.4325C76.0919 35.5829 75.8843 35.7657 75.7055 35.9753C75.7026 36.0309 75.6833 36.0843 75.65 36.1287C75.6367 36.1442 75.6203 36.1567 75.6019 36.1652C75.5835 36.1738 75.5634 36.1783 75.5431 36.1784C75.3637 36.4204 75.2127 36.6825 75.093 36.9595C75.1021 36.9804 75.1067 37.0029 75.1067 37.0258C75.1067 37.0486 75.1021 37.0711 75.093 37.0921C75.0704 37.1375 75.0355 37.1756 74.9923 37.2019C74.9011 37.4623 74.8458 37.7342 74.8279 38.0099C74.8458 38.0133 74.8619 38.0232 74.8733 38.0376C74.8846 38.0521 74.8904 38.0702 74.8895 38.0886C74.8823 38.1398 74.8609 38.1879 74.8279 38.2274C74.8315 38.4445 74.8865 38.6576 74.9882 38.8489C75.0457 38.8261 75.0766 38.8303 75.093 38.8489C75.1094 38.8676 75.1033 38.909 75.0827 38.9815C75.1968 39.1181 75.3545 39.2104 75.5287 39.2426C75.5821 39.1866 75.6171 39.168 75.6438 39.1701C75.6705 39.1721 75.6829 39.1991 75.689 39.2591C75.9046 39.255 76.116 39.1989 76.3056 39.0955C76.3263 39.0433 76.3612 38.998 76.4063 38.965C76.433 38.9505 76.4597 38.965 76.4926 38.9877C76.7231 38.8379 76.9308 38.655 77.1092 38.4449C77.112 38.3897 77.1306 38.3365 77.1626 38.2916C77.1765 38.2763 77.1933 38.2641 77.212 38.2555C77.2308 38.247 77.251 38.2423 77.2715 38.2419C77.451 38.0003 77.6014 37.7381 77.7196 37.4608C77.7022 37.4184 77.7022 37.3707 77.7196 37.3282C77.742 37.2821 77.7769 37.2433 77.8203 37.2164C77.9117 36.9566 77.967 36.6854 77.9847 36.4104C77.9675 36.4061 77.9524 36.3959 77.9419 36.3815C77.9314 36.3671 77.9262 36.3495 77.9272 36.3317ZM75.7425 38.5755C75.6644 38.621 75.5986 38.5755 75.5986 38.4905C75.6019 38.4404 75.6166 38.3917 75.6415 38.3483C75.6665 38.3048 75.701 38.2677 75.7425 38.2398C75.8226 38.1942 75.8863 38.2398 75.8863 38.3248C75.8837 38.375 75.8692 38.4239 75.8442 38.4675C75.8192 38.5111 75.7844 38.5481 75.7425 38.5755ZM75.7425 37.005C75.6644 37.0527 75.5986 37.005 75.5986 36.9222C75.6016 36.8717 75.6161 36.8226 75.6411 36.7788C75.666 36.7349 75.7007 36.6975 75.7425 36.6694C75.8226 36.6238 75.8863 36.6694 75.8863 36.7543C75.884 36.8047 75.8697 36.8537 75.8447 36.8974C75.8196 36.941 75.7846 36.9779 75.7425 37.005ZM77.0989 37.7861C77.0188 37.8338 76.955 37.7861 76.955 37.7032C76.9577 37.6527 76.9721 37.6035 76.9971 37.5596C77.0221 37.5157 77.057 37.4783 77.0989 37.4505C77.1791 37.4049 77.2428 37.4505 77.2428 37.5354C77.2409 37.5854 77.2272 37.6342 77.2029 37.6778C77.1786 37.7214 77.1444 37.7585 77.103 37.7861H77.0989ZM77.0989 36.2177C77.0188 36.2633 76.955 36.2178 76.955 36.1328C76.9574 36.0825 76.9717 36.0334 76.9967 35.9898C77.0217 35.9462 77.0568 35.9092 77.0989 35.8821C77.1791 35.8345 77.2428 35.8821 77.2428 35.965C77.2393 36.0137 77.225 36.0611 77.2008 36.1034C77.1766 36.1458 77.1431 36.182 77.103 36.2095L77.0989 36.2177Z" fill="url(#paint4_linear_1001_8689)"/>
<path id="Vector_14" d="M77.1812 40.0982C77.2284 40.0547 77.1914 39.8061 77.0969 39.4539C77.0024 39.1016 76.8914 38.909 76.8688 38.9255C76.8587 39.1472 76.8879 39.3689 76.9551 39.5802C77.0537 39.9387 77.138 40.1458 77.1812 40.0982Z" fill="url(#paint5_linear_1001_8689)"/>
<path id="Vector_15" d="M78.515 38.4305C78.5499 38.3683 78.3999 38.2419 78.145 38.0948C78.0054 37.992 77.8371 37.9362 77.6641 37.9353C77.6497 37.9581 77.7854 38.1259 78.0402 38.2751C78.2951 38.4242 78.48 38.4885 78.515 38.4305Z" fill="url(#paint6_linear_1001_8689)"/>
<path id="Vector_16" d="M79.2815 36.4353C79.2939 36.3732 79.076 36.4042 78.7246 36.4995C78.509 36.5452 78.3036 36.6302 78.1183 36.7502C78.1183 36.7751 78.3382 36.7792 78.6876 36.686C79.037 36.5928 79.2692 36.4995 79.2815 36.4353Z" fill="url(#paint7_linear_1001_8689)"/>
<path id="Vector_17" d="M79.2815 34.6493C79.2692 34.5996 79.037 34.7798 78.6876 35.0927C78.4756 35.2687 78.2846 35.469 78.1183 35.6894C78.3419 35.5697 78.5463 35.4168 78.7246 35.2356C79.074 34.9228 79.2939 34.697 79.2815 34.6493Z" fill="url(#paint8_linear_1001_8689)"/>
<path id="Vector_18" d="M78.5149 33.5493C78.48 33.5286 78.2971 33.8083 78.0402 34.2558C77.8864 34.5005 77.7602 34.7618 77.6641 35.0348C77.8492 34.813 78.0104 34.572 78.145 34.3159C78.3998 33.8684 78.5499 33.5679 78.5149 33.5493Z" fill="url(#paint9_linear_1001_8689)"/>
<path id="Vector_19" d="M77.1811 33.4291C77.1338 33.4415 77.0496 33.7482 76.955 34.2081C76.8899 34.4546 76.8608 34.7093 76.8687 34.9643C76.9763 34.7101 77.0529 34.4436 77.0968 34.1708C77.1955 33.7088 77.2325 33.4167 77.1811 33.4291Z" fill="url(#paint10_linear_1001_8689)"/>
<path id="Vector_20" d="M75.65 34.3222C75.6006 34.3657 75.6397 34.6143 75.7342 34.9665C75.8288 35.3188 75.9398 35.5114 75.9624 35.4949C75.9725 35.2732 75.9432 35.0515 75.876 34.8402C75.7815 34.488 75.6972 34.2787 75.65 34.3222Z" fill="url(#paint11_linear_1001_8689)"/>
<path id="Vector_21" d="M74.3202 35.99C74.2853 36.05 74.4353 36.1764 74.6901 36.3256C74.831 36.4276 74.9997 36.4833 75.1731 36.4851C75.1855 36.4623 75.0498 36.2945 74.795 36.1453C74.5401 35.9962 74.3551 35.9278 74.3202 35.99Z" fill="url(#paint12_linear_1001_8689)"/>
<path id="Vector_22" d="M73.5536 37.9831C73.5393 38.0473 73.7592 38.0162 74.1106 37.9209C74.3258 37.8742 74.5311 37.7893 74.7169 37.6702C74.7169 37.6454 74.497 37.6412 74.1476 37.7345C73.7982 37.8277 73.566 37.9209 73.5536 37.9831Z" fill="url(#paint13_linear_1001_8689)"/>
<path id="Vector_23" d="M73.5536 39.7709C73.566 39.8185 73.7982 39.6383 74.1476 39.3275C74.3596 39.1514 74.5506 38.9512 74.7169 38.7308C74.4933 38.8504 74.2889 39.0034 74.1106 39.1846C73.7612 39.4974 73.5393 39.7315 73.5536 39.7709Z" fill="url(#paint14_linear_1001_8689)"/>
<path id="Vector_24" d="M74.3202 40.8712C74.3551 40.8919 74.5381 40.6122 74.795 40.1647C74.9485 39.9188 75.0753 39.657 75.1731 39.3837C74.9864 39.6054 74.8245 39.8472 74.6901 40.1046C74.4353 40.5604 74.2853 40.8505 74.3202 40.8712Z" fill="url(#paint15_linear_1001_8689)"/>
<path id="Vector_25" d="M75.65 40.9915C75.6972 40.9791 75.7815 40.6724 75.876 40.2104C75.9411 39.9646 75.9702 39.7106 75.9624 39.4563C75.8572 39.7108 75.7834 39.9773 75.7424 40.2498C75.6397 40.7097 75.6027 41.0039 75.65 40.9915Z" fill="url(#paint16_linear_1001_8689)"/>
<path id="Vector_26" d="M76.4187 38.6378C76.2872 38.7145 76.1063 39.3567 75.6418 41.3602L75.7775 41.0763C76.17 39.4189 76.2954 39.0377 76.4187 38.9652C76.542 38.8926 76.69 39.2345 77.0497 40.3388L77.1935 40.4568C76.727 38.9962 76.5482 38.5611 76.4187 38.6378Z" fill="url(#paint17_linear_1001_8689)"/>
<path id="Vector_27" d="M75.8041 38.8036C75.6911 38.8036 75.3047 39.3796 74.1599 41.2773L74.3654 41.0598C75.3232 39.4831 75.5595 39.1599 75.6643 39.1703C75.7692 39.1806 75.7178 39.6675 75.4588 41.1613L75.4958 41.3975C75.8411 39.4293 75.9171 38.8139 75.8041 38.8036Z" fill="url(#paint18_linear_1001_8689)"/>
<path id="Vector_28" d="M77.0309 35.6172C77.144 35.6276 77.5304 35.0392 78.6751 33.1435L78.4696 33.3506C77.5119 34.9273 77.2755 35.2505 77.1686 35.2401C77.0618 35.2298 77.1173 34.7429 77.3742 33.2491L77.3372 33.0129C76.994 34.9915 76.9179 35.6068 77.0309 35.6172Z" fill="url(#paint19_linear_1001_8689)"/>
<path id="Vector_29" d="M75.8043 36.3299C75.9173 36.1891 75.8412 35.6608 75.5001 34.0903L75.4713 34.3638C75.7488 35.6753 75.7693 35.9964 75.6624 36.129C75.5556 36.2616 75.2514 36.1601 74.3697 35.7436L74.1642 35.7747C75.3048 36.3362 75.6912 36.4729 75.8043 36.3299Z" fill="url(#paint20_linear_1001_8689)"/>
<path id="Vector_30" d="M76.4187 35.7829C76.5482 35.7062 76.727 35.0619 77.1935 33.0605L77.0579 33.3444C76.6653 35.0122 76.54 35.383 76.4187 35.4535C76.2975 35.5239 76.1454 35.1862 75.7857 34.0819L75.6418 33.9638C76.1063 35.4245 76.2872 35.8575 76.4187 35.7829Z" fill="url(#paint21_linear_1001_8689)"/>
<path id="Vector_31" d="M77.4792 35.8783C77.545 35.9715 78.0362 35.5986 79.5571 34.3162L79.3372 34.4094C78.0691 35.4722 77.7855 35.6525 77.7238 35.5717C77.6622 35.4909 77.9047 34.9791 78.7021 33.4999L78.7802 33.2078C77.7259 35.1532 77.4155 35.7954 77.4792 35.8783Z" fill="url(#paint22_linear_1001_8689)"/>
<path id="Vector_32" d="M75.356 37.1149C75.4197 36.945 75.1094 36.6757 74.0551 35.9547L74.1373 36.1453C75.0128 36.7503 75.1649 36.9347 75.1115 37.0921C75.058 37.2496 74.6573 37.4174 73.5002 37.7965L73.2782 37.9706C74.7991 37.4816 75.2903 37.2848 75.356 37.1149Z" fill="url(#paint23_linear_1001_8689)"/>
<path id="Vector_33" d="M77.6436 36.4954C77.6436 36.6488 78.106 36.5887 79.594 36.2634L79.4193 36.2075C78.1861 36.4706 77.9272 36.4747 77.9272 36.3318C77.9272 36.1888 78.293 35.8035 79.4213 34.7282L79.594 34.4589C78.106 35.8656 77.6436 36.3442 77.6436 36.4954Z" fill="url(#paint24_linear_1001_8689)"/>
<path id="Vector_34" d="M75.1916 37.923C75.1916 37.7717 74.7271 37.8318 73.2412 38.1571L73.4159 38.213C74.649 37.9499 74.908 37.9458 74.908 38.0887C74.908 38.2317 74.5422 38.617 73.4139 39.6923L73.2412 39.9616C74.7271 38.5549 75.1916 38.0742 75.1916 37.923Z" fill="url(#paint25_linear_1001_8689)"/>
<path id="Vector_35" d="M77.4792 37.3057C77.4155 37.4756 77.7259 37.745 78.7802 38.4659L78.698 38.2753C77.8225 37.6683 77.6704 37.486 77.7238 37.3285C77.7772 37.1711 78.178 37.0032 79.3351 36.6241L79.5571 36.4501C78.0362 36.939 77.545 37.1358 77.4792 37.3057Z" fill="url(#paint26_linear_1001_8689)"/>
<path id="Vector_36" d="M75.356 38.5425C75.2903 38.4493 74.7991 38.8222 73.2782 40.1046L73.4981 40.0114C74.7662 38.9486 75.0498 38.7683 75.1115 38.8491C75.1731 38.9299 74.9306 39.4417 74.1332 40.9209L74.0551 41.2131C75.1094 39.2676 75.4197 38.6357 75.356 38.5425Z" fill="url(#paint27_linear_1001_8689)"/>
<path id="Vector_37" d="M77.031 38.0887C76.918 38.2316 76.994 38.7579 77.3352 40.3304L77.3639 40.0569C77.0865 38.7434 77.0659 38.4243 77.1708 38.2917C77.2756 38.1591 77.5818 38.2585 78.4655 38.677L78.6711 38.646C77.5304 38.0845 77.144 37.9478 77.031 38.0887Z" fill="url(#paint28_linear_1001_8689)"/>
<path id="Vector_38" d="M75.8719 37.5274C75.8719 37.8775 76.1165 38.0205 76.4186 37.8444C76.577 37.74 76.7089 37.5996 76.8035 37.4344C76.8981 37.2692 76.9528 37.0839 76.9633 36.8934C76.9633 36.5433 76.7187 36.4003 76.4186 36.5764C76.2595 36.6802 76.127 36.8204 76.032 36.9857C75.937 37.151 75.8821 37.3366 75.8719 37.5274Z" fill="url(#paint29_linear_1001_8689)"/>
<path id="Vector_39" d="M75.9808 37.463C75.9808 37.7447 76.1761 37.8566 76.4186 37.7178C76.5451 37.6343 76.6502 37.522 76.7256 37.3899C76.8009 37.2578 76.8443 37.1096 76.8522 36.9574C76.8522 36.6757 76.6591 36.5617 76.4186 36.7026C76.2914 36.7856 76.1854 36.8978 76.1093 37.0299C76.0332 37.162 75.9892 37.3104 75.9808 37.463Z" fill="#D0D2D4"/>
<path id="Vector_40" d="M77.1031 37.2724C77.0164 37.3294 76.9443 37.4062 76.8925 37.4966C76.8407 37.5869 76.8108 37.6883 76.8051 37.7924C76.8051 37.983 76.9386 38.0618 77.1031 37.9665C77.1897 37.9094 77.2618 37.8326 77.3136 37.7423C77.3654 37.652 77.3953 37.5506 77.4011 37.4464C77.4011 37.2455 77.2675 37.1771 77.1031 37.2724ZM77.1031 37.7862C77.0229 37.8339 76.9592 37.7862 76.9592 37.7033C76.9619 37.6528 76.9763 37.6036 77.0013 37.5597C77.0263 37.5158 77.0611 37.4784 77.1031 37.4506C77.1832 37.405 77.2469 37.4506 77.2469 37.5355C77.2446 37.5859 77.2303 37.6349 77.2053 37.6785C77.1802 37.7222 77.1452 37.7591 77.1031 37.7862Z" fill="url(#paint30_linear_1001_8689)"/>
<path id="Vector_41" d="M77.1031 37.32C77.0283 37.3693 76.966 37.4357 76.9214 37.5139C76.8767 37.592 76.851 37.6796 76.8462 37.7696C76.8462 37.9353 76.9613 38.0016 77.1031 37.9188C77.1779 37.8694 77.2402 37.803 77.2848 37.7249C77.3295 37.6468 77.3552 37.5592 77.36 37.4692C77.36 37.3034 77.2449 37.2454 77.1031 37.32ZM77.1031 37.7862C77.0229 37.8338 76.9592 37.7862 76.9592 37.7033C76.9619 37.6528 76.9763 37.6035 77.0013 37.5596C77.0263 37.5157 77.0612 37.4784 77.1031 37.4505C77.1832 37.4049 77.247 37.4505 77.247 37.5355C77.2446 37.5858 77.2303 37.6349 77.2053 37.6785C77.1803 37.7221 77.1452 37.759 77.1031 37.7862Z" fill="#9EA0A2"/>
<path id="Vector_42" d="M75.7423 38.0618C75.6555 38.1185 75.5832 38.1953 75.5314 38.2857C75.4796 38.3761 75.4497 38.4775 75.4443 38.5818C75.4443 38.7724 75.5779 38.8511 75.7423 38.7558C75.829 38.6983 75.9012 38.6211 75.9529 38.5305C76.0047 38.4398 76.0346 38.3382 76.0404 38.2337C76.0445 38.0431 75.9109 37.9644 75.7423 38.0618ZM75.7423 38.5756C75.6642 38.6211 75.5985 38.5756 75.5985 38.4906C75.6018 38.4405 75.6165 38.3918 75.6414 38.3484C75.6664 38.3049 75.7009 38.2678 75.7423 38.2399C75.8225 38.1943 75.8862 38.2399 75.8862 38.3249C75.8836 38.3751 75.8691 38.424 75.8441 38.4676C75.8191 38.5112 75.7842 38.5482 75.7423 38.5756Z" fill="url(#paint31_linear_1001_8689)"/>
<path id="Vector_43" d="M75.7424 38.1094C75.6676 38.1583 75.6053 38.2243 75.5607 38.3021C75.516 38.3799 75.4903 38.4672 75.4855 38.5569C75.4855 38.7227 75.6006 38.791 75.7424 38.7082C75.8172 38.6588 75.8795 38.5924 75.9241 38.5143C75.9687 38.4362 75.9945 38.3486 75.9993 38.2586C76.0034 38.0928 75.8883 38.0265 75.7424 38.1094ZM75.7424 38.5756C75.6643 38.6211 75.5985 38.5756 75.5985 38.4906C75.6018 38.4405 75.6165 38.3918 75.6414 38.3484C75.6664 38.3049 75.7009 38.2678 75.7424 38.2399C75.8225 38.1944 75.8862 38.2399 75.8862 38.3249C75.8836 38.3751 75.8692 38.4241 75.8442 38.4676C75.8191 38.5112 75.7843 38.5482 75.7424 38.5756Z" fill="#9EA0A2"/>
<path id="Vector_44" d="M75.7423 36.4915C75.6557 36.5485 75.5836 36.6253 75.5318 36.7156C75.48 36.806 75.4501 36.9073 75.4443 37.0115C75.4443 37.2021 75.5779 37.2808 75.7423 37.1855C75.829 37.1285 75.9011 37.0517 75.9529 36.9613C76.0047 36.871 76.0346 36.7697 76.0404 36.6655C76.0445 36.4728 75.9109 36.3962 75.7423 36.4915ZM75.7423 37.0053C75.6642 37.0529 75.5985 37.0053 75.5985 36.9224C75.6015 36.8719 75.616 36.8228 75.641 36.779C75.6659 36.7351 75.7006 36.6977 75.7423 36.6696C75.8225 36.624 75.8862 36.6696 75.8862 36.7546C75.8839 36.8049 75.8696 36.854 75.8446 36.8976C75.8195 36.9412 75.7845 36.9781 75.7423 37.0053Z" fill="url(#paint32_linear_1001_8689)"/>
<path id="Vector_45" d="M75.7424 36.539C75.6675 36.5883 75.6053 36.6547 75.5607 36.7328C75.516 36.8109 75.4903 36.8985 75.4855 36.9886C75.4855 37.1543 75.6006 37.2206 75.7424 37.1377C75.8172 37.0884 75.8795 37.022 75.9241 36.9439C75.9687 36.8658 75.9945 36.7781 75.9993 36.6881C76.0034 36.5224 75.8883 36.4561 75.7424 36.539ZM75.7424 37.0051C75.6643 37.0528 75.5985 37.0051 75.5985 36.9223C75.6015 36.8718 75.616 36.8227 75.641 36.7788C75.666 36.735 75.7007 36.6976 75.7424 36.6695C75.8225 36.6239 75.8862 36.6695 75.8862 36.7544C75.8839 36.8048 75.8696 36.8538 75.8446 36.8974C75.8196 36.9411 75.7845 36.978 75.7424 37.0051Z" fill="#9EA0A2"/>
<path id="Vector_46" d="M77.1031 35.7019C77.0164 35.7589 76.9443 35.8357 76.8925 35.9261C76.8407 36.0164 76.8108 36.1178 76.8051 36.2219C76.8051 36.4146 76.9386 36.4913 77.1031 36.396C77.1897 36.3389 77.2618 36.2621 77.3136 36.1718C77.3654 36.0815 77.3953 35.9801 77.4011 35.8759C77.4011 35.6833 77.2675 35.6066 77.1031 35.7019ZM77.1031 36.2178C77.0229 36.2634 76.9592 36.2178 76.9592 36.1328C76.9615 36.0825 76.9758 36.0335 77.0008 35.9898C77.0259 35.9462 77.0609 35.9093 77.1031 35.8821C77.1832 35.8345 77.2469 35.8822 77.2469 35.965C77.243 36.0141 77.228 36.0617 77.2031 36.1041C77.1782 36.1464 77.1439 36.1825 77.1031 36.2095V36.2178Z" fill="url(#paint33_linear_1001_8689)"/>
<path id="Vector_47" d="M77.1031 35.7495C77.0283 35.7989 76.966 35.8653 76.9214 35.9434C76.8767 36.0215 76.851 36.1091 76.8462 36.1991C76.8462 36.3649 76.9613 36.4312 77.1031 36.3483C77.1779 36.2989 77.2402 36.2325 77.2848 36.1544C77.3295 36.0763 77.3552 35.9887 77.36 35.8987C77.36 35.735 77.2449 35.6667 77.1031 35.7495ZM77.1031 36.2178C77.0229 36.2633 76.9592 36.2178 76.9592 36.1328C76.9616 36.0825 76.9758 36.0334 77.0009 35.9898C77.0259 35.9462 77.061 35.9093 77.1031 35.8821C77.1832 35.8345 77.247 35.8821 77.247 35.965C77.2431 36.0141 77.2281 36.0617 77.2031 36.104C77.1782 36.1464 77.144 36.1825 77.1031 36.2095V36.2178Z" fill="#9EA0A2"/>
<path id="Vector_48" d="M75.9726 36.7069C75.9682 36.7858 75.9454 36.8625 75.9061 36.9309C75.8669 36.9993 75.8122 37.0574 75.7465 37.1005C75.6232 37.171 75.5225 37.113 75.5225 36.97C75.5266 36.8913 75.5491 36.8147 75.588 36.7463C75.6269 36.6779 75.6812 36.6197 75.7465 36.5764C75.8718 36.5039 75.9726 36.5619 75.9726 36.7069Z" fill="#5B686C"/>
<path id="Vector_49" d="M75.948 36.7214C75.9437 36.792 75.9227 36.8605 75.887 36.9214C75.8513 36.9822 75.8018 37.0337 75.7425 37.0715C75.6315 37.1358 75.537 37.084 75.537 36.9555C75.5412 36.8846 75.562 36.8157 75.5978 36.7545C75.6335 36.6933 75.6831 36.6415 75.7425 36.6033C75.8576 36.5391 75.948 36.5929 75.948 36.7214Z" fill="url(#paint34_linear_1001_8689)"/>
<path id="Vector_50" d="M75.9726 38.2813C75.9682 38.3602 75.9454 38.4369 75.9061 38.5053C75.8669 38.5737 75.8122 38.6318 75.7465 38.6749C75.6232 38.7454 75.5225 38.6874 75.5225 38.5444C75.5266 38.4657 75.5491 38.3891 75.588 38.3207C75.6269 38.2523 75.6812 38.1941 75.7465 38.1507C75.8718 38.0741 75.9726 38.1321 75.9726 38.2813Z" fill="#5B686C"/>
<path id="Vector_51" d="M75.948 38.2917C75.9437 38.3623 75.9227 38.4308 75.887 38.4917C75.8513 38.5526 75.8018 38.604 75.7425 38.6419C75.6315 38.7061 75.537 38.6543 75.537 38.5258C75.5412 38.4549 75.562 38.3861 75.5978 38.3248C75.6335 38.2636 75.6831 38.2118 75.7425 38.1736C75.8576 38.1094 75.948 38.1633 75.948 38.2917Z" fill="url(#paint35_linear_1001_8689)"/>
<path id="Vector_52" d="M77.3271 37.4877C77.3231 37.5665 77.3007 37.6432 77.2618 37.7116C77.2228 37.78 77.1685 37.8382 77.103 37.8814C76.9797 37.9518 76.879 37.8938 76.879 37.7509C76.8832 37.6721 76.9056 37.5955 76.9445 37.5272C76.9835 37.4588 77.0377 37.4006 77.103 37.3572C77.2284 37.2868 77.3271 37.3427 77.3271 37.4877Z" fill="#5B686C"/>
<path id="Vector_53" d="M77.3046 37.5026C77.3002 37.5732 77.2793 37.6417 77.2436 37.7026C77.2079 37.7634 77.1583 37.8149 77.0991 37.8527C76.9881 37.917 76.8936 37.8652 76.8936 37.7367C76.8978 37.6658 76.9186 37.5969 76.9543 37.5357C76.99 37.4745 77.0397 37.4227 77.0991 37.3845C77.2142 37.3224 77.3046 37.3742 77.3046 37.5026Z" fill="url(#paint36_linear_1001_8689)"/>
<path id="Vector_54" d="M77.3271 35.9177C77.3232 35.9965 77.3009 36.0732 77.262 36.1416C77.223 36.21 77.1686 36.2682 77.103 36.3113C76.9797 36.3838 76.879 36.3237 76.879 36.1808C76.8832 36.1021 76.9056 36.0254 76.9445 35.9571C76.9835 35.8887 77.0377 35.8305 77.103 35.7871C77.2284 35.7167 77.3271 35.7747 77.3271 35.9177Z" fill="#5B686C"/>
<path id="Vector_55" d="M77.3046 35.9319C77.3002 36.0025 77.2793 36.071 77.2436 36.1318C77.2079 36.1927 77.1583 36.2442 77.0991 36.282C76.9881 36.3483 76.8936 36.2944 76.8936 36.166C76.8978 36.0954 76.9186 36.0268 76.9543 35.9659C76.9901 35.905 77.0397 35.8536 77.0991 35.8159C77.2142 35.7516 77.3046 35.7951 77.3046 35.9319Z" fill="url(#paint37_linear_1001_8689)"/>
<path id="Vector_56" d="M43.8556 56.1237C43.8556 54.5532 43.2698 53.4842 42.3368 53.0574L39.1738 51.3212C38.4894 51.2715 37.3405 51.6009 36.502 52.0878C33.898 53.6044 31.5694 56.1299 31.0782 59.306C31.0515 59.4841 31.1317 61.1706 31.0638 61.4855C31.0726 61.4936 31.0822 61.5005 31.0926 61.5062L36.2081 64.4523C37.0302 64.8667 38.1092 64.7651 39.3074 64.067C41.8188 62.6063 43.8556 59.0491 43.8556 56.1237Z" fill="#2E373A"/>
<path id="Vector_57" d="M43.8557 56.1237C43.8557 59.0491 41.819 62.6064 39.3075 64.067C36.796 65.5276 34.7572 64.3446 34.7572 61.4192C34.7572 58.4939 36.7939 54.9366 39.3054 53.4739C41.8169 52.0112 43.8557 53.1983 43.8557 56.1237Z" fill="#555E61"/>
<path id="Vector_58" d="M43.7281 56.3063C43.7281 59.0349 41.8291 62.3498 39.4861 63.7151C37.1431 65.0804 35.2421 63.972 35.2421 61.2434C35.2421 58.5148 37.1431 55.2 39.4861 53.8367C41.8291 52.4735 43.7281 53.5757 43.7281 56.3063Z" fill="#3B4447"/>
<path id="Vector_59" d="M42.4478 57.0706C42.4478 55.1852 41.1366 54.4208 39.5171 55.3634C37.8975 56.3061 36.5863 58.5975 36.5863 60.4808C36.5863 62.364 37.8996 63.1306 39.5171 62.1879C41.1345 61.2453 42.4478 58.9538 42.4478 57.0706Z" fill="#393B3D"/>
<path id="Vector_60" d="M41.64 57.5368C41.64 56.1694 40.6864 55.6142 39.5108 56.2938C38.3352 56.9733 37.3837 58.6411 37.3837 60.0106C37.3837 61.38 38.3352 61.9332 39.5108 61.2537C40.6864 60.5741 41.64 58.9042 41.64 57.5368Z" fill="url(#paint38_linear_1001_8689)"/>
<path id="Vector_61" d="M39.515 55.2889C37.8194 56.2751 36.4465 58.6742 36.4465 60.6465C36.4465 62.6189 37.8215 63.4186 39.515 62.4324C41.2085 61.4463 42.5834 59.0492 42.5834 57.0748C42.5834 55.1003 41.2147 54.3048 39.515 55.2889ZM39.515 62.0202C38.0167 62.8924 36.8021 62.1859 36.8021 60.4414C36.8021 58.697 38.0167 56.5755 39.515 55.7032C41.0132 54.831 42.2299 55.5375 42.2299 57.2819C42.2299 59.0264 41.0091 61.1479 39.515 62.0202Z" fill="url(#paint39_linear_1001_8689)"/>
<path id="Vector_62" d="M39.515 55.063C37.7105 56.1155 36.2451 58.67 36.2451 60.7729C36.2451 62.8758 37.7105 63.7273 39.515 62.6748C41.3195 61.6223 42.7848 59.0678 42.7848 56.967C42.7848 54.8662 41.3215 54.0043 39.515 55.063ZM39.515 62.4407C37.8215 63.4269 36.4465 62.6271 36.4465 60.6548C36.4465 58.6824 37.8194 56.2833 39.515 55.2971C41.2105 54.3109 42.5834 55.1106 42.5834 57.083C42.5834 59.0554 41.2147 61.4462 39.515 62.4324V62.4407Z" fill="#D0D2D4"/>
<path id="Vector_63" d="M39.5149 54.9178C37.6447 56.0076 36.1279 58.6471 36.1279 60.8328C36.1279 63.0186 37.6447 63.8929 39.5149 62.8031C41.3852 61.7133 42.902 59.0739 42.902 56.8902C42.902 54.7065 41.3852 53.8301 39.5149 54.9178ZM39.5149 62.6664C37.7105 63.7188 36.2451 62.8736 36.2451 60.7645C36.2451 58.6554 37.7207 56.0988 39.5149 55.0629C41.3092 54.027 42.7848 54.8557 42.7848 56.9668C42.7848 59.078 41.3215 61.616 39.5149 62.6664Z" fill="url(#paint40_linear_1001_8689)"/>
<path id="Vector_64" d="M39.515 55.063C37.7105 56.1155 36.2451 58.67 36.2451 60.7729C36.2451 62.8758 37.7105 63.7273 39.515 62.6748C41.3195 61.6223 42.7848 59.0678 42.7848 56.967C42.7848 54.8662 41.3215 54.0043 39.515 55.063ZM39.515 62.4407C37.8215 63.4269 36.4465 62.6271 36.4465 60.6548C36.4465 58.6824 37.8194 56.2833 39.515 55.2971C41.2105 54.3109 42.5834 55.1106 42.5834 57.083C42.5834 59.0554 41.2147 61.4462 39.515 62.4324V62.4407Z" fill="#D0D2D4"/>
<path id="Vector_65" d="M42.5177 57.86C41.2846 58.1231 41.0235 58.1252 41.0235 57.9843C41.0235 57.8434 41.3894 57.4539 42.5177 56.3787L42.6924 56.1093L42.6533 55.9685L42.4355 56.0596C41.1674 57.1225 40.8817 57.3027 40.8221 57.224C40.7625 57.1453 41.003 56.6314 41.8004 55.1522L41.8785 54.86L41.7758 54.8L41.5702 55.0071C40.6125 56.5838 40.3761 56.907 40.2693 56.8966C40.1624 56.8863 40.2179 56.3994 40.4748 54.9077L40.4357 54.6694L40.2939 54.7088L40.1583 54.9906C39.7678 56.6584 39.6424 57.0313 39.5191 57.1017C39.3958 57.1722 39.2478 56.8324 38.8882 55.7302L38.7443 55.61L38.6025 55.7385L38.5737 56.0099C38.8512 57.3234 38.8717 57.6425 38.7648 57.7751C38.658 57.9077 38.3538 57.8082 37.4721 57.3897L37.2666 57.4208L37.1618 57.6031L37.246 57.7917C38.1216 58.3987 38.2736 58.581 38.2202 58.7405C38.1668 58.9001 37.766 59.0637 36.6089 59.4429L36.3869 59.6169L36.3479 59.8034L36.5246 59.8593C37.7578 59.5962 38.0167 59.592 38.0167 59.735C38.0167 59.878 37.6509 60.2654 36.5226 61.3406L36.3479 61.6079L36.3869 61.7509L36.6069 61.6576C37.8729 60.5969 38.1586 60.4145 38.2202 60.4953C38.2819 60.5761 38.0373 61.0879 37.2399 62.5671L37.1618 62.8593L37.2666 62.9194L37.4721 62.7122C38.4319 61.1376 38.6682 60.8144 38.7731 60.8227C38.8779 60.831 38.8244 61.3199 38.5675 62.8137L38.6045 63.0499L38.7463 63.0126L38.882 62.7308C39.2745 61.0609 39.3999 60.6901 39.5212 60.6196C39.6424 60.5492 39.7925 60.889 40.1521 61.9912L40.296 62.1093L40.4378 61.9829L40.4686 61.7115C40.1891 60.398 40.1706 60.0768 40.2754 59.9443C40.3803 59.8117 40.6865 59.9132 41.5702 60.3317L41.7758 60.2985L41.8785 60.1183L41.7943 59.9277C40.9208 59.3227 40.7666 59.1404 40.8221 58.9809C40.8776 58.8213 41.2743 58.6577 42.4314 58.2764L42.6533 58.1045L42.6924 57.918L42.5177 57.86ZM38.845 60.2281C38.7648 60.2737 38.7011 60.2281 38.7011 60.1431C38.7038 60.0926 38.7182 60.0434 38.7432 59.9995C38.7682 59.9556 38.8031 59.9182 38.845 59.8904C38.9252 59.8448 38.9889 59.8904 38.9889 59.9753C38.9862 60.0259 38.9718 60.0751 38.9468 60.119C38.9218 60.1629 38.8869 60.2003 38.845 60.2281ZM38.845 58.6576C38.7648 58.7032 38.7011 58.6576 38.7011 58.5727C38.7038 58.5224 38.7182 58.4735 38.7432 58.43C38.7682 58.3864 38.8031 58.3494 38.845 58.322C38.9252 58.2764 38.9889 58.322 38.9889 58.4049C38.9862 58.4554 38.9718 58.5046 38.9468 58.5485C38.9218 58.5924 38.8869 58.6298 38.845 58.6576ZM40.2014 59.4387C40.1213 59.4843 40.0576 59.4387 40.0576 59.3538C40.0602 59.3035 40.0747 59.2546 40.0997 59.211C40.1247 59.1675 40.1596 59.1305 40.2014 59.1031C40.2795 59.0575 40.3453 59.1031 40.3453 59.186C40.3423 59.2364 40.3278 59.2855 40.3028 59.3294C40.2779 59.3732 40.2432 59.4107 40.2014 59.4387ZM40.2014 57.8683C40.1213 57.9139 40.0576 57.8683 40.0576 57.7834C40.0604 57.7331 40.0749 57.6843 40.0999 57.6407C40.1249 57.5972 40.1597 57.5602 40.2014 57.5327C40.2795 57.4871 40.3453 57.5327 40.3453 57.6176C40.3422 57.6678 40.3275 57.7165 40.3026 57.76C40.2776 57.8035 40.243 57.8406 40.2014 57.8683Z" fill="url(#paint41_linear_1001_8689)"/>
<path id="Vector_66" d="M41.0235 57.9843C41.0321 57.9325 41.054 57.8839 41.0872 57.8434C41.0826 57.6262 41.027 57.4132 40.9248 57.2219C40.8673 57.2467 40.8365 57.2426 40.8221 57.2219C40.8077 57.2011 40.8118 57.1597 40.8221 57.0893C40.709 56.9511 40.551 56.8578 40.3761 56.8261C40.3227 56.8821 40.2857 56.9028 40.259 56.8986C40.2322 56.8945 40.2199 56.8697 40.2137 56.8096C39.9983 56.8143 39.787 56.8704 39.5972 56.9732C39.577 57.0252 39.5429 57.0704 39.4985 57.1037C39.4718 57.1183 39.443 57.1038 39.4101 57.081C39.1795 57.2314 38.9717 57.415 38.7936 57.6258C38.7899 57.6806 38.7706 57.7331 38.7381 57.7771C38.7246 57.7925 38.7082 57.805 38.6899 57.8139C38.6715 57.8228 38.6516 57.8279 38.6312 57.8289C38.4514 58.0699 38.3003 58.3313 38.1811 58.6079C38.1901 58.6292 38.1947 58.6521 38.1947 58.6752C38.1947 58.6984 38.1901 58.7213 38.1811 58.7426C38.158 58.7876 38.1232 58.8256 38.0804 58.8524C37.9882 59.1119 37.9329 59.3832 37.916 59.6583C37.9337 59.6621 37.9496 59.6721 37.9609 59.6865C37.9721 59.7008 37.9781 59.7187 37.9777 59.737C37.9701 59.7891 37.948 59.838 37.9139 59.8779C37.9188 60.0951 37.9745 60.308 38.0763 60.4994C38.1338 60.4746 38.1647 60.4787 38.1811 60.4994C38.1976 60.5202 38.1914 60.5616 38.1688 60.632C38.283 60.7689 38.4405 60.8618 38.6148 60.8952C38.6703 60.8371 38.7052 60.8185 38.7319 60.8206C38.7586 60.8226 38.771 60.8516 38.7771 60.9096C38.9926 60.907 39.2042 60.8516 39.3937 60.748C39.4139 60.6961 39.4481 60.651 39.4924 60.6175C39.5191 60.601 39.5478 60.6175 39.5807 60.6403C39.8104 60.4885 40.0179 60.3051 40.1973 60.0954C40.2005 60.0403 40.219 59.9872 40.2507 59.9421C40.2643 59.9265 40.281 59.9139 40.2998 59.9053C40.3186 59.8967 40.339 59.8923 40.3597 59.8924C40.5384 59.6504 40.6888 59.3883 40.8077 59.1113C40.7986 59.0904 40.794 59.0678 40.794 59.045C40.794 59.0222 40.7986 58.9997 40.8077 58.9787C40.8294 58.9333 40.8636 58.8952 40.9063 58.8689C40.9992 58.6088 41.0552 58.3368 41.0728 58.0609C41.0575 58.0552 41.0445 58.0446 41.0356 58.0308C41.0267 58.017 41.0225 58.0007 41.0235 57.9843ZM38.845 60.228C38.7648 60.2736 38.7011 60.228 38.7011 60.1431C38.7038 60.0925 38.7182 60.0433 38.7432 59.9994C38.7682 59.9555 38.803 59.9182 38.845 59.8903C38.9251 59.8448 38.9888 59.8903 38.9888 59.9753C38.9862 60.0258 38.9717 60.075 38.9468 60.1189C38.9218 60.1628 38.8869 60.2002 38.845 60.228ZM38.845 58.6576C38.7648 58.7032 38.7011 58.6576 38.7011 58.5726C38.7038 58.5224 38.7182 58.4735 38.7432 58.4299C38.7682 58.3863 38.8031 58.3494 38.845 58.322C38.9251 58.2764 38.9888 58.322 38.9888 58.4048C38.9862 58.4554 38.9717 58.5046 38.9468 58.5485C38.9218 58.5924 38.8869 58.6298 38.845 58.6576ZM40.2014 59.4387C40.1213 59.4843 40.0575 59.4387 40.0575 59.3537C40.0602 59.3035 40.0746 59.2546 40.0996 59.211C40.1246 59.1674 40.1595 59.1304 40.2014 59.103C40.2795 59.0575 40.3453 59.103 40.3453 59.1859C40.3423 59.2364 40.3277 59.2855 40.3028 59.3293C40.2778 59.3732 40.2431 59.4106 40.2014 59.4387ZM40.2014 57.8683C40.1213 57.9138 40.0575 57.8683 40.0575 57.7833C40.0604 57.7331 40.0749 57.6842 40.0998 57.6407C40.1248 57.5971 40.1596 57.5601 40.2014 57.5326C40.2795 57.487 40.3453 57.5326 40.3453 57.6176C40.3421 57.6677 40.3275 57.7164 40.3025 57.7599C40.2776 57.8034 40.243 57.8405 40.2014 57.8683Z" fill="url(#paint42_linear_1001_8689)"/>
<path id="Vector_67" d="M40.2836 61.7485C40.3309 61.705 40.2939 61.4563 40.1993 61.1041C40.1048 60.7519 39.9938 60.5592 39.9712 60.5758C39.9611 60.7975 39.9903 61.0192 40.0575 61.2305C40.152 61.5827 40.2343 61.792 40.2836 61.7485Z" fill="url(#paint43_linear_1001_8689)"/>
<path id="Vector_68" d="M41.6133 60.0807C41.6483 60.0207 41.4982 59.8943 41.2413 59.7451C41.1013 59.643 40.9332 59.5873 40.7604 59.5856C40.7481 59.6104 40.8837 59.7783 41.1386 59.9253C41.3934 60.0724 41.5763 60.1429 41.6133 60.0807Z" fill="url(#paint44_linear_1001_8689)"/>
<path id="Vector_69" d="M42.38 58.0877C42.3923 58.0235 42.1744 58.0566 41.823 58.1499C41.6038 58.1951 41.3947 58.2808 41.2064 58.4026C41.2064 58.4254 41.4243 58.4316 41.7737 58.3363C42.1231 58.241 42.3676 58.1519 42.38 58.0877Z" fill="url(#paint45_linear_1001_8689)"/>
<path id="Vector_70" d="M42.3799 56.3059C42.3676 56.2583 42.1333 56.4385 41.7839 56.7514C41.5721 56.9253 41.381 57.1234 41.2146 57.3418C41.4415 57.2225 41.6493 57.0696 41.8312 56.8881C42.1723 56.5753 42.3922 56.3494 42.3799 56.3059Z" fill="url(#paint46_linear_1001_8689)"/>
<path id="Vector_71" d="M41.6134 55.1997C41.5764 55.179 41.3956 55.4607 41.1387 55.9062C40.9846 56.1518 40.8578 56.4137 40.7605 56.6872C40.9475 56.4661 41.1089 56.2242 41.2414 55.9662C41.4983 55.5208 41.6484 55.2204 41.6134 55.1997Z" fill="url(#paint47_linear_1001_8689)"/>
<path id="Vector_72" d="M40.2836 55.0795C40.2343 55.0919 40.1521 55.3986 40.0575 55.8606C39.9925 56.1064 39.9634 56.3604 39.9712 56.6147C40.0781 56.3602 40.1546 56.0939 40.1993 55.8212C40.2939 55.3613 40.3309 55.0629 40.2836 55.0795Z" fill="url(#paint48_linear_1001_8689)"/>
<path id="Vector_73" d="M38.7484 55.9725C38.6991 56.016 38.7381 56.2646 38.8306 56.6189C38.9231 56.9732 39.0361 57.1617 39.0587 57.1452C39.0702 56.9241 39.0409 56.7029 38.9724 56.4925C38.8799 56.1383 38.7957 55.9311 38.7484 55.9725Z" fill="url(#paint49_linear_1001_8689)"/>
<path id="Vector_74" d="M37.4187 57.6401C37.3838 57.7022 37.5338 57.8286 37.7887 57.9757C37.9283 58.0786 38.0966 58.1344 38.2696 58.1353C38.284 58.1125 38.1483 57.9446 37.8914 57.7955C37.6345 57.6463 37.4537 57.58 37.4187 57.6401Z" fill="url(#paint50_linear_1001_8689)"/>
<path id="Vector_75" d="M36.6499 59.6354C36.6376 59.6996 36.8554 59.6665 37.2089 59.5732C37.424 59.5271 37.6289 59.4414 37.8132 59.3205C37.8132 59.2977 37.5953 59.2915 37.2459 59.3868C36.8965 59.4821 36.6643 59.5712 36.6499 59.6354Z" fill="url(#paint51_linear_1001_8689)"/>
<path id="Vector_76" d="M36.6499 61.4215C36.6643 61.4712 36.8965 61.291 37.2459 60.9781C37.4582 60.8031 37.6487 60.6028 37.8132 60.3815C37.5908 60.5021 37.3872 60.6549 37.2089 60.8352C36.8595 61.148 36.6376 61.3738 36.6499 61.4215Z" fill="url(#paint52_linear_1001_8689)"/>
<path id="Vector_77" d="M37.4187 62.5215C37.4537 62.5422 37.6366 62.2604 37.8914 61.815C38.0465 61.57 38.1734 61.3079 38.2696 61.0339C38.0837 61.2551 37.9224 61.4962 37.7887 61.7529C37.5338 62.2025 37.3838 62.5029 37.4187 62.5215Z" fill="url(#paint53_linear_1001_8689)"/>
<path id="Vector_78" d="M38.7484 62.6416C38.7957 62.6292 38.88 62.3226 38.9725 61.8626C39.0389 61.6164 39.068 61.3615 39.0588 61.1064C38.9532 61.3621 38.8767 61.629 38.8306 61.902C38.7484 62.3619 38.6991 62.6561 38.7484 62.6416Z" fill="url(#paint54_linear_1001_8689)"/>
<path id="Vector_79" d="M39.5149 60.288C39.3855 60.3647 39.2046 61.009 38.7401 63.0104L38.8758 62.7286C39.2683 61.0587 39.3937 60.6879 39.5149 60.6175C39.6362 60.547 39.7862 60.8868 40.1459 61.989L40.2898 62.1071C39.8253 60.6568 39.6465 60.2134 39.5149 60.288Z" fill="url(#paint55_linear_1001_8689)"/>
<path id="Vector_80" d="M38.9025 60.4498C38.7894 60.4498 38.401 61.0278 37.2583 62.9235L37.4638 62.7164C38.4236 61.1418 38.66 60.8186 38.7648 60.8269C38.8696 60.8352 38.8162 61.3241 38.5593 62.8179L38.5963 63.0541C38.9395 61.0714 39.0155 60.4643 38.9025 60.4498Z" fill="url(#paint56_linear_1001_8689)"/>
<path id="Vector_81" d="M40.1295 57.2672C40.2405 57.2672 40.6289 56.6913 41.7737 54.7956L41.5682 55.0027C40.6104 56.5794 40.3741 56.9026 40.2672 56.8922C40.1603 56.8819 40.2158 56.395 40.4727 54.9033L40.4337 54.665C40.0904 56.6415 40.0165 57.2569 40.1295 57.2672Z" fill="url(#paint57_linear_1001_8689)"/>
<path id="Vector_82" d="M38.9025 57.982C39.0156 57.8391 38.9395 57.3129 38.5983 55.7424L38.5696 56.0138C38.847 57.3274 38.8676 57.6464 38.7607 57.779C38.6538 57.9116 38.3497 57.8122 37.468 57.3937L37.2625 57.4247C38.401 57.9862 38.7895 58.1229 38.9025 57.982Z" fill="url(#paint58_linear_1001_8689)"/>
<path id="Vector_83" d="M39.5149 57.4332C39.6465 57.3586 39.8253 56.7143 40.2898 54.7129L40.1541 54.9947C39.7636 56.6625 39.6382 57.0354 39.5149 57.1058C39.3916 57.1763 39.2436 56.8365 38.884 55.7343L38.7401 55.6141C39.2046 57.0747 39.3855 57.5098 39.5149 57.4332Z" fill="url(#paint59_linear_1001_8689)"/>
<path id="Vector_84" d="M40.5775 57.5305C40.6433 57.6238 41.1345 57.2488 42.6533 55.9684L42.4354 56.0596C41.1673 57.1224 40.8817 57.3026 40.8221 57.2239C40.7625 57.1452 41.0029 56.6314 41.8003 55.1521L41.8784 54.86C40.8221 56.8033 40.5117 57.4352 40.5775 57.5305Z" fill="url(#paint60_linear_1001_8689)"/>
<path id="Vector_85" d="M38.4525 58.7653C38.5183 58.5954 38.2079 58.3261 37.1515 57.6072L37.2358 57.7957C38.1113 58.4027 38.2634 58.5851 38.21 58.7446C38.1565 58.9041 37.7558 59.0678 36.5987 59.4469L36.3767 59.621C37.8976 59.1341 38.3888 58.9352 38.4525 58.7653Z" fill="url(#paint61_linear_1001_8689)"/>
<path id="Vector_86" d="M40.7419 58.1477C40.7419 58.2989 41.2044 58.2388 42.6924 57.9156L42.5177 57.8597C41.2845 58.1228 41.0235 58.1249 41.0235 57.984C41.0235 57.8431 41.3893 57.4536 42.5177 56.3783L42.6924 56.109C41.2146 57.5158 40.7419 57.9964 40.7419 58.1477Z" fill="url(#paint62_linear_1001_8689)"/>
<path id="Vector_87" d="M38.2881 59.5753C38.2881 59.424 37.8256 59.4821 36.3376 59.8073L36.5144 59.8633C37.7475 59.6001 38.0065 59.596 38.0065 59.7389C38.0065 59.8819 37.6407 60.2693 36.5123 61.3446L36.3376 61.6119C37.8256 60.2051 38.2881 59.7265 38.2881 59.5753Z" fill="url(#paint63_linear_1001_8689)"/>
<path id="Vector_88" d="M40.5775 58.9559C40.5117 59.1258 40.8221 59.3972 41.8784 60.1161L41.7942 59.9255C40.9207 59.3205 40.7666 59.1382 40.8221 58.9787C40.8775 58.8191 41.2742 58.6555 42.4313 58.2742L42.6533 58.1023C41.1345 58.585 40.6433 58.7922 40.5775 58.9559Z" fill="url(#paint64_linear_1001_8689)"/>
<path id="Vector_89" d="M38.4525 60.1926C38.3888 60.0994 37.8976 60.4723 36.3767 61.7548L36.5966 61.6615C37.8626 60.6008 38.1483 60.4185 38.21 60.4993C38.2716 60.5801 38.0271 61.0918 37.2296 62.5711L37.1515 62.8632C38.2079 60.9178 38.5183 60.2859 38.4525 60.1926Z" fill="url(#paint65_linear_1001_8689)"/>
<path id="Vector_90" d="M40.1295 59.7411C40.0165 59.8819 40.0905 60.4103 40.4317 61.9807L40.4625 61.7093C40.183 60.3958 40.1645 60.0746 40.2693 59.9421C40.3741 59.8095 40.6803 59.911 41.5641 60.3295L41.7696 60.2963C40.629 59.7349 40.2426 59.5981 40.1295 59.7411Z" fill="url(#paint66_linear_1001_8689)"/>
<path id="Vector_91" d="M38.9703 59.1775C38.9703 59.5276 39.2149 59.6706 39.515 59.4965C39.6736 59.392 39.8056 59.2512 39.9003 59.0856C39.9949 58.92 40.0495 58.7343 40.0596 58.5435C40.0596 58.1934 39.8171 58.0525 39.515 58.2265C39.3566 58.3309 39.2247 58.4713 39.1301 58.6365C39.0355 58.8017 38.9808 58.987 38.9703 59.1775Z" fill="url(#paint67_linear_1001_8689)"/>
<path id="Vector_92" d="M39.0792 59.1155C39.0792 59.3952 39.2745 59.5091 39.5149 59.3683C39.6418 59.285 39.7474 59.1728 39.8231 59.0406C39.8988 58.9085 39.9425 58.7602 39.9506 58.6079C39.9506 58.3282 39.7554 58.2143 39.5149 58.3531C39.388 58.4368 39.2825 58.5494 39.2068 58.6818C39.1311 58.8143 39.0874 58.9629 39.0792 59.1155Z" fill="#D0D2D4"/>
<path id="Vector_93" d="M40.2014 58.9228C40.1145 58.9802 40.042 59.0573 39.9899 59.148C39.9378 59.2386 39.9075 59.3404 39.9014 59.4449C39.9014 59.6356 40.037 59.7143 40.2014 59.6169C40.2883 59.5601 40.3606 59.4834 40.4124 59.393C40.4642 59.3026 40.494 59.2011 40.4994 59.0969C40.4994 58.9063 40.3658 58.8275 40.2014 58.9228ZM40.2014 59.4387C40.1213 59.4843 40.0576 59.4387 40.0576 59.3538C40.0602 59.3035 40.0747 59.2546 40.0997 59.211C40.1247 59.1675 40.1595 59.1305 40.2014 59.1031C40.2795 59.0575 40.3453 59.1031 40.3453 59.186C40.3423 59.2364 40.3278 59.2855 40.3028 59.3294C40.2778 59.3732 40.2431 59.4107 40.2014 59.4387Z" fill="url(#paint68_linear_1001_8689)"/>
<path id="Vector_94" d="M40.2015 58.9705C40.126 59.0193 40.0632 59.0856 40.0182 59.1638C39.9731 59.242 39.9472 59.3298 39.9425 59.4201C39.9425 59.5858 40.0576 59.6521 40.2015 59.5692C40.2764 59.52 40.3388 59.4536 40.3834 59.3755C40.4281 59.2974 40.4537 59.2097 40.4584 59.1197C40.4584 58.956 40.3433 58.8876 40.2015 58.9705ZM40.2015 59.4387C40.1213 59.4843 40.0576 59.4387 40.0576 59.3538C40.0603 59.3035 40.0747 59.2546 40.0997 59.211C40.1247 59.1675 40.1596 59.1305 40.2015 59.1031C40.2796 59.0575 40.3453 59.1031 40.3453 59.186C40.3423 59.2364 40.3278 59.2855 40.3028 59.3294C40.2779 59.3732 40.2432 59.4106 40.2015 59.4387Z" fill="#9EA0A2"/>
<path id="Vector_95" d="M38.845 59.7122C38.7562 59.7698 38.6824 59.848 38.6298 59.9403C38.5773 60.0326 38.5474 60.1362 38.5428 60.2426C38.5428 60.4352 38.6764 60.5119 38.8409 60.4166C38.9275 60.3595 38.9996 60.2827 39.0514 60.1924C39.1032 60.1021 39.1331 60.0007 39.1389 59.8966C39.143 59.6956 39.0094 59.621 38.845 59.7122ZM38.845 60.2281C38.7648 60.2737 38.7011 60.2281 38.7011 60.1431C38.7038 60.0926 38.7182 60.0434 38.7432 59.9995C38.7682 59.9556 38.803 59.9182 38.845 59.8904C38.9251 59.8448 38.9888 59.8903 38.9888 59.9753C38.9862 60.0258 38.9717 60.075 38.9468 60.1189C38.9218 60.1628 38.8869 60.2002 38.845 60.2281Z" fill="url(#paint69_linear_1001_8689)"/>
<path id="Vector_96" d="M38.845 59.7597C38.7702 59.809 38.7079 59.8754 38.6633 59.9535C38.6187 60.0316 38.5929 60.1192 38.5881 60.2092C38.5881 60.375 38.7032 60.4413 38.845 60.3584C38.9199 60.3091 38.9821 60.2427 39.0268 60.1645C39.0714 60.0864 39.0972 59.9988 39.1019 59.9088C39.1019 59.7452 38.9868 59.6768 38.845 59.7597ZM38.845 60.2279C38.7649 60.2735 38.7012 60.2279 38.7012 60.1429C38.7038 60.0924 38.7183 60.0432 38.7432 59.9993C38.7682 59.9554 38.8031 59.918 38.845 59.8902C38.9252 59.8446 38.9889 59.8902 38.9889 59.9751C38.9862 60.0257 38.9718 60.0749 38.9468 60.1188C38.9218 60.1627 38.887 60.2001 38.845 60.2279Z" fill="#9EA0A2"/>
<path id="Vector_97" d="M38.845 58.1417C38.7583 58.1992 38.6862 58.2764 38.6344 58.3671C38.5827 58.4577 38.5527 58.5594 38.547 58.6638C38.547 58.8544 38.6806 58.9331 38.845 58.8358C38.9319 58.779 39.0042 58.7022 39.056 58.6118C39.1078 58.5215 39.1376 58.42 39.143 58.3157C39.143 58.1251 39.0094 58.0464 38.845 58.1417ZM38.845 58.6576C38.7649 58.7032 38.7011 58.6576 38.7011 58.5726C38.7038 58.5224 38.7182 58.4735 38.7432 58.4299C38.7682 58.3863 38.8031 58.3493 38.845 58.322C38.9252 58.2764 38.9889 58.322 38.9889 58.4048C38.9862 58.4554 38.9718 58.5046 38.9468 58.5485C38.9218 58.5924 38.8869 58.6298 38.845 58.6576Z" fill="url(#paint70_linear_1001_8689)"/>
<path id="Vector_98" d="M38.845 58.1893C38.7702 58.2387 38.7079 58.3051 38.6633 58.3832C38.6187 58.4613 38.5929 58.5489 38.5881 58.6389C38.5881 58.8047 38.7032 58.8709 38.845 58.7881C38.9196 58.7389 38.9817 58.6729 39.0263 58.5951C39.0709 58.5174 39.0968 58.4302 39.1019 58.3406C39.1019 58.1707 38.9868 58.1065 38.845 58.1893ZM38.845 58.6576C38.7649 58.7031 38.7012 58.6575 38.7012 58.5726C38.7038 58.5223 38.7183 58.4734 38.7433 58.4299C38.7683 58.3863 38.8031 58.3493 38.845 58.3219C38.9252 58.2763 38.9889 58.3219 38.9889 58.4048C38.9862 58.4553 38.9718 58.5045 38.9468 58.5484C38.9218 58.5924 38.887 58.6297 38.845 58.6576Z" fill="#9EA0A2"/>
<path id="Vector_99" d="M40.2014 57.3527C40.1145 57.4101 40.042 57.4871 39.9899 57.5778C39.9378 57.6685 39.9075 57.7701 39.9014 57.8747C39.9014 58.0653 40.037 58.1441 40.2014 58.0488C40.2881 57.9913 40.3602 57.9141 40.412 57.8235C40.4638 57.7328 40.4937 57.6311 40.4994 57.5267C40.4994 57.3423 40.3658 57.2574 40.2014 57.3527ZM40.2014 57.8685C40.1213 57.9141 40.0576 57.8685 40.0576 57.7836C40.0604 57.7334 40.0749 57.6845 40.0999 57.641C40.1249 57.5974 40.1596 57.5604 40.2014 57.5329C40.2795 57.4873 40.3453 57.5329 40.3453 57.6178C40.3422 57.668 40.3275 57.7167 40.3026 57.7602C40.2776 57.8037 40.243 57.8408 40.2014 57.8685Z" fill="url(#paint71_linear_1001_8689)"/>
<path id="Vector_100" d="M40.2015 57.4C40.126 57.4489 40.0632 57.5151 40.0182 57.5933C39.9731 57.6714 39.9472 57.7593 39.9425 57.8496C39.9425 58.0153 40.0576 58.0837 40.2015 57.9988C40.2763 57.9499 40.3385 57.8838 40.3832 57.8061C40.4278 57.7283 40.4536 57.641 40.4584 57.5512C40.4584 57.3855 40.3433 57.3171 40.2015 57.4ZM40.2015 57.8682C40.1213 57.9138 40.0576 57.8682 40.0576 57.7833C40.0604 57.7331 40.0749 57.6842 40.0999 57.6407C40.1249 57.5971 40.1597 57.5601 40.2015 57.5326C40.2796 57.487 40.3453 57.5326 40.3453 57.6175C40.3422 57.6677 40.3276 57.7164 40.3026 57.7599C40.2776 57.8034 40.243 57.8405 40.2015 57.8682Z" fill="#9EA0A2"/>
<path id="Vector_101" d="M39.0689 58.3593C39.0651 58.4378 39.0427 58.5142 39.0038 58.5823C38.9648 58.6504 38.9104 58.7082 38.8449 58.7508C38.7216 58.8233 38.6208 58.7653 38.6208 58.6203C38.6248 58.5418 38.6472 58.4654 38.6862 58.3974C38.7251 58.3293 38.7795 58.2715 38.8449 58.2287C38.9702 58.1562 39.0689 58.2142 39.0689 58.3593Z" fill="#5B686C"/>
<path id="Vector_102" d="M39.0463 58.3777C39.0416 58.4482 39.0206 58.5166 38.9849 58.5774C38.9492 58.6382 38.8998 58.6897 38.8408 58.7278C38.7298 58.792 38.6353 58.7278 38.6353 58.6097C38.6395 58.5391 38.6603 58.4705 38.696 58.4096C38.7318 58.3487 38.7814 58.2973 38.8408 58.2596C38.9538 58.1912 39.0463 58.243 39.0463 58.3777Z" fill="url(#paint72_linear_1001_8689)"/>
<path id="Vector_103" d="M39.0689 59.9275C39.065 60.0063 39.0427 60.0831 39.0038 60.1515C38.9649 60.2199 38.9104 60.2781 38.8449 60.3212C38.7216 60.3937 38.6208 60.3336 38.6208 60.1907C38.6248 60.1122 38.6472 60.0358 38.6862 59.9677C38.7251 59.8997 38.7795 59.8419 38.8449 59.7991C38.9702 59.7266 39.0689 59.7846 39.0689 59.9275Z" fill="#5B686C"/>
<path id="Vector_104" d="M39.0463 59.9421C39.0419 60.0126 39.021 60.0812 38.9853 60.142C38.9496 60.2029 38.9 60.2543 38.8408 60.2922C38.7298 60.3585 38.6353 60.3046 38.6353 60.1762C38.6391 60.1055 38.6598 60.0367 38.6956 59.9758C38.7314 59.9149 38.7812 59.8635 38.8408 59.826C38.9538 59.7618 39.0463 59.8136 39.0463 59.9421Z" fill="url(#paint73_linear_1001_8689)"/>
<path id="Vector_105" d="M40.4253 59.1404C40.4212 59.2188 40.3987 59.2951 40.3598 59.3632C40.3209 59.4312 40.2666 59.489 40.2013 59.5319C40.0759 59.6044 39.9752 59.5444 39.9752 59.4014C39.9794 59.3227 40.0021 59.2462 40.0414 59.1782C40.0808 59.1101 40.1355 59.0524 40.2013 59.0098C40.3246 58.9373 40.4253 58.9995 40.4253 59.1404Z" fill="#5B686C"/>
<path id="Vector_106" d="M40.4029 59.1549C40.3982 59.2254 40.3771 59.2938 40.3414 59.3546C40.3057 59.4154 40.2564 59.4669 40.1973 59.505C40.0864 59.5692 39.9918 59.505 39.9918 59.3869C39.9962 59.3163 40.0171 59.2478 40.0528 59.1869C40.0886 59.1261 40.1381 59.0746 40.1973 59.0368C40.3124 58.9726 40.4029 59.0244 40.4029 59.1549Z" fill="url(#paint74_linear_1001_8689)"/>
<path id="Vector_107" d="M40.4253 57.5698C40.4211 57.6485 40.3984 57.725 40.3591 57.7931C40.3198 57.8612 40.265 57.9188 40.1992 57.9614C40.0759 58.0339 39.9752 57.9759 39.9752 57.8309C39.9797 57.7525 40.0023 57.6763 40.0412 57.6083C40.0801 57.5403 40.1342 57.4824 40.1992 57.4393C40.3246 57.3668 40.4253 57.4248 40.4253 57.5698Z" fill="#5B686C"/>
<path id="Vector_108" d="M40.3926 57.5843C40.3887 57.655 40.368 57.7237 40.3323 57.7847C40.2965 57.8456 40.2467 57.897 40.1871 57.9345C40.0782 57.9987 39.9816 57.9448 39.9816 57.8164C39.9863 57.7459 40.0073 57.6775 40.043 57.6167C40.0787 57.5558 40.1281 57.5043 40.1871 57.4662C40.3125 57.402 40.3926 57.4538 40.3926 57.5843Z" fill="url(#paint75_linear_1001_8689)"/>
<path id="Vector_109" d="M82.7446 26.4597C82.5514 25.5295 80.9114 23.1759 80.9114 23.1759V21.0046L80.3873 20.4743C80.3873 20.4743 80.2373 19.6331 78.5232 18.0772C76.8091 16.5213 73.529 14.1408 73.529 14.1408L72.115 12.7796C70.9374 10.772 68.5368 8.22164 64.9998 6.86046C61.4628 5.49929 57.0522 5.68367 57.0522 5.68367C57.0522 5.68367 54.0454 6.34873 45.4587 10.9771C36.872 15.6055 32.7163 18.7982 31.9312 19.3928C31.1461 19.9874 24.9948 25.1648 24.9948 25.1648L24.2693 25.8278L24.3145 24.9514C24.3145 24.9514 22.8594 23.2753 22.5717 23.1469C22.284 23.0184 21.4372 23.9052 21.2153 24.276C20.9933 24.6469 21.0385 25.1441 21.2153 25.805C21.3489 26.3085 21.7496 27.4438 21.9346 27.9576L17.5672 31.952C17.5672 31.952 10.822 38.126 10.4397 38.6377C10.0574 39.1495 9.70805 40.5023 9.70805 40.5023C8.81813 41.3518 7.94261 43.1315 7.94261 43.4029C7.94261 43.6743 7.71448 46.0776 7.71448 47.041C7.71448 48.0044 7.90356 49.5748 7.90356 49.5748C7.90356 49.5748 7.79258 51.4394 8.41325 52.67C9.03393 53.9007 9.76559 54.3275 9.76559 54.3275C10.004 54.949 11.6913 56.4138 14.2871 58.1127C16.8828 59.8115 20.5535 61.5601 21.3345 61.8419C21.7809 62.012 22.2448 62.1308 22.7176 62.1962C25.6278 63.7998 31.7606 64.0235 32.9609 63.6236C34.1611 63.2238 34.2495 62.3246 34.2495 62.3246C34.2495 59.4055 35.8937 55.5581 39.5931 52.8959C43.2925 50.2336 44.3201 52.8959 44.5626 54.1783C44.7125 54.9305 44.7125 55.7051 44.5626 56.4573L70.3454 41.1861C72.3493 34.8401 74.31 32.9548 76.8996 31.3636C79.4892 29.7725 80.8189 30.4313 81.2751 31.26C81.7314 32.0888 81.232 33.8809 81.232 33.8809L81.6903 33.6033C81.6903 33.6033 82.0767 32.5674 82.3336 31.7241C82.5905 30.8809 82.9358 27.3879 82.7446 26.4597Z" fill="white"/>
<g id="Vector_110" style="mix-blend-mode:multiply" opacity="0.15">
<path d="M32.963 63.6382C34.1735 63.2362 34.2516 62.3391 34.2516 62.3391C34.2516 62.3391 34.2516 62.2791 34.2516 62.25C34.2516 62.25 32.8684 63.0788 29.2471 63.1554C27.0348 63.1899 24.831 62.871 22.7177 62.2107C25.6299 63.8143 31.7606 64.038 32.963 63.6382Z" fill="black"/>
</g>
<g id="Vector_111" style="mix-blend-mode:multiply" opacity="0.15">
<path d="M26.8629 61.3901L30.0177 61.4834L30.8583 60.6961C30.8583 60.6961 25.3996 61.1892 23.7945 61.2617C22.1893 61.3342 22.0496 61.3031 22.0496 61.3031C22.0107 61.3799 21.952 61.4447 21.8797 61.4906C21.8073 61.5366 21.724 61.562 21.6385 61.5642C21.3487 61.5538 17.4582 59.6747 15.4852 58.5103C13.5122 57.346 10.4149 55.1478 10.0101 54.3667C9.74854 53.8291 9.52065 53.2756 9.32773 52.7093C9.02027 51.9307 8.79769 51.1207 8.66389 50.2936C8.55907 49.4441 7.89318 46.0567 7.92195 43.871C7.86029 44.6873 7.72876 46.295 7.72876 47.0388C7.72876 48.0001 7.91784 49.5726 7.91784 49.5726C7.91784 49.5726 7.80686 51.4372 8.42754 52.6678C9.04822 53.8985 9.77988 54.3253 9.77988 54.3253C10.0183 54.9468 11.7056 56.4116 14.3014 58.1105C16.8971 59.8093 20.5678 61.5579 21.3487 61.8397C21.7951 62.0098 22.2591 62.1286 22.7319 62.194C22.9727 61.9881 23.2648 61.8526 23.5766 61.8024C24.037 61.7651 26.8629 61.3901 26.8629 61.3901Z" fill="black"/>
</g>
<g id="Vector_112" style="mix-blend-mode:multiply" opacity="0.07">
<path d="M19.4662 55.7468C16.1305 54.3835 12.0982 51.6819 11.1178 50.1881C10.1375 48.6943 8.49947 45.1039 8.58785 41.9983C8.20557 42.6509 7.9425 43.2414 7.9425 43.4009C7.9425 43.4154 7.9425 43.4361 7.9425 43.461C8.01855 44.0432 8.64334 48.5618 10.0286 50.5362C11.5124 52.6494 13.0806 53.7185 14.5192 54.7109C15.9579 55.7032 19.2647 57.4829 20.3622 57.746C21.4597 58.0092 25.6812 58.5375 30.4986 56.4491C30.4966 56.4491 22.8018 57.11 19.4662 55.7468Z" fill="black"/>
</g>
<path id="Vector_113" style="mix-blend-mode:multiply" opacity="0.07" d="M78.0032 19.2686C77.3065 18.4212 72.8364 13.4862 72.8343 13.4821L72.1088 12.7839C70.9312 10.7763 68.5307 8.2259 64.9936 6.86473C61.4566 5.50355 57.0461 5.68794 57.0461 5.68794L56.9269 5.71903C56.9269 5.71903 62.9014 5.98007 66.0747 7.91306C69.248 9.84605 72.0348 12.5249 72.2404 14.75C72.2404 14.75 71.9691 15.8667 70.9846 16.337C70.4667 16.5856 67.651 17.9219 64.6545 19.3784C67.7682 23.0248 70.1934 25.8839 70.1934 25.8839C70.1934 25.8839 70.7298 25.5814 72.1171 24.6511C73.5043 23.7209 78.7082 20.116 78.0032 19.2686Z" fill="url(#paint76_linear_1001_8689)"/>
<g id="Group" style="mix-blend-mode:multiply" opacity="0.12">
<path id="Vector_114" d="M52.0518 41.9983C52.0476 42.0125 52.0421 42.0264 52.0354 42.0396L52.0518 41.9983Z" fill="black"/>
<path id="Vector_115" d="M51.9511 41.275C51.4588 41.6394 50.8764 41.8602 50.2679 41.9131C49.1786 41.9981 47.5303 41.6583 46.4678 41.3475L46.552 42.3648C46.552 42.3648 48.1962 42.7626 49.1252 42.7294C50.0541 42.6963 51.0489 42.6445 52.0498 41.9981C52.1361 41.7909 52.0765 41.5526 51.9511 41.275Z" fill="black"/>
</g>
<g id="Vector_116" style="mix-blend-mode:multiply" opacity="0.52">
<path d="M21.9347 27.9619L24.2694 25.8321L24.3147 24.9558C24.3147 24.9558 22.5389 26.6505 22.4403 26.8639C22.3416 27.0773 22.1649 26.9447 21.8237 26.3708C21.5076 25.7494 21.2826 25.085 21.1558 24.3984C21.0037 24.7548 21.0592 25.2272 21.2174 25.8093C21.349 26.3128 21.7497 27.4481 21.9347 27.9619Z" fill="black"/>
</g>
<g id="Vector_117" style="mix-blend-mode:multiply" opacity="0.15">
<path d="M59.6664 36.2095C59.6484 36.1638 59.6234 36.1211 59.5924 36.0831C59.5624 36.1686 59.5164 36.2474 59.4567 36.3152C59.2512 36.5348 57.196 38.1052 56.3986 38.4574C56.4171 38.6397 56.7356 38.6231 56.9699 38.4574C57.2042 38.2917 57.831 37.9374 58.5915 37.3842C59.3519 36.831 59.7609 36.4291 59.6664 36.2095Z" fill="black"/>
</g>
<g id="Vector_118" style="mix-blend-mode:multiply" opacity="0.15">
<path d="M71.0154 28.5437C71.2517 28.3738 71.8786 28.0237 72.639 27.4705C73.3994 26.9173 73.8084 26.5258 73.7139 26.2979C73.7035 26.2744 73.6918 26.2516 73.6789 26.2295C73.578 26.3548 73.4666 26.4713 73.346 26.5776C72.433 27.3145 71.4641 27.9781 70.4481 28.5623C70.4748 28.7198 70.779 28.6991 71.0154 28.5437Z" fill="black"/>
</g>
<path id="Vector_119" style="mix-blend-mode:multiply" opacity="0.3" d="M57.0193 37.66C57.5639 37.2663 58.4127 36.6821 58.9039 36.3423C58.6573 35.8803 57.8208 36.073 57.2721 36.6282C57.1392 36.7742 57.04 36.9479 56.9813 37.137C56.9227 37.3261 56.9062 37.5259 56.933 37.7221L57.0193 37.66Z" fill="url(#paint77_linear_1001_8689)"/>
<path id="Vector_120" style="mix-blend-mode:multiply" opacity="0.3" d="M71.0566 27.7421C71.5991 27.3485 72.4479 26.7622 72.9391 26.4245C72.6925 25.9624 71.856 26.1551 71.3073 26.7083C71.1741 26.8544 71.0748 27.0286 71.0165 27.2181C70.9583 27.4076 70.9424 27.6078 70.9702 27.8043L71.0566 27.7421Z" fill="url(#paint78_linear_1001_8689)"/>
<g id="Group_2" style="mix-blend-mode:multiply" opacity="0.2">
<path id="Vector_121" d="M47.6927 29.5571L47.6393 29.5157C48.3853 28.5337 51.088 26.2526 52.6725 25.051C54.1749 23.9073 62.8295 19.2499 65.2957 18.1208C67.2461 17.2341 70.8017 15.5642 72.2403 14.8888L72.2691 14.9489C70.8305 15.6264 67.2749 17.2941 65.3224 18.1809C62.8562 19.3017 54.214 23.9612 52.7116 25.1028C51.1311 26.3044 48.4347 28.5792 47.6927 29.5571Z" fill="black"/>
</g>
<g id="Vector_122" style="mix-blend-mode:multiply" opacity="0.2">
<path d="M57.8126 5.67969H57.6071C53.3055 7.10301 43.6624 12.3094 39.7534 14.75C35.7005 17.2735 32.0196 20.0373 31.9846 20.0642L32.0237 20.1181C32.0607 20.0911 35.7375 17.3294 39.7883 14.806C43.7467 12.3364 53.6179 6.99735 57.8126 5.67969Z" fill="black"/>
</g>
<g id="Group_3" style="mix-blend-mode:multiply" opacity="0.2">
<path id="Vector_123" d="M71.11 15.4481C71.11 15.4087 70.1502 11.4765 65.9411 9.15813C62.0361 7.00138 58.2401 6.25761 56.1829 6.27418V6.20789H56.2507C58.3306 6.20789 62.0916 6.96409 65.974 9.10841C70.2098 11.4433 71.1655 15.4046 71.1737 15.444L71.11 15.4481Z" fill="black"/>
</g>
<g id="Group_4" style="mix-blend-mode:multiply" opacity="0.2">
<path id="Vector_124" d="M41.9689 41.4821L41.9114 41.4489C41.9751 41.3391 48.336 30.2944 49.7767 28.6473C51.2174 27.0002 55.258 24.2613 57.5105 23.0306C59.7261 21.8207 67.6223 17.9692 68.7259 17.5093C68.7773 17.4803 70.1091 16.7634 70.7195 17.5093C71.1511 18.0438 72.8158 21.0562 73.8023 22.8545C74.201 23.5776 74.4888 24.0976 74.5566 24.2074C74.7468 24.5936 74.8811 25.0052 74.9553 25.4298V25.4422C74.8539 25.8862 74.8255 26.3439 74.871 26.7972C74.9491 27.4187 75.0396 29.3289 74.5422 30.6714C74.2278 31.5209 73.5393 32.5713 72.933 33.4995C72.6103 33.9925 72.3041 34.4587 72.0883 34.844C71.782 35.391 71.1922 36.6817 70.6208 37.929C70.0495 39.1762 69.5131 40.3716 69.3713 40.5602L69.3178 40.5187C69.4637 40.3302 70.0022 39.1513 70.5736 37.9062C71.1449 36.661 71.7327 35.3806 72.0431 34.8213C72.2609 34.4359 72.5651 33.9677 72.8898 33.4725C73.4961 32.5485 74.1805 31.5002 74.4929 30.6569C74.9861 29.3289 74.9039 27.4332 74.8176 26.8158C74.7718 26.3571 74.8003 25.8938 74.9019 25.4443C74.8279 25.0309 74.6971 24.63 74.5134 24.253C74.4456 24.1432 74.1558 23.6315 73.7571 22.898C72.7624 21.0997 71.0997 18.0915 70.6743 17.5611C70.0988 16.8484 68.7732 17.5611 68.7588 17.5611C67.6531 18.0231 59.7631 21.8725 57.5475 23.0824C55.2991 24.3089 51.277 27.0334 49.8322 28.6763C48.3874 30.3192 42.0367 41.3723 41.9689 41.4821Z" fill="black"/>
</g>
<g id="Group_5" style="mix-blend-mode:multiply" opacity="0.2">
<path id="Vector_125" d="M60.1905 46.3365H60.1227V44.8055C60.1042 44.7309 59.9007 43.8959 59.9336 43.6556C59.9665 43.4153 60.1227 36.4996 60.1227 36.4292L60.209 35.4803L59.7117 33.5162L59.7774 33.4996L60.2789 35.4761L60.1926 36.4333C60.1926 36.7151 60.0385 43.4236 60.0035 43.6639C59.9686 43.9042 60.1905 44.7847 60.1926 44.793V46.3365H60.1905Z" fill="black"/>
</g>
<g id="Group_6" style="mix-blend-mode:multiply" opacity="0.2">
<path id="Vector_126" d="M45.9416 54.7832L45.6086 52.5208C45.5305 51.9924 45.3641 50.5691 45.2161 49.3136C45.101 48.3399 44.9921 47.42 44.9407 47.0346C44.8215 46.1645 44.3961 43.842 44.3899 43.8192L44.4557 43.8068C44.4557 43.8316 44.8873 46.1541 45.0044 47.0263C45.0578 47.4096 45.1668 48.3295 45.2819 49.3053C45.4298 50.5608 45.5963 51.9842 45.6744 52.5104L46.0074 54.7728L45.9416 54.7832Z" fill="black"/>
</g>
<g id="Vector_127" style="mix-blend-mode:multiply" opacity="0.2">
<path d="M34.3871 54.3482L32.9793 53.5485L32.9464 53.6065L34.3563 54.4041L36.691 55.7197C36.7054 55.7011 36.7198 55.6845 36.7321 55.6658L34.3871 54.3482Z" fill="black"/>
</g>
<g id="Group_7" style="mix-blend-mode:multiply" opacity="0.2">
<path id="Vector_128" d="M42.8013 42.1162L40.7235 40.6888L40.7605 40.6328L42.8383 42.0624L42.8013 42.1162Z" fill="black"/>
</g>
<path id="Vector_129" d="M26.863 61.3902L30.8584 60.6962C30.8584 60.6962 31.0536 62.2645 29.8308 62.335C28.8665 62.3506 27.903 62.2729 26.9535 62.1029L26.863 61.3902Z" fill="#1B2628"/>
<path id="Vector_130" d="M28.2811 61.1437C28.319 61.4617 28.4711 61.7546 28.7088 61.9672C28.9464 62.1797 29.2531 62.2971 29.5708 62.2971C29.8885 62.2971 30.1952 62.1797 30.4328 61.9672C30.6705 61.7546 30.8226 61.4617 30.8604 61.1437C30.8633 61.0892 30.8633 61.0345 30.8604 60.98C30.8601 60.8858 30.8491 60.792 30.8276 60.7003L28.2811 61.1437Z" fill="#EFF6FA"/>
<path id="Vector_131" d="M9.34017 50.536C9.19219 51.6009 9.85398 53.9151 10.3678 54.5139C10.8816 55.1126 12.5956 56.4469 14.4454 57.6609C16.2951 58.875 19.4128 60.4164 20.2699 60.8411C21.1269 61.2659 21.6366 61.5435 21.9942 61.4627C22.3518 61.3819 23.8809 59.0366 23.8809 59.0366C23.8809 59.0366 17.9351 56.6354 14.7023 54.5843C10.8857 52.1624 9.34017 50.536 9.34017 50.536Z" fill="#1B2628"/>
<path id="Vector_132" d="M14.2645 56.6543C16.7554 58.233 20.796 60.1887 22.4977 60.9926L22.6025 60.86C20.9296 60.0686 16.8479 58.1004 14.3529 56.5092C12.6721 55.4705 11.1007 54.2619 9.66284 52.9022C9.69573 53.012 9.72861 53.1218 9.76355 53.2275C11.1542 54.5092 12.6611 55.6565 14.2645 56.6543Z" fill="#4D585A"/>
<path id="Vector_133" d="M9.48401 52.1998C9.50662 52.2972 9.52922 52.407 9.55389 52.4961C11.0368 53.8695 12.6489 55.0942 14.3672 56.1528C16.9198 57.773 21.205 59.7619 22.8656 60.5036C22.8985 60.458 22.9334 60.4124 22.9663 60.3648C21.3324 59.6272 17.0164 57.628 14.4556 56.0016C11.7201 54.2779 10.1458 52.8545 9.48401 52.1998Z" fill="#4D585A"/>
<path id="Vector_134" d="M9.32153 50.9442C9.32153 51.0229 9.32153 51.1037 9.32153 51.1866C9.83328 51.6735 11.4507 53.1238 14.5192 55.0692C17.4849 56.9524 22.7093 59.2438 23.5067 59.5898L23.6012 59.449C22.9169 59.1527 17.602 56.8302 14.6076 54.9283C11.2247 52.784 9.61543 51.2384 9.32153 50.9442Z" fill="#4D585A"/>
<path id="Vector_135" d="M9.37305 51.5636C9.37305 51.6527 9.39771 51.7418 9.41415 51.8309C9.99989 52.382 11.6071 53.7825 14.5296 55.6388C17.224 57.3481 21.7804 59.4302 23.1903 60.0621L23.2869 59.9233C21.9181 59.3018 17.3268 57.2134 14.618 55.4979C11.3831 53.4448 9.76971 51.9552 9.37305 51.5636Z" fill="#4D585A"/>
<path id="Vector_136" d="M22.2921 61.123C21.9345 61.1956 21.4269 60.9159 20.5678 60.5015C19.7087 60.0871 16.5951 58.5374 14.7454 57.3234C12.8956 56.1093 11.1775 54.775 10.6657 54.1763C10.2403 53.677 9.7121 51.9947 9.63812 50.8283C9.43259 50.6439 9.34627 50.5465 9.34627 50.5465C9.1983 51.6114 9.86008 53.9256 10.3739 54.5244C10.8877 55.1231 12.6018 56.4573 14.4515 57.6714C16.3012 58.8855 19.4189 60.4269 20.276 60.8516C21.133 61.2764 21.6427 61.554 22.0003 61.4732C22.1092 61.4525 22.3189 61.2266 22.5634 60.9221C22.4907 61.0104 22.3975 61.0794 22.2921 61.123Z" fill="#4D585A"/>
<path id="Vector_137" d="M24.9989 53.2997C24.9989 53.2997 19.5793 52.6471 16.5992 50.9213C13.6191 49.1955 11.2823 45.1969 11.2823 45.1969V47.0491C11.2823 47.0491 12.4518 50.712 15.9806 52.7527C19.5094 54.7935 23.7905 54.7106 23.7905 54.7106L24.9989 53.2997Z" fill="#4D585A"/>
<path id="Vector_138" d="M23.7021 54.5222C23.2006 54.5222 19.2895 54.4497 16.0731 52.5892C12.8053 50.6976 11.5845 47.3517 11.4694 47.0181V45.8517C12.236 47.0243 14.1576 49.7239 16.5067 51.0851C19.0819 52.5788 23.3753 53.2667 24.631 53.4428L23.7021 54.5222Z" fill="#1B2628"/>
<path id="Vector_139" d="M24.6167 53.7455C23.3835 53.6357 18.6257 53.124 16.0566 51.4666C13.7959 50.0267 12.0428 47.294 11.2823 45.9576V46.3616C12.014 47.7498 13.6849 50.5239 15.9148 51.9555C18.3811 53.5342 22.8718 53.9983 24.3166 54.1081L24.6167 53.7455Z" fill="#4D585A"/>
<path id="Vector_140" d="M52.0272 41.4656C51.7478 41.6355 51.4471 41.7672 51.1332 41.8571C50.4015 42.0913 49.713 42.2715 49.5383 42.7128H49.6863C49.822 42.7128 49.9597 42.6921 50.0974 42.6755H50.159L50.2535 42.661H50.3296L50.42 42.6465L50.5022 42.632L50.5886 42.6133L50.681 42.5947L50.7591 42.5761L50.8763 42.545L50.9318 42.5305L51.1003 42.4787L51.1599 42.458L51.275 42.4165L51.3449 42.3896L51.4517 42.344L51.5216 42.3129L51.6305 42.2612L51.6984 42.228L51.8155 42.1638L51.8751 42.1327C51.9327 42.0975 51.9902 42.0643 52.0478 42.025C52.0813 41.935 52.0967 41.8392 52.0932 41.7432C52.0897 41.6472 52.0672 41.5528 52.0272 41.4656Z" fill="#BBC2C6"/>
<path id="Vector_141" d="M10.4396 38.6377C10.0574 39.1515 9.70798 40.5023 9.70798 40.5023L9.65454 40.5562C9.67715 41.0575 9.895 45.0955 11.0357 46.8316L11.1487 47.0057L11.1384 46.7985C11.0747 45.5968 10.9966 43.6369 11.0583 43.4836C11.1291 43.3367 11.2152 43.1978 11.3152 43.0692L11.3275 43.0568V43.0465C11.4762 41.8294 11.7517 40.6315 12.1496 39.4726C12.2914 39.0976 12.4455 38.7309 12.5915 38.3766C13.0189 37.3407 13.3868 36.4643 13.2615 35.9609V35.9423C11.8413 37.2454 10.5917 38.4263 10.4396 38.6377Z" fill="#414E52"/>
<path id="Vector_142" d="M27.7366 54.9511C26.1828 54.9511 24.7277 54.8952 24.1769 54.8579H24.068L26.2486 52.092H26.2609C26.3 52.0754 30.1124 50.5402 31.3024 50.0492C31.6785 49.8938 32.0464 49.7177 32.404 49.5458C33.1398 49.1936 33.7769 48.889 34.2167 48.889C34.2509 48.8868 34.2852 48.8868 34.3195 48.889C34.8024 48.9491 35.606 49.1646 35.8424 49.5106C35.8726 49.5512 35.8935 49.5982 35.9034 49.648C35.9134 49.6978 35.9122 49.7492 35.8999 49.7985C35.791 50.2295 33.2281 54.1493 31.9518 54.6258C31.2387 54.8952 29.2657 54.9511 27.7366 54.9511Z" fill="#414E52"/>
<path id="Vector_143" d="M24.1788 54.802L26.2834 52.1335C26.2834 52.1335 30.1164 50.588 31.3228 50.0907C32.5292 49.5935 33.6925 48.8642 34.3132 48.9409C34.9338 49.0175 35.9573 49.3366 35.8464 49.7841C35.7354 50.2316 33.1848 54.0997 31.9414 54.572C30.698 55.0444 25.3709 54.8787 24.1788 54.802Z" fill="url(#paint79_linear_1001_8689)"/>
<path id="Vector_144" d="M35.8362 49.6205V49.6516C35.1991 50.211 34.0831 50.9713 32.1841 51.6509C32.2642 52.2517 32.291 53.3497 31.5326 53.8573C30.5317 54.5265 26.0431 54.6384 24.2879 54.6529L24.1687 54.8021C25.3607 54.8787 30.6673 55.0445 31.921 54.5721C33.1747 54.0997 35.7211 50.2213 35.8259 49.7842C35.8469 49.7322 35.8505 49.6747 35.8362 49.6205Z" fill="url(#paint80_linear_1001_8689)"/>
<path id="Vector_145" d="M72.6924 16.1337L78.0032 19.2683C78.0032 19.2683 74.7148 15.2324 73.6337 14.2255L73.5228 14.1447L72.1088 12.7836C72.1088 12.7836 72.6863 14.3416 72.7541 14.8554C72.784 15.2824 72.7633 15.7116 72.6924 16.1337Z" fill="#141C1E"/>
<path id="Vector_146" d="M75.5472 17.1986C76.1535 17.5321 76.1802 17.4058 75.8884 17.0142C75.5965 16.6226 73.3194 13.9438 73.3132 13.9376L72.115 12.7836C72.115 12.7836 72.6925 14.3416 72.7603 14.8554C72.7798 15.0176 72.7846 15.1812 72.7747 15.3443C73.3378 15.7297 75.0416 16.923 75.5472 17.1986Z" fill="#303E42"/>
<path id="Vector_147" d="M72.7727 22.9896C72.4644 22.0697 71.0113 17.3792 69.7083 17.893C68.4053 18.4068 58.4046 22.9502 54.7792 25.6891C51.1537 28.4281 50.3029 29.3728 49.6801 29.9943C48.6525 31.0302 43.2781 40.1607 42.4272 41.8741C41.5764 43.5874 40.446 45.3568 40.8139 45.7566C41.1818 46.1565 43.2802 44.7207 45.8554 43.0633C46.0609 42.9307 46.3938 42.709 46.8336 42.4106L46.5521 42.3485L46.4452 41.066L46.4884 40.4963C46.6597 40.1865 46.8837 39.9095 47.1502 39.6779C47.5612 39.3444 47.8654 39.0854 48.7306 39.3112C49.3146 39.4748 49.8845 39.6862 50.4344 39.9431C57.8846 34.8071 71.3546 25.3991 71.3546 25.3991C71.3546 25.3991 73.2125 24.3072 72.7727 22.9896Z" fill="#141C1E"/>
<path id="Vector_148" d="M69.3279 18.359C67.7125 19.0593 63.08 21.187 59.2573 23.265C59.8307 25.4839 60.8604 30.3589 61.2283 32.1241C66.4999 28.457 71.0934 25.254 71.1879 25.1835C71.4296 25.0289 71.656 24.8513 71.8641 24.6531C71.3749 22.5668 69.887 19.4799 69.3279 18.359Z" fill="#303E42"/>
<path id="Vector_149" d="M39.1184 44.3103C39.1184 44.3103 45.3087 33.7607 47.6661 29.5363C47.6661 29.5363 42.6513 27.4914 38.8718 25.0343C35.0922 22.5771 31.995 20.0909 31.995 20.0909C31.995 20.0909 29.2985 22.14 28.0345 23.1986C24.3351 26.3063 18.4613 31.6309 18.4613 31.6309C18.4613 31.6309 19.8794 35.0784 26.7624 39.2199C33.6453 43.3614 39.1184 44.3103 39.1184 44.3103Z" fill="#141C1E"/>
<path id="Vector_150" d="M31.666 20.6982C30.8254 21.3405 29.1319 22.6478 28.2132 23.4206C25.2969 25.8736 20.9583 29.7624 19.3141 31.2458C20.2903 32.6484 22.6148 35.3231 27.6295 38.3417C31.2753 40.5614 35.2003 42.2777 39.2991 43.4445C40.6576 41.1283 44.9407 33.8003 47.072 30.0193C46.0444 29.5904 41.8085 27.7589 38.5058 25.6125C34.9605 23.3087 32.0174 20.9779 31.666 20.6982Z" fill="#303E42"/>
<path id="Vector_151" d="M19.3141 31.2373C20.2903 32.6399 22.6148 35.3146 27.6295 38.3332C31.2753 40.5529 35.2002 42.2692 39.2991 43.4361C39.7348 42.6943 40.4706 41.4347 41.3399 39.943C38.142 38.0556 24.6186 30.0667 22.3291 28.5481C21.0734 29.6689 19.9738 30.651 19.3141 31.2373Z" fill="#39464A"/>
<path id="Vector_152" d="M39.3856 34.7591C39.0417 34.6063 38.6719 34.5212 38.2963 34.5084C37.5112 34.5084 37.1474 35.0388 37.4475 35.9587C37.8585 37.2246 39.4123 38.7432 40.9023 39.3502C41.1084 39.4395 41.3224 39.5088 41.5415 39.5574L41.6895 39.3813C41.7676 39.2446 41.8477 39.1099 41.9279 38.9669C41.6552 38.9425 41.3885 38.8725 41.1387 38.7598C39.8233 38.2232 38.4073 36.8496 38.0558 35.7577C37.949 35.4387 37.9818 35.2709 38.0127 35.2253C38.0978 35.1658 38.2017 35.1399 38.3045 35.1528C38.5992 35.167 38.8886 35.2373 39.1574 35.3599C40.4728 35.8965 41.8888 37.2722 42.2403 38.362C42.246 38.3769 42.2508 38.3921 42.2547 38.4076L42.6513 37.7239C42.0676 36.5409 40.705 35.2874 39.3856 34.7591Z" fill="#3D4B4F"/>
<path id="Vector_153" d="M35.5012 40.4818C31.3702 38.4493 33.857 35.9238 34.3195 35.6503C34.7819 35.3769 37.0673 35.7643 38.7772 36.8934C40.4872 38.0225 41.3401 39.9535 41.3401 39.9535C41.3401 39.9535 39.4185 42.4127 35.5012 40.4818Z" fill="#3D4B4F"/>
<path id="Vector_154" opacity="0.7" d="M32.4245 21.2925C32.0135 20.9817 31.7566 20.7725 31.6661 20.7C30.8255 21.3422 29.132 22.6495 28.2133 23.4223C26.9186 24.51 25.336 25.8815 23.8501 27.2013L32.4245 21.2925Z" fill="#C5D0D3"/>
<path id="Vector_155" opacity="0.2" d="M38.5058 25.6125C34.9605 23.3087 32.0174 20.9779 31.666 20.6982C30.8254 21.3405 29.1319 22.6478 28.2132 23.4206C25.2969 25.8736 20.9583 29.7624 19.3141 31.2458C19.9101 32.1035 21.0138 33.4377 22.9272 35.0372C26.2957 32.9882 32.5867 29.3791 39.7636 26.3895C39.334 26.1367 38.9127 25.8777 38.5058 25.6125Z" fill="white"/>
<path id="Vector_156" d="M45.2058 42.0107L45.3661 42.5493C45.3661 42.5493 47.2878 43.0114 48.6874 43.0342C50.087 43.0569 51.2276 42.6778 51.7702 42.3235C51.8972 42.2481 51.9983 42.1353 52.06 42.0003C51.057 42.6467 50.0541 42.7006 49.1333 42.7317C48.2126 42.7627 46.5581 42.365 46.5581 42.365L46.4513 41.0825C46.4513 41.0825 45.9231 41.2897 45.66 41.4389C45.4616 41.5861 45.305 41.7833 45.2058 42.0107Z" fill="#2D3537"/>
<path id="Vector_157" d="M46.4451 41.0825C46.4451 41.0825 45.9169 41.2897 45.6539 41.4389C45.458 41.5863 45.3035 41.7827 45.2058 42.0086L46.552 42.365L46.4451 41.0825Z" fill="#3A4244"/>
<path id="Vector_158" d="M46.4884 40.5126C46.6473 40.2264 46.8506 39.9676 47.0906 39.746L46.4904 35.3953C45.617 36.8455 44.7291 38.3476 44.0242 39.5907C44.2297 40.1915 44.503 41.0409 44.7702 41.8572L46.4699 40.8627L46.4884 40.5126Z" fill="#303E42"/>
<path id="Vector_159" d="M48.7307 39.3276C49.2091 39.4615 49.678 39.6276 50.1344 39.8248C52.3417 38.302 55.1019 36.3877 57.8929 34.4505C57.747 31.4029 57.0009 26.6481 56.6885 24.7462C56.0206 25.1606 55.4266 25.5521 54.9478 25.9147C51.6101 28.4382 50.6564 29.4098 50.0255 30.0583L49.8796 30.2075C49.4685 30.6219 48.2539 32.5072 46.9324 34.6681L47.5489 39.4042C47.8285 39.2426 48.1573 39.1784 48.7307 39.3276Z" fill="#303E42"/>
<path id="Vector_160" d="M28.8833 52.2432C28.2667 52.264 27.6933 52.2432 27.2391 52.2205L26.2258 52.842C26.1587 52.8918 26.1074 52.9603 26.0782 53.039C26.049 53.1178 26.0432 53.2033 26.0614 53.2854C26.1041 53.5312 26.1998 53.7646 26.3419 53.9691C26.484 54.1735 26.6689 54.3439 26.8835 54.4684C26.9568 54.5181 27.0413 54.5486 27.1293 54.5569C27.2172 54.5652 27.3059 54.5512 27.387 54.516L29.4423 53.3392C29.4618 53.1799 29.4477 53.0183 29.4012 52.8648C29.3159 52.5972 29.13 52.3741 28.8833 52.2432Z" fill="url(#paint81_linear_1001_8689)"/>
<path id="Vector_161" d="M26.0697 53.2811C26.1124 53.527 26.2081 53.7604 26.3502 53.9648C26.4923 54.1693 26.6772 54.3397 26.8918 54.4641C26.9651 54.5139 27.0496 54.5443 27.1376 54.5527C27.2255 54.561 27.3142 54.5469 27.3953 54.5118C27.4631 54.4625 27.5149 54.3941 27.5441 54.3152C27.5734 54.2363 27.5788 54.1504 27.5598 54.0684C27.5175 53.8227 27.4219 53.5894 27.2798 53.3852C27.1377 53.1811 26.9525 53.0111 26.7377 52.8875C26.6647 52.837 26.5803 52.806 26.4923 52.7973C26.4042 52.7886 26.3154 52.8025 26.2341 52.8378C26.167 52.8876 26.1157 52.9561 26.0865 53.0348C26.0573 53.1135 26.0515 53.1991 26.0697 53.2811Z" fill="white"/>
<path id="Vector_162" d="M32.6732 51.4705C32.4102 51.574 32.1286 51.6776 31.8306 51.775C30.6365 52.1749 29.2389 52.2619 28.1456 52.2515C28.064 52.4049 28.0337 52.5808 28.0592 52.7529C28.1229 53.1225 28.2664 53.4735 28.4795 53.781C28.6926 54.0885 28.9701 54.3451 29.2924 54.5326C29.6007 54.6963 29.8658 54.7108 30.0487 54.6051L33.1315 52.8337C33.1625 52.594 33.1428 52.3505 33.074 52.1189C32.9961 51.8725 32.8583 51.6496 32.6732 51.4705Z" fill="url(#paint82_linear_1001_8689)"/>
<path id="Vector_163" d="M29.1876 52.2308C28.8217 52.2495 28.4703 52.2557 28.1456 52.2515C28.064 52.4049 28.0337 52.5808 28.0592 52.7529C28.1229 53.1225 28.2664 53.4735 28.4795 53.781C28.6926 54.0885 28.9701 54.3451 29.2924 54.5326C29.6007 54.6963 29.8658 54.7108 30.0487 54.6051C30.2316 54.4994 30.3303 54.2674 30.2974 53.938C30.2386 53.5919 30.1097 53.2616 29.9188 52.9679C29.7279 52.6742 29.4789 52.4233 29.1876 52.2308Z" fill="white"/>
<g id="Group_8">
<path id="Vector_164" d="M24.1788 54.802L26.2834 52.1335C26.2834 52.1335 30.1164 50.588 31.3228 50.0907C32.5292 49.5935 33.6925 48.8642 34.3132 48.9409C34.9338 49.0175 35.9573 49.3366 35.8464 49.7841C35.7354 50.2316 33.1848 54.0997 31.9414 54.572C30.698 55.0444 25.3709 54.8787 24.1788 54.802Z" fill="url(#paint83_linear_1001_8689)"/>
</g>
<g id="Group_9">
<path id="Vector_165" d="M34.3132 48.9409C33.6966 48.8642 32.5272 49.5935 31.3229 50.0907C30.1185 50.588 26.2834 52.1335 26.2834 52.1335C26.2834 52.1335 29.4608 52.5686 31.8326 51.7751C33.9536 51.0666 35.1702 50.2461 35.8485 49.6515C35.7519 49.2744 34.8702 49.0113 34.3132 48.9409Z" fill="url(#paint84_linear_1001_8689)"/>
</g>
<path id="Vector_166" d="M10.4397 38.6376C10.0574 39.1514 9.70801 40.5022 9.70801 40.5022C9.70801 40.5022 9.86626 44.9483 11.083 46.8005C11.083 46.8005 10.9185 43.6721 11.0069 43.4691C11.0794 43.3212 11.1683 43.1822 11.272 43.0547C11.4191 41.8326 11.6947 40.6297 12.0941 39.4663C12.6429 38.0161 13.3643 36.6446 13.2039 35.9899C11.8249 37.2702 10.5918 38.4284 10.4397 38.6376Z" fill="url(#paint85_linear_1001_8689)"/>
<g id="Group_10">
<path id="Vector_167" d="M10.4397 38.6376C10.0574 39.1514 9.70801 40.5022 9.70801 40.5022C9.70801 40.5022 9.86626 44.9483 11.083 46.8005C11.083 46.8005 10.9185 43.6721 11.0069 43.4691C11.0794 43.3212 11.1683 43.1822 11.272 43.0547C11.4191 41.8326 11.6947 40.6297 12.0941 39.4663C12.6429 38.0161 13.3643 36.6446 13.2039 35.9899C11.8249 37.2702 10.5918 38.4284 10.4397 38.6376Z" fill="url(#paint86_linear_1001_8689)"/>
</g>
<g id="Group_11">
<path id="Vector_168" d="M13.206 35.9773C12.3525 36.7981 11.5592 37.6803 10.8323 38.6168C9.67722 40.1147 11.2721 43.0463 11.2721 43.0463C11.4192 41.8242 11.6948 40.6213 12.0942 39.4579C12.647 38.0035 13.3663 36.6237 13.206 35.9773Z" fill="url(#paint87_linear_1001_8689)"/>
</g>
<path id="Vector_169" d="M19.2545 57.9924C19.1927 57.9917 19.1322 57.9738 19.0798 57.9406L12.6572 54.0581C12.5701 54.0007 12.4978 53.9233 12.4463 53.8321C12.3948 53.7409 12.3657 53.6387 12.3613 53.5339V52.1624C12.357 52.1252 12.3604 52.0875 12.3714 52.0517C12.3824 52.0159 12.4006 51.9828 12.425 51.9545C12.4494 51.9263 12.4793 51.9034 12.5129 51.8875C12.5466 51.8715 12.5831 51.8628 12.6202 51.8619C12.6821 51.8626 12.7426 51.8805 12.7949 51.9137L19.2237 55.8046C19.3109 55.8619 19.3832 55.9393 19.4347 56.0305C19.4861 56.1217 19.5153 56.2239 19.5196 56.3287V57.694C19.5237 57.7316 19.5198 57.7696 19.5084 57.8056C19.4969 57.8415 19.478 57.8746 19.453 57.9028C19.428 57.9309 19.3974 57.9534 19.3632 57.9689C19.329 57.9843 19.292 57.9923 19.2545 57.9924Z" fill="#404B4D"/>
<path id="Vector_170" d="M19.3799 57.6941C19.3799 57.8412 19.2751 57.9012 19.1497 57.8246L12.7251 53.942C12.6572 53.896 12.6009 53.8345 12.561 53.7625C12.521 53.6905 12.4983 53.6101 12.4949 53.5277V52.1624C12.4949 52.0132 12.5976 51.9552 12.7251 52.0298L19.1497 55.9123C19.2173 55.9587 19.2732 56.0203 19.3132 56.0922C19.3531 56.1641 19.3759 56.2444 19.3799 56.3267V57.6941Z" fill="white"/>
</g>
</g>
<defs>
<filter id="filter0_d_1001_8689" x="2.71448" y="2.67529" width="87.0854" height="71.0216" filterUnits="userSpaceOnUse" color-interpolation-filters="sRGB">
<feFlood flood-opacity="0" result="BackgroundImageFix"/>
<feColorMatrix in="SourceAlpha" type="matrix" values="0 0 0 0 0 0 0 0 0 0 0 0 0 0 0 0 0 0 127 0" result="hardAlpha"/>
<feOffset dx="1" dy="3"/>
<feGaussianBlur stdDeviation="3"/>
<feComposite in2="hardAlpha" operator="out"/>
<feColorMatrix type="matrix" values="0 0 0 0 0 0 0 0 0 0 0 0 0 0 0 0 0 0 0.25 0"/>
<feBlend mode="normal" in2="BackgroundImageFix" result="effect1_dropShadow_1001_8689"/>
<feBlend mode="normal" in="SourceGraphic" in2="effect1_dropShadow_1001_8689" result="shape"/>
</filter>
<linearGradient id="paint0_linear_1001_8689" x1="76.5746" y1="39.4528" x2="74.3864" y2="35.6757" gradientUnits="userSpaceOnUse">
<stop stop-color="#7A7D80"/>
<stop offset="1" stop-color="#2C2F30"/>
</linearGradient>
<linearGradient id="paint1_linear_1001_8689" x1="76.5123" y1="40.7291" x2="73.4604" y2="35.4614" gradientUnits="userSpaceOnUse">
<stop stop-color="#F9FCFF"/>
<stop offset="1" stop-color="#76797A"/>
</linearGradient>
<linearGradient id="paint2_linear_1001_8689" x1="76.5123" y1="41.2326" x2="73.0129" y2="35.1924" gradientUnits="userSpaceOnUse">
<stop stop-color="#F9FCFF"/>
<stop offset="1" stop-color="#76797A"/>
</linearGradient>
<linearGradient id="paint3_linear_1001_8689" x1="76.5123" y1="32.96" x2="80.8852" y2="40.508" gradientUnits="userSpaceOnUse">
<stop stop-color="#F9FCFF"/>
<stop offset="1" stop-color="#76797A"/>
</linearGradient>
<linearGradient id="paint4_linear_1001_8689" x1="76.5123" y1="40.9736" x2="72.8018" y2="34.5688" gradientUnits="userSpaceOnUse">
<stop stop-color="#F9FCFF"/>
<stop offset="1" stop-color="#76797A"/>
</linearGradient>
<linearGradient id="paint5_linear_1001_8689" x1="77.0381" y1="39.5813" x2="77.2152" y2="39.5514" gradientUnits="userSpaceOnUse">
<stop stop-color="#F9FCFF"/>
<stop offset="1" stop-color="#76797A"/>
</linearGradient>
<linearGradient id="paint6_linear_1001_8689" x1="78.1466" y1="38.2657" x2="78.238" y2="38.0771" gradientUnits="userSpaceOnUse">
<stop stop-color="#F9FCFF"/>
<stop offset="1" stop-color="#76797A"/>
</linearGradient>
<linearGradient id="paint7_linear_1001_8689" x1="78.7831" y1="36.7057" x2="78.7318" y2="36.5181" gradientUnits="userSpaceOnUse">
<stop stop-color="#F9FCFF"/>
<stop offset="1" stop-color="#76797A"/>
</linearGradient>
<linearGradient id="paint8_linear_1001_8689" x1="78.8332" y1="35.2553" x2="78.7355" y2="35.1517" gradientUnits="userSpaceOnUse">
<stop stop-color="#F9FCFF"/>
<stop offset="1" stop-color="#76797A"/>
</linearGradient>
<linearGradient id="paint9_linear_1001_8689" x1="78.2628" y1="34.3283" x2="78.1152" y2="34.2468" gradientUnits="userSpaceOnUse">
<stop stop-color="#F9FCFF"/>
<stop offset="1" stop-color="#76797A"/>
</linearGradient>
<linearGradient id="paint10_linear_1001_8689" x1="77.2436" y1="34.1667" x2="77.0591" y2="34.1275" gradientUnits="userSpaceOnUse">
<stop stop-color="#F9FCFF"/>
<stop offset="1" stop-color="#76797A"/>
</linearGradient>
<linearGradient id="paint11_linear_1001_8689" x1="75.747" y1="35.0422" x2="76.0357" y2="34.9663" gradientUnits="userSpaceOnUse">
<stop stop-color="#F9FCFF"/>
<stop offset="1" stop-color="#76797A"/>
</linearGradient>
<linearGradient id="paint12_linear_1001_8689" x1="74.7689" y1="36.3442" x2="74.8891" y2="36.1617" gradientUnits="userSpaceOnUse">
<stop stop-color="#F9FCFF"/>
<stop offset="1" stop-color="#76797A"/>
</linearGradient>
<linearGradient id="paint13_linear_1001_8689" x1="74.1932" y1="37.9313" x2="74.1563" y2="37.7486" gradientUnits="userSpaceOnUse">
<stop stop-color="#F9FCFF"/>
<stop offset="1" stop-color="#76797A"/>
</linearGradient>
<linearGradient id="paint14_linear_1001_8689" x1="74.2344" y1="39.3182" x2="74.1531" y2="39.2235" gradientUnits="userSpaceOnUse">
<stop stop-color="#F9FCFF"/>
<stop offset="1" stop-color="#76797A"/>
</linearGradient>
<linearGradient id="paint15_linear_1001_8689" x1="74.8905" y1="40.1523" x2="74.7737" y2="40.0913" gradientUnits="userSpaceOnUse">
<stop stop-color="#F9FCFF"/>
<stop offset="1" stop-color="#76797A"/>
</linearGradient>
<linearGradient id="paint16_linear_1001_8689" x1="75.9938" y1="40.197" x2="75.8508" y2="40.1684" gradientUnits="userSpaceOnUse">
<stop stop-color="#F9FCFF"/>
<stop offset="1" stop-color="#76797A"/>
</linearGradient>
<linearGradient id="paint17_linear_1001_8689" x1="76.5124" y1="40.9613" x2="75.4107" y2="39.0596" gradientUnits="userSpaceOnUse">
<stop stop-color="#F9FCFF"/>
<stop offset="1" stop-color="#76797A"/>
</linearGradient>
<linearGradient id="paint18_linear_1001_8689" x1="75.4305" y1="41.0308" x2="74.5676" y2="40.1442" gradientUnits="userSpaceOnUse">
<stop stop-color="#F9FCFF"/>
<stop offset="1" stop-color="#76797A"/>
</linearGradient>
<linearGradient id="paint19_linear_1001_8689" x1="78.0714" y1="34.4062" x2="77.2041" y2="34.0202" gradientUnits="userSpaceOnUse">
<stop stop-color="#F9FCFF"/>
<stop offset="1" stop-color="#76797A"/>
</linearGradient>
<linearGradient id="paint20_linear_1001_8689" x1="74.9014" y1="36.3652" x2="75.5463" y2="35.0294" gradientUnits="userSpaceOnUse">
<stop stop-color="#F9FCFF"/>
<stop offset="1" stop-color="#76797A"/>
</linearGradient>
<linearGradient id="paint21_linear_1001_8689" x1="76.5124" y1="35.8627" x2="75.2848" y2="33.7438" gradientUnits="userSpaceOnUse">
<stop stop-color="#F9FCFF"/>
<stop offset="1" stop-color="#76797A"/>
</linearGradient>
<linearGradient id="paint22_linear_1001_8689" x1="78.7064" y1="35.1532" x2="78.0173" y2="34.6221" gradientUnits="userSpaceOnUse">
<stop stop-color="#F9FCFF"/>
<stop offset="1" stop-color="#76797A"/>
</linearGradient>
<linearGradient id="paint23_linear_1001_8689" x1="74.3934" y1="37.5645" x2="74.4951" y2="36.4404" gradientUnits="userSpaceOnUse">
<stop stop-color="#F9FCFF"/>
<stop offset="1" stop-color="#76797A"/>
</linearGradient>
<linearGradient id="paint24_linear_1001_8689" x1="78.7242" y1="36.3359" x2="78.362" y2="35.6983" gradientUnits="userSpaceOnUse">
<stop stop-color="#F9FCFF"/>
<stop offset="1" stop-color="#76797A"/>
</linearGradient>
<linearGradient id="paint25_linear_1001_8689" x1="74.3005" y1="38.8864" x2="73.9464" y2="38.2752" gradientUnits="userSpaceOnUse">
<stop stop-color="#F9FCFF"/>
<stop offset="1" stop-color="#76797A"/>
</linearGradient>
<linearGradient id="paint26_linear_1001_8689" x1="78.4417" y1="37.6517" x2="78.2832" y2="36.9221" gradientUnits="userSpaceOnUse">
<stop stop-color="#F9FCFF"/>
<stop offset="1" stop-color="#76797A"/>
</linearGradient>
<linearGradient id="paint27_linear_1001_8689" x1="74.8744" y1="39.9648" x2="74.2897" y2="39.5515" gradientUnits="userSpaceOnUse">
<stop stop-color="#F9FCFF"/>
<stop offset="1" stop-color="#76797A"/>
</linearGradient>
<linearGradient id="paint28_linear_1001_8689" x1="77.5869" y1="39.9719" x2="77.0969" y2="37.8672" gradientUnits="userSpaceOnUse">
<stop stop-color="#F9FCFF"/>
<stop offset="1" stop-color="#76797A"/>
</linearGradient>
<linearGradient id="paint29_linear_1001_8689" x1="76.5123" y1="36.5609" x2="77.0947" y2="37.566" gradientUnits="userSpaceOnUse">
<stop stop-color="#F9FCFF"/>
<stop offset="1" stop-color="#76797A"/>
</linearGradient>
<linearGradient id="paint30_linear_1001_8689" x1="77.1918" y1="37.9923" x2="76.8209" y2="37.3139" gradientUnits="userSpaceOnUse">
<stop stop-color="#E0E3E6"/>
<stop offset="1" stop-color="#5D6061"/>
</linearGradient>
<linearGradient id="paint31_linear_1001_8689" x1="75.8292" y1="38.7817" x2="75.4593" y2="38.1016" gradientUnits="userSpaceOnUse">
<stop stop-color="#E0E3E6"/>
<stop offset="1" stop-color="#5D6061"/>
</linearGradient>
<linearGradient id="paint32_linear_1001_8689" x1="75.8292" y1="37.2114" x2="75.4592" y2="36.5313" gradientUnits="userSpaceOnUse">
<stop stop-color="#E0E3E6"/>
<stop offset="1" stop-color="#5D6061"/>
</linearGradient>
<linearGradient id="paint33_linear_1001_8689" x1="77.1918" y1="36.4219" x2="76.8209" y2="35.7434" gradientUnits="userSpaceOnUse">
<stop stop-color="#E0E3E6"/>
<stop offset="1" stop-color="#5D6061"/>
</linearGradient>
<linearGradient id="paint34_linear_1001_8689" x1="75.9901" y1="36.6137" x2="75.951" y2="37.2004" gradientUnits="userSpaceOnUse">
<stop stop-color="#EFF2F5"/>
<stop offset="1" stop-color="#86898B"/>
</linearGradient>
<linearGradient id="paint35_linear_1001_8689" x1="75.9901" y1="38.184" x2="75.951" y2="38.7707" gradientUnits="userSpaceOnUse">
<stop stop-color="#EFF2F5"/>
<stop offset="1" stop-color="#86898B"/>
</linearGradient>
<linearGradient id="paint36_linear_1001_8689" x1="77.3527" y1="37.3949" x2="77.3103" y2="37.9835" gradientUnits="userSpaceOnUse">
<stop stop-color="#EFF2F5"/>
<stop offset="1" stop-color="#86898B"/>
</linearGradient>
<linearGradient id="paint37_linear_1001_8689" x1="77.3527" y1="35.8241" x2="77.3103" y2="36.4128" gradientUnits="userSpaceOnUse">
<stop stop-color="#EFF2F5"/>
<stop offset="1" stop-color="#86898B"/>
</linearGradient>
<linearGradient id="paint38_linear_1001_8689" x1="39.5014" y1="61.1055" x2="37.3122" y2="57.3269" gradientUnits="userSpaceOnUse">
<stop stop-color="#7A7D80"/>
<stop offset="1" stop-color="#2C2F30"/>
</linearGradient>
<linearGradient id="paint39_linear_1001_8689" x1="39.439" y1="62.3817" x2="36.3862" y2="57.1124" gradientUnits="userSpaceOnUse">
<stop stop-color="#F9FCFF"/>
<stop offset="1" stop-color="#76797A"/>
</linearGradient>
<linearGradient id="paint40_linear_1001_8689" x1="39.4389" y1="62.8829" x2="35.9395" y2="56.8426" gradientUnits="userSpaceOnUse">
<stop stop-color="#F9FCFF"/>
<stop offset="1" stop-color="#76797A"/>
</linearGradient>
<linearGradient id="paint41_linear_1001_8689" x1="39.439" y1="54.6125" x2="43.8119" y2="62.1604" gradientUnits="userSpaceOnUse">
<stop stop-color="#F9FCFF"/>
<stop offset="1" stop-color="#76797A"/>
</linearGradient>
<linearGradient id="paint42_linear_1001_8689" x1="39.4389" y1="62.6261" x2="35.7275" y2="56.2198" gradientUnits="userSpaceOnUse">
<stop stop-color="#F9FCFF"/>
<stop offset="1" stop-color="#76797A"/>
</linearGradient>
<linearGradient id="paint43_linear_1001_8689" x1="39.9646" y1="61.2315" x2="40.1425" y2="61.204" gradientUnits="userSpaceOnUse">
<stop stop-color="#F9FCFF"/>
<stop offset="1" stop-color="#76797A"/>
</linearGradient>
<linearGradient id="paint44_linear_1001_8689" x1="41.0732" y1="59.916" x2="41.1683" y2="59.7272" gradientUnits="userSpaceOnUse">
<stop stop-color="#F9FCFF"/>
<stop offset="1" stop-color="#76797A"/>
</linearGradient>
<linearGradient id="paint45_linear_1001_8689" x1="41.7098" y1="58.3581" x2="41.6592" y2="58.1668" gradientUnits="userSpaceOnUse">
<stop stop-color="#F9FCFF"/>
<stop offset="1" stop-color="#76797A"/>
</linearGradient>
<linearGradient id="paint46_linear_1001_8689" x1="41.7598" y1="56.9057" x2="41.6628" y2="56.8014" gradientUnits="userSpaceOnUse">
<stop stop-color="#F9FCFF"/>
<stop offset="1" stop-color="#76797A"/>
</linearGradient>
<linearGradient id="paint47_linear_1001_8689" x1="41.1913" y1="55.9797" x2="41.0425" y2="55.8982" gradientUnits="userSpaceOnUse">
<stop stop-color="#F9FCFF"/>
<stop offset="1" stop-color="#76797A"/>
</linearGradient>
<linearGradient id="paint48_linear_1001_8689" x1="40.1702" y1="55.8191" x2="39.9877" y2="55.779" gradientUnits="userSpaceOnUse">
<stop stop-color="#F9FCFF"/>
<stop offset="1" stop-color="#76797A"/>
</linearGradient>
<linearGradient id="paint49_linear_1001_8689" x1="38.6737" y1="56.6946" x2="38.9652" y2="56.6162" gradientUnits="userSpaceOnUse">
<stop stop-color="#F9FCFF"/>
<stop offset="1" stop-color="#76797A"/>
</linearGradient>
<linearGradient id="paint50_linear_1001_8689" x1="37.6957" y1="57.9964" x2="37.8158" y2="57.8139" gradientUnits="userSpaceOnUse">
<stop stop-color="#F9FCFF"/>
<stop offset="1" stop-color="#76797A"/>
</linearGradient>
<linearGradient id="paint51_linear_1001_8689" x1="37.1216" y1="59.5826" x2="37.0846" y2="59.3999" gradientUnits="userSpaceOnUse">
<stop stop-color="#F9FCFF"/>
<stop offset="1" stop-color="#76797A"/>
</linearGradient>
<linearGradient id="paint52_linear_1001_8689" x1="37.1627" y1="60.9678" x2="37.0824" y2="60.8745" gradientUnits="userSpaceOnUse">
<stop stop-color="#F9FCFF"/>
<stop offset="1" stop-color="#76797A"/>
</linearGradient>
<linearGradient id="paint53_linear_1001_8689" x1="37.8173" y1="61.8026" x2="37.701" y2="61.7426" gradientUnits="userSpaceOnUse">
<stop stop-color="#F9FCFF"/>
<stop offset="1" stop-color="#76797A"/>
</linearGradient>
<linearGradient id="paint54_linear_1001_8689" x1="38.9205" y1="61.8471" x2="38.7771" y2="61.8196" gradientUnits="userSpaceOnUse">
<stop stop-color="#F9FCFF"/>
<stop offset="1" stop-color="#76797A"/>
</linearGradient>
<linearGradient id="paint55_linear_1001_8689" x1="39.4407" y1="62.6126" x2="38.3389" y2="60.7109" gradientUnits="userSpaceOnUse">
<stop stop-color="#F9FCFF"/>
<stop offset="1" stop-color="#76797A"/>
</linearGradient>
<linearGradient id="paint56_linear_1001_8689" x1="38.3571" y1="62.6811" x2="37.4951" y2="61.7959" gradientUnits="userSpaceOnUse">
<stop stop-color="#F9FCFF"/>
<stop offset="1" stop-color="#76797A"/>
</linearGradient>
<linearGradient id="paint57_linear_1001_8689" x1="40.9999" y1="56.0573" x2="40.1323" y2="55.6703" gradientUnits="userSpaceOnUse">
<stop stop-color="#F9FCFF"/>
<stop offset="1" stop-color="#76797A"/>
</linearGradient>
<linearGradient id="paint58_linear_1001_8689" x1="37.8279" y1="58.0152" x2="38.4765" y2="56.6792" gradientUnits="userSpaceOnUse">
<stop stop-color="#F9FCFF"/>
<stop offset="1" stop-color="#76797A"/>
</linearGradient>
<linearGradient id="paint59_linear_1001_8689" x1="39.4407" y1="57.514" x2="38.2131" y2="55.3951" gradientUnits="userSpaceOnUse">
<stop stop-color="#F9FCFF"/>
<stop offset="1" stop-color="#76797A"/>
</linearGradient>
<linearGradient id="paint60_linear_1001_8689" x1="41.6346" y1="56.8044" x2="40.9447" y2="56.272" gradientUnits="userSpaceOnUse">
<stop stop-color="#F9FCFF"/>
<stop offset="1" stop-color="#76797A"/>
</linearGradient>
<linearGradient id="paint61_linear_1001_8689" x1="37.3202" y1="59.2149" x2="37.4235" y2="58.0925" gradientUnits="userSpaceOnUse">
<stop stop-color="#F9FCFF"/>
<stop offset="1" stop-color="#76797A"/>
</linearGradient>
<linearGradient id="paint62_linear_1001_8689" x1="41.6526" y1="57.985" x2="41.2904" y2="57.3505" gradientUnits="userSpaceOnUse">
<stop stop-color="#F9FCFF"/>
<stop offset="1" stop-color="#76797A"/>
</linearGradient>
<linearGradient id="paint63_linear_1001_8689" x1="37.2272" y1="60.5387" x2="36.8731" y2="59.9275" gradientUnits="userSpaceOnUse">
<stop stop-color="#F9FCFF"/>
<stop offset="1" stop-color="#76797A"/>
</linearGradient>
<linearGradient id="paint64_linear_1001_8689" x1="41.3682" y1="59.3019" x2="41.2108" y2="58.5737" gradientUnits="userSpaceOnUse">
<stop stop-color="#F9FCFF"/>
<stop offset="1" stop-color="#76797A"/>
</linearGradient>
<linearGradient id="paint65_linear_1001_8689" x1="37.8012" y1="61.6149" x2="37.2182" y2="61.2026" gradientUnits="userSpaceOnUse">
<stop stop-color="#F9FCFF"/>
<stop offset="1" stop-color="#76797A"/>
</linearGradient>
<linearGradient id="paint66_linear_1001_8689" x1="40.5136" y1="61.6223" x2="40.0247" y2="59.519" gradientUnits="userSpaceOnUse">
<stop stop-color="#F9FCFF"/>
<stop offset="1" stop-color="#76797A"/>
</linearGradient>
<linearGradient id="paint67_linear_1001_8689" x1="39.4407" y1="58.212" x2="40.0231" y2="59.2172" gradientUnits="userSpaceOnUse">
<stop stop-color="#F9FCFF"/>
<stop offset="1" stop-color="#76797A"/>
</linearGradient>
<linearGradient id="paint68_linear_1001_8689" x1="40.1184" y1="59.6449" x2="39.7476" y2="58.9632" gradientUnits="userSpaceOnUse">
<stop stop-color="#E0E3E6"/>
<stop offset="1" stop-color="#5D6061"/>
</linearGradient>
<linearGradient id="paint69_linear_1001_8689" x1="38.7577" y1="60.4332" x2="38.3868" y2="59.7547" gradientUnits="userSpaceOnUse">
<stop stop-color="#E0E3E6"/>
<stop offset="1" stop-color="#5D6061"/>
</linearGradient>
<linearGradient id="paint70_linear_1001_8689" x1="38.7577" y1="58.8627" x2="38.386" y2="58.1827" gradientUnits="userSpaceOnUse">
<stop stop-color="#E0E3E6"/>
<stop offset="1" stop-color="#5D6061"/>
</linearGradient>
<linearGradient id="paint71_linear_1001_8689" x1="40.1184" y1="58.0747" x2="39.7476" y2="57.393" gradientUnits="userSpaceOnUse">
<stop stop-color="#E0E3E6"/>
<stop offset="1" stop-color="#5D6061"/>
</linearGradient>
<linearGradient id="paint72_linear_1001_8689" x1="38.9184" y1="58.2648" x2="38.876" y2="58.8534" gradientUnits="userSpaceOnUse">
<stop stop-color="#EFF2F5"/>
<stop offset="1" stop-color="#86898B"/>
</linearGradient>
<linearGradient id="paint73_linear_1001_8689" x1="38.9184" y1="59.8353" x2="38.876" y2="60.424" gradientUnits="userSpaceOnUse">
<stop stop-color="#EFF2F5"/>
<stop offset="1" stop-color="#86898B"/>
</linearGradient>
<linearGradient id="paint74_linear_1001_8689" x1="40.2792" y1="59.0471" x2="40.2401" y2="59.6339" gradientUnits="userSpaceOnUse">
<stop stop-color="#EFF2F5"/>
<stop offset="1" stop-color="#86898B"/>
</linearGradient>
<linearGradient id="paint75_linear_1001_8689" x1="40.2792" y1="57.4766" x2="40.2401" y2="58.0633" gradientUnits="userSpaceOnUse">
<stop stop-color="#EFF2F5"/>
<stop offset="1" stop-color="#86898B"/>
</linearGradient>
<linearGradient id="paint76_linear_1001_8689" x1="64.8888" y1="14.9572" x2="72.3755" y2="10.2279" gradientUnits="userSpaceOnUse">
<stop stop-color="white"/>
<stop offset="1"/>
</linearGradient>
<linearGradient id="paint77_linear_1001_8689" x1="58.1517" y1="37.3078" x2="57.2947" y2="36.2599" gradientUnits="userSpaceOnUse">
<stop stop-color="white"/>
<stop offset="1"/>
</linearGradient>
<linearGradient id="paint78_linear_1001_8689" x1="72.0554" y1="27.2325" x2="71.4722" y2="26.516" gradientUnits="userSpaceOnUse">
<stop stop-color="white"/>
<stop offset="1"/>
</linearGradient>
<linearGradient id="paint79_linear_1001_8689" x1="30.0773" y1="52.579" x2="30.3925" y2="54.2769" gradientUnits="userSpaceOnUse">
<stop stop-color="#AFB2B2"/>
<stop offset="0.5" stop-color="#E8EDED"/>
<stop offset="1" stop-color="#C7CACC"/>
</linearGradient>
<linearGradient id="paint80_linear_1001_8689" x1="24.179" y1="52.2579" x2="35.8547" y2="52.2579" gradientUnits="userSpaceOnUse">
<stop stop-color="#AFB2B2"/>
<stop offset="0.5" stop-color="#E8EDED"/>
<stop offset="1" stop-color="#C7CACC"/>
</linearGradient>
<linearGradient id="paint81_linear_1001_8689" x1="26.0655" y1="53.389" x2="29.4525" y2="53.389" gradientUnits="userSpaceOnUse">
<stop stop-color="#EDF2F2"/>
<stop offset="1" stop-color="#C7CACC"/>
</linearGradient>
<linearGradient id="paint82_linear_1001_8689" x1="28.0531" y1="53.072" x2="33.15" y2="53.072" gradientUnits="userSpaceOnUse">
<stop stop-color="#EDF2F2"/>
<stop offset="1" stop-color="#C7CACC"/>
</linearGradient>
<linearGradient id="paint83_linear_1001_8689" x1="30.0773" y1="52.579" x2="30.3925" y2="54.2769" gradientUnits="userSpaceOnUse">
<stop stop-color="white"/>
<stop offset="0.31" stop-color="white"/>
<stop offset="1" stop-color="white"/>
</linearGradient>
<linearGradient id="paint84_linear_1001_8689" x1="26.2834" y1="50.5942" x2="35.8464" y2="50.5942" gradientUnits="userSpaceOnUse">
<stop stop-color="white"/>
<stop offset="0.31" stop-color="white"/>
<stop offset="1" stop-color="white"/>
</linearGradient>
<linearGradient id="paint85_linear_1001_8689" x1="9.70801" y1="41.3869" x2="13.2286" y2="41.3869" gradientUnits="userSpaceOnUse">
<stop stop-color="#AFB2B2"/>
<stop offset="0.5" stop-color="#E8EDED"/>
<stop offset="1" stop-color="#C7CACC"/>
</linearGradient>
<linearGradient id="paint86_linear_1001_8689" x1="11.4858" y1="38.9401" x2="12.6361" y2="45.8818" gradientUnits="userSpaceOnUse">
<stop stop-color="white"/>
<stop offset="0.31" stop-color="white"/>
<stop offset="1" stop-color="white"/>
</linearGradient>
<linearGradient id="paint87_linear_1001_8689" x1="10.413" y1="39.5097" x2="13.2286" y2="39.5097" gradientUnits="userSpaceOnUse">
<stop stop-color="white"/>
<stop offset="0.31" stop-color="white"/>
<stop offset="1" stop-color="white"/>
</linearGradient>
</defs>
</svg>
