<svg width="140" height="115" viewBox="0 0 140 115" fill="none" xmlns="http://www.w3.org/2000/svg">
<g id="Frame 31" clip-path="url(#clip0_801_53958)">
<g id="Group 48204" filter="url(#filter0_d_801_53958)">
<path id="Vector" d="M69.326 86.5774L68.8752 86.3169C68.8752 86.3169 68.8017 84.7857 67.8522 84.7285C66.9027 84.6713 61.2344 79.903 61.2344 79.903C61.2344 79.903 64.9269 75.4937 67.9129 78.8579C70.899 82.2221 70.3683 85.5862 69.326 86.5774Z" fill="#222527"/>
<path id="Vector_2" d="M126.268 51.8173C126.268 51.8173 125.804 50.572 124.49 50.5307C123.176 50.4894 118.547 47.1824 118.547 47.1824C118.547 47.1824 123.982 43.9738 125.424 45.5273C126.866 47.0807 127.732 49.7428 126.268 51.8173Z" fill="#222527"/>
<path id="Vector_3" d="M125.626 52.856C125.626 50.448 124.711 48.812 123.26 48.1576L118.34 45.4955C117.278 45.416 115.491 45.9243 114.183 46.6709C110.136 48.9963 106.511 52.8687 105.75 57.7355C105.705 58.0119 105.83 60.5946 105.724 61.0807L105.769 61.1124L113.726 65.6298C115.005 66.2651 116.683 66.1063 118.547 65.0389C122.454 62.7961 125.626 57.3416 125.626 52.856Z" fill="#2E373A"/>
<path id="Vector_4" d="M125.625 52.856C125.625 57.3416 122.454 62.7961 118.547 65.0389C114.64 67.2817 111.469 65.4646 111.469 60.979C111.469 56.4934 114.637 51.0389 118.547 48.7961C122.457 46.5533 125.625 48.3736 125.625 52.856Z" fill="#555E61"/>
<path id="Vector_5" d="M125.424 53.1292C125.424 57.313 122.47 62.399 118.825 64.4893C115.181 66.5796 112.227 64.8864 112.227 60.7026C112.227 56.5188 115.181 51.436 118.825 49.3425C122.47 47.249 125.424 48.9486 125.424 53.1292Z" fill="#3B4447"/>
<path id="Vector_6" d="M123.423 54.3077C123.423 51.4201 121.383 50.2478 118.864 51.6901C116.345 53.1323 114.305 56.6522 114.305 59.5399C114.305 62.4275 116.348 63.5998 118.864 62.1543C121.38 60.7089 123.423 57.1954 123.423 54.3077Z" fill="#393B3D"/>
<path id="Vector_7" d="M122.176 55.0223C122.176 52.9257 120.692 52.0743 118.864 53.1163C117.035 54.1582 115.555 56.7155 115.555 58.8154C115.555 60.9152 117.038 61.7634 118.864 60.7214C120.689 59.6795 122.176 57.1095 122.176 55.0223Z" fill="url(#paint0_linear_801_53958)"/>
<path id="Vector_8" d="M118.874 51.5788C116.236 53.091 114.097 56.7696 114.1 59.7939C114.104 62.8182 116.236 64.0444 118.874 62.5323C121.511 61.0201 123.643 57.3415 123.643 54.3172C123.643 51.2929 121.508 50.0667 118.874 51.5788ZM118.874 61.9001C116.54 63.2375 114.65 62.1511 114.65 59.4762C114.65 56.8014 116.54 53.5484 118.874 52.211C121.207 50.8736 123.094 51.9569 123.094 54.6349C123.094 57.3129 121.204 60.5627 118.874 61.9001Z" fill="url(#paint1_linear_801_53958)"/>
<path id="Vector_9" d="M118.873 51.2199C116.063 52.8305 113.787 56.7507 113.787 59.9719C113.787 63.1931 116.063 64.502 118.873 62.8913C121.684 61.2807 123.957 57.3606 123.957 54.1362C123.957 50.9118 121.68 49.6093 118.873 51.2199ZM118.873 62.5324C116.236 64.0445 114.1 62.8183 114.1 59.794C114.1 56.7697 116.236 53.091 118.873 51.5789C121.511 50.0668 123.643 51.293 123.643 54.3173C123.643 57.3415 121.508 61.0202 118.873 62.5324Z" fill="#D0D2D4"/>
<path id="Vector_10" d="M118.873 51.0102C115.961 52.6812 113.605 56.7284 113.605 60.0767C113.605 63.425 115.961 64.7688 118.873 63.101C121.786 61.4332 124.139 57.3828 124.139 54.0313C124.139 50.6799 121.783 49.3393 118.873 51.0102ZM118.873 62.8913C116.063 64.502 113.787 63.209 113.787 59.9719C113.787 56.7348 116.063 52.8305 118.873 51.2199C121.684 49.6093 123.957 50.9022 123.957 54.1362C123.957 57.3701 121.68 61.2807 118.873 62.8913Z" fill="url(#paint2_linear_801_53958)"/>
<path id="Vector_11" d="M118.873 51.2199C116.063 52.8305 113.787 56.7507 113.787 59.9719C113.787 63.1931 116.063 64.502 118.873 62.8913C121.684 61.2807 123.957 57.3606 123.957 54.1362C123.957 50.9118 121.68 49.6093 118.873 51.2199ZM118.873 62.5324C116.236 64.0445 114.1 62.8183 114.1 59.794C114.1 56.7697 116.236 53.091 118.873 51.5789C121.511 50.0668 123.643 51.293 123.643 54.3173C123.643 57.3415 121.508 61.0202 118.873 62.5324Z" fill="#D0D2D4"/>
<path id="Vector_12" d="M123.541 55.5213C121.623 55.9247 121.22 55.9311 121.22 55.7119C121.22 55.4927 121.789 54.9018 123.544 53.2531L123.813 52.8401L123.755 52.6209L123.413 52.7639C121.441 54.3935 120.999 54.6699 120.903 54.546C120.808 54.4221 121.185 53.6375 122.425 51.3693L122.547 50.9214L122.387 50.8292L122.067 51.1469C120.577 53.5644 120.21 54.06 120.043 54.0441C119.877 54.0282 119.964 53.2817 120.363 50.9912L120.306 50.6291L120.085 50.6863L119.874 51.1215C119.263 53.6788 119.068 54.2474 118.88 54.3554C118.691 54.4634 118.455 53.9456 117.895 52.2524L117.671 52.0713L117.451 52.2651L117.406 52.6844C117.838 54.6953 117.87 55.1877 117.703 55.3911C117.537 55.5944 117.064 55.4387 115.692 54.8002L115.373 54.8478L115.213 55.1242L115.341 55.4165C116.703 56.3441 116.939 56.6268 116.856 56.8682C116.773 57.1097 116.15 57.367 114.35 57.9483L114.004 58.2152L113.947 58.5011L114.219 58.5869C116.137 58.1834 116.54 58.1771 116.54 58.3963C116.54 58.6155 115.97 59.2063 114.215 60.8551L113.947 61.2681L114.004 61.4873L114.346 61.3443C116.319 59.7146 116.76 59.4382 116.856 59.5621C116.952 59.686 116.575 60.4707 115.334 62.7389L115.213 63.1868L115.373 63.2789L115.692 62.9454C117.182 60.5279 117.55 60.0323 117.713 60.0482C117.876 60.0641 117.796 60.8106 117.393 63.101L117.451 63.4632L117.671 63.406L117.882 62.9708C118.493 60.4294 118.688 59.8449 118.88 59.7337C119.072 59.6225 119.302 60.1467 119.861 61.8399L120.085 62.021L120.306 61.8272L120.35 61.4078C119.919 59.3938 119.887 58.9045 120.05 58.7012C120.213 58.4979 120.689 58.6504 122.064 59.2921L122.384 59.2444L122.544 58.9681L122.416 58.6758C121.054 57.745 120.817 57.4655 120.9 57.224C120.983 56.9826 121.607 56.7253 123.407 56.1439L123.752 55.8771L123.81 55.5912L123.541 55.5213ZM117.822 59.1491C117.7 59.219 117.598 59.1492 117.598 59.0189C117.603 58.9421 117.626 58.8674 117.665 58.8008C117.703 58.7341 117.757 58.6772 117.822 58.6345C117.946 58.5646 118.045 58.6345 118.045 58.7648C118.041 58.8418 118.019 58.9168 117.98 58.9836C117.941 59.0504 117.887 59.1072 117.822 59.1491ZM117.822 56.7412C117.7 56.8142 117.598 56.7412 117.598 56.6141C117.602 56.5367 117.625 56.4614 117.664 56.3942C117.703 56.327 117.757 56.2696 117.822 56.2265C117.946 56.1566 118.045 56.2265 118.045 56.3568C118.042 56.434 118.02 56.5092 117.981 56.5761C117.942 56.6429 117.887 56.6996 117.822 56.7412ZM119.932 57.9388C119.807 58.0119 119.708 57.9388 119.708 57.8117C119.712 57.7342 119.734 57.6588 119.773 57.5915C119.812 57.5241 119.866 57.4668 119.932 57.4242C120.056 57.3543 120.155 57.4242 120.155 57.5544C120.152 57.631 120.131 57.7059 120.093 57.7727C120.056 57.8396 120.002 57.8965 119.938 57.9388H119.932ZM119.932 55.534C119.807 55.6039 119.708 55.534 119.708 55.4038C119.711 55.3266 119.734 55.2514 119.773 55.1845C119.812 55.1176 119.866 55.061 119.932 55.0194C120.056 54.9463 120.155 55.0194 120.155 55.1464C120.15 55.2212 120.128 55.2937 120.09 55.3587C120.052 55.4236 120 55.4792 119.938 55.5213L119.932 55.534Z" fill="url(#paint3_linear_801_53958)"/>
<path id="Vector_13" d="M121.22 55.7087C121.231 55.6302 121.265 55.5564 121.316 55.4958C121.309 55.1631 121.224 54.8366 121.067 54.5428C120.977 54.5809 120.929 54.5745 120.904 54.5428C120.878 54.511 120.888 54.4475 120.92 54.3395C120.742 54.1291 120.497 53.9864 120.226 53.936C120.143 54.025 120.088 54.0535 120.044 54.0504C119.999 54.0472 119.986 54.0059 119.973 53.9138C119.638 53.9198 119.31 54.0047 119.014 54.1615C118.985 54.2413 118.932 54.3109 118.864 54.3617C118.819 54.3871 118.774 54.3617 118.723 54.3299C118.365 54.5605 118.042 54.8408 117.764 55.1622C117.76 55.2474 117.73 55.3293 117.678 55.3973C117.657 55.4211 117.632 55.4402 117.603 55.4534C117.574 55.4665 117.543 55.4734 117.511 55.4736C117.232 55.8446 116.997 56.2465 116.811 56.6712C116.825 56.7033 116.833 56.7379 116.833 56.7729C116.833 56.8078 116.825 56.8425 116.811 56.8745C116.776 56.9442 116.722 57.0026 116.655 57.0429C116.513 57.4423 116.427 57.8592 116.399 58.2818C116.427 58.2871 116.452 58.3022 116.47 58.3244C116.487 58.3466 116.496 58.3743 116.495 58.4025C116.484 58.481 116.45 58.5548 116.399 58.6154C116.405 58.9482 116.49 59.2749 116.648 59.5684C116.738 59.5335 116.786 59.5398 116.811 59.5684C116.837 59.597 116.827 59.6605 116.795 59.7717C116.973 59.9812 117.218 60.1227 117.489 60.172C117.572 60.0862 117.627 60.0576 117.668 60.0608C117.71 60.064 117.729 60.1053 117.738 60.1974C118.074 60.191 118.403 60.105 118.698 59.9464C118.73 59.8664 118.784 59.797 118.854 59.7463C118.896 59.7241 118.937 59.7463 118.989 59.7812C119.347 59.5514 119.67 59.2711 119.948 58.9489C119.952 58.8643 119.981 58.7827 120.031 58.7139C120.052 58.6904 120.078 58.6716 120.108 58.6585C120.137 58.6454 120.168 58.6383 120.2 58.6376C120.479 58.2672 120.713 57.8652 120.897 57.44C120.87 57.3749 120.87 57.3018 120.897 57.2367C120.932 57.1659 120.986 57.1064 121.054 57.0651C121.196 56.6669 121.282 56.251 121.31 55.8293C121.283 55.8227 121.259 55.8071 121.243 55.785C121.227 55.763 121.218 55.736 121.22 55.7087ZM117.822 59.1491C117.7 59.219 117.598 59.1491 117.598 59.0188C117.603 58.942 117.626 58.8674 117.665 58.8007C117.703 58.734 117.757 58.6772 117.822 58.6344C117.946 58.5645 118.045 58.6344 118.045 58.7647C118.041 58.8418 118.019 58.9168 117.98 58.9836C117.941 59.0504 117.887 59.1071 117.822 59.1491ZM117.822 56.7411C117.7 56.8142 117.598 56.7411 117.598 56.614C117.602 56.5366 117.625 56.4614 117.664 56.3941C117.703 56.3269 117.757 56.2695 117.822 56.2264C117.946 56.1566 118.045 56.2265 118.045 56.3567C118.042 56.4339 118.02 56.5091 117.981 56.576C117.942 56.6429 117.887 56.6995 117.822 56.7411ZM119.932 57.9387C119.807 58.0118 119.708 57.9387 119.708 57.8117C119.712 57.7342 119.734 57.6587 119.773 57.5914C119.812 57.5241 119.866 57.4668 119.932 57.4241C120.056 57.3542 120.155 57.4241 120.155 57.5543C120.153 57.631 120.131 57.7058 120.093 57.7726C120.056 57.8395 120.002 57.8964 119.938 57.9387H119.932ZM119.932 55.5339C119.807 55.6038 119.708 55.5339 119.708 55.4037C119.711 55.3265 119.734 55.2513 119.773 55.1844C119.812 55.1175 119.866 55.0609 119.932 55.0193C120.056 54.9462 120.155 55.0193 120.155 55.1464C120.15 55.2211 120.128 55.2937 120.09 55.3586C120.052 55.4235 120 55.4791 119.938 55.5212L119.932 55.5339Z" fill="url(#paint4_linear_801_53958)"/>
<path id="Vector_14" d="M120.06 61.4839C120.133 61.4172 120.076 61.036 119.928 60.4959C119.781 59.9559 119.609 59.6604 119.574 59.6859C119.558 60.0257 119.603 60.3657 119.708 60.6897C119.861 61.2393 119.992 61.557 120.06 61.4839Z" fill="url(#paint5_linear_801_53958)"/>
<path id="Vector_15" d="M122.134 58.9266C122.189 58.8313 121.955 58.6375 121.559 58.4119C121.342 58.2542 121.08 58.1686 120.811 58.1673C120.788 58.2023 120.999 58.4596 121.396 58.6883C121.792 58.917 122.08 59.0155 122.134 58.9266Z" fill="url(#paint6_linear_801_53958)"/>
<path id="Vector_16" d="M123.327 55.8675C123.346 55.7721 123.007 55.8198 122.46 55.9659C122.125 56.036 121.805 56.1662 121.517 56.3503C121.517 56.3884 121.859 56.3948 122.403 56.2518C122.946 56.1089 123.307 55.9659 123.327 55.8675Z" fill="url(#paint7_linear_801_53958)"/>
<path id="Vector_17" d="M123.327 53.1289C123.307 53.0527 122.946 53.3291 122.403 53.8088C122.073 54.0787 121.776 54.3858 121.517 54.7237C121.865 54.5403 122.183 54.3057 122.46 54.028C123.004 53.5483 123.346 53.202 123.327 53.1289Z" fill="url(#paint8_linear_801_53958)"/>
<path id="Vector_18" d="M122.134 51.4423C122.08 51.4105 121.795 51.8394 121.396 52.5256C121.157 52.9008 120.96 53.3015 120.811 53.72C121.099 53.3799 121.349 53.0104 121.559 52.6177C121.955 51.9315 122.189 51.4709 122.134 51.4423Z" fill="url(#paint9_linear_801_53958)"/>
<path id="Vector_19" d="M120.059 51.258C119.986 51.277 119.855 51.7472 119.708 52.4525C119.606 52.8304 119.561 53.221 119.573 53.612C119.741 53.2221 119.86 52.8136 119.928 52.3953C120.082 51.6868 120.139 51.2389 120.059 51.258Z" fill="url(#paint10_linear_801_53958)"/>
<path id="Vector_20" d="M117.678 52.6273C117.601 52.694 117.662 53.0752 117.809 53.6153C117.956 54.1553 118.128 54.4508 118.164 54.4253C118.179 54.0854 118.134 53.7455 118.029 53.4215C117.882 52.8814 117.751 52.5606 117.678 52.6273Z" fill="url(#paint11_linear_801_53958)"/>
<path id="Vector_21" d="M115.609 55.1845C115.555 55.2767 115.788 55.4704 116.185 55.6992C116.404 55.8556 116.666 55.941 116.936 55.9438C116.955 55.9088 116.744 55.6515 116.348 55.4228C115.951 55.1941 115.663 55.0892 115.609 55.1845Z" fill="url(#paint12_linear_801_53958)"/>
<path id="Vector_22" d="M114.417 58.2406C114.394 58.3391 114.736 58.2914 115.283 58.1453C115.618 58.0736 115.937 57.9435 116.226 57.7609C116.226 57.7228 115.884 57.7164 115.34 57.8594C114.797 58.0023 114.436 58.1453 114.417 58.2406Z" fill="url(#paint13_linear_801_53958)"/>
<path id="Vector_23" d="M114.417 60.9821C114.436 61.0551 114.797 60.7787 115.34 60.3022C115.67 60.0322 115.967 59.7252 116.226 59.3873C115.878 59.5707 115.56 59.8053 115.283 60.083C114.739 60.5627 114.394 60.9217 114.417 60.9821Z" fill="url(#paint14_linear_801_53958)"/>
<path id="Vector_24" d="M115.609 62.6693C115.663 62.701 115.948 62.2722 116.348 61.586C116.586 61.2089 116.784 60.8074 116.936 60.3884C116.645 60.7284 116.394 61.0991 116.185 61.4939C115.788 62.1927 115.555 62.6375 115.609 62.6693Z" fill="url(#paint15_linear_801_53958)"/>
<path id="Vector_25" d="M117.678 62.8537C117.751 62.8347 117.882 62.3645 118.03 61.6561C118.131 61.2792 118.176 60.8896 118.164 60.4997C118 60.8899 117.885 61.2985 117.822 61.7164C117.662 62.4217 117.604 62.8728 117.678 62.8537Z" fill="url(#paint16_linear_801_53958)"/>
<path id="Vector_26" d="M118.874 59.2447C118.669 59.3622 118.388 60.347 117.665 63.4189L117.876 62.9837C118.487 60.4423 118.682 59.8578 118.874 59.7466C119.065 59.6354 119.296 60.1596 119.855 61.8528L120.079 62.0339C119.353 59.7943 119.075 59.1271 118.874 59.2447Z" fill="url(#paint17_linear_801_53958)"/>
<path id="Vector_27" d="M117.917 59.4987C117.742 59.4987 117.141 60.3818 115.36 63.2917L115.68 62.9582C117.169 60.5407 117.537 60.0451 117.7 60.061C117.863 60.0768 117.783 60.8234 117.38 63.1138L117.438 63.476C117.975 60.4581 118.093 59.5146 117.917 59.4987Z" fill="url(#paint18_linear_801_53958)"/>
<path id="Vector_28" d="M119.826 54.613C120.002 54.6289 120.603 53.7267 122.383 50.82L122.064 51.1377C120.574 53.5552 120.206 54.0507 120.04 54.0349C119.874 54.019 119.96 53.2724 120.36 50.982L120.302 50.6198C119.768 53.6536 119.65 54.5972 119.826 54.613Z" fill="url(#paint19_linear_801_53958)"/>
<path id="Vector_29" d="M117.918 55.7059C118.094 55.4899 117.975 54.6798 117.445 52.2718L117.4 52.6912C117.831 54.702 117.863 55.1944 117.697 55.3977C117.531 55.6011 117.058 55.4454 115.686 54.8069L115.366 54.8545C117.141 55.7154 117.742 55.9251 117.918 55.7059Z" fill="url(#paint20_linear_801_53958)"/>
<path id="Vector_30" d="M118.874 54.8669C119.075 54.7494 119.353 53.7614 120.079 50.6927L119.868 51.1279C119.257 53.6852 119.062 54.2538 118.874 54.3618C118.685 54.4698 118.448 53.952 117.889 52.2588L117.665 52.0777C118.388 54.3173 118.669 54.9813 118.874 54.8669Z" fill="url(#paint21_linear_801_53958)"/>
<path id="Vector_31" d="M120.523 55.0133C120.626 55.1563 121.39 54.5844 123.755 52.618L123.413 52.761C121.441 54.3907 121 54.667 120.904 54.5431C120.808 54.4192 121.185 53.6346 122.426 51.3664L122.547 50.9185C120.907 53.9014 120.424 54.8862 120.523 55.0133Z" fill="url(#paint22_linear_801_53958)"/>
<path id="Vector_32" d="M117.22 56.9092C117.32 56.6487 116.837 56.2358 115.197 55.1302L115.325 55.4225C116.687 56.3501 116.923 56.6329 116.84 56.8743C116.757 57.1157 116.133 57.373 114.334 57.9544L113.988 58.2212C116.354 57.4715 117.118 57.1697 117.22 56.9092Z" fill="url(#paint23_linear_801_53958)"/>
<path id="Vector_33" d="M120.779 55.9596C120.779 56.1947 121.498 56.1026 123.813 55.6038L123.541 55.5181C121.623 55.9215 121.22 55.9279 121.22 55.7087C121.22 55.4895 121.789 54.8986 123.544 53.2499L123.813 52.8369C121.498 54.9939 120.779 55.7277 120.779 55.9596Z" fill="url(#paint24_linear_801_53958)"/>
<path id="Vector_34" d="M116.965 58.1485C116.965 57.9166 116.242 58.0087 113.931 58.5075L114.202 58.5932C116.121 58.1898 116.523 58.1834 116.523 58.4026C116.523 58.6218 115.954 59.2127 114.199 60.8614L113.931 61.2744C116.242 59.1174 116.965 58.3804 116.965 58.1485Z" fill="url(#paint25_linear_801_53958)"/>
<path id="Vector_35" d="M120.523 57.202C120.424 57.4625 120.907 57.8755 122.547 58.981L122.419 58.6888C121.057 57.758 120.821 57.4784 120.904 57.237C120.987 56.9956 121.61 56.7382 123.41 56.1569L123.755 55.89C121.39 56.6398 120.626 56.9416 120.523 57.202Z" fill="url(#paint26_linear_801_53958)"/>
<path id="Vector_36" d="M117.22 59.0983C117.118 58.9554 116.354 59.5272 113.988 61.4936L114.33 61.3507C116.303 59.721 116.744 59.4446 116.84 59.5685C116.936 59.6924 116.559 60.477 115.318 62.7453L115.197 63.1932C116.837 60.2102 117.32 59.2413 117.22 59.0983Z" fill="url(#paint27_linear_801_53958)"/>
<path id="Vector_37" d="M119.826 58.4027C119.65 58.6219 119.768 59.4288 120.299 61.8399L120.344 61.4206C119.912 59.4065 119.88 58.9173 120.043 58.714C120.206 58.5107 120.683 58.6632 122.057 59.3049L122.377 59.2572C120.603 58.3963 120.002 58.1866 119.826 58.4027Z" fill="url(#paint28_linear_801_53958)"/>
<path id="Vector_38" d="M118.023 57.5419C118.023 58.0788 118.403 58.298 118.873 58.028C119.12 57.868 119.325 57.6526 119.472 57.3993C119.619 57.146 119.704 56.8619 119.721 56.5698C119.721 56.033 119.34 55.8138 118.873 56.0838C118.626 56.2429 118.42 56.4579 118.272 56.7114C118.124 56.9648 118.039 57.2494 118.023 57.5419Z" fill="url(#paint29_linear_801_53958)"/>
<path id="Vector_39" d="M118.192 57.4433C118.192 57.8754 118.496 58.0469 118.873 57.8341C119.07 57.7061 119.234 57.5338 119.351 57.3312C119.468 57.1287 119.536 56.9015 119.548 56.6682C119.548 56.2362 119.247 56.0614 118.873 56.2775C118.675 56.4047 118.511 56.5767 118.392 56.7793C118.274 56.9819 118.205 57.2094 118.192 57.4433Z" fill="#D0D2D4"/>
<path id="Vector_40" d="M119.938 57.151C119.803 57.2385 119.691 57.3562 119.611 57.4948C119.53 57.6333 119.484 57.7887 119.475 57.9484C119.475 58.2406 119.682 58.3614 119.938 58.2152C120.073 58.1278 120.185 58.01 120.266 57.8715C120.346 57.733 120.393 57.5776 120.402 57.4179C120.402 57.1097 120.194 57.0049 119.938 57.151ZM119.938 57.9388C119.813 58.0119 119.714 57.9389 119.714 57.8118C119.719 57.7343 119.741 57.6588 119.78 57.5915C119.819 57.5242 119.873 57.4669 119.938 57.4242C120.063 57.3543 120.162 57.4242 120.162 57.5545C120.158 57.6317 120.136 57.7069 120.097 57.7737C120.058 57.8406 120.004 57.8972 119.938 57.9388Z" fill="url(#paint30_linear_801_53958)"/>
<path id="Vector_41" d="M119.938 57.224C119.822 57.2997 119.725 57.4015 119.655 57.5212C119.586 57.641 119.546 57.7754 119.538 57.9134C119.538 58.1675 119.717 58.2692 119.938 58.1421C120.054 58.0665 120.151 57.9646 120.221 57.8449C120.29 57.7251 120.33 57.5908 120.338 57.4527C120.338 57.1986 120.159 57.1096 119.938 57.224ZM119.938 57.9388C119.813 58.0118 119.714 57.9388 119.714 57.8117C119.718 57.7342 119.741 57.6588 119.78 57.5914C119.818 57.5241 119.873 57.4668 119.938 57.4241C120.063 57.3543 120.162 57.4242 120.162 57.5544C120.158 57.6316 120.136 57.7068 120.097 57.7737C120.058 57.8406 120.003 57.8972 119.938 57.9388Z" fill="#9EA0A2"/>
<path id="Vector_42" d="M117.821 58.3612C117.686 58.4483 117.574 58.566 117.493 58.7046C117.413 58.8432 117.366 58.9987 117.358 59.1586C117.358 59.4508 117.566 59.5716 117.821 59.4254C117.956 59.3373 118.069 59.219 118.149 59.0799C118.23 58.9409 118.276 58.785 118.285 58.6249C118.291 58.3326 118.084 58.2119 117.821 58.3612ZM117.821 59.149C117.7 59.2189 117.598 59.1491 117.598 59.0188C117.603 58.942 117.626 58.8673 117.664 58.8007C117.703 58.734 117.757 58.6771 117.821 58.6344C117.946 58.5645 118.045 58.6344 118.045 58.7647C118.041 58.8417 118.019 58.9167 117.98 58.9835C117.941 59.0503 117.887 59.1071 117.821 59.149Z" fill="url(#paint31_linear_801_53958)"/>
<path id="Vector_43" d="M117.822 58.4344C117.705 58.5094 117.608 58.6106 117.539 58.7299C117.469 58.8491 117.429 58.983 117.422 59.1206C117.422 59.3748 117.601 59.4796 117.822 59.3525C117.938 59.2769 118.035 59.175 118.104 59.0553C118.174 58.9355 118.214 58.8012 118.221 58.6632C118.228 58.409 118.048 58.3074 117.822 58.4344ZM117.822 59.1492C117.7 59.2191 117.598 59.1492 117.598 59.019C117.603 58.9421 117.626 58.8675 117.665 58.8008C117.703 58.7342 117.757 58.6773 117.822 58.6346C117.946 58.5647 118.045 58.6346 118.045 58.7648C118.041 58.8419 118.019 58.9169 117.98 58.9837C117.941 59.0505 117.887 59.1072 117.822 59.1492Z" fill="#9EA0A2"/>
<path id="Vector_44" d="M117.821 55.9534C117.687 56.0408 117.574 56.1586 117.494 56.2971C117.413 56.4356 117.367 56.591 117.358 56.7508C117.358 57.043 117.566 57.1637 117.821 57.0176C117.956 56.9301 118.068 56.8124 118.149 56.6739C118.23 56.5354 118.276 56.38 118.285 56.2202C118.291 55.9248 118.084 55.8073 117.821 55.9534ZM117.821 56.7412C117.7 56.8143 117.598 56.7412 117.598 56.6142C117.602 56.5368 117.625 56.4615 117.664 56.3943C117.703 56.327 117.757 56.2696 117.821 56.2266C117.946 56.1567 118.045 56.2266 118.045 56.3568C118.042 56.434 118.019 56.5092 117.98 56.5761C117.942 56.643 117.887 56.6996 117.821 56.7412Z" fill="url(#paint32_linear_801_53958)"/>
<path id="Vector_45" d="M117.822 56.0265C117.705 56.1021 117.608 56.204 117.539 56.3237C117.469 56.4435 117.429 56.5778 117.422 56.7158C117.422 56.97 117.601 57.0716 117.822 56.9446C117.938 56.8689 118.035 56.7671 118.104 56.6473C118.174 56.5276 118.214 56.3932 118.221 56.2552C118.228 56.0011 118.048 55.8994 117.822 56.0265ZM117.822 56.7413C117.7 56.8143 117.598 56.7413 117.598 56.6142C117.602 56.5368 117.625 56.4615 117.664 56.3943C117.703 56.3271 117.757 56.2697 117.822 56.2266C117.946 56.1567 118.045 56.2266 118.045 56.3569C118.042 56.4341 118.019 56.5093 117.981 56.5761C117.942 56.643 117.887 56.6997 117.822 56.7413Z" fill="#9EA0A2"/>
<path id="Vector_46" d="M119.938 54.7429C119.803 54.8304 119.691 54.9482 119.611 55.0867C119.53 55.2252 119.484 55.3806 119.475 55.5403C119.475 55.8357 119.682 55.9533 119.938 55.8072C120.073 55.7197 120.185 55.6019 120.266 55.4634C120.346 55.3249 120.393 55.1695 120.402 55.0098C120.402 54.7144 120.194 54.5968 119.938 54.7429ZM119.938 55.5339C119.813 55.6038 119.714 55.534 119.714 55.4037C119.718 55.3265 119.74 55.2513 119.779 55.1844C119.818 55.1175 119.873 55.0609 119.938 55.0193C120.063 54.9462 120.162 55.0193 120.162 55.1464C120.156 55.2217 120.133 55.2946 120.094 55.3596C120.055 55.4245 120.002 55.4798 119.938 55.5212V55.5339Z" fill="url(#paint33_linear_801_53958)"/>
<path id="Vector_47" d="M119.938 54.8161C119.822 54.8918 119.725 54.9936 119.655 55.1134C119.586 55.2331 119.546 55.3675 119.538 55.5055C119.538 55.7596 119.717 55.8613 119.938 55.7342C120.054 55.6586 120.151 55.5567 120.221 55.437C120.29 55.3172 120.33 55.1829 120.338 55.0448C120.338 54.7939 120.159 54.6891 119.938 54.8161ZM119.938 55.5341C119.813 55.6039 119.714 55.5341 119.714 55.4038C119.718 55.3266 119.74 55.2514 119.779 55.1845C119.818 55.1177 119.872 55.061 119.938 55.0194C120.063 54.9464 120.162 55.0194 120.162 55.1465C120.156 55.2218 120.132 55.2947 120.094 55.3597C120.055 55.4247 120.002 55.48 119.938 55.5214V55.5341Z" fill="#9EA0A2"/>
<path id="Vector_48" d="M118.179 56.284C118.173 56.405 118.137 56.5227 118.076 56.6275C118.015 56.7324 117.93 56.8215 117.828 56.8876C117.636 56.9956 117.479 56.9066 117.479 56.6875C117.486 56.5668 117.521 56.4493 117.581 56.3444C117.642 56.2396 117.726 56.1504 117.828 56.0839C118.023 55.9727 118.179 56.0616 118.179 56.284Z" fill="#5B686C"/>
<path id="Vector_49" d="M118.141 56.306C118.135 56.4142 118.102 56.5193 118.046 56.6126C117.991 56.706 117.914 56.7849 117.822 56.8429C117.649 56.9414 117.502 56.8619 117.502 56.665C117.509 56.5563 117.541 56.4507 117.596 56.3568C117.652 56.2629 117.729 56.1835 117.822 56.125C118.001 56.0265 118.141 56.1091 118.141 56.306Z" fill="url(#paint34_linear_801_53958)"/>
<path id="Vector_50" d="M118.179 58.6978C118.173 58.8188 118.137 58.9365 118.076 59.0413C118.015 59.1462 117.93 59.2353 117.828 59.3014C117.636 59.4094 117.479 59.3205 117.479 59.1013C117.486 58.9806 117.521 58.8631 117.581 58.7583C117.642 58.6534 117.726 58.5642 117.828 58.4977C118.023 58.3802 118.179 58.4691 118.179 58.6978Z" fill="#5B686C"/>
<path id="Vector_51" d="M118.141 58.714C118.135 58.8222 118.102 58.9273 118.046 59.0206C117.991 59.1139 117.914 59.1928 117.822 59.2509C117.649 59.3493 117.502 59.2699 117.502 59.073C117.509 58.9643 117.541 58.8586 117.596 58.7648C117.652 58.6709 117.729 58.5914 117.822 58.5329C118.001 58.4344 118.141 58.517 118.141 58.714Z" fill="url(#paint35_linear_801_53958)"/>
<path id="Vector_52" d="M120.287 57.4811C120.28 57.6018 120.246 57.7194 120.185 57.8243C120.124 57.9292 120.04 58.0184 119.938 58.0847C119.746 58.1927 119.59 58.1037 119.59 57.8845C119.596 57.7639 119.631 57.6464 119.692 57.5415C119.752 57.4367 119.836 57.3474 119.938 57.281C120.133 57.1729 120.287 57.2587 120.287 57.4811Z" fill="#5B686C"/>
<path id="Vector_53" d="M120.251 57.5041C120.245 57.6123 120.212 57.7174 120.157 57.8107C120.101 57.904 120.024 57.9829 119.932 58.0409C119.759 58.1394 119.612 58.06 119.612 57.863C119.619 57.7543 119.651 57.6487 119.707 57.5549C119.762 57.461 119.839 57.3815 119.932 57.323C120.111 57.2277 120.251 57.3071 120.251 57.5041Z" fill="url(#paint36_linear_801_53958)"/>
<path id="Vector_54" d="M120.287 55.0737C120.281 55.1945 120.246 55.3122 120.185 55.4171C120.125 55.522 120.04 55.6111 119.938 55.6773C119.746 55.7884 119.59 55.6963 119.59 55.4771C119.596 55.3564 119.631 55.2389 119.692 55.1341C119.752 55.0293 119.836 54.94 119.938 54.8735C120.133 54.7655 120.287 54.8545 120.287 55.0737Z" fill="#5B686C"/>
<path id="Vector_55" d="M120.251 55.0956C120.245 55.2038 120.212 55.3089 120.157 55.4022C120.101 55.4955 120.024 55.5745 119.932 55.6325C119.759 55.7341 119.612 55.6515 119.612 55.4546C119.619 55.3463 119.651 55.2411 119.707 55.1478C119.762 55.0544 119.839 54.9755 119.932 54.9177C120.111 54.8192 120.251 54.8859 120.251 55.0956Z" fill="url(#paint37_linear_801_53958)"/>
<path id="Vector_56" d="M68.2198 86.0562C68.2198 83.6482 67.3086 82.009 65.8572 81.3546L60.937 78.6924C59.8724 78.6162 58.0852 79.1213 56.7808 79.8678C52.7302 82.1932 49.108 86.0657 48.3439 90.9357C48.3023 91.2089 48.427 93.7948 48.3215 94.2776C48.3351 94.29 48.3501 94.3006 48.3663 94.3094L56.3237 98.8267C57.6025 99.4621 59.2809 99.3064 61.1448 98.2359C65.0515 95.9962 68.2198 90.5418 68.2198 86.0562Z" fill="#2E373A"/>
<path id="Vector_57" d="M68.2199 86.0563C68.2199 90.5419 65.0516 95.9964 61.1448 98.236C57.2381 100.476 54.0667 98.6617 54.0667 94.1761C54.0667 89.6905 57.2349 84.236 61.1417 81.9932C65.0484 79.7505 68.2199 81.5707 68.2199 86.0563Z" fill="#555E61"/>
<path id="Vector_58" d="M68.0215 86.3363C68.0215 90.5201 65.0675 95.6029 61.4229 97.6964C57.7783 99.7899 54.821 98.0903 54.821 93.9065C54.821 89.7227 57.7783 84.6399 61.4229 82.5496C65.0675 80.4593 68.0215 82.1494 68.0215 86.3363Z" fill="#3B4447"/>
<path id="Vector_59" d="M66.0298 87.5082C66.0298 84.6173 63.9901 83.4451 61.4708 84.8905C58.9516 86.336 56.9119 89.8495 56.9119 92.7371C56.9119 95.6248 58.9548 96.8002 61.4708 95.3548C63.9869 93.9094 66.0298 90.3958 66.0298 87.5082Z" fill="#393B3D"/>
<path id="Vector_60" d="M64.7734 88.2231C64.7734 86.1264 63.29 85.275 61.4613 86.317C59.6326 87.359 58.1523 89.9163 58.1523 92.0161C58.1523 94.116 59.6326 94.9642 61.4613 93.9222C63.29 92.8802 64.7734 90.3197 64.7734 88.2231Z" fill="url(#paint38_linear_801_53958)"/>
<path id="Vector_61" d="M61.4677 84.7762C58.8302 86.2883 56.6946 89.967 56.6946 92.9913C56.6946 96.0155 58.8334 97.2418 61.4677 95.7296C64.1021 94.2175 66.2409 90.542 66.2409 87.5145C66.2409 84.4871 64.1117 83.2672 61.4677 84.7762ZM61.4677 95.0975C59.1371 96.4349 57.2477 95.3516 57.2477 92.6768C57.2477 90.0019 59.1371 86.749 61.4677 85.4115C63.7984 84.0741 65.691 85.1574 65.691 87.8322C65.691 90.507 63.792 93.76 61.4677 95.0975Z" fill="url(#paint39_linear_801_53958)"/>
<path id="Vector_62" d="M61.4678 84.4299C58.6608 86.0437 56.3813 89.9607 56.3813 93.1851C56.3813 96.4095 58.6608 97.7152 61.4678 96.1014C64.2748 94.4876 66.5543 90.5706 66.5543 87.3494C66.5543 84.1281 64.278 82.8066 61.4678 84.4299ZM61.4678 95.7424C58.8335 97.2545 56.6947 96.0283 56.6947 93.004C56.6947 89.9797 58.8303 86.3011 61.4678 84.7889C64.1053 83.2768 66.241 84.503 66.241 87.5273C66.241 90.5516 64.1117 94.2175 61.4678 95.7297V95.7424Z" fill="#D0D2D4"/>
<path id="Vector_63" d="M61.4677 84.2073C58.5584 85.8782 56.199 89.9254 56.199 93.2769C56.199 96.6284 58.5584 97.969 61.4677 96.298C64.3769 94.627 66.7364 90.5798 66.7364 87.2315C66.7364 83.8832 64.3769 82.5395 61.4677 84.2073ZM61.4677 96.0883C58.6607 97.7021 56.3812 96.406 56.3812 93.1721C56.3812 89.9381 58.6767 86.018 61.4677 84.4296C64.2587 82.8413 66.5541 84.1119 66.5541 87.3491C66.5541 90.5862 64.2778 94.4777 61.4677 96.0883Z" fill="url(#paint40_linear_801_53958)"/>
<path id="Vector_64" d="M61.4678 84.4299C58.6608 86.0437 56.3813 89.9607 56.3813 93.1851C56.3813 96.4095 58.6608 97.7152 61.4678 96.1014C64.2748 94.4876 66.5543 90.5706 66.5543 87.3494C66.5543 84.1281 64.278 82.8066 61.4678 84.4299ZM61.4678 95.7424C58.8335 97.2545 56.6947 96.0283 56.6947 93.004C56.6947 89.9797 58.8303 86.3011 61.4678 84.7889C64.1053 83.2768 66.241 84.503 66.241 87.5273C66.241 90.5516 64.1117 94.2175 61.4678 95.7297V95.7424Z" fill="#D0D2D4"/>
<path id="Vector_65" d="M66.1387 88.7187C64.2205 89.1221 63.8145 89.1253 63.8145 88.9093C63.8145 88.6932 64.3835 88.096 66.1387 86.4473L66.4105 86.0343L66.3497 85.8183L66.0108 85.9581C64.0383 87.5877 63.5939 87.8641 63.5012 87.7434C63.4085 87.6227 63.7825 86.8348 65.0229 84.5666L65.1444 84.1187L64.9846 84.0266L64.6649 84.3443C63.1751 86.7618 62.8074 87.2573 62.6412 87.2415C62.4749 87.2256 62.5612 86.479 62.9609 84.1918L62.9001 83.8264L62.6795 83.8868L62.4685 84.3189C61.8611 86.8762 61.6661 87.448 61.4743 87.556C61.2824 87.664 61.0522 87.143 60.4928 85.4529L60.269 85.2687L60.0484 85.4657L60.0036 85.8818C60.4352 87.8959 60.4672 88.3851 60.301 88.5884C60.1347 88.7917 59.6615 88.6392 58.29 87.9975L57.9703 88.0452L57.8073 88.3248L57.9384 88.6138C59.3003 89.5446 59.5369 89.8242 59.4537 90.0688C59.3706 90.3134 58.7472 90.5644 56.9473 91.1457L56.602 91.4126L56.5413 91.6985L56.8162 91.7842C58.7344 91.3808 59.1372 91.3745 59.1372 91.5936C59.1372 91.8128 58.5682 92.4069 56.813 94.0556L56.5413 94.4654L56.602 94.6846L56.9441 94.5417C58.9134 92.9152 59.3578 92.6356 59.4537 92.7595C59.5496 92.8834 59.1692 93.668 57.9288 95.9363L57.8073 96.3842L57.9703 96.4763L58.29 96.1587C59.783 93.7443 60.1507 93.2487 60.3137 93.2614C60.4768 93.2742 60.3937 94.0239 59.994 96.3143L60.0516 96.6765L60.2722 96.6193L60.4832 96.1872C61.0938 93.6268 61.2888 93.0581 61.4775 92.9501C61.6661 92.8421 61.8995 93.3631 62.4589 95.0531L62.6827 95.2342L62.9033 95.0404L62.9513 94.6243C62.5165 92.6102 62.4877 92.1178 62.6508 91.9145C62.8138 91.7112 63.2902 91.8669 64.6649 92.5086L64.9846 92.4577L65.1444 92.1813L65.0134 91.8891C63.6546 90.9615 63.4148 90.6819 63.5012 90.4373C63.5875 90.1927 64.2045 89.9417 66.0044 89.3572L66.3497 89.0935L66.4105 88.8076L66.1387 88.7187ZM60.4256 92.3497C60.301 92.4196 60.2018 92.3497 60.2018 92.2195C60.206 92.142 60.2284 92.0665 60.2673 91.9992C60.3062 91.9319 60.3604 91.8746 60.4256 91.8319C60.5503 91.762 60.6494 91.8319 60.6494 91.9621C60.6453 92.0396 60.6229 92.1151 60.584 92.1824C60.5451 92.2497 60.4909 92.307 60.4256 92.3497ZM60.4256 89.9417C60.301 90.0116 60.2018 89.9417 60.2018 89.8115C60.206 89.7344 60.2284 89.6594 60.2673 89.5926C60.3062 89.5258 60.3605 89.4691 60.4256 89.4271C60.5503 89.3572 60.6494 89.4271 60.6494 89.5542C60.6453 89.6317 60.6229 89.7071 60.584 89.7744C60.5451 89.8417 60.4909 89.899 60.4256 89.9417ZM62.5357 91.1394C62.411 91.2092 62.3119 91.1393 62.3119 91.0091C62.316 90.932 62.3385 90.857 62.3773 90.7902C62.4162 90.7234 62.4705 90.6667 62.5357 90.6247C62.6572 90.5548 62.7595 90.6247 62.7595 90.7518C62.7548 90.8292 62.7322 90.9044 62.6934 90.9717C62.6545 91.0389 62.6006 91.0963 62.5357 91.1394ZM62.5357 88.7314C62.411 88.8013 62.3119 88.7314 62.3119 88.6011C62.3163 88.5241 62.3388 88.4492 62.3777 88.3825C62.4166 88.3157 62.4707 88.2589 62.5357 88.2168C62.6572 88.1469 62.7595 88.2167 62.7595 88.347C62.7546 88.4239 62.7318 88.4986 62.693 88.5653C62.6542 88.632 62.6003 88.6888 62.5357 88.7314Z" fill="url(#paint41_linear_801_53958)"/>
<path id="Vector_66" d="M63.8144 88.9092C63.8277 88.8297 63.8619 88.7552 63.9135 88.6932C63.9063 88.3601 63.8198 88.0335 63.6609 87.7401C63.5714 87.7782 63.5235 87.7719 63.5011 87.7401C63.4787 87.7084 63.4851 87.6448 63.5011 87.5368C63.3252 87.3249 63.0794 87.182 62.8073 87.1334C62.7242 87.2191 62.6667 87.2509 62.6251 87.2445C62.5835 87.2382 62.5644 87.2001 62.5548 87.108C62.2196 87.1152 61.8909 87.2012 61.5957 87.3589C61.5643 87.4385 61.5112 87.5079 61.4422 87.559C61.4006 87.5813 61.3559 87.559 61.3047 87.5241C60.9459 87.7548 60.6228 88.0363 60.3456 88.3596C60.3398 88.4435 60.3099 88.524 60.2593 88.5915C60.2384 88.6151 60.2128 88.6343 60.1843 88.6479C60.1557 88.6616 60.1247 88.6694 60.0931 88.6709C59.8133 89.0404 59.5784 89.4413 59.3929 89.8654C59.4069 89.898 59.4141 89.9332 59.4141 89.9686C59.4141 90.0041 59.4069 90.0392 59.3929 90.0719C59.3569 90.141 59.3028 90.1992 59.2363 90.2402C59.0928 90.6381 59.0067 91.0542 58.9805 91.476C59.0081 91.4819 59.0328 91.4972 59.0503 91.5192C59.0678 91.5412 59.077 91.5687 59.0764 91.5967C59.0647 91.6766 59.0303 91.7515 58.9773 91.8127C58.9849 92.1457 59.0715 92.4722 59.2299 92.7657C59.3194 92.7276 59.3673 92.734 59.3929 92.7657C59.4185 92.7975 59.4089 92.8611 59.3737 92.9691C59.5514 93.1789 59.7964 93.3214 60.0675 93.3725C60.1538 93.2836 60.2081 93.255 60.2497 93.2582C60.2913 93.2613 60.3105 93.3058 60.32 93.3947C60.6552 93.3907 60.9844 93.3057 61.2791 93.1469C61.3106 93.0674 61.3638 92.9981 61.4326 92.9468C61.4742 92.9214 61.5189 92.9468 61.5701 92.9818C61.9273 92.749 62.2502 92.4678 62.5292 92.1463C62.5341 92.0617 62.5629 91.9803 62.6123 91.9112C62.6334 91.8872 62.6594 91.8679 62.6887 91.8548C62.7179 91.8416 62.7497 91.8349 62.7817 91.835C63.0598 91.4638 63.2937 91.0619 63.4787 90.6373C63.4646 90.6053 63.4573 90.5706 63.4573 90.5357C63.4573 90.5007 63.4646 90.4661 63.4787 90.434C63.5124 90.3643 63.5657 90.3059 63.6322 90.2656C63.7766 89.8668 63.8638 89.4497 63.8911 89.0267C63.8673 89.0179 63.847 89.0017 63.8332 88.9805C63.8194 88.9594 63.8128 88.9343 63.8144 88.9092ZM60.4255 92.3496C60.3009 92.4195 60.2018 92.3496 60.2018 92.2194C60.2059 92.1419 60.2283 92.0664 60.2672 91.9991C60.3061 91.9318 60.3603 91.8745 60.4255 91.8318C60.5502 91.7619 60.6493 91.8318 60.6493 91.962C60.6452 92.0395 60.6228 92.115 60.5839 92.1823C60.545 92.2496 60.4908 92.3069 60.4255 92.3496ZM60.4255 89.9416C60.3009 90.0115 60.2018 89.9416 60.2018 89.8113C60.2059 89.7343 60.2283 89.6593 60.2672 89.5925C60.3061 89.5257 60.3604 89.469 60.4255 89.427C60.5502 89.3571 60.6493 89.427 60.6493 89.554C60.6452 89.6315 60.6228 89.707 60.5839 89.7743C60.545 89.8416 60.4908 89.8989 60.4255 89.9416ZM62.5356 91.1392C62.4109 91.2091 62.3118 91.1392 62.3118 91.009C62.3159 90.9319 62.3384 90.8569 62.3773 90.7901C62.4162 90.7233 62.4704 90.6666 62.5356 90.6246C62.6571 90.5547 62.7594 90.6246 62.7594 90.7517C62.7547 90.8291 62.7321 90.9043 62.6933 90.9716C62.6544 91.0388 62.6005 91.0962 62.5356 91.1392ZM62.5356 88.7313C62.4109 88.8012 62.3118 88.7313 62.3118 88.601C62.3162 88.524 62.3387 88.4491 62.3776 88.3823C62.4165 88.3156 62.4706 88.2588 62.5356 88.2166C62.6571 88.1468 62.7594 88.2166 62.7594 88.3469C62.7545 88.4238 62.7317 88.4985 62.6929 88.5652C62.6541 88.6319 62.6002 88.6887 62.5356 88.7313Z" fill="url(#paint42_linear_801_53958)"/>
<path id="Vector_67" d="M62.6635 94.681C62.7371 94.6143 62.6795 94.2331 62.5325 93.693C62.3854 93.153 62.2128 92.8575 62.1776 92.8829C62.1619 93.2228 62.2074 93.5628 62.3119 93.8868C62.4589 94.4268 62.5868 94.7477 62.6635 94.681Z" fill="url(#paint43_linear_801_53958)"/>
<path id="Vector_68" d="M64.732 92.124C64.7864 92.0318 64.553 91.838 64.1534 91.6093C63.9355 91.4528 63.6741 91.3673 63.4053 91.3647C63.3861 91.4028 63.5971 91.6601 63.9935 91.8857C64.3899 92.1112 64.6745 92.2193 64.732 92.124Z" fill="url(#paint44_linear_801_53958)"/>
<path id="Vector_69" d="M65.9244 89.0676C65.9436 88.9692 65.6047 89.02 65.058 89.163C64.717 89.2323 64.3918 89.3637 64.0989 89.5505C64.0989 89.5855 64.4378 89.595 64.9813 89.4489C65.5247 89.3028 65.9052 89.1661 65.9244 89.0676Z" fill="url(#paint45_linear_801_53958)"/>
<path id="Vector_70" d="M65.9243 86.3358C65.9051 86.2627 65.5406 86.5391 64.9971 87.0188C64.6676 87.2854 64.3705 87.5893 64.1116 87.9241C64.4645 87.7412 64.7878 87.5067 65.0707 87.2284C65.6014 86.7488 65.9435 86.4025 65.9243 86.3358Z" fill="url(#paint46_linear_801_53958)"/>
<path id="Vector_71" d="M64.7318 84.6394C64.6742 84.6076 64.3929 85.0396 63.9933 85.7226C63.7536 86.0992 63.5563 86.5008 63.405 86.9203C63.6959 86.5813 63.9469 86.2104 64.1531 85.8148C64.5528 85.1318 64.7861 84.6711 64.7318 84.6394Z" fill="url(#paint47_linear_801_53958)"/>
<path id="Vector_72" d="M62.6634 84.4553C62.5867 84.4744 62.4588 84.9445 62.3118 85.6529C62.2105 86.0298 62.1653 86.4194 62.1775 86.8093C62.3437 86.419 62.4628 86.0106 62.5323 85.5926C62.6794 84.8873 62.737 84.4299 62.6634 84.4553Z" fill="url(#paint48_linear_801_53958)"/>
<path id="Vector_73" d="M60.2754 85.8245C60.1986 85.8912 60.2594 86.2724 60.4032 86.8156C60.5471 87.3588 60.7229 87.6479 60.7581 87.6225C60.7758 87.2836 60.7303 86.9443 60.6238 86.6218C60.48 86.0786 60.3489 85.7609 60.2754 85.8245Z" fill="url(#paint49_linear_801_53958)"/>
<path id="Vector_74" d="M58.207 88.3814C58.1527 88.4767 58.3861 88.6705 58.7825 88.896C58.9998 89.0537 59.2615 89.1393 59.5306 89.1406C59.553 89.1057 59.342 88.8483 58.9423 88.6196C58.5427 88.3909 58.2614 88.2892 58.207 88.3814Z" fill="url(#paint50_linear_801_53958)"/>
<path id="Vector_75" d="M57.011 91.4407C56.9918 91.5392 57.3307 91.4883 57.8806 91.3454C58.2152 91.2747 58.5339 91.1433 58.8205 90.9578C58.8205 90.9229 58.4817 90.9133 57.9382 91.0595C57.3947 91.2056 57.0334 91.3422 57.011 91.4407Z" fill="url(#paint51_linear_801_53958)"/>
<path id="Vector_76" d="M57.011 94.1795C57.0334 94.2558 57.3947 93.9794 57.9382 93.4997C58.2684 93.2314 58.5647 92.9241 58.8205 92.5848C58.4746 92.7698 58.158 93.0042 57.8806 93.2805C57.3371 93.7602 56.9918 94.1065 57.011 94.1795Z" fill="url(#paint52_linear_801_53958)"/>
<path id="Vector_77" d="M58.207 95.8663C58.2614 95.8981 58.5459 95.4661 58.9423 94.7831C59.1836 94.4074 59.381 94.0056 59.5306 93.5854C59.2414 93.9246 58.9905 94.2943 58.7825 94.6878C58.3861 95.3771 58.1527 95.8378 58.207 95.8663Z" fill="url(#paint53_linear_801_53958)"/>
<path id="Vector_78" d="M60.2752 96.0506C60.3488 96.0315 60.4799 95.5614 60.6237 94.8561C60.727 94.4785 60.7723 94.0876 60.758 93.6966C60.5938 94.0887 60.4748 94.4979 60.4031 94.9165C60.2752 95.6217 60.1985 96.0728 60.2752 96.0506Z" fill="url(#paint54_linear_801_53958)"/>
<path id="Vector_79" d="M61.4677 92.4416C61.2663 92.5591 60.985 93.5471 60.2625 96.6158L60.4735 96.1838C61.0841 93.6233 61.2791 93.0547 61.4677 92.9467C61.6563 92.8387 61.8897 93.3597 62.4492 95.0497L62.673 95.2308C61.9505 93.007 61.6723 92.3272 61.4677 92.4416Z" fill="url(#paint55_linear_801_53958)"/>
<path id="Vector_80" d="M60.5149 92.6897C60.3391 92.6897 59.7348 93.576 57.9573 96.4827L58.277 96.1651C59.77 93.7507 60.1376 93.2551 60.3007 93.2679C60.4637 93.2806 60.3806 94.0303 59.981 96.3208L60.0385 96.6829C60.5724 93.6427 60.6907 92.7119 60.5149 92.6897Z" fill="url(#paint56_linear_801_53958)"/>
<path id="Vector_81" d="M62.4237 87.8096C62.5963 87.8096 63.2005 86.9265 64.9813 84.0197L64.6616 84.3374C63.1718 86.7549 62.8041 87.2505 62.6379 87.2346C62.4716 87.2187 62.5579 86.4722 62.9576 84.1849L62.8968 83.8196C62.3629 86.8502 62.2478 87.7937 62.4237 87.8096Z" fill="url(#paint57_linear_801_53958)"/>
<path id="Vector_82" d="M60.5151 88.9056C60.6909 88.6865 60.5726 87.8796 60.0419 85.4716L59.9972 85.8877C60.4288 87.9018 60.4607 88.391 60.2945 88.5943C60.1282 88.7976 59.6551 88.6452 58.2836 88.0035L57.9639 88.0511C59.735 88.912 60.3393 89.1217 60.5151 88.9056Z" fill="url(#paint58_linear_801_53958)"/>
<path id="Vector_83" d="M61.4677 88.0641C61.6723 87.9498 61.9505 86.9618 62.673 83.8931L62.462 84.3251C61.8546 86.8824 61.6595 87.4542 61.4677 87.5622C61.2759 87.6702 61.0457 87.1492 60.4862 85.4592L60.2625 85.2749C60.985 87.5146 61.2663 88.1817 61.4677 88.0641Z" fill="url(#paint59_linear_801_53958)"/>
<path id="Vector_84" d="M63.1205 88.2134C63.2228 88.3563 63.9869 87.7813 66.3495 85.8181L66.0106 85.9579C64.038 87.5876 63.5936 87.864 63.5009 87.7432C63.4082 87.6225 63.7823 86.8347 65.0227 84.5665L65.1442 84.1185C63.5009 87.0983 63.0182 88.0673 63.1205 88.2134Z" fill="url(#paint60_linear_801_53958)"/>
<path id="Vector_85" d="M59.8149 90.1066C59.9172 89.8461 59.4345 89.4331 57.7912 88.3308L57.9223 88.6199C59.2842 89.5507 59.5208 89.8302 59.4377 90.0748C59.3546 90.3195 58.7311 90.5704 56.9312 91.1518L56.5859 91.4186C58.9517 90.6721 59.7158 90.3671 59.8149 90.1066Z" fill="url(#paint61_linear_801_53958)"/>
<path id="Vector_86" d="M63.3762 89.1597C63.3762 89.3916 64.0956 89.2995 66.4102 88.8039L66.1384 88.7181C64.2202 89.1216 63.8142 89.1248 63.8142 88.9087C63.8142 88.6927 64.3833 88.0955 66.1384 86.4468L66.4102 86.0338C64.1115 88.1908 63.3762 88.9278 63.3762 89.1597Z" fill="url(#paint62_linear_801_53958)"/>
<path id="Vector_87" d="M59.5591 91.3485C59.5591 91.1166 58.8398 91.2056 56.5251 91.7043L56.8001 91.7901C58.7183 91.3866 59.1211 91.3803 59.1211 91.5995C59.1211 91.8186 58.5521 92.4127 56.7969 94.0614L56.5251 94.4713C58.8398 92.3142 59.5591 91.5804 59.5591 91.3485Z" fill="url(#paint63_linear_801_53958)"/>
<path id="Vector_88" d="M63.1205 90.3989C63.0182 90.6594 63.5009 91.0756 65.1442 92.1779L65.0131 91.8856C63.6544 90.958 63.4146 90.6785 63.5009 90.4339C63.5872 90.1893 64.2043 89.9383 66.0042 89.3538L66.3495 89.0901C63.9869 89.8303 63.2228 90.148 63.1205 90.3989Z" fill="url(#paint64_linear_801_53958)"/>
<path id="Vector_89" d="M59.8149 92.2954C59.7158 92.1525 58.9517 92.7243 56.5859 94.6907L56.928 94.5477C58.8974 92.9212 59.3418 92.6417 59.4377 92.7656C59.5336 92.8895 59.1531 93.6741 57.9127 95.9423L57.7912 96.3903C59.4345 93.4073 59.9172 92.4384 59.8149 92.2954Z" fill="url(#paint65_linear_801_53958)"/>
<path id="Vector_90" d="M62.4235 91.6029C62.2476 91.819 62.3627 92.629 62.8934 95.037L62.9414 94.6209C62.5066 92.6068 62.4778 92.1144 62.6409 91.9111C62.8039 91.7078 63.2803 91.8635 64.655 92.5052L64.9747 92.4543C63.2004 91.5934 62.5993 91.3837 62.4235 91.6029Z" fill="url(#paint66_linear_801_53958)"/>
<path id="Vector_91" d="M60.6206 90.7387C60.6206 91.2756 61.001 91.4948 61.4678 91.2279C61.7146 91.0676 61.92 90.8518 62.0672 90.5979C62.2144 90.344 62.2993 90.0592 62.315 89.7666C62.315 89.2298 61.9378 89.0137 61.4678 89.2806C61.2214 89.4406 61.0163 89.6559 60.8692 89.9092C60.722 90.1625 60.6368 90.4467 60.6206 90.7387Z" fill="url(#paint67_linear_801_53958)"/>
<path id="Vector_92" d="M60.79 90.6437C60.79 91.0725 61.0938 91.2473 61.4678 91.0312C61.6651 90.9036 61.8294 90.7315 61.9471 90.5289C62.0649 90.3263 62.1329 90.099 62.1456 89.8654C62.1456 89.4365 61.8419 89.2618 61.4678 89.4746C61.2704 89.6029 61.1062 89.7756 60.9885 89.9787C60.8707 90.1818 60.8027 90.4096 60.79 90.6437Z" fill="#D0D2D4"/>
<path id="Vector_93" d="M62.5356 90.3484C62.4003 90.4363 62.2877 90.5546 62.2066 90.6936C62.1256 90.8326 62.0784 90.9885 62.0688 91.1489C62.0688 91.4412 62.2799 91.5619 62.5356 91.4126C62.6708 91.3255 62.7832 91.2078 62.8638 91.0692C62.9444 90.9306 62.9908 90.775 62.9992 90.6152C62.9992 90.3229 62.7914 90.2022 62.5356 90.3484ZM62.5356 91.1394C62.4109 91.2093 62.3118 91.1394 62.3118 91.0091C62.316 90.932 62.3384 90.8571 62.3773 90.7902C62.4162 90.7234 62.4704 90.6667 62.5356 90.6247C62.6571 90.5548 62.7594 90.6247 62.7594 90.7518C62.7548 90.8292 62.7321 90.9044 62.6933 90.9717C62.6545 91.0389 62.6005 91.0963 62.5356 91.1394Z" fill="url(#paint68_linear_801_53958)"/>
<path id="Vector_94" d="M62.5356 90.4211C62.4183 90.4961 62.3205 90.5977 62.2505 90.7175C62.1804 90.8374 62.1401 90.9721 62.1328 91.1105C62.1328 91.3647 62.3118 91.4663 62.5356 91.3392C62.6522 91.2638 62.7492 91.162 62.8187 91.0422C62.8881 90.9224 62.9281 90.7879 62.9353 90.6499C62.9353 90.3989 62.7562 90.2941 62.5356 90.4211ZM62.5356 91.1391C62.411 91.209 62.3118 91.1391 62.3118 91.0088C62.316 90.9318 62.3384 90.8568 62.3773 90.79C62.4162 90.7232 62.4705 90.6664 62.5356 90.6245C62.6571 90.5546 62.7594 90.6245 62.7594 90.7515C62.7548 90.8289 62.7322 90.9042 62.6933 90.9714C62.6545 91.0387 62.6005 91.0961 62.5356 91.1391Z" fill="#9EA0A2"/>
<path id="Vector_95" d="M60.4255 91.5586C60.2874 91.6469 60.1727 91.7669 60.0909 91.9084C60.0091 92.0499 59.9627 92.2089 59.9556 92.3719C59.9556 92.6674 60.1634 92.7849 60.4191 92.6387C60.5539 92.5513 60.6661 92.4335 60.7467 92.295C60.8272 92.1565 60.8738 92.0011 60.8827 91.8414C60.8891 91.5332 60.6813 91.4189 60.4255 91.5586ZM60.4255 92.3497C60.3008 92.4196 60.2017 92.3497 60.2017 92.2194C60.2059 92.1419 60.2283 92.0665 60.2672 91.9992C60.3061 91.9319 60.3603 91.8746 60.4255 91.8319C60.5502 91.762 60.6493 91.8319 60.6493 91.9621C60.6452 92.0396 60.6227 92.115 60.5839 92.1824C60.545 92.2497 60.4908 92.307 60.4255 92.3497Z" fill="url(#paint69_linear_801_53958)"/>
<path id="Vector_96" d="M60.4255 91.6314C60.3091 91.7071 60.2122 91.8089 60.1428 91.9287C60.0734 92.0484 60.0333 92.1827 60.0259 92.3208C60.0259 92.5749 60.2049 92.6766 60.4255 92.5495C60.5419 92.4739 60.6388 92.372 60.7082 92.2522C60.7776 92.1325 60.8177 91.9982 60.8251 91.8601C60.8251 91.6092 60.6461 91.5044 60.4255 91.6314ZM60.4255 92.3494C60.3008 92.4193 60.2017 92.3494 60.2017 92.2191C60.2059 92.1416 60.2283 92.0662 60.2672 91.9989C60.306 91.9315 60.3603 91.8742 60.4255 91.8316C60.5502 91.7617 60.6493 91.8315 60.6493 91.9618C60.6451 92.0393 60.6227 92.1147 60.5839 92.182C60.545 92.2494 60.4907 92.3067 60.4255 92.3494Z" fill="#9EA0A2"/>
<path id="Vector_97" d="M60.4255 89.1507C60.2906 89.2388 60.1784 89.3572 60.0979 89.4962C60.0174 89.6352 59.9708 89.7911 59.9619 89.9512C59.9619 90.2435 60.1697 90.3642 60.4255 90.2149C60.5606 90.1278 60.6731 90.0101 60.7537 89.8715C60.8343 89.7329 60.8806 89.5773 60.889 89.4175C60.889 89.1252 60.6812 89.0045 60.4255 89.1507ZM60.4255 89.9417C60.3008 90.0116 60.2017 89.9417 60.2017 89.8114C60.2058 89.7343 60.2283 89.6594 60.2672 89.5926C60.3061 89.5257 60.3603 89.469 60.4255 89.427C60.5502 89.3572 60.6493 89.4271 60.6493 89.5541C60.6451 89.6316 60.6227 89.7071 60.5838 89.7744C60.545 89.8417 60.4907 89.899 60.4255 89.9417Z" fill="url(#paint70_linear_801_53958)"/>
<path id="Vector_98" d="M60.4255 89.2236C60.3091 89.2992 60.2122 89.401 60.1428 89.5208C60.0734 89.6406 60.0333 89.7749 60.0259 89.9129C60.0259 90.1671 60.2049 90.2687 60.4255 90.1417C60.5415 90.0663 60.6381 89.965 60.7075 89.8458C60.7769 89.7266 60.8172 89.5929 60.8251 89.4555C60.8251 89.195 60.6461 89.0965 60.4255 89.2236ZM60.4255 89.9415C60.3008 90.0114 60.2017 89.9415 60.2017 89.8113C60.2059 89.7342 60.2283 89.6592 60.2672 89.5924C60.3061 89.5256 60.3603 89.4689 60.4255 89.4269C60.5502 89.357 60.6493 89.4269 60.6493 89.554C60.6451 89.6315 60.6227 89.7069 60.5839 89.7742C60.545 89.8415 60.4907 89.8988 60.4255 89.9415Z" fill="#9EA0A2"/>
<path id="Vector_99" d="M62.5356 87.9408C62.4003 88.0288 62.2877 88.147 62.2066 88.286C62.1256 88.425 62.0784 88.5809 62.0688 88.7413C62.0688 89.0336 62.2799 89.1543 62.5356 89.0082C62.6705 88.9201 62.7827 88.8017 62.8632 88.6627C62.9437 88.5237 62.9903 88.3678 62.9992 88.2076C62.9992 87.9249 62.7914 87.7947 62.5356 87.9408ZM62.5356 88.7318C62.4109 88.8017 62.3118 88.7318 62.3118 88.6016C62.3162 88.5246 62.3388 88.4497 62.3776 88.3829C62.4165 88.3161 62.4706 88.2594 62.5356 88.2172C62.6571 88.1473 62.7594 88.2172 62.7594 88.3474C62.7545 88.4243 62.7318 88.499 62.6929 88.5657C62.6541 88.6324 62.6003 88.6893 62.5356 88.7318Z" fill="url(#paint71_linear_801_53958)"/>
<path id="Vector_100" d="M62.5356 88.0134C62.4183 88.0884 62.3205 88.1899 62.2505 88.3098C62.1804 88.4297 62.1401 88.5644 62.1328 88.7028C62.1328 88.9569 62.3118 89.0618 62.5356 88.9315C62.652 88.8566 62.7488 88.7553 62.8183 88.6361C62.8877 88.5168 62.9278 88.3829 62.9353 88.2453C62.9353 87.9912 62.7562 87.8864 62.5356 88.0134ZM62.5356 88.7314C62.411 88.8013 62.3118 88.7314 62.3118 88.6011C62.3162 88.5241 62.3388 88.4492 62.3777 88.3825C62.4165 88.3157 62.4706 88.2589 62.5356 88.2168C62.6571 88.1469 62.7594 88.2167 62.7594 88.347C62.7545 88.4239 62.7318 88.4986 62.693 88.5653C62.6541 88.632 62.6003 88.6888 62.5356 88.7314Z" fill="#9EA0A2"/>
<path id="Vector_101" d="M60.7739 89.4841C60.7679 89.6045 60.7332 89.7217 60.6726 89.8261C60.612 89.9305 60.5273 90.0191 60.4254 90.0845C60.2336 90.1957 60.0769 90.1068 60.0769 89.8844C60.0831 89.7641 60.1179 89.6469 60.1785 89.5425C60.2391 89.4382 60.3237 89.3496 60.4254 89.284C60.6204 89.1728 60.7739 89.2617 60.7739 89.4841Z" fill="#5B686C"/>
<path id="Vector_102" d="M60.7385 89.5124C60.7312 89.6205 60.6985 89.7254 60.643 89.8186C60.5874 89.9119 60.5107 89.9908 60.4188 90.0492C60.2462 90.1477 60.0991 90.0493 60.0991 89.8682C60.1057 89.7599 60.1381 89.6547 60.1937 89.5614C60.2493 89.468 60.3265 89.3892 60.4188 89.3313C60.5947 89.2265 60.7385 89.3059 60.7385 89.5124Z" fill="url(#paint72_linear_801_53958)"/>
<path id="Vector_103" d="M60.7739 91.8888C60.7679 92.0096 60.7332 92.1273 60.6726 92.2322C60.612 92.3371 60.5273 92.4263 60.4254 92.4924C60.2336 92.6036 60.0769 92.5114 60.0769 92.2922C60.0831 92.1719 60.1179 92.0548 60.1785 91.9504C60.2391 91.846 60.3237 91.7574 60.4254 91.6918C60.6204 91.5806 60.7739 91.6696 60.7739 91.8888Z" fill="#5B686C"/>
<path id="Vector_104" d="M60.7385 91.9111C60.7317 92.0193 60.6992 92.1244 60.6436 92.2177C60.5881 92.311 60.511 92.3899 60.4188 92.4479C60.2462 92.5496 60.0991 92.467 60.0991 92.27C60.1052 92.1616 60.1373 92.0562 60.193 91.9628C60.2486 91.8694 60.3261 91.7906 60.4188 91.7331C60.5947 91.6347 60.7385 91.7141 60.7385 91.9111Z" fill="url(#paint73_linear_801_53958)"/>
<path id="Vector_105" d="M62.8837 90.6819C62.8773 90.8022 62.8423 90.9192 62.7818 91.0235C62.7212 91.1279 62.6368 91.2165 62.5353 91.2823C62.3402 91.3935 62.1836 91.3014 62.1836 91.0822C62.1902 90.9616 62.2255 90.8443 62.2866 90.7399C62.3478 90.6355 62.433 90.547 62.5353 90.4818C62.7271 90.3706 62.8837 90.4659 62.8837 90.6819Z" fill="#5B686C"/>
<path id="Vector_106" d="M62.8489 90.704C62.8416 90.8121 62.8088 90.917 62.7533 91.0103C62.6978 91.1035 62.621 91.1825 62.5292 91.2409C62.3565 91.3394 62.2095 91.2409 62.2095 91.0598C62.2163 90.9516 62.2488 90.8465 62.3044 90.7532C62.3599 90.6599 62.437 90.581 62.5292 90.523C62.7082 90.4245 62.8489 90.5039 62.8489 90.704Z" fill="url(#paint74_linear_801_53958)"/>
<path id="Vector_107" d="M62.8837 88.2737C62.8772 88.3943 62.8419 88.5116 62.7807 88.616C62.7196 88.7204 62.6344 88.8088 62.5321 88.8741C62.3402 88.9853 62.1836 88.8963 62.1836 88.6739C62.1906 88.5538 62.2257 88.4369 62.2862 88.3327C62.3467 88.2284 62.4309 88.1397 62.5321 88.0735C62.7271 87.9623 62.8837 88.0513 62.8837 88.2737Z" fill="#5B686C"/>
<path id="Vector_108" d="M62.833 88.296C62.827 88.4044 62.7948 88.5097 62.7391 88.6032C62.6835 88.6966 62.606 88.7754 62.5133 88.8328C62.3439 88.9313 62.1936 88.8487 62.1936 88.6518C62.2009 88.5437 62.2336 88.4388 62.2892 88.3455C62.3447 88.2523 62.4215 88.1733 62.5133 88.1149C62.7083 88.0164 62.833 88.0958 62.833 88.296Z" fill="url(#paint75_linear_801_53958)"/>
<path id="Vector_109" d="M128.714 40.5715C128.413 39.1451 125.862 35.5363 125.862 35.5363V32.2071L125.047 31.3938C125.047 31.3938 124.813 30.1041 122.147 27.7183C119.481 25.3326 114.378 21.6825 114.378 21.6825L112.179 19.5953C110.347 16.5171 106.613 12.6065 101.111 10.5194C95.6087 8.43222 88.7479 8.71493 88.7479 8.71493C88.7479 8.71493 84.0706 9.73469 70.7135 16.8316C57.3563 23.9285 50.892 28.8238 49.6707 29.7356C48.4495 30.6473 38.8808 38.586 38.8808 38.586L37.7522 39.6026L37.8226 38.2588C37.8226 38.2588 35.5591 35.6888 35.1115 35.4919C34.6639 35.2949 33.3467 36.6546 33.0015 37.2232C32.6562 37.7918 32.7265 38.5543 33.0015 39.5676C33.2093 40.3396 33.8327 42.0805 34.1204 42.8683L27.3268 48.9931C27.3268 48.9931 16.8341 58.4598 16.2395 59.2445C15.6448 60.0291 15.1014 62.1036 15.1014 62.1036C13.717 63.406 12.3551 66.1349 12.3551 66.551C12.3551 66.9672 12.0002 70.6523 12.0002 72.1294C12.0002 73.6066 12.2944 76.0146 12.2944 76.0146C12.2944 76.0146 12.1217 78.8737 13.0872 80.7607C14.0527 82.6477 15.1909 83.3021 15.1909 83.3021C15.5617 84.2551 18.1865 86.5011 22.2243 89.106C26.2621 91.711 31.972 94.3922 33.1869 94.8242C33.8813 95.085 34.603 95.2672 35.3385 95.3675C39.8655 97.8263 49.4054 98.1693 51.2724 97.5562C53.1395 96.9431 53.277 95.5644 53.277 95.5644C53.277 91.0884 55.8346 85.1891 61.5892 81.107C67.3438 77.0248 68.9423 81.107 69.3196 83.0734C69.5527 84.2267 69.5527 85.4145 69.3196 86.5678L109.426 63.1519C112.543 53.4215 115.593 50.5306 119.621 48.0909C123.65 45.6511 125.718 46.6613 126.428 47.932C127.138 49.2028 126.361 51.9507 126.361 51.9507L127.074 51.525C127.074 51.525 127.675 49.9366 128.074 48.6436C128.474 47.3507 129.011 41.9947 128.714 40.5715Z" fill="white"/>
<g id="Vector_110" style="mix-blend-mode:multiply" opacity="0.15">
<path d="M51.2758 97.5784C53.1588 96.9621 53.2803 95.5865 53.2803 95.5865C53.2803 95.5865 53.2803 95.4944 53.2803 95.4499C53.2803 95.4499 51.1287 96.7207 45.4956 96.8382C42.0542 96.891 38.6261 96.402 35.3386 95.3896C39.8688 97.8484 49.4055 98.1915 51.2758 97.5784Z" fill="black"/>
</g>
<g id="Vector_111" style="mix-blend-mode:multiply" opacity="0.15">
<path d="M41.7867 94.1315L46.6941 94.2744L48.0017 93.0673C48.0017 93.0673 39.5104 93.8234 37.0136 93.9346C34.5167 94.0457 34.2993 93.9981 34.2993 93.9981C34.2389 94.1158 34.1476 94.2152 34.035 94.2856C33.9225 94.3561 33.7929 94.395 33.6599 94.3983C33.2091 94.3825 27.1571 91.5011 24.088 89.7158C21.0189 87.9305 16.201 84.5599 15.5712 83.3623C15.1643 82.538 14.8098 81.6892 14.5097 80.8209C14.0315 79.627 13.6852 78.385 13.4771 77.1168C13.3141 75.8143 12.2782 70.6203 12.323 67.2688C12.2271 68.5204 12.0225 70.9856 12.0225 72.1261C12.0225 73.6001 12.3166 76.0113 12.3166 76.0113C12.3166 76.0113 12.1439 78.8703 13.1094 80.7573C14.0749 82.6443 15.2131 83.2987 15.2131 83.2987C15.5839 84.2518 18.2087 86.4977 22.2465 89.1027C26.2844 91.7076 31.9942 94.3888 33.2091 94.8208C33.9035 95.0816 34.6252 95.2639 35.3607 95.3641C35.7352 95.0483 36.1897 94.8407 36.6747 94.7637C37.3908 94.7065 41.7867 94.1315 41.7867 94.1315Z" fill="black"/>
</g>
<g id="Vector_112" style="mix-blend-mode:multiply" opacity="0.07">
<path d="M30.2807 85.4783C25.0919 83.388 18.8194 79.2455 17.2944 76.955C15.7694 74.6646 13.2214 69.1593 13.3588 64.3973C12.7642 65.398 12.355 66.3034 12.355 66.548C12.355 66.5702 12.355 66.602 12.355 66.6401C12.4733 67.5328 13.4452 74.4613 15.6 77.4887C17.9082 80.729 20.3475 82.3682 22.5854 83.8899C24.8234 85.4116 29.9674 88.1404 31.6746 88.5438C33.3818 88.9473 39.9485 89.7574 47.4423 86.5552C47.4391 86.5552 35.4694 87.5686 30.2807 85.4783Z" fill="black"/>
</g>
<path id="Vector_113" style="mix-blend-mode:multiply" opacity="0.07" d="M121.338 29.5452C120.254 28.2459 113.301 20.6789 113.298 20.6725L112.169 19.6019C110.337 16.5237 106.603 12.6131 101.101 10.5259C95.599 8.43879 88.7382 8.72153 88.7382 8.72153L88.5527 8.76919C88.5527 8.76919 97.8465 9.16945 102.783 12.1334C107.719 15.0973 112.054 19.2048 112.374 22.6167C112.374 22.6167 111.952 24.329 110.42 25.0501C109.615 25.4313 105.235 27.4803 100.574 29.7136C105.417 35.3047 109.189 39.6886 109.189 39.6886C109.189 39.6886 110.024 39.2248 112.182 37.7984C114.34 36.3721 122.435 30.8445 121.338 29.5452Z" fill="url(#paint76_linear_801_53958)"/>
<g id="Group" style="mix-blend-mode:multiply" opacity="0.12">
<path id="Vector_114" d="M80.9692 64.3975C80.9627 64.4192 80.9542 64.4403 80.9438 64.4604L80.9692 64.3975Z" fill="black"/>
<path id="Vector_115" d="M80.8128 63.2885C80.047 63.8473 79.1411 64.1858 78.1945 64.267C76.5001 64.3972 73.9361 63.8762 72.2832 63.3997L72.4143 64.9595C72.4143 64.9595 74.9719 65.5694 76.417 65.5186C77.862 65.4678 79.4094 65.3884 80.9663 64.3972C81.1006 64.0796 81.0079 63.7142 80.8128 63.2885Z" fill="black"/>
</g>
<g id="Vector_116" style="mix-blend-mode:multiply" opacity="0.52">
<path d="M34.1206 42.875L37.7524 39.6092L37.8227 38.2655C37.8227 38.2655 35.0605 40.8641 34.9071 41.1913C34.7536 41.5185 34.4787 41.3152 33.948 40.4352C33.4562 39.4824 33.1062 38.4637 32.9089 37.4109C32.6723 37.9573 32.7587 38.6816 33.0048 39.5743C33.2094 40.3463 33.8329 42.0871 34.1206 42.875Z" fill="black"/>
</g>
<g id="Vector_117" style="mix-blend-mode:multiply" opacity="0.15">
<path d="M92.8145 55.5213C92.7865 55.4512 92.7477 55.3858 92.6994 55.3275C92.6528 55.4585 92.5811 55.5794 92.4884 55.6833C92.1687 56.0201 88.9716 58.428 87.7312 58.9681C87.76 59.2476 88.2555 59.2222 88.62 58.9681C88.9844 58.7139 89.9595 58.1707 91.1424 57.3225C92.3253 56.4743 92.9615 55.858 92.8145 55.5213Z" fill="black"/>
</g>
<g id="Vector_118" style="mix-blend-mode:multiply" opacity="0.15">
<path d="M110.468 43.767C110.836 43.5065 111.811 42.9696 112.994 42.1214C114.177 41.2732 114.813 40.6728 114.666 40.3234C114.65 40.2874 114.632 40.2525 114.612 40.2185C114.455 40.4107 114.281 40.5893 114.094 40.7522C112.673 41.8822 111.166 42.8998 109.586 43.7956C109.627 44.037 110.101 44.0052 110.468 43.767Z" fill="black"/>
</g>
<path id="Vector_119" style="mix-blend-mode:multiply" opacity="0.3" d="M88.6966 57.7453C89.5438 57.1418 90.8642 56.2459 91.6283 55.7249C91.2446 55.0165 89.9435 55.3119 89.0899 56.1633C88.8832 56.3871 88.7287 56.6535 88.6376 56.9434C88.5464 57.2334 88.5207 57.5397 88.5623 57.8406L88.6966 57.7453Z" fill="url(#paint77_linear_801_53958)"/>
<path id="Vector_120" style="mix-blend-mode:multiply" opacity="0.3" d="M110.532 42.5381C111.376 41.9345 112.697 41.0354 113.461 40.5176C113.077 39.8092 111.776 40.1047 110.922 40.9529C110.715 41.1769 110.561 41.4439 110.47 41.7345C110.38 42.0251 110.355 42.3321 110.398 42.6334L110.532 42.5381Z" fill="url(#paint78_linear_801_53958)"/>
<g id="Group_2" style="mix-blend-mode:multiply" opacity="0.2">
<path id="Vector_121" d="M74.1886 45.3209L74.1055 45.2573C75.266 43.7515 79.4701 40.2539 81.935 38.4114C84.272 36.6578 97.7346 29.5165 101.571 27.7851C104.605 26.4255 110.136 23.865 112.374 22.8294L112.419 22.9215C110.181 23.9603 104.65 26.5176 101.613 27.8772C97.7762 29.5959 84.3327 36.7404 81.9957 38.4908C79.5372 40.3333 75.3427 43.8214 74.1886 45.3209Z" fill="black"/>
</g>
<g id="Vector_122" style="mix-blend-mode:multiply" opacity="0.2">
<path d="M89.9308 8.70868H89.6111C82.9198 10.8911 67.9194 18.8743 61.8386 22.6165C55.5341 26.4858 49.8083 30.7236 49.7539 30.7649L49.8147 30.8475C49.8722 30.8062 55.5917 26.5716 61.893 22.7023C68.0504 18.9156 83.4057 10.7291 89.9308 8.70868Z" fill="black"/>
</g>
<g id="Group_3" style="mix-blend-mode:multiply" opacity="0.2">
<path id="Vector_123" d="M110.615 23.6868C110.615 23.6265 109.122 17.597 102.575 14.0422C96.5006 10.7352 90.5957 9.59474 87.3955 9.62015V9.51849H87.501C90.7364 9.51849 96.5869 10.678 102.626 13.966C109.215 17.5462 110.702 23.6201 110.715 23.6805L110.615 23.6868Z" fill="black"/>
</g>
<g id="Group_4" style="mix-blend-mode:multiply" opacity="0.2">
<path id="Vector_124" d="M65.2848 63.6058L65.1953 63.555C65.2944 63.3866 75.1892 46.4513 77.4303 43.9258C79.6714 41.4003 85.9568 37.2006 89.4607 35.3136C92.9071 33.4584 105.19 27.5528 106.907 26.8475C106.987 26.803 109.058 25.7039 110.008 26.8475C110.679 27.6671 113.269 32.2861 114.803 35.0436C115.424 36.1522 115.871 36.9496 115.977 37.118C116.273 37.7101 116.481 38.3413 116.597 38.9923V39.0114C116.439 39.6921 116.395 40.3939 116.466 41.0889C116.587 42.042 116.728 44.971 115.954 47.0295C115.465 48.332 114.394 49.9426 113.451 51.3658C112.949 52.1218 112.473 52.8366 112.137 53.4275C111.661 54.2661 110.743 56.2453 109.854 58.1577C108.966 60.0701 108.131 61.9031 107.911 62.1922L107.828 62.1286C108.055 61.8395 108.892 60.032 109.781 58.1227C110.67 56.2135 111.584 54.2503 112.067 53.3925C112.406 52.8017 112.879 52.0837 113.384 51.3245C114.327 49.9076 115.392 48.3002 115.878 47.0073C116.645 44.9709 116.517 42.0642 116.383 41.1175C116.312 40.4141 116.356 39.7038 116.514 39.0145C116.399 38.3807 116.195 37.7659 115.91 37.1879C115.804 37.0195 115.353 36.2349 114.733 35.1103C113.186 32.3528 110.599 27.7402 109.938 26.9269C109.042 25.8341 106.98 26.9269 106.958 26.9269C105.238 27.6354 92.9646 33.5378 89.5182 35.393C86.0207 37.2737 79.7641 41.4511 77.5166 43.9703C75.2691 46.4894 65.3903 63.4375 65.2848 63.6058Z" fill="black"/>
</g>
<g id="Group_5" style="mix-blend-mode:multiply" opacity="0.2">
<path id="Vector_125" d="M93.6297 71.0493H93.5242V68.7017C93.4954 68.5873 93.1789 67.3071 93.23 66.9386C93.2812 66.5701 93.5242 55.966 93.5242 55.858L93.6584 54.4031L92.8848 51.3915L92.9871 51.3661L93.7671 54.3967L93.6329 55.8644C93.6329 56.2964 93.3931 66.5828 93.3387 66.9513C93.2844 67.3198 93.6297 68.6699 93.6329 68.6826V71.0493H93.6297Z" fill="black"/>
</g>
<g id="Group_6" style="mix-blend-mode:multiply" opacity="0.2">
<path id="Vector_126" d="M71.4648 84.001L70.9469 80.5319C70.8254 79.7219 70.5664 77.5394 70.3362 75.6143C70.1572 74.1212 69.9878 72.7108 69.9078 72.1199C69.7224 70.7856 69.0606 67.2245 69.051 67.1895L69.1533 67.1705C69.1533 67.2086 69.8247 70.7698 70.0069 72.1072C70.0901 72.6949 70.2595 74.1054 70.4385 75.6016C70.6687 77.5267 70.9277 79.7092 71.0492 80.5161L71.5671 83.9851L71.4648 84.001Z" fill="black"/>
</g>
<g id="Vector_127" style="mix-blend-mode:multiply" opacity="0.2">
<path d="M53.4911 83.3336L51.3011 82.1074L51.25 82.1963L53.4432 83.4194L57.075 85.4366C57.0973 85.408 57.1197 85.3826 57.1389 85.354L53.4911 83.3336Z" fill="black"/>
</g>
<g id="Group_7" style="mix-blend-mode:multiply" opacity="0.2">
<path id="Vector_128" d="M66.5798 64.5782L63.3477 62.3894L63.4052 62.3036L66.6374 64.4956L66.5798 64.5782Z" fill="black"/>
</g>
<path id="Vector_129" d="M41.7869 94.1316L48.0019 93.0674C48.0019 93.0674 48.3056 95.4722 46.4034 95.5802C44.9034 95.6042 43.4046 95.485 41.9275 95.2244L41.7869 94.1316Z" fill="#1B2628"/>
<path id="Vector_130" d="M43.9929 93.7536C44.0518 94.2411 44.2884 94.6903 44.6581 95.0162C45.0278 95.3421 45.5049 95.5221 45.999 95.5221C46.4932 95.5221 46.9703 95.3421 47.34 95.0162C47.7097 94.6903 47.9463 94.2411 48.0052 93.7536C48.0096 93.67 48.0096 93.5862 48.0052 93.5026C48.0047 93.3582 47.9875 93.2143 47.954 93.0737L43.9929 93.7536Z" fill="#EFF6FA"/>
<path id="Vector_131" d="M14.5291 77.4884C14.2989 79.1213 15.3284 82.6697 16.1276 83.5878C16.9269 84.5059 19.5932 86.5517 22.4705 88.4133C25.3478 90.2749 30.1977 92.6384 31.5309 93.2896C32.864 93.9409 33.6569 94.3666 34.2132 94.2427C34.7695 94.1188 37.148 90.5227 37.148 90.5227C37.148 90.5227 27.8991 86.8408 22.8701 83.6958C16.9333 79.9822 14.5291 77.4884 14.5291 77.4884Z" fill="#1B2628"/>
<path id="Vector_132" d="M22.1891 86.87C26.0639 89.2907 32.3493 92.2895 34.9964 93.5221L35.1594 93.3188C32.5571 92.1053 26.2078 89.0873 22.3266 86.6476C19.7121 85.0548 17.2677 83.2017 15.031 81.1169C15.0822 81.2852 15.1333 81.4536 15.1877 81.6156C17.3508 83.5809 19.695 85.3401 22.1891 86.87Z" fill="#4D585A"/>
<path id="Vector_133" d="M14.7527 80.0398C14.7879 80.1891 14.823 80.3575 14.8614 80.4941C17.1682 82.6 19.6758 84.4779 22.3488 86.1011C26.3195 88.5853 32.9853 91.635 35.5685 92.7723C35.6196 92.7024 35.674 92.6325 35.7251 92.5594C33.1835 91.4285 26.4698 88.3629 22.4863 85.8692C18.231 83.2261 15.7821 81.0437 14.7527 80.0398Z" fill="#4D585A"/>
<path id="Vector_134" d="M14.5002 78.1145C14.5002 78.2352 14.5002 78.3591 14.5002 78.4862C15.2963 79.2327 17.8124 81.4565 22.5855 84.4395C27.1988 87.3271 35.3256 90.8406 36.5661 91.3711L36.7131 91.1552C35.6485 90.7009 27.381 87.1397 22.723 84.2234C17.4607 80.9355 14.9574 78.5656 14.5002 78.1145Z" fill="#4D585A"/>
<path id="Vector_135" d="M14.5803 79.0641C14.5803 79.2007 14.6187 79.3373 14.6443 79.4739C15.5554 80.3189 18.0555 82.4664 22.6016 85.3128C26.7929 87.9336 33.8807 91.1263 36.0739 92.0952L36.2241 91.8823C34.0949 90.9293 26.9528 87.7271 22.7391 85.0968C17.707 81.9486 15.1973 79.6645 14.5803 79.0641Z" fill="#4D585A"/>
<path id="Vector_136" d="M34.6767 93.7219C34.1204 93.8331 33.3307 93.4042 31.9944 92.7689C30.658 92.1335 25.8145 89.7573 22.9372 87.8957C20.0599 86.0341 17.3872 83.9883 16.5911 83.0702C15.9294 82.3046 15.1077 79.7251 14.9926 77.9366C14.6729 77.6538 14.5386 77.5045 14.5386 77.5045C14.3085 79.1374 15.3379 82.6858 16.1372 83.6039C16.9364 84.522 19.6027 86.5678 22.48 88.4294C25.3574 90.291 30.2072 92.6545 31.5404 93.3057C32.8735 93.957 33.6664 94.3826 34.2227 94.2587C34.3921 94.227 34.7182 93.8807 35.0987 93.4138C34.9855 93.5492 34.8406 93.655 34.6767 93.7219Z" fill="#4D585A"/>
<path id="Vector_137" d="M38.8872 81.7261C38.8872 81.7261 30.4567 80.7254 25.821 78.0792C21.1853 75.4329 17.5503 69.3018 17.5503 69.3018V72.1418C17.5503 72.1418 19.3694 77.7583 24.8587 80.8874C30.348 84.0165 37.0073 83.8895 37.0073 83.8895L38.8872 81.7261Z" fill="#4D585A"/>
<path id="Vector_138" d="M36.87 83.6008C36.0899 83.6008 30.006 83.4896 25.0026 80.6369C19.9194 77.7365 18.0203 72.606 17.8413 72.0945V70.306C19.0338 72.1041 22.023 76.2434 25.6772 78.3305C29.6831 80.621 36.3616 81.6757 38.315 81.9457L36.87 83.6008Z" fill="#1B2628"/>
<path id="Vector_139" d="M38.2925 82.4097C36.3743 82.2413 28.9732 81.4567 24.977 78.9153C21.4602 76.7074 18.7332 72.5173 17.5503 70.4682V71.0877C18.6884 73.2161 21.2876 77.4698 24.7564 79.665C28.5928 82.0857 35.5783 82.7973 37.8258 82.9656L38.2925 82.4097Z" fill="#4D585A"/>
<path id="Vector_140" d="M80.9312 63.5806C80.4965 63.8412 80.0288 64.0432 79.5405 64.181C78.4023 64.54 77.3313 64.8164 77.0596 65.493H77.2898C77.5008 65.493 77.715 65.4613 77.9292 65.4359H78.0251L78.1721 65.4136H78.2904L78.4311 65.3914L78.559 65.3691L78.6932 65.3405L78.8371 65.312L78.9586 65.2834L79.1408 65.2357L79.2271 65.2135L79.4893 65.1341L79.582 65.1023L79.7611 65.0388L79.8698 64.9975L80.036 64.9276L80.1447 64.8799L80.3141 64.8005L80.4196 64.7497L80.6019 64.6512L80.6946 64.6036C80.7841 64.5495 80.8736 64.4987 80.9631 64.4384C81.0153 64.3004 81.0393 64.1535 81.0338 64.0063C81.0283 63.8591 80.9934 63.7144 80.9312 63.5806Z" fill="#BBC2C6"/>
<path id="Vector_141" d="M16.2396 59.2446C15.6449 60.0324 15.1014 62.1037 15.1014 62.1037L15.0183 62.1863C15.0535 62.955 15.3924 69.1465 17.1667 71.8087L17.3425 72.0755L17.3266 71.7578C17.2275 69.9153 17.106 66.9101 17.2019 66.675C17.3121 66.4498 17.446 66.2368 17.6015 66.0397L17.6207 66.0206V66.0047C17.852 64.1385 18.2806 62.3017 18.8995 60.5248C19.1201 59.9498 19.3599 59.3875 19.5869 58.8443C20.2518 57.2559 20.8241 55.9122 20.6291 55.1402V55.1116C18.4199 57.1098 16.4762 58.9205 16.2396 59.2446Z" fill="#414E52"/>
<path id="Vector_142" d="M43.1456 84.2583C40.7287 84.2583 38.4652 84.1725 37.6084 84.1153H37.439L40.831 79.8743H40.8502C40.9109 79.8489 46.8414 77.495 48.6925 76.7421C49.2775 76.5038 49.8498 76.2338 50.4061 75.9701C51.5506 75.4301 52.5417 74.9631 53.2258 74.9631C53.2791 74.9596 53.3325 74.9596 53.3857 74.9631C54.137 75.0552 55.387 75.3856 55.7547 75.9161C55.8017 75.9785 55.8341 76.0505 55.8496 76.1269C55.8651 76.2032 55.8632 76.2821 55.8442 76.3577C55.6748 77.0185 51.6881 83.0289 49.7027 83.7595C48.5934 84.1725 45.5242 84.2583 43.1456 84.2583Z" fill="#414E52"/>
<path id="Vector_143" d="M37.6116 84.0297L40.8853 79.9381C40.8853 79.9381 46.8478 77.5682 48.7244 76.8058C50.6011 76.0434 52.4106 74.9251 53.3761 75.0427C54.3416 75.1602 55.9337 75.6494 55.761 76.3356C55.5884 77.0218 51.6209 82.9528 49.6867 83.6771C47.7525 84.4014 39.4658 84.1473 37.6116 84.0297Z" fill="url(#paint79_linear_801_53958)"/>
<path id="Vector_144" d="M55.7452 76.0847V76.1324C54.7541 76.9901 53.0181 78.156 50.0641 79.198C50.1888 80.1192 50.2303 81.8029 49.0506 82.5812C47.4937 83.6073 40.5114 83.7788 37.7811 83.8011L37.5957 84.0298C39.45 84.1473 47.7047 84.4015 49.6549 83.6772C51.605 82.9529 55.5661 77.006 55.7292 76.3357C55.7617 76.256 55.7674 76.1679 55.7452 76.0847Z" fill="url(#paint80_linear_801_53958)"/>
<path id="Vector_145" d="M113.077 24.7384L121.338 29.5448C121.338 29.5448 116.223 23.3565 114.541 21.8126L114.369 21.6887L112.169 19.6016C112.169 19.6016 113.068 21.9905 113.173 22.7783C113.22 23.4332 113.187 24.0911 113.077 24.7384Z" fill="#141C1E"/>
<path id="Vector_146" d="M117.518 26.3713C118.461 26.8827 118.502 26.6889 118.048 26.0885C117.594 25.4881 114.052 21.3806 114.043 21.371L112.179 19.6016C112.179 19.6016 113.077 21.9905 113.183 22.7783C113.213 23.0271 113.22 23.278 113.205 23.528C114.081 24.1189 116.731 25.9487 117.518 26.3713Z" fill="#303E42"/>
<path id="Vector_147" d="M113.202 35.2506C112.722 33.8401 110.462 26.6479 108.435 27.4358C106.408 28.2236 90.8516 35.1902 85.2121 39.3899C79.5726 43.5896 78.249 45.0382 77.2803 45.9912C75.6818 47.5796 67.3216 61.5796 65.998 64.2068C64.6744 66.834 62.9161 69.5469 63.4884 70.16C64.0606 70.7731 67.3248 68.5716 71.3306 66.0302C71.6503 65.8269 72.1683 65.487 72.8524 65.0295L72.4144 64.9342L72.2482 62.9678L72.3153 62.0942C72.5818 61.6192 72.9302 61.1945 73.3448 60.8394C73.9842 60.3279 74.4573 59.9308 75.8033 60.2771C76.7118 60.528 77.5981 60.852 78.4536 61.246C90.0428 53.3708 110.996 38.9452 110.996 38.9452C110.996 38.9452 113.886 37.271 113.202 35.2506Z" fill="#141C1E"/>
<path id="Vector_148" d="M107.843 28.1504C105.331 29.2242 98.1244 32.4867 92.178 35.673C93.0699 39.0753 94.6717 46.5502 95.2439 49.2568C103.444 43.634 110.59 38.7227 110.737 38.6147C111.113 38.3776 111.465 38.1053 111.788 37.8014C111.028 34.6024 108.713 29.869 107.843 28.1504Z" fill="#303E42"/>
<path id="Vector_149" d="M60.8508 67.9425C60.8508 67.9425 70.4802 51.7664 74.1472 45.289C74.1472 45.289 66.3464 42.1536 60.4671 38.3859C54.5878 34.6183 49.7699 30.8062 49.7699 30.8062C49.7699 30.8062 45.5754 33.948 43.6092 35.5713C37.8546 40.3364 28.7175 48.5007 28.7175 48.5007C28.7175 48.5007 30.9235 53.7869 41.6303 60.1372C52.3371 66.4875 60.8508 67.9425 60.8508 67.9425Z" fill="#141C1E"/>
<path id="Vector_150" d="M49.2583 31.7372C47.9507 32.722 45.3163 34.7266 43.8873 35.9115C39.3507 39.6728 32.6018 45.6356 30.0442 47.9101C31.5628 50.0608 35.1786 54.162 42.9793 58.7905C48.6506 62.1941 54.756 64.8257 61.132 66.6149C63.2452 63.0633 69.9078 51.8271 73.2231 46.0295C71.6246 45.3719 65.0356 42.5636 59.898 39.2725C54.3831 35.74 49.805 32.1661 49.2583 31.7372Z" fill="#303E42"/>
<path id="Vector_151" d="M30.0442 47.8972C31.5628 50.0479 35.1786 54.1491 42.9793 58.7776C48.6506 62.1812 54.756 64.8128 61.132 66.602C61.8098 65.4647 62.9543 63.5333 64.3066 61.246C59.3321 58.352 38.2957 46.1024 34.7342 43.7738C32.7808 45.4924 31.0704 46.9982 30.0442 47.8972Z" fill="#39464A"/>
<path id="Vector_152" d="M61.2663 53.2975C60.7314 53.0631 60.1562 52.9326 59.5719 52.9131C58.3506 52.9131 57.7847 53.7263 58.2515 55.1368C58.8909 57.0778 61.3079 59.4064 63.6257 60.3371C63.9463 60.474 64.2792 60.5803 64.62 60.6548L64.8502 60.3848C64.9716 60.1751 65.0963 59.9686 65.221 59.7495C64.7969 59.712 64.382 59.6046 63.9934 59.4318C61.9473 58.609 59.7445 56.5028 59.1978 54.8287C59.0316 54.3394 59.0827 54.0821 59.1307 54.0122C59.2631 53.921 59.4247 53.8814 59.5847 53.901C60.0431 53.9228 60.4933 54.0306 60.9114 54.2187C62.9575 55.0415 65.1603 57.1509 65.707 58.8218C65.7159 58.8447 65.7233 58.868 65.7293 58.8917L66.3464 57.8434C65.4384 56.0295 63.3188 54.1075 61.2663 53.2975Z" fill="#3D4B4F"/>
<path id="Vector_153" d="M55.2241 62.0719C48.7981 58.9555 52.6665 55.083 53.3858 54.6637C54.1052 54.2443 57.6602 54.8384 60.3202 56.5697C62.9801 58.3011 64.3068 61.2618 64.3068 61.2618C64.3068 61.2618 61.3176 65.0326 55.2241 62.0719Z" fill="#3D4B4F"/>
<path id="Vector_154" opacity="0.7" d="M50.4381 32.6485C49.7987 32.172 49.399 31.8511 49.2584 31.74C47.9508 32.7248 45.3164 34.7293 43.8874 35.9142C41.8732 37.582 39.4115 39.685 37.1001 41.7086L50.4381 32.6485Z" fill="#C5D0D3"/>
<path id="Vector_155" opacity="0.2" d="M59.898 39.2725C54.3831 35.74 49.805 32.1661 49.2583 31.7372C47.9507 32.722 45.3163 34.7266 43.8873 35.9115C39.3507 39.6728 32.6018 45.6356 30.0442 47.9101C30.9713 49.2253 32.6881 51.2712 35.6645 53.7236C40.9045 50.5818 50.6905 45.0479 61.8545 40.4638C61.1863 40.0762 60.531 39.6791 59.898 39.2725Z" fill="white"/>
<path id="Vector_156" d="M70.3203 64.4164L70.5697 65.2424C70.5697 65.2424 73.5589 65.9508 75.7361 65.9858C77.9132 66.0207 79.6876 65.4394 80.5316 64.8961C80.7292 64.7804 80.8864 64.6075 80.9824 64.4006C79.4222 65.3917 77.8621 65.4743 76.4298 65.5219C74.9976 65.5696 72.424 64.9597 72.424 64.9597L72.2577 62.9933C72.2577 62.9933 71.4361 63.3109 71.0269 63.5396C70.7182 63.7654 70.4746 64.0678 70.3203 64.4164Z" fill="#2D3537"/>
<path id="Vector_157" d="M72.2481 62.9933C72.2481 62.9933 71.4265 63.3109 71.0173 63.5396C70.7125 63.7658 70.4723 64.0669 70.3203 64.4133L72.4144 64.9597L72.2481 62.9933Z" fill="#3A4244"/>
<path id="Vector_158" d="M72.3152 62.1192C72.5624 61.6803 72.8786 61.2835 73.2519 60.9438L72.3184 54.2726C70.9596 56.4964 69.5785 58.7995 68.4819 60.7056C68.8016 61.6268 69.2268 62.9293 69.6425 64.1809L72.2864 62.6561L72.3152 62.1192Z" fill="#303E42"/>
<path id="Vector_159" d="M75.8033 60.3022C76.5474 60.5076 77.2769 60.7623 77.9868 61.0646C81.4204 58.7297 85.714 55.7944 90.0556 52.8241C89.8286 48.1511 88.6681 40.8604 88.1821 37.9441C87.1431 38.5795 86.2191 39.1799 85.4742 39.7358C80.2823 43.6051 78.7989 45.095 77.8174 46.0893L77.5904 46.3181C76.951 46.9534 75.0615 49.8443 73.0059 53.1576L73.965 60.4197C74.3998 60.1719 74.9113 60.0734 75.8033 60.3022Z" fill="#303E42"/>
<path id="Vector_160" d="M44.9296 80.1061C43.9705 80.1379 43.0785 80.1061 42.372 80.0712L40.7959 81.0242C40.6914 81.1007 40.6116 81.2056 40.5662 81.3263C40.5208 81.447 40.5117 81.5783 40.5401 81.704C40.6065 82.081 40.7554 82.4389 40.9764 82.7524C41.1974 83.0659 41.485 83.3272 41.8189 83.518C41.9329 83.5943 42.0643 83.641 42.2012 83.6537C42.338 83.6665 42.4759 83.6449 42.6022 83.591L45.7992 81.7866C45.8295 81.5424 45.8077 81.2945 45.7353 81.0592C45.6026 80.6489 45.3134 80.3068 44.9296 80.1061Z" fill="url(#paint81_linear_801_53958)"/>
<path id="Vector_161" d="M40.5528 81.6978C40.6192 82.0748 40.7681 82.4327 40.9891 82.7462C41.2101 83.0596 41.4977 83.321 41.8316 83.5117C41.9456 83.588 42.077 83.6347 42.2139 83.6475C42.3507 83.6602 42.4886 83.6387 42.6149 83.5848C42.7203 83.5092 42.8008 83.4043 42.8463 83.2833C42.8918 83.1624 42.9003 83.0307 42.8706 82.905C42.8049 82.5282 42.6562 82.1705 42.4351 81.8574C42.214 81.5444 41.9261 81.2838 41.5918 81.0942C41.4784 81.0168 41.347 80.9693 41.2101 80.9559C41.0731 80.9426 40.935 80.964 40.8086 81.018C40.7041 81.0944 40.6243 81.1994 40.5789 81.3201C40.5335 81.4408 40.5244 81.572 40.5528 81.6978Z" fill="white"/>
<path id="Vector_162" d="M50.8251 78.9213C50.4158 79.0802 49.9779 79.239 49.5143 79.3883C47.6568 80.0014 45.4828 80.1349 43.782 80.119C43.6551 80.3542 43.608 80.6238 43.6478 80.8877C43.7468 81.4544 43.97 81.9926 44.3015 82.4641C44.6329 82.9357 45.0646 83.3291 45.566 83.6166C46.0455 83.8676 46.4579 83.8898 46.7425 83.7278L51.538 81.0116C51.5861 80.6441 51.5556 80.2707 51.4485 79.9157C51.3273 79.5378 51.113 79.196 50.8251 78.9213Z" fill="url(#paint82_linear_801_53958)"/>
<path id="Vector_163" d="M45.4029 80.0873C44.8338 80.1159 44.2872 80.1254 43.782 80.119C43.6551 80.3542 43.608 80.6239 43.6478 80.8878C43.7468 81.4545 43.97 81.9927 44.3015 82.4642C44.6329 82.9358 45.0646 83.3292 45.566 83.6167C46.0455 83.8676 46.4579 83.8899 46.7425 83.7278C47.027 83.5658 47.1805 83.21 47.1293 82.7049C47.0379 82.1742 46.8374 81.6679 46.5404 81.2175C46.2434 80.7671 45.8562 80.3824 45.4029 80.0873Z" fill="white"/>
<g id="Group_8">
<path id="Vector_164" d="M37.6116 84.0297L40.8853 79.9381C40.8853 79.9381 46.8478 77.5682 48.7244 76.8058C50.6011 76.0434 52.4106 74.9251 53.3761 75.0427C54.3416 75.1602 55.9337 75.6494 55.761 76.3356C55.5884 77.0218 51.6209 82.9528 49.6867 83.6771C47.7525 84.4014 39.4658 84.1473 37.6116 84.0297Z" fill="url(#paint83_linear_801_53958)"/>
</g>
<g id="Group_9">
<path id="Vector_165" d="M53.3762 75.0427C52.4171 74.9251 50.598 76.0434 48.7246 76.8058C46.8511 77.5682 40.8855 79.9381 40.8855 79.9381C40.8855 79.9381 45.8281 80.6052 49.5174 79.3885C52.8168 78.302 54.7094 77.044 55.7644 76.1323C55.6142 75.5541 54.2426 75.1507 53.3762 75.0427Z" fill="url(#paint84_linear_801_53958)"/>
</g>
<path id="Vector_166" d="M16.2395 59.2443C15.6448 60.0322 15.1013 62.1034 15.1013 62.1034C15.1013 62.1034 15.3475 68.9207 17.2401 71.7608C17.2401 71.7608 16.9844 66.9639 17.1218 66.6525C17.2346 66.4259 17.3729 66.2127 17.5342 66.0172C17.7631 64.1433 18.1918 62.2989 18.8131 60.515C19.6667 58.2913 20.7888 56.1883 20.5394 55.1844C18.3942 57.1477 16.476 58.9235 16.2395 59.2443Z" fill="url(#paint85_linear_801_53958)"/>
<g id="Group_10">
<path id="Vector_167" d="M16.2395 59.2443C15.6448 60.0322 15.1013 62.1034 15.1013 62.1034C15.1013 62.1034 15.3475 68.9207 17.2401 71.7608C17.2401 71.7608 16.9844 66.9639 17.1218 66.6525C17.2346 66.4259 17.3729 66.2127 17.5342 66.0172C17.7631 64.1433 18.1918 62.2989 18.8131 60.515C19.6667 58.2913 20.7888 56.1883 20.5394 55.1844C18.3942 57.1477 16.476 58.9235 16.2395 59.2443Z" fill="url(#paint86_linear_801_53958)"/>
</g>
<g id="Group_11">
<path id="Vector_168" d="M20.5428 55.1652C19.2152 56.4238 17.9811 57.7764 16.8503 59.2124C15.0535 61.5091 17.5344 66.0043 17.5344 66.0043C17.7633 64.1304 18.1919 62.286 18.8132 60.5021C19.6732 58.272 20.7922 56.1563 20.5428 55.1652Z" fill="url(#paint87_linear_801_53958)"/>
</g>
<path id="Vector_169" d="M29.9514 88.9218C29.8552 88.9208 29.7611 88.8933 29.6797 88.8424L19.689 82.8891C19.5534 82.8013 19.4409 82.6825 19.3608 82.5427C19.2807 82.4029 19.2354 82.2461 19.2286 82.0854V79.9824C19.2219 79.9254 19.2273 79.8675 19.2444 79.8127C19.2614 79.7578 19.2898 79.7071 19.3277 79.6637C19.3656 79.6204 19.4122 79.5854 19.4645 79.5609C19.5168 79.5365 19.5737 79.5231 19.6314 79.5218C19.7277 79.5228 19.8217 79.5503 19.9032 79.6012L29.9035 85.5671C30.0391 85.655 30.1516 85.7738 30.2316 85.9136C30.3117 86.0534 30.357 86.2101 30.3638 86.3709V88.4643C30.3701 88.5219 30.3641 88.5802 30.3463 88.6353C30.3284 88.6904 30.2991 88.7412 30.2602 88.7844C30.2213 88.8275 30.1737 88.8621 30.1205 88.8857C30.0673 88.9094 30.0097 88.9217 29.9514 88.9218Z" fill="#404B4D"/>
<path id="Vector_170" d="M30.1463 88.4641C30.1463 88.6896 29.9832 88.7818 29.7882 88.6642L19.7943 82.711C19.6887 82.6404 19.6013 82.5461 19.5391 82.4357C19.4769 82.3254 19.4417 82.202 19.4363 82.0756V79.9821C19.4363 79.7534 19.5961 79.6645 19.7943 79.7788L29.7882 85.7321C29.8933 85.8032 29.9804 85.8976 30.0425 86.0079C30.1046 86.1181 30.1402 86.2412 30.1463 86.3674V88.4641Z" fill="white"/>
</g>
</g>
<defs>
<filter id="filter0_d_801_53958" x="3.62711" y="3.67821" width="136.895" height="110.595" filterUnits="userSpaceOnUse" color-interpolation-filters="sRGB">
<feFlood flood-opacity="0" result="BackgroundImageFix"/>
<feColorMatrix in="SourceAlpha" type="matrix" values="0 0 0 0 0 0 0 0 0 0 0 0 0 0 0 0 0 0 127 0" result="hardAlpha"/>
<feOffset dx="1.67463" dy="5.02388"/>
<feGaussianBlur stdDeviation="5.02388"/>
<feComposite in2="hardAlpha" operator="out"/>
<feColorMatrix type="matrix" values="0 0 0 0 0 0 0 0 0 0 0 0 0 0 0 0 0 0 0.25 0"/>
<feBlend mode="normal" in2="BackgroundImageFix" result="effect1_dropShadow_801_53958"/>
<feBlend mode="normal" in="SourceGraphic" in2="effect1_dropShadow_801_53958" result="shape"/>
</filter>
<linearGradient id="paint0_linear_801_53958" x1="119.116" y1="60.4943" x2="115.785" y2="54.6612" gradientUnits="userSpaceOnUse">
<stop stop-color="#7A7D80"/>
<stop offset="1" stop-color="#2C2F30"/>
</linearGradient>
<linearGradient id="paint1_linear_801_53958" x1="119.019" y1="62.4513" x2="114.373" y2="54.3161" gradientUnits="userSpaceOnUse">
<stop stop-color="#F9FCFF"/>
<stop offset="1" stop-color="#76797A"/>
</linearGradient>
<linearGradient id="paint2_linear_801_53958" x1="119.019" y1="63.2233" x2="113.692" y2="53.8951" gradientUnits="userSpaceOnUse">
<stop stop-color="#F9FCFF"/>
<stop offset="1" stop-color="#76797A"/>
</linearGradient>
<linearGradient id="paint3_linear_801_53958" x1="119.019" y1="50.5385" x2="125.676" y2="62.1952" gradientUnits="userSpaceOnUse">
<stop stop-color="#F9FCFF"/>
<stop offset="1" stop-color="#76797A"/>
</linearGradient>
<linearGradient id="paint4_linear_801_53958" x1="119.019" y1="62.8262" x2="113.371" y2="52.935" gradientUnits="userSpaceOnUse">
<stop stop-color="#F9FCFF"/>
<stop offset="1" stop-color="#76797A"/>
</linearGradient>
<linearGradient id="paint5_linear_801_53958" x1="119.837" y1="60.6913" x2="120.112" y2="60.6443" gradientUnits="userSpaceOnUse">
<stop stop-color="#F9FCFF"/>
<stop offset="1" stop-color="#76797A"/>
</linearGradient>
<linearGradient id="paint6_linear_801_53958" x1="121.561" y1="58.674" x2="121.7" y2="58.3832" gradientUnits="userSpaceOnUse">
<stop stop-color="#F9FCFF"/>
<stop offset="1" stop-color="#76797A"/>
</linearGradient>
<linearGradient id="paint7_linear_801_53958" x1="122.551" y1="56.282" x2="122.474" y2="55.9938" gradientUnits="userSpaceOnUse">
<stop stop-color="#F9FCFF"/>
<stop offset="1" stop-color="#76797A"/>
</linearGradient>
<linearGradient id="paint8_linear_801_53958" x1="122.629" y1="54.0581" x2="122.48" y2="53.8972" gradientUnits="userSpaceOnUse">
<stop stop-color="#F9FCFF"/>
<stop offset="1" stop-color="#76797A"/>
</linearGradient>
<linearGradient id="paint9_linear_801_53958" x1="121.742" y1="52.6368" x2="121.514" y2="52.5091" gradientUnits="userSpaceOnUse">
<stop stop-color="#F9FCFF"/>
<stop offset="1" stop-color="#76797A"/>
</linearGradient>
<linearGradient id="paint10_linear_801_53958" x1="120.157" y1="52.3889" x2="119.87" y2="52.3271" gradientUnits="userSpaceOnUse">
<stop stop-color="#F9FCFF"/>
<stop offset="1" stop-color="#76797A"/>
</linearGradient>
<linearGradient id="paint11_linear_801_53958" x1="117.829" y1="53.7312" x2="118.277" y2="53.6117" gradientUnits="userSpaceOnUse">
<stop stop-color="#F9FCFF"/>
<stop offset="1" stop-color="#76797A"/>
</linearGradient>
<linearGradient id="paint12_linear_801_53958" x1="116.307" y1="55.7278" x2="116.49" y2="55.4454" gradientUnits="userSpaceOnUse">
<stop stop-color="#F9FCFF"/>
<stop offset="1" stop-color="#76797A"/>
</linearGradient>
<linearGradient id="paint13_linear_801_53958" x1="115.411" y1="58.1612" x2="115.356" y2="57.8807" gradientUnits="userSpaceOnUse">
<stop stop-color="#F9FCFF"/>
<stop offset="1" stop-color="#76797A"/>
</linearGradient>
<linearGradient id="paint14_linear_801_53958" x1="115.475" y1="60.2879" x2="115.351" y2="60.1409" gradientUnits="userSpaceOnUse">
<stop stop-color="#F9FCFF"/>
<stop offset="1" stop-color="#76797A"/>
</linearGradient>
<linearGradient id="paint15_linear_801_53958" x1="116.496" y1="61.5669" x2="116.316" y2="61.4713" gradientUnits="userSpaceOnUse">
<stop stop-color="#F9FCFF"/>
<stop offset="1" stop-color="#76797A"/>
</linearGradient>
<linearGradient id="paint16_linear_801_53958" x1="118.213" y1="61.6354" x2="117.991" y2="61.5905" gradientUnits="userSpaceOnUse">
<stop stop-color="#F9FCFF"/>
<stop offset="1" stop-color="#76797A"/>
</linearGradient>
<linearGradient id="paint17_linear_801_53958" x1="119.019" y1="62.8074" x2="117.342" y2="59.8705" gradientUnits="userSpaceOnUse">
<stop stop-color="#F9FCFF"/>
<stop offset="1" stop-color="#76797A"/>
</linearGradient>
<linearGradient id="paint18_linear_801_53958" x1="117.336" y1="62.9137" x2="116.014" y2="61.5352" gradientUnits="userSpaceOnUse">
<stop stop-color="#F9FCFF"/>
<stop offset="1" stop-color="#76797A"/>
</linearGradient>
<linearGradient id="paint19_linear_801_53958" x1="121.444" y1="52.7562" x2="120.102" y2="52.1499" gradientUnits="userSpaceOnUse">
<stop stop-color="#F9FCFF"/>
<stop offset="1" stop-color="#76797A"/>
</linearGradient>
<linearGradient id="paint20_linear_801_53958" x1="116.513" y1="55.7599" x2="117.493" y2="53.7007" gradientUnits="userSpaceOnUse">
<stop stop-color="#F9FCFF"/>
<stop offset="1" stop-color="#76797A"/>
</linearGradient>
<linearGradient id="paint21_linear_801_53958" x1="119.019" y1="54.9892" x2="117.151" y2="51.7169" gradientUnits="userSpaceOnUse">
<stop stop-color="#F9FCFF"/>
<stop offset="1" stop-color="#76797A"/>
</linearGradient>
<linearGradient id="paint22_linear_801_53958" x1="122.432" y1="53.9014" x2="121.372" y2="53.0723" gradientUnits="userSpaceOnUse">
<stop stop-color="#F9FCFF"/>
<stop offset="1" stop-color="#76797A"/>
</linearGradient>
<linearGradient id="paint23_linear_801_53958" x1="115.723" y1="57.5986" x2="115.877" y2="55.8746" gradientUnits="userSpaceOnUse">
<stop stop-color="#F9FCFF"/>
<stop offset="1" stop-color="#76797A"/>
</linearGradient>
<linearGradient id="paint24_linear_801_53958" x1="122.46" y1="55.715" x2="121.909" y2="54.7305" gradientUnits="userSpaceOnUse">
<stop stop-color="#F9FCFF"/>
<stop offset="1" stop-color="#76797A"/>
</linearGradient>
<linearGradient id="paint25_linear_801_53958" x1="115.578" y1="59.6257" x2="115.039" y2="58.6819" gradientUnits="userSpaceOnUse">
<stop stop-color="#F9FCFF"/>
<stop offset="1" stop-color="#76797A"/>
</linearGradient>
<linearGradient id="paint26_linear_801_53958" x1="122.021" y1="57.7326" x2="121.781" y2="56.6123" gradientUnits="userSpaceOnUse">
<stop stop-color="#F9FCFF"/>
<stop offset="1" stop-color="#76797A"/>
</linearGradient>
<linearGradient id="paint27_linear_801_53958" x1="116.471" y1="61.2792" x2="115.571" y2="60.6332" gradientUnits="userSpaceOnUse">
<stop stop-color="#F9FCFF"/>
<stop offset="1" stop-color="#76797A"/>
</linearGradient>
<linearGradient id="paint28_linear_801_53958" x1="120.691" y1="61.2903" x2="119.949" y2="58.0584" gradientUnits="userSpaceOnUse">
<stop stop-color="#F9FCFF"/>
<stop offset="1" stop-color="#76797A"/>
</linearGradient>
<linearGradient id="paint29_linear_801_53958" x1="119.019" y1="56.06" x2="119.906" y2="57.6123" gradientUnits="userSpaceOnUse">
<stop stop-color="#F9FCFF"/>
<stop offset="1" stop-color="#76797A"/>
</linearGradient>
<linearGradient id="paint30_linear_801_53958" x1="120.076" y1="58.2549" x2="119.512" y2="57.2078" gradientUnits="userSpaceOnUse">
<stop stop-color="#E0E3E6"/>
<stop offset="1" stop-color="#5D6061"/>
</linearGradient>
<linearGradient id="paint31_linear_801_53958" x1="117.957" y1="59.4651" x2="117.394" y2="58.4155" gradientUnits="userSpaceOnUse">
<stop stop-color="#E0E3E6"/>
<stop offset="1" stop-color="#5D6061"/>
</linearGradient>
<linearGradient id="paint32_linear_801_53958" x1="117.957" y1="57.0573" x2="117.394" y2="56.0076" gradientUnits="userSpaceOnUse">
<stop stop-color="#E0E3E6"/>
<stop offset="1" stop-color="#5D6061"/>
</linearGradient>
<linearGradient id="paint33_linear_801_53958" x1="120.076" y1="55.8469" x2="119.512" y2="54.7997" gradientUnits="userSpaceOnUse">
<stop stop-color="#E0E3E6"/>
<stop offset="1" stop-color="#5D6061"/>
</linearGradient>
<linearGradient id="paint34_linear_801_53958" x1="118.207" y1="56.1408" x2="118.148" y2="57.0406" gradientUnits="userSpaceOnUse">
<stop stop-color="#EFF2F5"/>
<stop offset="1" stop-color="#86898B"/>
</linearGradient>
<linearGradient id="paint35_linear_801_53958" x1="118.207" y1="58.5488" x2="118.148" y2="59.4486" gradientUnits="userSpaceOnUse">
<stop stop-color="#EFF2F5"/>
<stop offset="1" stop-color="#86898B"/>
</linearGradient>
<linearGradient id="paint36_linear_801_53958" x1="120.326" y1="57.3389" x2="120.262" y2="58.2416" gradientUnits="userSpaceOnUse">
<stop stop-color="#EFF2F5"/>
<stop offset="1" stop-color="#86898B"/>
</linearGradient>
<linearGradient id="paint37_linear_801_53958" x1="120.326" y1="54.9304" x2="120.262" y2="55.8331" gradientUnits="userSpaceOnUse">
<stop stop-color="#EFF2F5"/>
<stop offset="1" stop-color="#86898B"/>
</linearGradient>
<linearGradient id="paint38_linear_801_53958" x1="61.4465" y1="93.695" x2="58.114" y2="87.8595" gradientUnits="userSpaceOnUse">
<stop stop-color="#7A7D80"/>
<stop offset="1" stop-color="#2C2F30"/>
</linearGradient>
<linearGradient id="paint39_linear_801_53958" x1="61.3495" y1="95.6518" x2="56.7023" y2="87.5142" gradientUnits="userSpaceOnUse">
<stop stop-color="#F9FCFF"/>
<stop offset="1" stop-color="#76797A"/>
</linearGradient>
<linearGradient id="paint40_linear_801_53958" x1="61.3494" y1="96.4203" x2="56.0223" y2="87.0921" gradientUnits="userSpaceOnUse">
<stop stop-color="#F9FCFF"/>
<stop offset="1" stop-color="#76797A"/>
</linearGradient>
<linearGradient id="paint41_linear_801_53958" x1="61.3496" y1="83.7391" x2="68.0064" y2="95.3957" gradientUnits="userSpaceOnUse">
<stop stop-color="#F9FCFF"/>
<stop offset="1" stop-color="#76797A"/>
</linearGradient>
<linearGradient id="paint42_linear_801_53958" x1="61.3495" y1="96.0267" x2="55.6996" y2="86.1332" gradientUnits="userSpaceOnUse">
<stop stop-color="#F9FCFF"/>
<stop offset="1" stop-color="#76797A"/>
</linearGradient>
<linearGradient id="paint43_linear_801_53958" x1="62.1673" y1="93.8884" x2="62.4438" y2="93.8449" gradientUnits="userSpaceOnUse">
<stop stop-color="#F9FCFF"/>
<stop offset="1" stop-color="#76797A"/>
</linearGradient>
<linearGradient id="paint44_linear_801_53958" x1="63.8918" y1="91.8714" x2="64.0363" y2="91.5801" gradientUnits="userSpaceOnUse">
<stop stop-color="#F9FCFF"/>
<stop offset="1" stop-color="#76797A"/>
</linearGradient>
<linearGradient id="paint45_linear_801_53958" x1="64.8819" y1="89.4822" x2="64.8052" y2="89.1884" gradientUnits="userSpaceOnUse">
<stop stop-color="#F9FCFF"/>
<stop offset="1" stop-color="#76797A"/>
</linearGradient>
<linearGradient id="paint46_linear_801_53958" x1="64.9596" y1="87.2554" x2="64.8111" y2="87.0934" gradientUnits="userSpaceOnUse">
<stop stop-color="#F9FCFF"/>
<stop offset="1" stop-color="#76797A"/>
</linearGradient>
<linearGradient id="paint47_linear_801_53958" x1="64.0752" y1="85.8354" x2="63.8453" y2="85.7077" gradientUnits="userSpaceOnUse">
<stop stop-color="#F9FCFF"/>
<stop offset="1" stop-color="#76797A"/>
</linearGradient>
<linearGradient id="paint48_linear_801_53958" x1="62.4871" y1="85.5894" x2="62.2035" y2="85.5261" gradientUnits="userSpaceOnUse">
<stop stop-color="#F9FCFF"/>
<stop offset="1" stop-color="#76797A"/>
</linearGradient>
<linearGradient id="paint49_linear_801_53958" x1="60.1591" y1="86.9316" x2="60.6117" y2="86.8082" gradientUnits="userSpaceOnUse">
<stop stop-color="#F9FCFF"/>
<stop offset="1" stop-color="#76797A"/>
</linearGradient>
<linearGradient id="paint50_linear_801_53958" x1="58.6379" y1="88.9278" x2="58.821" y2="88.6454" gradientUnits="userSpaceOnUse">
<stop stop-color="#F9FCFF"/>
<stop offset="1" stop-color="#76797A"/>
</linearGradient>
<linearGradient id="paint51_linear_801_53958" x1="57.7447" y1="91.3597" x2="57.6888" y2="91.0793" gradientUnits="userSpaceOnUse">
<stop stop-color="#F9FCFF"/>
<stop offset="1" stop-color="#76797A"/>
</linearGradient>
<linearGradient id="paint52_linear_801_53958" x1="57.8087" y1="93.4838" x2="57.6858" y2="93.3391" gradientUnits="userSpaceOnUse">
<stop stop-color="#F9FCFF"/>
<stop offset="1" stop-color="#76797A"/>
</linearGradient>
<linearGradient id="paint53_linear_801_53958" x1="58.827" y1="94.764" x2="58.6472" y2="94.6699" gradientUnits="userSpaceOnUse">
<stop stop-color="#F9FCFF"/>
<stop offset="1" stop-color="#76797A"/>
</linearGradient>
<linearGradient id="paint54_linear_801_53958" x1="60.5429" y1="94.8323" x2="60.3201" y2="94.789" gradientUnits="userSpaceOnUse">
<stop stop-color="#F9FCFF"/>
<stop offset="1" stop-color="#76797A"/>
</linearGradient>
<linearGradient id="paint55_linear_801_53958" x1="61.3522" y1="96.0059" x2="59.6751" y2="93.069" gradientUnits="userSpaceOnUse">
<stop stop-color="#F9FCFF"/>
<stop offset="1" stop-color="#76797A"/>
</linearGradient>
<linearGradient id="paint56_linear_801_53958" x1="59.6666" y1="96.1111" x2="58.3454" y2="94.7347" gradientUnits="userSpaceOnUse">
<stop stop-color="#F9FCFF"/>
<stop offset="1" stop-color="#76797A"/>
</linearGradient>
<linearGradient id="paint57_linear_801_53958" x1="63.7777" y1="85.9544" x2="62.4346" y2="85.3466" gradientUnits="userSpaceOnUse">
<stop stop-color="#F9FCFF"/>
<stop offset="1" stop-color="#76797A"/>
</linearGradient>
<linearGradient id="paint58_linear_801_53958" x1="58.8435" y1="88.9565" x2="59.8291" y2="86.8968" gradientUnits="userSpaceOnUse">
<stop stop-color="#F9FCFF"/>
<stop offset="1" stop-color="#76797A"/>
</linearGradient>
<linearGradient id="paint59_linear_801_53958" x1="61.3522" y1="88.188" x2="59.4836" y2="84.9157" gradientUnits="userSpaceOnUse">
<stop stop-color="#F9FCFF"/>
<stop offset="1" stop-color="#76797A"/>
</linearGradient>
<linearGradient id="paint60_linear_801_53958" x1="64.7649" y1="87.0999" x2="63.7033" y2="86.2689" gradientUnits="userSpaceOnUse">
<stop stop-color="#F9FCFF"/>
<stop offset="1" stop-color="#76797A"/>
</linearGradient>
<linearGradient id="paint61_linear_801_53958" x1="58.0536" y1="90.796" x2="58.2098" y2="89.0746" gradientUnits="userSpaceOnUse">
<stop stop-color="#F9FCFF"/>
<stop offset="1" stop-color="#76797A"/>
</linearGradient>
<linearGradient id="paint62_linear_801_53958" x1="64.7927" y1="88.9103" x2="64.2415" y2="87.9306" gradientUnits="userSpaceOnUse">
<stop stop-color="#F9FCFF"/>
<stop offset="1" stop-color="#76797A"/>
</linearGradient>
<linearGradient id="paint63_linear_801_53958" x1="57.9089" y1="92.8257" x2="57.3699" y2="91.8819" gradientUnits="userSpaceOnUse">
<stop stop-color="#F9FCFF"/>
<stop offset="1" stop-color="#76797A"/>
</linearGradient>
<linearGradient id="paint64_linear_801_53958" x1="64.3505" y1="90.9295" x2="64.1123" y2="89.8115" gradientUnits="userSpaceOnUse">
<stop stop-color="#F9FCFF"/>
<stop offset="1" stop-color="#76797A"/>
</linearGradient>
<linearGradient id="paint65_linear_801_53958" x1="58.8018" y1="94.4763" x2="57.9037" y2="93.8318" gradientUnits="userSpaceOnUse">
<stop stop-color="#F9FCFF"/>
<stop offset="1" stop-color="#76797A"/>
</linearGradient>
<linearGradient id="paint66_linear_801_53958" x1="63.0209" y1="94.4874" x2="62.2809" y2="91.2578" gradientUnits="userSpaceOnUse">
<stop stop-color="#F9FCFF"/>
<stop offset="1" stop-color="#76797A"/>
</linearGradient>
<linearGradient id="paint67_linear_801_53958" x1="61.3523" y1="89.2583" x2="62.2388" y2="90.8106" gradientUnits="userSpaceOnUse">
<stop stop-color="#F9FCFF"/>
<stop offset="1" stop-color="#76797A"/>
</linearGradient>
<linearGradient id="paint68_linear_801_53958" x1="62.4065" y1="91.4555" x2="61.8424" y2="90.4034" gradientUnits="userSpaceOnUse">
<stop stop-color="#E0E3E6"/>
<stop offset="1" stop-color="#5D6061"/>
</linearGradient>
<linearGradient id="paint69_linear_801_53958" x1="60.2898" y1="92.6642" x2="59.7255" y2="91.617" gradientUnits="userSpaceOnUse">
<stop stop-color="#E0E3E6"/>
<stop offset="1" stop-color="#5D6061"/>
</linearGradient>
<linearGradient id="paint70_linear_801_53958" x1="60.2897" y1="90.2562" x2="59.7241" y2="89.2066" gradientUnits="userSpaceOnUse">
<stop stop-color="#E0E3E6"/>
<stop offset="1" stop-color="#5D6061"/>
</linearGradient>
<linearGradient id="paint71_linear_801_53958" x1="62.4065" y1="89.0479" x2="61.8424" y2="87.9958" gradientUnits="userSpaceOnUse">
<stop stop-color="#E0E3E6"/>
<stop offset="1" stop-color="#5D6061"/>
</linearGradient>
<linearGradient id="paint72_linear_801_53958" x1="60.5396" y1="89.3393" x2="60.4754" y2="90.2419" gradientUnits="userSpaceOnUse">
<stop stop-color="#EFF2F5"/>
<stop offset="1" stop-color="#86898B"/>
</linearGradient>
<linearGradient id="paint73_linear_801_53958" x1="60.5396" y1="91.7474" x2="60.4754" y2="92.6501" gradientUnits="userSpaceOnUse">
<stop stop-color="#EFF2F5"/>
<stop offset="1" stop-color="#86898B"/>
</linearGradient>
<linearGradient id="paint74_linear_801_53958" x1="62.6565" y1="90.5388" x2="62.5973" y2="91.4386" gradientUnits="userSpaceOnUse">
<stop stop-color="#EFF2F5"/>
<stop offset="1" stop-color="#86898B"/>
</linearGradient>
<linearGradient id="paint75_linear_801_53958" x1="62.6567" y1="88.1307" x2="62.5975" y2="89.0306" gradientUnits="userSpaceOnUse">
<stop stop-color="#EFF2F5"/>
<stop offset="1" stop-color="#86898B"/>
</linearGradient>
<linearGradient id="paint76_linear_801_53958" x1="100.938" y1="22.9344" x2="112.488" y2="15.5327" gradientUnits="userSpaceOnUse">
<stop stop-color="white"/>
<stop offset="1"/>
</linearGradient>
<linearGradient id="paint77_linear_801_53958" x1="90.4582" y1="57.2053" x2="89.1479" y2="55.5802" gradientUnits="userSpaceOnUse">
<stop stop-color="white"/>
<stop offset="1"/>
</linearGradient>
<linearGradient id="paint78_linear_801_53958" x1="112.086" y1="41.7566" x2="111.195" y2="40.6455" gradientUnits="userSpaceOnUse">
<stop stop-color="white"/>
<stop offset="1"/>
</linearGradient>
<linearGradient id="paint79_linear_801_53958" x1="46.787" y1="80.6211" x2="47.2639" y2="83.2271" gradientUnits="userSpaceOnUse">
<stop stop-color="#AFB2B2"/>
<stop offset="0.5" stop-color="#E8EDED"/>
<stop offset="1" stop-color="#C7CACC"/>
</linearGradient>
<linearGradient id="paint80_linear_801_53958" x1="37.6117" y1="80.1287" x2="55.774" y2="80.1287" gradientUnits="userSpaceOnUse">
<stop stop-color="#AFB2B2"/>
<stop offset="0.5" stop-color="#E8EDED"/>
<stop offset="1" stop-color="#C7CACC"/>
</linearGradient>
<linearGradient id="paint81_linear_801_53958" x1="40.5465" y1="81.8629" x2="45.8152" y2="81.8629" gradientUnits="userSpaceOnUse">
<stop stop-color="#EDF2F2"/>
<stop offset="1" stop-color="#C7CACC"/>
</linearGradient>
<linearGradient id="paint82_linear_801_53958" x1="43.6382" y1="81.377" x2="51.5668" y2="81.377" gradientUnits="userSpaceOnUse">
<stop stop-color="#EDF2F2"/>
<stop offset="1" stop-color="#C7CACC"/>
</linearGradient>
<linearGradient id="paint83_linear_801_53958" x1="46.787" y1="80.6211" x2="47.2639" y2="83.2271" gradientUnits="userSpaceOnUse">
<stop stop-color="white"/>
<stop offset="0.31" stop-color="white"/>
<stop offset="1" stop-color="white"/>
</linearGradient>
<linearGradient id="paint84_linear_801_53958" x1="40.8855" y1="77.5777" x2="55.7612" y2="77.5777" gradientUnits="userSpaceOnUse">
<stop stop-color="white"/>
<stop offset="0.31" stop-color="white"/>
<stop offset="1" stop-color="white"/>
</linearGradient>
<linearGradient id="paint85_linear_801_53958" x1="15.1013" y1="63.4599" x2="20.5778" y2="63.4599" gradientUnits="userSpaceOnUse">
<stop stop-color="#AFB2B2"/>
<stop offset="0.5" stop-color="#E8EDED"/>
<stop offset="1" stop-color="#C7CACC"/>
</linearGradient>
<linearGradient id="paint86_linear_801_53958" x1="17.8667" y1="59.7081" x2="19.6066" y2="70.3602" gradientUnits="userSpaceOnUse">
<stop stop-color="white"/>
<stop offset="0.31" stop-color="white"/>
<stop offset="1" stop-color="white"/>
</linearGradient>
<linearGradient id="paint87_linear_801_53958" x1="16.1981" y1="60.5815" x2="20.578" y2="60.5815" gradientUnits="userSpaceOnUse">
<stop stop-color="white"/>
<stop offset="0.31" stop-color="white"/>
<stop offset="1" stop-color="white"/>
</linearGradient>
<clipPath id="clip0_801_53958">
<rect width="140" height="115" fill="white"/>
</clipPath>
</defs>
</svg>
