<svg width="140" height="119" viewBox="0 0 140 119" fill="none" xmlns="http://www.w3.org/2000/svg">
<g id="Frame 10" clip-path="url(#clip0_801_53506)">
<g id="Group">
<g id="&#226;&#128;&#148;&#195;&#142;&#195;&#147;&#195;&#136;_9" filter="url(#filter0_d_801_53506)">
<path id="Vector" d="M62.1826 88.1657L60.8639 87.3788C60.1133 86.9696 59.0865 87.0431 57.9554 87.6988C56.7422 88.494 55.7324 89.5658 55.0079 90.8273C54.2834 92.0887 53.8646 93.5043 53.7854 94.9592C53.7854 96.2759 54.2389 97.2097 54.9738 97.6556L56.3134 98.4425C57.0692 98.9199 58.1378 98.8726 59.3158 98.1854C60.5298 97.3912 61.5402 96.3196 62.2649 95.0579C62.9895 93.7963 63.4078 92.3802 63.4857 90.9251C63.5066 89.5401 63.0062 88.5801 62.1826 88.1657Z" fill="#292928"/>
<path id="Vector_2" d="M63.5066 90.9251C63.4287 92.3803 63.0104 93.7963 62.2858 95.058C61.5611 96.3196 60.5507 97.3912 59.3367 98.1855C57.038 99.5232 55.1667 98.4373 55.1667 95.7671C55.1667 93.0969 57.0328 89.8392 59.3367 88.5068C61.6406 87.1743 63.5066 88.2549 63.5066 90.9251Z" fill="#636362"/>
<path id="Vector_3" d="M62.2298 91.4128C62.1736 92.5105 61.8612 93.5793 61.3178 94.5327C60.7744 95.4861 60.0154 96.2971 59.1023 96.9001C57.3666 97.9125 55.9749 97.0942 55.9749 95.0745C56.0322 93.9771 56.3452 92.9087 56.8885 91.9555C57.4317 91.0024 58.1901 90.1911 59.1023 89.5872C60.8224 88.5748 62.2298 89.3984 62.2298 91.4128Z" fill="#515150"/>
<path id="Vector_4" d="M59.3419 89.3726C59.044 89.5507 58.7631 89.7561 58.5027 89.9863C58.6864 89.8404 58.8797 89.7072 59.0813 89.5877C60.8223 88.5752 62.2088 89.3988 62.2088 91.4132C62.1526 92.5109 61.8402 93.5797 61.2968 94.5331C60.7534 95.4865 59.9944 96.2976 59.0813 96.9005C57.3508 97.9077 55.9539 97.0946 55.9539 95.0906C55.9539 95.1693 55.9539 95.2533 55.9539 95.3319C55.9539 97.5247 57.4863 98.4165 59.3732 97.3202C60.3682 96.6669 61.1962 95.7869 61.7903 94.7516C62.3843 93.7162 62.7277 92.5546 62.7926 91.3608C62.7613 89.168 61.2288 88.2762 59.3419 89.3726Z" fill="url(#paint0_linear_801_53506)"/>
<path id="Vector_5" d="M60.6189 92.9344C60.597 93.3543 60.4771 93.7632 60.2688 94.1278C60.0605 94.4924 59.7697 94.8024 59.4201 95.0327C58.7581 95.4157 58.2212 95.1062 58.2212 94.335C58.2427 93.9149 58.3625 93.5059 58.5708 93.1413C58.7791 92.7766 59.0701 92.4667 59.4201 92.2366C60.0977 91.8484 60.6189 92.1632 60.6189 92.9344Z" fill="#292928"/>
<path id="Vector_6" d="M60.4782 92.8662C60.4565 93.2571 60.3437 93.6374 60.1491 93.9764C59.9544 94.3154 59.6832 94.6036 59.3575 94.8176C58.7372 95.1796 58.2368 94.8858 58.2368 94.1671C58.2577 93.7753 58.3701 93.3939 58.5648 93.054C58.7595 92.714 59.0311 92.425 59.3575 92.2104C59.9726 91.8537 60.4782 92.1422 60.4782 92.8662Z" fill="#515150"/>
<path id="Vector_7" d="M77.9348 79.0222L76.6161 78.2406C75.8655 77.8261 74.8386 77.8996 73.7075 78.5553C71.4089 79.893 69.5376 83.1455 69.5376 85.8157C69.5376 87.1377 69.9911 88.0662 70.726 88.5121L72.0656 89.3042C72.8214 89.7816 73.89 89.7344 75.068 89.0472C76.2817 88.2526 77.2919 87.181 78.0165 85.9194C78.7411 84.6578 79.1596 83.2419 79.2379 81.7868C79.2379 80.3967 78.7376 79.4419 77.9348 79.0222Z" fill="#292928"/>
<path id="Vector_8" d="M79.2379 81.7866C79.1595 83.2417 78.741 84.6576 78.0164 85.9192C77.2918 87.1808 76.2816 88.2524 75.0679 89.047C72.7692 90.3847 70.8979 89.2988 70.8979 86.6234C70.8979 83.948 72.764 80.7007 75.0679 79.363C77.3718 78.0253 79.2379 79.1112 79.2379 81.7866Z" fill="#636362"/>
<path id="Vector_9" d="M77.9607 82.2746C77.9038 83.372 77.591 84.4406 77.0477 85.3938C76.5044 86.3471 75.7458 87.1583 74.8333 87.7618C73.0975 88.769 71.7058 87.9507 71.7058 85.931C71.7636 84.8337 72.0767 83.7655 72.62 82.8124C73.1632 81.8593 73.9213 81.0479 74.8333 80.4438C76.5534 79.4365 77.9607 80.2549 77.9607 82.2746Z" fill="#515150"/>
<path id="Vector_10" d="M75.0731 80.2341C74.7752 80.4121 74.4943 80.6176 74.2339 80.8478C74.4163 80.6985 74.6097 80.5635 74.8125 80.4439C76.5535 79.4367 77.94 80.255 77.94 82.2747C77.883 83.3722 77.5702 84.4407 77.0269 85.394C76.4836 86.3472 75.725 87.1584 74.8125 87.762C73.082 88.7692 71.6851 87.9561 71.6851 85.9469C71.6851 86.0308 71.6851 86.1095 71.6851 86.1934C71.6851 88.3862 73.2175 89.2728 75.1044 88.1764C76.0999 87.5237 76.9284 86.6439 77.5226 85.6084C78.1167 84.573 78.4597 83.411 78.5238 82.217C78.4925 80.0242 76.96 79.1377 75.0731 80.2341Z" fill="url(#paint1_linear_801_53506)"/>
<path id="Vector_11" d="M76.3657 83.7909C76.3443 84.2109 76.2245 84.62 76.0161 84.9846C75.8078 85.3493 75.5168 85.6592 75.1669 85.8892C74.5049 86.2774 73.968 85.9627 73.968 85.1915C73.9899 84.7715 74.1099 84.3627 74.3182 83.9981C74.5265 83.6335 74.8172 83.3235 75.1669 83.0932C75.8289 82.7102 76.3657 83.0197 76.3657 83.7909Z" fill="#292928"/>
<path id="Vector_12" d="M76.2095 83.7224C76.1873 84.114 76.0745 84.4949 75.8799 84.8346C75.6853 85.1744 75.4143 85.4636 75.0888 85.6792C74.4685 86.0359 73.9629 85.7473 73.9629 85.0287C73.9844 84.6364 74.0975 84.2547 74.2932 83.9147C74.4888 83.5747 74.7614 83.2859 75.0888 83.0719C75.7038 82.71 76.2095 83.0037 76.2095 83.7224Z" fill="#515150"/>
<path id="Vector_13" d="M76.225 80.6117L73.452 81.9127L70.1108 83.455L67.8747 82.6157L62.1305 85.9521L62.8082 87.8301L60.645 89.3514V89.3567V89.3514L57.8668 91.2819L57.1631 92.9082L57.4393 94.6393L58.1118 95.0433L57.8355 93.3121L58.5392 91.6806L61.3174 89.7554L65.2893 86.954L69.9753 84.2314L74.1244 82.3167L76.8974 81.0157L76.225 80.6117Z" fill="#292928"/>
<path id="Vector_14" d="M65.2633 91.282C65.2633 91.6806 65.6438 91.8066 66.1129 91.5075L69.2404 89.6977C69.466 89.573 69.6603 89.398 69.8085 89.1862C69.9567 88.9743 70.0547 88.7312 70.0952 88.4754L70.7833 85.8524C70.7833 85.4537 70.3976 85.3278 69.9285 85.6216L69.5584 85.8367L69.0371 87.7987C68.9966 88.0545 68.8985 88.2976 68.7504 88.5095C68.6022 88.7213 68.4079 88.8963 68.1823 89.021L65.0913 90.8151L65.2633 91.282Z" fill="#292928"/>
<path id="Vector_15" d="M58.9719 93.0392L58.9458 93.7055L61.0985 92.5409L63.0011 93.5376C63.1001 93.2701 63.1783 93.013 63.2513 92.7455L61.3227 91.6963L58.9719 93.0392Z" fill="#292928"/>
<path id="Vector_16" d="M73.5615 85.1755L75.9697 83.6909L76.5378 84.3362L76.4701 82.8673L74.1245 84.2627L73.5615 85.1755Z" fill="#292928"/>
<path id="Vector_17" d="M76.9027 81.0155L74.1245 82.3165L70.0015 84.2313L65.3103 86.9539L61.3436 89.7552L58.5341 91.6805L57.8252 93.312L58.1067 95.0431L58.899 94.5815L58.9615 93.0392L61.3123 91.7067L64.9923 93.6897L70.1422 90.6943L74.1141 84.2628L76.4649 82.8673L76.5274 84.3362L77.3197 83.8798L77.6012 81.8234L76.9027 81.0155ZM70.0901 88.4752C70.0496 88.7311 69.9515 88.9742 69.8033 89.186C69.6552 89.3979 69.4608 89.5728 69.2352 89.6975L66.1078 91.5074C65.6386 91.7802 65.2581 91.6805 65.2581 91.2818L64.5701 89.472C64.6113 89.2171 64.7098 88.975 64.8579 88.7641C65.006 88.5532 65.1999 88.3791 65.4249 88.2549L69.9181 85.632C70.3872 85.3592 70.7729 85.4641 70.7729 85.8628L70.0901 88.4752Z" fill="#515150"/>
<g id="Vector_18" style="mix-blend-mode:multiply" opacity="0.4">
<path d="M79.2326 81.5715C79.2326 81.4718 79.2326 81.3669 79.2326 81.2724C79.2326 81.178 79.2326 81.1728 79.2326 81.1203C79.2326 81.0679 79.2326 80.9157 79.1857 80.8213C79.1388 80.7269 79.1596 80.7111 79.144 80.6534C79.1283 80.5957 79.1075 80.4908 79.0814 80.4121L79.0189 80.2495C79.0189 80.1813 78.9668 80.1079 78.9355 80.0449L78.8573 79.898L78.7531 79.7197L78.654 79.5938C78.6187 79.5409 78.5805 79.4901 78.5393 79.4416L78.4247 79.3315L78.2891 79.2108L78.1588 79.1216L78.0129 79.0272L77.9712 79.001L76.6524 78.2193C75.9018 77.8049 74.875 77.8783 73.7439 78.5341C71.9803 79.6811 70.6597 81.4008 70.0014 83.4075L67.8747 82.6207L62.141 85.9623L62.8186 87.8351L62.2974 88.2076L62.2557 88.1813L60.9369 87.3944C60.1864 86.9853 59.1595 87.0587 58.0284 87.7144C56.8153 88.5096 55.8055 89.5814 55.081 90.8429C54.3565 92.1044 53.9376 93.5199 53.8584 94.9748C53.8534 95.4149 53.9131 95.8533 54.0357 96.2758L64.7889 89.9912L64.5909 89.4666C64.6321 89.2117 64.7305 88.9696 64.8787 88.7587C65.0268 88.5478 65.2207 88.3737 65.4457 88.2495L69.5635 85.8574L69.1465 87.4312L79.2326 81.5715Z" fill="black"/>
</g>
<path id="Vector_19" d="M131.148 21.2436L52.5396 66.8831C30.4754 80.0714 20.2903 101.323 20.2903 101.323L20.431 107.277C31.1686 109.018 46.144 102.755 53.6082 98.5003L53.7906 98.3954L56.3239 91.3396L76.6524 79.5206L79.6078 83.4025L132.201 52.8713V25.776L131.148 21.2436Z" fill="white"/>
<path id="Vector_20" d="M119.249 12.5825C112.592 8.5746 108.573 8.12869 108.573 8.12869L29.9595 53.7683C29.9595 53.7683 9.45374 63.2634 8.35913 94.1619C8.35913 94.1619 9.36513 95.4629 12.6907 97.7186C15.065 99.2336 17.618 100.444 20.2904 101.323C20.2904 101.323 30.4755 80.0713 52.5398 66.8831L131.149 21.2435C131.149 21.2435 127.203 17.3668 119.249 12.5825Z" fill="white"/>
<path id="Vector_21" d="M20.2903 101.322C17.6179 100.444 15.0649 99.2335 12.6906 97.7185C9.36507 95.4627 8.35907 94.1617 8.35907 94.1617C8.26524 96.1237 8.4998 100.116 8.4998 100.116C8.4998 100.116 9.5058 101.417 12.8313 103.673C15.2057 105.188 17.7587 106.398 20.4311 107.277L20.2903 101.322Z" fill="#C7C7C7"/>
<path id="Vector_22" d="M13.0607 95.211C15.665 96.8876 18.4486 98.2638 21.3589 99.3134L21.5257 99.0143C18.6218 97.9741 15.8448 96.6048 13.2484 94.933C11.5716 93.8351 9.99161 92.5943 8.5259 91.2241L8.49463 91.6648C9.92326 92.9639 11.4499 94.1496 13.0607 95.211Z" fill="#44505D"/>
<path id="Vector_23" d="M79.6235 83.4025L132.217 52.8712V46.0515L53.5092 91.7803C44.4187 96.7115 35.912 101.91 20.3789 105.257L20.431 107.277C31.1687 109.018 46.144 102.755 53.6082 98.5003L53.7906 98.3954L56.3239 91.3396L76.6524 79.5206L79.6235 83.4025Z" fill="#21292B"/>
<path id="Vector_24" d="M76.6628 79.5154L79.6183 83.4026L132.217 52.8713V47.2372L76.6628 79.5154Z" fill="white"/>
<path id="Vector_25" d="M53.5146 92.9713C44.4293 97.8972 35.9278 103.091 20.4104 106.443V107.277C31.148 109.019 46.1234 102.755 53.5876 98.5005L53.77 98.3956L56.3033 91.3398L53.5146 92.9713Z" fill="white"/>
<path id="Vector_26" style="mix-blend-mode:screen" opacity="0.2" d="M52.5396 66.8831C30.4754 80.0714 20.2903 101.323 20.2903 101.323L20.749 101.454C33.3839 83.1875 46.0293 75.5494 53.7698 71.4051L132.222 25.7655L131.148 21.2436L52.5396 66.8831Z" fill="url(#paint2_linear_801_53506)"/>
<path id="Vector_27" d="M27.7128 89.619C26.149 89.0944 21.0096 87.2217 16.8709 84.4098C12.9668 81.7869 11.2154 80.0033 10.616 79.3685C9.54914 83.0702 8.85072 86.8694 8.53101 90.7102C10.0167 92.1117 11.6232 93.3774 13.3317 94.4925C15.9578 96.1864 18.7683 97.5716 21.7081 98.621C23.5232 95.4986 25.5286 92.4922 27.7128 89.619Z" fill="#6A7683"/>
<path id="Vector_28" d="M16.871 84.4096C21.0096 87.2215 26.1335 89.0838 27.7128 89.6188C31.0385 85.1776 34.7486 81.0416 38.7997 77.2594L38.3723 74.9932C34.4886 73.4142 30.7668 71.4587 27.2593 69.1545C24.725 67.4714 22.3046 65.6208 20.0141 63.6148L18.5129 63.7092C14.9207 68.3757 12.249 73.691 10.6421 79.3683C11.2155 79.9978 12.9668 81.7605 16.871 84.4096Z" fill="#21292B"/>
<path id="Vector_29" d="M27.6087 89.2834C25.9095 88.6958 20.9889 86.865 17.0275 84.1739C13.3788 81.6925 11.6222 79.9771 10.9602 79.2951C12.5456 73.7552 15.148 68.5631 18.6329 63.9875L19.8943 63.9088C22.1701 65.8899 24.5692 67.7227 27.0771 69.3961C30.5679 71.6778 34.2662 73.6206 38.1222 75.1981L38.4923 77.1601C34.5236 80.8774 30.8821 84.9337 27.6087 89.2834Z" fill="#3D4B4F"/>
<path id="Vector_30" d="M10.9756 80.6537C10.484 82.5121 10.0857 84.3943 9.78198 86.2931C11.363 87.6823 13.0347 88.9635 14.7859 90.1278C17.5162 91.9037 20.4252 93.3843 23.4646 94.5449C24.356 93.1652 25.4141 91.6177 26.639 89.9495C23.0809 88.681 19.6779 87.009 16.4956 84.9658C14.5452 83.6777 12.6994 82.2358 10.9756 80.6537Z" fill="#C7C7C7"/>
<path id="Vector_31" d="M11.7576 85.1442L24.7105 92.6721C25.2977 91.8083 25.9406 90.9008 26.6391 89.9495C23.081 88.6811 19.678 87.0091 16.4957 84.9659C14.8459 83.8612 13.2637 82.6578 11.7576 81.3619V85.1442Z" fill="#505C69"/>
<path id="Vector_32" d="M9.78198 86.2931L11.7419 85.1547V81.3619C11.4395 81.0996 11.1789 80.8373 10.96 80.6537C10.4737 82.5124 10.0805 84.3946 9.78198 86.2931Z" fill="#5D6976"/>
<path id="Vector_33" style="mix-blend-mode:multiply" d="M10.9756 80.6537C10.484 82.5121 10.0857 84.3943 9.78198 86.2931C11.363 87.6823 13.0347 88.9635 14.7859 90.1278C17.5162 91.9037 20.4252 93.3843 23.4646 94.5449C24.356 93.1652 25.4141 91.6177 26.639 89.9495C23.0809 88.681 19.6779 87.009 16.4956 84.9658C14.5452 83.6777 12.6994 82.2358 10.9756 80.6537Z" fill="url(#paint3_linear_801_53506)"/>
<path id="Vector_34" d="M12.5289 89.4406C11.3144 88.554 10.3658 87.7986 9.65168 87.1848C9.4953 88.2655 9.35978 89.3671 9.26074 90.474C10.1057 91.2594 10.9951 91.995 11.9243 92.6773L12.5289 89.4406Z" fill="#515D6A"/>
<path id="Vector_35" d="M18.7423 93.1705L17.2151 95.9456C18.5971 96.6352 20.0133 97.2533 21.458 97.7974C21.9115 97.021 22.4692 96.1029 23.1208 95.08C21.9271 94.6183 20.379 93.9731 18.7423 93.1705Z" fill="#515D6A"/>
<path id="Vector_36" d="M12.6906 97.7185C9.36507 95.4627 8.35907 94.1617 8.35907 94.1617C8.26524 96.1237 8.4998 100.116 8.4998 100.116L8.5415 100.163L12.7115 97.7342L12.6906 97.7185Z" fill="#44505D"/>
<path id="Vector_37" d="M18.4348 93.737V95.2426L21.8073 97.2046C22.1878 96.5646 22.6256 95.8511 23.1208 95.08C21.9271 94.6183 20.3791 93.9731 18.7423 93.1705L18.4348 93.737Z" fill="#384451"/>
<path id="Vector_38" d="M9.91235 89.9915L12.1746 91.3083L12.529 89.4145C11.4552 88.6328 10.59 87.9509 9.92278 87.3791L9.91235 89.9915Z" fill="#384451"/>
<path id="Vector_39" d="M20.2903 95.8826C20.2903 96.5016 19.8629 96.7534 19.3312 96.4439C19.0503 96.2605 18.8164 96.0128 18.6488 95.721C18.4812 95.4293 18.3846 95.1017 18.3669 94.7652C18.3669 94.1462 18.7944 93.8944 19.3312 94.2039C19.611 94.3881 19.8436 94.6361 20.0102 94.9278C20.1768 95.2195 20.2728 95.5466 20.2903 95.8826Z" fill="white"/>
<path id="Vector_40" d="M11.622 89.7344C11.1008 89.4249 10.6577 89.6767 10.6577 90.2957C10.6762 90.632 10.7732 90.9593 10.9407 91.2509C11.1082 91.5426 11.3416 91.7904 11.622 91.9744C11.7481 92.0522 11.8914 92.0973 12.039 92.1055L12.3361 90.5318C12.1735 90.2063 11.9268 89.9309 11.622 89.7344Z" fill="white"/>
<path id="Vector_41" d="M22.047 95.935C22.047 96.4124 21.7186 96.6012 21.3068 96.3651C21.0914 96.2237 20.9121 96.0331 20.7835 95.8089C20.6549 95.5847 20.5806 95.3332 20.5667 95.0746C20.5667 94.6025 20.9002 94.4084 21.3068 94.6445C21.5232 94.785 21.7031 94.9753 21.8318 95.1997C21.9606 95.4241 22.0343 95.6762 22.047 95.935Z" fill="white"/>
<path id="Vector_42" d="M11.1009 89.7029C11.1009 90.1803 10.7673 90.3691 10.3608 90.1331C10.1441 89.9929 9.96394 89.8026 9.83519 89.5781C9.70644 89.3537 9.63286 89.1015 9.62061 88.8426C9.62061 88.3652 9.94899 88.1763 10.3608 88.4124C10.5762 88.5538 10.7555 88.7444 10.8841 88.9686C11.0127 89.1928 11.087 89.4444 11.1009 89.7029Z" fill="white"/>
<path id="Vector_43" d="M16.8658 84.6667C20.8377 87.3631 25.7686 89.2097 27.5513 89.834L27.765 89.5507C26.0918 88.9737 21.0722 87.1218 17.0534 84.3887C12.6646 81.409 10.9862 79.5415 10.6943 79.19C10.6578 79.3159 10.6213 79.4471 10.5796 79.573C11.1321 80.1867 12.8731 81.9598 16.8658 84.6667Z" fill="#44505D"/>
<path id="Vector_44" opacity="0.7" d="M23.9964 67.2135C23.2319 66.6434 22.5108 66.0856 21.8332 65.54C21.3119 66.1958 20.6865 66.9354 20.0505 67.7643V74.9984C21.338 74.1591 22.688 73.2935 23.9964 72.4751V67.2135Z" fill="#D9E5E8"/>
<path id="Vector_45" opacity="0.7" d="M18.6068 69.6844C16.2384 72.9058 14.202 76.3614 12.5291 79.9979C12.5291 79.9979 15.2187 78.1723 18.6068 75.948V69.6844Z" fill="#D9E5E8"/>
<path id="Vector_46" d="M22.4795 80.1708C16.6937 76.7505 13.1857 76.3256 13.1857 76.3256L11.1633 78.639C11.1008 78.8489 11.033 79.0587 10.9705 79.2738C11.622 79.9977 13.3786 81.6921 17.0273 84.1945C20.9888 86.8856 25.8885 88.7164 27.6086 89.304C28.3904 88.2548 29.1931 87.2353 30.0167 86.2456C27.839 83.8326 25.2951 81.7822 22.4795 80.1708Z" fill="#4A585C"/>
<path id="Vector_47" opacity="0.25" d="M33.7021 72.8738C31.4734 71.7821 29.321 70.5394 27.2595 69.1545C24.7252 67.4714 22.3048 65.6208 20.0142 63.6148L18.513 63.7092C14.0147 69.4797 9.65186 78.1932 8.60938 90.71C9.6913 91.7445 10.8482 92.6967 12.0704 93.5585C14.1033 88.2864 19.519 79.7722 33.7021 72.8738Z" fill="white"/>
<path id="Vector_48" style="mix-blend-mode:multiply" d="M20.2903 101.322C17.6179 100.444 15.0649 99.2335 12.6906 97.7185C9.36507 95.4627 8.35907 94.1617 8.35907 94.1617C8.26524 96.1237 8.4998 100.116 8.4998 100.116C8.4998 100.116 9.5058 101.417 12.8313 103.673C15.2057 105.188 17.7587 106.398 20.4311 107.277L20.2903 101.322Z" fill="url(#paint4_linear_801_53506)"/>
<g id="Group_2" style="mix-blend-mode:multiply" opacity="0.3">
<path id="Vector_49" d="M53.8116 92.9709H53.7282V71.4049L52.6857 66.9038C52.472 66.6993 48.4845 62.8697 40.8014 58.2428C34.2233 54.2874 30.1784 53.81 30.1367 53.8048V53.7208C30.1732 53.7208 34.2441 54.2087 40.8326 58.1746C48.6982 62.896 52.7014 66.8147 52.7431 66.8566L53.7856 71.3786L53.8116 92.9709Z" fill="black"/>
</g>
<path id="Vector_50" d="M64.3771 45.0441C67.9155 47.1408 71.2907 49.5048 74.4736 52.1157V51.0665L69.209 46.9222L60.0299 41.5818L55.4065 39.9766V40.9681C58.5639 41.9181 61.5809 43.289 64.3771 45.0441Z" fill="#505C69"/>
<path id="Vector_51" d="M91.8467 33.7445L82.6624 28.4094L78.039 26.8041L55.4014 39.9767L60.0248 41.5819L69.2091 46.9118L74.4685 51.0561V52.1157L97.1061 38.9432V37.8835L91.8467 33.7445Z" fill="#C7C7C7"/>
<path id="Vector_52" d="M97.1061 38.9431L74.4685 52.1157V51.056L97.1061 37.8835V38.9431Z" fill="#5D6976"/>
<path id="Vector_53" opacity="0.5" d="M97.106 37.8836L74.4683 51.0562L69.209 46.9119L91.8466 33.7446L97.106 37.8836Z" fill="#778390"/>
<path id="Vector_54" opacity="0.5" d="M82.6624 28.4094L60.0248 41.5819L55.4014 39.9767L78.039 26.8041L82.6624 28.4094Z" fill="#778390"/>
<path id="Vector_55" d="M69.8033 44.8345L69.3655 45.0863L63.7673 41.8339L64.2052 41.582L69.8033 44.8345Z" fill="#5D6976"/>
<path id="Vector_56" d="M71.5236 43.8166L71.0857 44.0684L65.4875 40.816L65.9202 40.5641L71.5236 43.8166Z" fill="#5D6976"/>
<path id="Vector_57" d="M73.2384 42.799L72.8006 43.0508L67.2024 39.7983L67.6402 39.5465L73.2384 42.799Z" fill="#5D6976"/>
<path id="Vector_58" d="M74.9584 41.7812L74.5205 42.0383L68.9224 38.7806L69.3602 38.5287L74.9584 41.7812Z" fill="#5D6976"/>
<path id="Vector_59" d="M76.6732 40.7636L76.2406 41.0206L70.6372 37.7629L71.0751 37.5111L76.6732 40.7636Z" fill="#5D6976"/>
<path id="Vector_60" d="M78.3934 39.7458L77.9556 40.0029L72.3574 36.7504L72.7953 36.4934L78.3934 39.7458Z" fill="#5D6976"/>
<path id="Vector_61" d="M80.1134 38.7334L79.6756 38.9852L74.0774 35.7328L74.51 35.4757L80.1134 38.7334Z" fill="#5D6976"/>
<path id="Vector_62" d="M81.8285 37.7104L81.3906 37.9675L75.7925 34.715L76.2303 34.458L81.8285 37.7104Z" fill="#5D6976"/>
<path id="Vector_63" d="M83.5487 36.6981L83.1108 36.9499L77.5127 33.6974L77.9505 33.4403L83.5487 36.6981Z" fill="#5D6976"/>
<path id="Vector_64" d="M85.2633 35.6801L84.8307 35.932L79.2273 32.6795L79.6651 32.4277L85.2633 35.6801Z" fill="#5D6976"/>
<path id="Vector_65" d="M86.9835 34.6628L86.5457 34.9146L80.9475 31.6621L81.3854 31.4103L86.9835 34.6628Z" fill="#5D6976"/>
<path id="Vector_66" d="M88.6984 33.6447L88.2657 33.8966L82.6624 30.6441L83.1002 30.3923L88.6984 33.6447Z" fill="#5D6976"/>
<path id="Vector_67" d="M112.957 62.1986L125.165 55.1009V30.8962L112.957 37.9887V62.1986Z" fill="#21292B"/>
<path id="Vector_68" d="M118.899 34.9144V58.3689L113.28 61.6319V38.1773L118.899 34.9144Z" fill="white"/>
<path id="Vector_69" d="M117.82 51.2344V36.7976L114.365 38.8068V53.2436L117.82 51.2344Z" fill="#3D4B4F"/>
<path id="Vector_70" d="M119.222 34.7256L124.841 31.4626V54.9172L119.228 58.1801L119.222 34.7256Z" fill="white"/>
<path id="Vector_71" d="M123.762 47.7826V33.3458L120.307 35.355V49.7917L123.762 47.7826Z" fill="#3D4B4F"/>
<path id="Vector_72" d="M111.909 38.6076L53.6082 72.4805C38.1533 81.1992 31.2625 92.6616 31.2625 92.6616C41.3068 90.92 53.6082 82.9671 53.6082 82.9671L111.909 49.0889V38.6076Z" fill="#21292B"/>
<path id="Vector_73" d="M96.9966 48.9944C96.9966 48.4699 96.6265 48.2548 96.173 48.5171L86.6811 54.0253C86.4432 54.1819 86.2451 54.3927 86.1029 54.6405C85.9608 54.8884 85.8785 55.1664 85.8628 55.4522V62.4922C85.8628 63.0168 86.2277 63.2319 86.6811 62.9696L96.173 57.4404C96.412 57.2843 96.611 57.0738 96.7541 56.8259C96.8972 56.578 96.9803 56.2997 96.9966 56.0135V48.9944Z" fill="#3D4B4F"/>
<path id="Vector_74" d="M83.9082 56.6009C83.9082 56.0763 83.5381 55.8612 83.0846 56.1235L73.6084 61.637C73.3698 61.793 73.1713 62.0036 73.0291 62.2516C72.8869 62.4996 72.8049 62.778 72.79 63.0639V70.1039C72.79 70.6285 73.1549 70.8436 73.6084 70.5813L83.0846 65.0731C83.324 64.9162 83.5232 64.7048 83.6663 64.456C83.8094 64.2072 83.8922 63.928 83.9082 63.641V56.6009Z" fill="#3D4B4F"/>
<path id="Vector_75" d="M59.7017 77.7054C59.7017 78.23 60.0665 78.4399 60.52 78.1776L70.0014 72.6536C70.241 72.4982 70.4405 72.2878 70.5837 72.0398C70.7268 71.7918 70.8095 71.5131 70.825 71.2267V64.2024C70.825 63.6778 70.4549 63.468 70.0014 63.7303L60.5252 69.2332C60.2866 69.3904 60.0881 69.602 59.9459 69.8508C59.8037 70.0997 59.7218 70.3787 59.7069 70.6654L59.7017 77.7054Z" fill="#3D4B4F"/>
<path id="Vector_76" d="M110.085 41.388C110.085 40.8634 109.715 40.6535 109.262 40.9158L99.7854 46.4241C99.5467 46.5812 99.3482 46.7928 99.206 47.0416C99.0638 47.2905 98.982 47.5695 98.967 47.8562V54.8962C98.967 55.4208 99.3319 55.6307 99.7854 55.3684L109.262 49.8654C109.501 49.7085 109.7 49.4971 109.843 49.2483C109.986 48.9995 110.069 48.7203 110.085 48.4333V41.388Z" fill="#3D4B4F"/>
<path id="Vector_77" d="M47.0666 77.4748C45.4194 78.6918 43.8974 79.8984 42.5161 81.0892V88.1922C44.2571 87.3948 45.8938 86.5712 47.3428 85.8053C47.497 85.7069 47.6213 85.5678 47.7022 85.4031C47.7831 85.2384 47.8175 85.0545 47.8015 84.8715V78.0518C47.812 77.4171 47.5565 77.1233 47.0666 77.4748Z" fill="#3D4B4F"/>
<path id="Vector_78" d="M40.5616 82.8621C37.6735 85.5374 35.0546 88.4929 32.7429 91.6857C35.4181 91.0352 38.0336 90.1577 40.5616 89.0627V82.8621Z" fill="#3D4B4F"/>
</g>
</g>
</g>
<defs>
<filter id="filter0_d_801_53506" x="-0.0362201" y="4.77944" width="143.981" height="119.542" filterUnits="userSpaceOnUse" color-interpolation-filters="sRGB">
<feFlood flood-opacity="0" result="BackgroundImageFix"/>
<feColorMatrix in="SourceAlpha" type="matrix" values="0 0 0 0 0 0 0 0 0 0 0 0 0 0 0 0 0 0 127 0" result="hardAlpha"/>
<feOffset dx="1.67463" dy="6.69851"/>
<feGaussianBlur stdDeviation="5.02388"/>
<feComposite in2="hardAlpha" operator="out"/>
<feColorMatrix type="matrix" values="0 0 0 0 0 0 0 0 0 0 0 0 0 0 0 0 0 0 0.25 0"/>
<feBlend mode="normal" in2="BackgroundImageFix" result="effect1_dropShadow_801_53506"/>
<feBlend mode="normal" in="SourceGraphic" in2="effect1_dropShadow_801_53506" result="shape"/>
</filter>
<linearGradient id="paint0_linear_801_53506" x1="59.2012" y1="98.6211" x2="59.4124" y2="90.8887" gradientUnits="userSpaceOnUse">
<stop stop-color="#EBEBE7"/>
<stop offset="0.72" stop-color="#292928"/>
</linearGradient>
<linearGradient id="paint1_linear_801_53506" x1="74.9324" y1="89.4774" x2="75.1436" y2="81.7502" gradientUnits="userSpaceOnUse">
<stop stop-color="#EBEBE7"/>
<stop offset="0.72" stop-color="#292928"/>
</linearGradient>
<linearGradient id="paint2_linear_801_53506" x1="55.1042" y1="83.5914" x2="32.7496" y2="106.971" gradientUnits="userSpaceOnUse">
<stop stop-color="white"/>
<stop offset="1"/>
</linearGradient>
<linearGradient id="paint3_linear_801_53506" x1="17.2201" y1="88.0557" x2="20.5198" y2="82.3927" gradientUnits="userSpaceOnUse">
<stop stop-color="white"/>
<stop offset="1"/>
</linearGradient>
<linearGradient id="paint4_linear_801_53506" x1="12.9043" y1="103.704" x2="16.1955" y2="97.2003" gradientUnits="userSpaceOnUse">
<stop stop-color="white"/>
<stop offset="1"/>
</linearGradient>
<clipPath id="clip0_801_53506">
<rect width="140" height="119" fill="white"/>
</clipPath>
</defs>
</svg>
