<svg width="90" height="76" viewBox="0 0 90 76" fill="none" xmlns="http://www.w3.org/2000/svg">
<g id="Frame 10" clip-path="url(#clip0_1001_7809)">
<g id="Group">
<g id="&#226;&#128;&#148;&#195;&#142;&#195;&#147;&#195;&#136;_9" filter="url(#filter0_d_1001_7809)">
<path id="Vector" d="M39.9745 56.3075L39.1268 55.8049C38.6442 55.5436 37.9841 55.5905 37.257 56.0093C36.4771 56.5171 35.828 57.2017 35.3622 58.0073C34.8965 58.8129 34.6272 59.717 34.5763 60.6462C34.5763 61.4871 34.8678 62.0835 35.3403 62.3682L36.2015 62.8708C36.6873 63.1757 37.3743 63.1455 38.1315 62.7066C38.912 62.1994 39.5615 61.515 40.0274 60.7092C40.4932 59.9035 40.7621 58.9991 40.8122 58.0698C40.8256 57.1853 40.504 56.5722 39.9745 56.3075Z" fill="#292928"/>
<path id="Vector_2" d="M40.8256 58.0697C40.7755 58.9991 40.5066 59.9035 40.0407 60.7092C39.5749 61.515 38.9253 62.1994 38.1449 62.7066C36.6672 63.561 35.4642 62.8674 35.4642 61.1621C35.4642 59.4568 36.6638 57.3762 38.1449 56.5252C39.626 55.6743 40.8256 56.3644 40.8256 58.0697Z" fill="#636362"/>
<path id="Vector_3" d="M40.0047 58.3813C39.9686 59.0823 39.7677 59.7649 39.4184 60.3738C39.0691 60.9827 38.5811 61.5007 37.9942 61.8857C36.8783 62.5323 35.9836 62.0097 35.9836 60.7198C36.0205 60.019 36.2217 59.3366 36.571 58.7279C36.9202 58.1191 37.4077 57.601 37.9942 57.2154C39.0999 56.5687 40.0047 57.0947 40.0047 58.3813Z" fill="#515150"/>
<path id="Vector_4" d="M38.1483 57.0782C37.9567 57.192 37.7761 57.3232 37.6088 57.4702C37.7269 57.377 37.8511 57.292 37.9807 57.2156C39.0999 56.569 39.9912 57.095 39.9912 58.3815C39.9551 59.0825 39.7543 59.7651 39.405 60.374C39.0557 60.9829 38.5677 61.5009 37.9807 61.886C36.8682 62.5292 35.9702 62.0099 35.9702 60.7301C35.9702 60.7803 35.9702 60.8339 35.9702 60.8842C35.9702 62.2846 36.9554 62.8542 38.1684 62.154C38.808 61.7368 39.3403 61.1748 39.7222 60.5135C40.1041 59.8523 40.3248 59.1104 40.3665 58.348C40.3464 56.9476 39.3613 56.378 38.1483 57.0782Z" fill="url(#paint0_linear_1001_7809)"/>
<path id="Vector_5" d="M38.9693 59.353C38.9552 59.6212 38.8781 59.8824 38.7442 60.1152C38.6102 60.3481 38.4233 60.5461 38.1986 60.6931C37.773 60.9377 37.4279 60.7401 37.4279 60.2476C37.4417 59.9793 37.5187 59.718 37.6526 59.4852C37.7865 59.2523 37.9736 59.0543 38.1986 58.9074C38.6342 58.6595 38.9693 58.8605 38.9693 59.353Z" fill="#292928"/>
<path id="Vector_6" d="M38.8787 59.3094C38.8648 59.5591 38.7923 59.802 38.6672 60.0185C38.542 60.235 38.3677 60.419 38.1583 60.5557C37.7596 60.7869 37.4379 60.5993 37.4379 60.1403C37.4513 59.89 37.5235 59.6465 37.6487 59.4293C37.7739 59.2122 37.9485 59.0276 38.1583 58.8906C38.5537 58.6628 38.8787 58.847 38.8787 59.3094Z" fill="#515150"/>
<path id="Vector_7" d="M50.1007 50.4679L49.253 49.9687C48.7705 49.704 48.1103 49.7509 47.3832 50.1697C45.9055 51.0241 44.7025 53.1013 44.7025 54.8066C44.7025 55.6509 44.994 56.2439 45.4665 56.5287L46.3277 57.0346C46.8136 57.3395 47.5005 57.3093 48.2578 56.8704C49.038 56.363 49.6874 55.6785 50.1532 54.8728C50.619 54.0671 50.8881 53.1628 50.9385 52.2335C50.9385 51.3457 50.6168 50.7359 50.1007 50.4679Z" fill="#292928"/>
<path id="Vector_8" d="M50.9385 52.2334C50.8881 53.1627 50.6191 54.067 50.1533 54.8727C49.6875 55.6784 49.0381 56.3628 48.2578 56.8703C46.7801 57.7246 45.5771 57.0311 45.5771 55.3224C45.5771 53.6138 46.7768 51.5399 48.2578 50.6856C49.7389 49.8312 50.9385 50.5248 50.9385 52.2334Z" fill="#636362"/>
<path id="Vector_9" d="M50.1176 52.5451C50.081 53.2459 49.8799 53.9284 49.5306 54.5372C49.1813 55.146 48.6937 55.6641 48.1071 56.0495C46.9912 56.6928 46.0966 56.1701 46.0966 54.8802C46.1337 54.1795 46.335 53.4972 46.6842 52.8885C47.0334 52.2798 47.5208 51.7616 48.1071 51.3758C49.2129 50.7325 50.1176 51.2552 50.1176 52.5451Z" fill="#515150"/>
<path id="Vector_10" d="M48.2612 51.2419C48.0696 51.3556 47.889 51.4868 47.7217 51.6339C47.8389 51.5385 47.9633 51.4523 48.0936 51.3759C49.2128 50.7326 50.1042 51.2553 50.1042 52.5451C50.0675 53.246 49.8665 53.9285 49.5172 54.5373C49.1679 55.1461 48.6803 55.6642 48.0936 56.0496C46.9812 56.6929 46.0831 56.1736 46.0831 54.8904C46.0831 54.944 46.0831 54.9942 46.0831 55.0479C46.0831 56.4483 47.0683 57.0145 48.2813 56.3143C48.9213 55.8975 49.4539 55.3356 49.8358 54.6742C50.2177 54.0129 50.4383 53.2708 50.4795 52.5083C50.4593 51.1079 49.4742 50.5416 48.2612 51.2419Z" fill="url(#paint1_linear_1001_7809)"/>
<path id="Vector_11" d="M49.0922 53.5134C49.0784 53.7817 49.0014 54.0429 48.8674 54.2758C48.7335 54.5087 48.5464 54.7066 48.3215 54.8535C47.8959 55.1015 47.5508 54.9004 47.5508 54.4079C47.5649 54.1397 47.642 53.8786 47.7759 53.6458C47.9098 53.4129 48.0967 53.2149 48.3215 53.0678C48.747 52.8232 49.0922 53.0209 49.0922 53.5134Z" fill="#292928"/>
<path id="Vector_12" d="M48.9917 53.4697C48.9775 53.7198 48.9049 53.963 48.7798 54.18C48.6547 54.397 48.4806 54.5817 48.2713 54.7194C47.8725 54.9472 47.5475 54.7629 47.5475 54.3039C47.5613 54.0534 47.634 53.8096 47.7598 53.5925C47.8856 53.3753 48.0608 53.1909 48.2713 53.0543C48.6667 52.8231 48.9917 53.0107 48.9917 53.4697Z" fill="#515150"/>
<path id="Vector_13" d="M49.0018 51.483L47.2191 52.3139L45.0712 53.2989L43.6337 52.7629L39.941 54.8937L40.3767 56.0931L38.9861 57.0647V57.068V57.0647L37.2 58.2976L36.7477 59.3362L36.9253 60.4418L37.3575 60.6998L37.1799 59.5942L37.6323 58.5522L39.4183 57.3227L41.9717 55.5336L44.9841 53.7948L47.6514 52.5719L49.434 51.741L49.0018 51.483Z" fill="#292928"/>
<path id="Vector_14" d="M41.9549 58.2977C41.9549 58.5523 42.1995 58.6327 42.5011 58.4417L44.5116 57.2859C44.6567 57.2062 44.7816 57.0945 44.8768 56.9592C44.9721 56.8239 45.0351 56.6686 45.0612 56.5052L45.5035 54.8301C45.5035 54.5754 45.2555 54.495 44.954 54.6827L44.716 54.82L44.381 56.073C44.3549 56.2364 44.2919 56.3917 44.1966 56.527C44.1014 56.6623 43.9765 56.774 43.8314 56.8537L41.8444 57.9995L41.9549 58.2977Z" fill="#292928"/>
<path id="Vector_15" d="M37.9104 59.4199L37.8937 59.8454L39.2776 59.1017L40.5006 59.7382C40.5643 59.5674 40.6146 59.4032 40.6615 59.2323L39.4217 58.5623L37.9104 59.4199Z" fill="#292928"/>
<path id="Vector_16" d="M47.2894 54.3977L48.8375 53.4496L49.2028 53.8617L49.1592 52.9236L47.6513 53.8148L47.2894 54.3977Z" fill="#292928"/>
<path id="Vector_17" d="M49.4373 51.741L47.6513 52.5718L45.0008 53.7947L41.985 55.5335L39.435 57.3226L37.6289 58.5522L37.1732 59.5942L37.3542 60.6998L37.8635 60.4049L37.9037 59.4199L39.4149 58.569L41.7806 59.8354L45.0913 57.9223L47.6446 53.8148L49.1559 52.9236L49.1961 53.8617L49.7054 53.5702L49.8864 52.2569L49.4373 51.741ZM45.0578 56.5052C45.0317 56.6685 44.9687 56.8238 44.8734 56.9591C44.7782 57.0944 44.6533 57.2061 44.5082 57.2858L42.4977 58.4416C42.1961 58.6159 41.9515 58.5522 41.9515 58.2976L41.5092 57.1417C41.5357 56.9789 41.599 56.8243 41.6942 56.6896C41.7895 56.555 41.9141 56.4437 42.0588 56.3644L44.9472 54.6893C45.2488 54.515 45.4967 54.5821 45.4967 54.8367L45.0578 56.5052Z" fill="#515150"/>
<g id="Vector_18" style="mix-blend-mode:multiply" opacity="0.4">
<path d="M50.9352 52.096C50.9352 52.0324 50.9352 51.9654 50.9352 51.9051C50.9352 51.8447 50.9352 51.8414 50.9352 51.8079C50.9352 51.7744 50.9352 51.6772 50.905 51.6169C50.8749 51.5566 50.8883 51.5466 50.8782 51.5097C50.8682 51.4729 50.8548 51.4059 50.838 51.3556L50.7978 51.2517C50.7978 51.2082 50.7643 51.1613 50.7442 51.1211L50.6939 51.0273L50.6269 50.9134L50.5632 50.8329C50.5406 50.7992 50.516 50.7667 50.4895 50.7358L50.4158 50.6654L50.3287 50.5884L50.2449 50.5314L50.1511 50.4711L50.1243 50.4544L49.2765 49.9552C48.794 49.6905 48.1339 49.7374 47.4067 50.1562C46.273 50.8888 45.4241 51.987 45.0008 53.2686L43.6337 52.7661L39.9477 54.9003L40.3834 56.0963L40.0483 56.3342L40.0215 56.3175L39.1737 55.8149C38.6912 55.5536 38.0311 55.6005 37.3039 56.0193C36.5241 56.5271 35.8749 57.2116 35.4092 58.0173C34.9434 58.8229 34.6741 59.727 34.6232 60.6561C34.62 60.9372 34.6584 61.2172 34.7372 61.487L41.65 57.4733L41.5226 57.1383C41.5492 56.9755 41.6124 56.8209 41.7077 56.6862C41.8029 56.5515 41.9275 56.4403 42.0722 56.361L44.7194 54.8333L44.4513 55.8384L50.9352 52.096Z" fill="black"/>
</g>
<path id="Vector_19" d="M84.3096 13.5673L33.7754 42.7152C19.5913 51.138 13.0437 64.7102 13.0437 64.7102L13.1342 68.5128C20.0369 69.6252 29.6639 65.6248 34.4624 62.9077L34.5796 62.8407L36.2081 58.3345L49.2765 50.7862L51.1764 53.2654L84.9865 33.7665V16.462L84.3096 13.5673Z" fill="white"/>
<path id="Vector_20" d="M76.6597 8.03585C72.3807 5.47619 69.7972 5.19141 69.7972 5.19141L19.2596 34.3394C19.2596 34.3394 6.07734 40.4035 5.37366 60.137C5.37366 60.137 6.02037 60.9679 8.15822 62.4085C9.68457 63.3761 11.3258 64.1493 13.0438 64.7102C13.0438 64.7102 19.5913 51.138 33.7755 42.7152L84.3097 13.5673C84.3097 13.5673 81.7731 11.0914 76.6597 8.03585Z" fill="white"/>
<path id="Vector_21" d="M13.0437 64.7101C11.3257 64.1491 9.68453 63.3759 8.15817 62.4084C6.02033 60.9677 5.37362 60.1368 5.37362 60.1368C5.3133 61.3899 5.46409 63.9395 5.46409 63.9395C5.46409 63.9395 6.1108 64.7704 8.24865 66.211C9.775 67.1786 11.4162 67.9518 13.1342 68.5127L13.0437 64.7101Z" fill="#C7C7C7"/>
<path id="Vector_22" d="M8.39604 60.807C10.0702 61.8778 11.8597 62.7566 13.7306 63.427L13.8378 63.236C11.971 62.5716 10.1858 61.6972 8.51667 60.6294C7.43873 59.9283 6.42304 59.1358 5.4808 58.2607L5.46069 58.5422C6.3791 59.3719 7.36049 60.1291 8.39604 60.807Z" fill="#44505D"/>
<path id="Vector_23" d="M51.1865 53.2654L84.9966 33.7665V29.411L34.3987 58.6159C28.5548 61.7652 23.0863 65.0854 13.1007 67.2229L13.1342 68.5128C20.037 69.6251 29.664 65.6248 34.4624 62.9077L34.5797 62.8407L36.2082 58.3345L49.2765 50.7862L51.1865 53.2654Z" fill="#21292B"/>
<path id="Vector_24" d="M49.2832 50.7829L51.1831 53.2655L84.9966 33.7665V30.1682L49.2832 50.7829Z" fill="white"/>
<path id="Vector_25" d="M34.4021 59.3766C28.5616 62.5225 23.0963 65.8394 13.1208 67.9802V68.5129C20.0236 69.6252 29.6506 65.6249 34.449 62.9078L34.5663 62.8408L36.1948 58.3346L34.4021 59.3766Z" fill="white"/>
<path id="Vector_26" style="mix-blend-mode:screen" opacity="0.2" d="M33.7754 42.7152C19.5913 51.138 13.0437 64.7102 13.0437 64.7102L13.3386 64.794C21.461 53.1281 29.5902 48.25 34.5662 45.6032L84.9999 16.4553L84.3096 13.5673L33.7754 42.7152Z" fill="url(#paint2_linear_1001_7809)"/>
<path id="Vector_27" d="M17.8154 57.2356C16.8101 56.9006 13.5062 55.7045 10.8456 53.9088C8.33583 52.2336 7.20994 51.0945 6.82459 50.6891C6.13877 53.0532 5.68978 55.4796 5.48425 57.9325C6.43932 58.8276 7.4721 59.636 8.57039 60.3481C10.2586 61.4299 12.0654 62.3146 13.9552 62.9848C15.1221 60.9907 16.4113 59.0706 17.8154 57.2356Z" fill="#6A7683"/>
<path id="Vector_28" d="M10.8456 53.9087C13.5062 55.7045 16.8 56.8938 17.8154 57.2356C19.9533 54.3991 22.3384 51.7577 24.9426 49.3422L24.6679 47.8948C22.1712 46.8864 19.7786 45.6375 17.5238 44.1659C15.8946 43.091 14.3386 41.9091 12.8661 40.6279L11.9011 40.6882C9.59182 43.6685 7.87433 47.0632 6.84131 50.689C7.2099 51.091 8.33579 52.2168 10.8456 53.9087Z" fill="#21292B"/>
<path id="Vector_29" d="M17.7483 57.0213C16.6559 56.646 13.4927 55.4768 10.946 53.758C8.60045 52.1733 7.47121 51.0778 7.04565 50.6422C8.06484 47.1041 9.73784 43.7882 11.9781 40.8659L12.789 40.8157C14.252 42.0809 15.7943 43.2514 17.4065 44.3201C19.6506 45.7774 22.0281 47.0181 24.507 48.0256L24.7449 49.2786C22.1935 51.6528 19.8526 54.2433 17.7483 57.0213Z" fill="#3D4B4F"/>
<path id="Vector_30" d="M7.05567 51.5099C6.73965 52.6968 6.48355 53.8989 6.28833 55.1115C7.30471 55.9988 8.37939 56.817 9.50515 57.5606C11.2603 58.6948 13.1304 59.6403 15.0843 60.3816C15.6573 59.5004 16.3375 58.5121 17.125 57.4467C14.8376 56.6366 12.65 55.5688 10.6042 54.2639C9.35038 53.4412 8.1638 52.5203 7.05567 51.5099Z" fill="#C7C7C7"/>
<path id="Vector_31" d="M7.55835 54.3778L15.8852 59.1855C16.2628 58.6338 16.676 58.0542 17.125 57.4467C14.8377 56.6366 12.65 55.5687 10.6043 54.2638C9.54373 53.5584 8.52659 52.7897 7.55835 51.9622V54.3778Z" fill="#505C69"/>
<path id="Vector_32" d="M6.28833 55.1115L7.54825 54.3845V51.9622C7.3539 51.7947 7.18636 51.6271 7.04562 51.5099C6.73298 52.697 6.48023 53.899 6.28833 55.1115Z" fill="#5D6976"/>
<path id="Vector_33" style="mix-blend-mode:multiply" d="M7.05567 51.5099C6.73965 52.6968 6.48355 53.8989 6.28833 55.1115C7.30471 55.9988 8.37939 56.817 9.50515 57.5606C11.2603 58.6948 13.1304 59.6403 15.0843 60.3816C15.6573 59.5004 16.3375 58.5121 17.125 57.4467C14.8376 56.6366 12.65 55.5688 10.6042 54.2639C9.35038 53.4412 8.1638 52.5203 7.05567 51.5099Z" fill="url(#paint3_linear_1001_7809)"/>
<path id="Vector_34" d="M8.05435 57.1217C7.27361 56.5555 6.66375 56.073 6.20468 55.681C6.10416 56.3712 6.01704 57.0748 5.95337 57.7817C6.49659 58.2833 7.0683 58.7531 7.66566 59.1888L8.05435 57.1217Z" fill="#515D6A"/>
<path id="Vector_35" d="M12.0485 59.5038L11.0667 61.2761C11.9551 61.7166 12.8655 62.1113 13.7942 62.4588C14.0858 61.9629 14.4443 61.3766 14.8632 60.7233C14.0958 60.4285 13.1006 60.0164 12.0485 59.5038Z" fill="#515D6A"/>
<path id="Vector_36" d="M8.15817 62.4084C6.02033 60.9677 5.37362 60.1368 5.37362 60.1368C5.3133 61.3899 5.46409 63.9395 5.46409 63.9395L5.4909 63.9696L8.17158 62.4184L8.15817 62.4084Z" fill="#44505D"/>
<path id="Vector_37" d="M11.8508 59.8656V60.8272L14.0188 62.0802C14.2634 61.6715 14.5449 61.2158 14.8632 60.7233C14.0959 60.4285 13.1007 60.0164 12.0485 59.5038L11.8508 59.8656Z" fill="#384451"/>
<path id="Vector_38" d="M6.37219 57.4735L7.82646 58.3145L8.05432 57.105C7.36405 56.6058 6.8078 56.1702 6.37889 55.8051L6.37219 57.4735Z" fill="#384451"/>
<path id="Vector_39" d="M13.0437 61.2359C13.0437 61.6312 12.7689 61.792 12.4272 61.5944C12.2465 61.4773 12.0962 61.3191 11.9885 61.1327C11.8807 60.9464 11.8186 60.7372 11.8073 60.5223C11.8073 60.1269 12.082 59.9661 12.4272 60.1638C12.607 60.2814 12.7565 60.4399 12.8636 60.6261C12.9708 60.8124 13.0325 61.0213 13.0437 61.2359Z" fill="white"/>
<path id="Vector_40" d="M7.47123 57.3093C7.13614 57.1116 6.85132 57.2724 6.85132 57.6678C6.86322 57.8826 6.92553 58.0916 7.03323 58.2778C7.14093 58.4641 7.29097 58.6224 7.47123 58.7399C7.55225 58.7896 7.64437 58.8184 7.73929 58.8236L7.93029 57.8185C7.82574 57.6107 7.66717 57.4348 7.47123 57.3093Z" fill="white"/>
<path id="Vector_41" d="M14.173 61.2694C14.173 61.5743 13.9619 61.6949 13.6971 61.5441C13.5586 61.4538 13.4434 61.3321 13.3607 61.1889C13.278 61.0457 13.2303 60.885 13.2213 60.7199C13.2213 60.4184 13.4358 60.2944 13.6971 60.4452C13.8362 60.5349 13.9519 60.6565 14.0346 60.7998C14.1174 60.9431 14.1648 61.1041 14.173 61.2694Z" fill="white"/>
<path id="Vector_42" d="M7.13621 57.2892C7.13621 57.594 6.92176 57.7147 6.66039 57.5639C6.52113 57.4744 6.40529 57.3529 6.32252 57.2095C6.23975 57.0661 6.19245 56.905 6.18457 56.7397C6.18457 56.4348 6.39567 56.3142 6.66039 56.465C6.7989 56.5553 6.91417 56.677 6.99684 56.8202C7.07951 56.9634 7.12726 57.1241 7.13621 57.2892Z" fill="white"/>
<path id="Vector_43" d="M10.8423 54.0728C13.3956 55.7949 16.5655 56.9742 17.7115 57.3729L17.8489 57.192C16.7733 56.8235 13.5464 55.6408 10.9629 53.8953C8.14149 51.9923 7.06251 50.7995 6.87487 50.5751C6.85141 50.6555 6.82795 50.7392 6.80115 50.8196C7.15634 51.2116 8.27552 52.344 10.8423 54.0728Z" fill="#44505D"/>
<path id="Vector_44" opacity="0.7" d="M15.4261 42.9262C14.9347 42.5621 14.4711 42.2059 14.0355 41.8574C13.7004 42.2762 13.2983 42.7486 12.8895 43.278V47.8981C13.7172 47.362 14.5851 46.8092 15.4261 46.2866V42.9262Z" fill="#D9E5E8"/>
<path id="Vector_45" opacity="0.7" d="M11.9614 44.5043C10.4389 46.5616 9.12977 48.7686 8.05432 51.091C8.05432 51.091 9.78336 49.9251 11.9614 48.5046V44.5043Z" fill="#D9E5E8"/>
<path id="Vector_46" d="M14.4511 51.2015C10.7316 49.0171 8.47648 48.7457 8.47648 48.7457L7.17635 50.2232C7.13614 50.3572 7.09258 50.4913 7.05237 50.6286C7.47122 51.091 8.60046 52.1731 10.9461 53.7712C13.4927 55.49 16.6425 56.6592 17.7483 57.0345C18.2509 56.3644 18.767 55.7133 19.2964 55.0812C17.8965 53.5401 16.2611 52.2306 14.4511 51.2015Z" fill="#4A585C"/>
<path id="Vector_47" opacity="0.25" d="M21.6654 46.5413C20.2328 45.844 18.849 45.0504 17.5238 44.1659C15.8946 43.091 14.3386 41.9091 12.8661 40.6279L11.901 40.6882C9.00926 44.3736 6.20459 49.9385 5.53442 57.9324C6.22995 58.5932 6.97366 59.2012 7.75939 59.7517C9.06622 56.3846 12.5478 50.947 21.6654 46.5413Z" fill="white"/>
<path id="Vector_48" style="mix-blend-mode:multiply" d="M13.0437 64.7101C11.3257 64.1491 9.68453 63.3759 8.15817 62.4084C6.02033 60.9677 5.37362 60.1368 5.37362 60.1368C5.3133 61.3899 5.46409 63.9395 5.46409 63.9395C5.46409 63.9395 6.1108 64.7704 8.24865 66.211C9.775 67.1786 11.4162 67.9518 13.1342 68.5127L13.0437 64.7101Z" fill="url(#paint4_linear_1001_7809)"/>
<g id="Group_2" style="mix-blend-mode:multiply" opacity="0.3">
<path id="Vector_49" d="M34.5931 59.3763H34.5395V45.6031L33.8693 42.7285C33.7319 42.5978 31.1685 40.1521 26.2294 37.1971C22.0006 34.6709 19.4003 34.366 19.3735 34.3627V34.3091C19.397 34.3091 22.014 34.6207 26.2495 37.1535C31.3059 40.1688 33.8794 42.6715 33.9062 42.6983L34.5764 45.5863L34.5931 59.3763Z" fill="black"/>
</g>
<path id="Vector_50" d="M41.3852 28.7677C43.6599 30.1067 45.8297 31.6165 47.8758 33.2839V32.6139L44.4915 29.9671L38.5906 26.5565L35.6184 25.5312V26.1645C37.6482 26.7712 39.5876 27.6467 41.3852 28.7677Z" fill="#505C69"/>
<path id="Vector_51" d="M59.0443 21.551L53.1401 18.1437L50.1679 17.1185L35.6151 25.5312L38.5873 26.5564L44.4915 29.9604L47.8725 32.6072V33.2839L62.4253 24.8712V24.1944L59.0443 21.551Z" fill="#C7C7C7"/>
<path id="Vector_52" d="M62.4252 24.8712L47.8724 33.2839V32.6072L62.4252 24.1945V24.8712Z" fill="#5D6976"/>
<path id="Vector_53" opacity="0.5" d="M62.4252 24.1946L47.8725 32.6073L44.4915 29.9605L59.0442 21.5511L62.4252 24.1946Z" fill="#778390"/>
<path id="Vector_54" opacity="0.5" d="M53.1401 18.1437L38.5873 26.5564L35.6151 25.5312L50.1679 17.1185L53.1401 18.1437Z" fill="#778390"/>
<path id="Vector_55" d="M44.8735 28.6337L44.592 28.7945L40.9932 26.7173L41.2746 26.5565L44.8735 28.6337Z" fill="#5D6976"/>
<path id="Vector_56" d="M45.9793 27.9837L45.6978 28.1445L42.099 26.0673L42.3771 25.9065L45.9793 27.9837Z" fill="#5D6976"/>
<path id="Vector_57" d="M47.0817 27.3338L46.8002 27.4946L43.2014 25.4174L43.4829 25.2566L47.0817 27.3338Z" fill="#5D6976"/>
<path id="Vector_58" d="M48.1875 26.6838L47.9061 26.8479L44.3073 24.7674L44.5887 24.6066L48.1875 26.6838Z" fill="#5D6976"/>
<path id="Vector_59" d="M49.29 26.0339L49.0118 26.198L45.4097 24.1175L45.6911 23.9567L49.29 26.0339Z" fill="#5D6976"/>
<path id="Vector_60" d="M50.3957 25.3839L50.1142 25.548L46.5154 23.4708L46.7969 23.3066L50.3957 25.3839Z" fill="#5D6976"/>
<path id="Vector_61" d="M51.5015 24.7373L51.22 24.8981L47.6212 22.8209L47.8993 22.6567L51.5015 24.7373Z" fill="#5D6976"/>
<path id="Vector_62" d="M52.6039 24.0839L52.3225 24.2481L48.7236 22.1709L49.0051 22.0067L52.6039 24.0839Z" fill="#5D6976"/>
<path id="Vector_63" d="M53.7098 23.4374L53.4283 23.5982L49.8295 21.521L50.1109 21.3568L53.7098 23.4374Z" fill="#5D6976"/>
<path id="Vector_64" d="M54.8121 22.7873L54.5339 22.9481L50.9318 20.8709L51.2132 20.7101L54.8121 22.7873Z" fill="#5D6976"/>
<path id="Vector_65" d="M55.9179 22.1375L55.6364 22.2983L52.0376 20.2211L52.3191 20.0603L55.9179 22.1375Z" fill="#5D6976"/>
<path id="Vector_66" d="M57.0203 21.4874L56.7422 21.6482L53.14 19.571L53.4215 19.4102L57.0203 21.4874Z" fill="#5D6976"/>
<path id="Vector_67" d="M72.6152 39.7234L80.4629 35.1904V19.7319L72.6152 24.2616V39.7234Z" fill="#21292B"/>
<path id="Vector_68" d="M76.4352 22.2982V37.2776L72.823 39.3615V24.3821L76.4352 22.2982Z" fill="white"/>
<path id="Vector_69" d="M75.7415 32.7211V23.501L73.5199 24.7842V34.0043L75.7415 32.7211Z" fill="#3D4B4F"/>
<path id="Vector_70" d="M76.6429 22.1777L80.2552 20.0938V35.0731L76.6463 37.157L76.6429 22.1777Z" fill="white"/>
<path id="Vector_71" d="M79.5615 30.5165V21.2964L77.3398 22.5796V31.7997L79.5615 30.5165Z" fill="#3D4B4F"/>
<path id="Vector_72" d="M71.9417 24.6569L34.4624 46.29C24.5271 51.8583 20.0973 59.1788 20.0973 59.1788C26.5544 58.0664 34.4624 52.9873 34.4624 52.9873L71.9417 31.3508V24.6569Z" fill="#21292B"/>
<path id="Vector_73" d="M62.3549 31.2905C62.3549 30.9555 62.117 30.8181 61.8255 30.9856L55.7236 34.5035C55.5706 34.6035 55.4433 34.7381 55.3519 34.8964C55.2605 35.0547 55.2076 35.2323 55.1975 35.4148V39.9109C55.1975 40.246 55.4321 40.3833 55.7236 40.2158L61.8255 36.6845C61.9791 36.5849 62.1071 36.4504 62.1991 36.2921C62.2911 36.1338 62.3444 35.956 62.3549 35.7733V31.2905Z" fill="#3D4B4F"/>
<path id="Vector_74" d="M53.9409 36.1484C53.9409 35.8134 53.703 35.676 53.4115 35.8435L47.3197 39.3647C47.1663 39.4644 47.0387 39.5989 46.9473 39.7573C46.8558 39.9156 46.8032 40.0934 46.7936 40.276V44.7722C46.7936 45.1072 47.0281 45.2446 47.3197 45.0771L53.4115 41.5592C53.5654 41.459 53.6935 41.324 53.7855 41.1651C53.8775 41.0062 53.9307 40.8279 53.9409 40.6446V36.1484Z" fill="#3D4B4F"/>
<path id="Vector_75" d="M38.3795 49.6269C38.3795 49.962 38.6141 50.096 38.9056 49.9285L45.0008 46.4006C45.1548 46.3013 45.2831 46.167 45.3751 46.0085C45.4671 45.8501 45.5203 45.6722 45.5302 45.4893V41.0032C45.5302 40.6681 45.2923 40.5341 45.0008 40.7016L38.909 44.2161C38.7555 44.3165 38.6279 44.4516 38.5365 44.6106C38.4451 44.7695 38.3925 44.9477 38.3829 45.1308L38.3795 49.6269Z" fill="#3D4B4F"/>
<path id="Vector_76" d="M70.7688 26.4326C70.7688 26.0976 70.5309 25.9636 70.2394 26.1311L64.1475 29.6489C63.9941 29.7493 63.8665 29.8844 63.7751 30.0433C63.6837 30.2023 63.6311 30.3805 63.6215 30.5636V35.0597C63.6215 35.3948 63.856 35.5288 64.1475 35.3613L70.2394 31.8468C70.3933 31.7466 70.5214 31.6116 70.6134 31.4527C70.7053 31.2937 70.7586 31.1154 70.7688 30.9321V26.4326Z" fill="#3D4B4F"/>
<path id="Vector_77" d="M30.2571 49.4796C29.1982 50.2569 28.2198 51.0275 27.3318 51.788V56.3244C28.451 55.8151 29.5031 55.2891 30.4347 54.8C30.5338 54.7371 30.6137 54.6483 30.6657 54.5431C30.7177 54.4379 30.7398 54.3205 30.7296 54.2036V49.8481C30.7363 49.4428 30.5721 49.2551 30.2571 49.4796Z" fill="#3D4B4F"/>
<path id="Vector_78" d="M26.0752 52.9203C24.2186 54.6289 22.535 56.5165 21.049 58.5556C22.7687 58.1401 24.4501 57.5797 26.0752 56.8804V52.9203Z" fill="#3D4B4F"/>
</g>
</g>
</g>
<defs>
<filter id="filter0_d_1001_7809" x="0.359375" y="3.19141" width="91.6405" height="75.5122" filterUnits="userSpaceOnUse" color-interpolation-filters="sRGB">
<feFlood flood-opacity="0" result="BackgroundImageFix"/>
<feColorMatrix in="SourceAlpha" type="matrix" values="0 0 0 0 0 0 0 0 0 0 0 0 0 0 0 0 0 0 127 0" result="hardAlpha"/>
<feOffset dx="1" dy="4"/>
<feGaussianBlur stdDeviation="3"/>
<feComposite in2="hardAlpha" operator="out"/>
<feColorMatrix type="matrix" values="0 0 0 0 0 0 0 0 0 0 0 0 0 0 0 0 0 0 0.25 0"/>
<feBlend mode="normal" in2="BackgroundImageFix" result="effect1_dropShadow_1001_7809"/>
<feBlend mode="normal" in="SourceGraphic" in2="effect1_dropShadow_1001_7809" result="shape"/>
</filter>
<linearGradient id="paint0_linear_1001_7809" x1="38.0578" y1="62.9849" x2="38.1918" y2="58.0465" gradientUnits="userSpaceOnUse">
<stop stop-color="#EBEBE7"/>
<stop offset="0.72" stop-color="#292928"/>
</linearGradient>
<linearGradient id="paint1_linear_1001_7809" x1="48.1707" y1="57.1452" x2="48.3047" y2="52.2101" gradientUnits="userSpaceOnUse">
<stop stop-color="#EBEBE7"/>
<stop offset="0.72" stop-color="#292928"/>
</linearGradient>
<linearGradient id="paint2_linear_1001_7809" x1="35.424" y1="53.386" x2="21.1517" y2="68.4112" gradientUnits="userSpaceOnUse">
<stop stop-color="white"/>
<stop offset="1"/>
</linearGradient>
<linearGradient id="paint3_linear_1001_7809" x1="11.07" y1="56.2372" x2="13.1705" y2="52.6085" gradientUnits="userSpaceOnUse">
<stop stop-color="white"/>
<stop offset="1"/>
</linearGradient>
<linearGradient id="paint4_linear_1001_7809" x1="8.29556" y1="66.2311" x2="10.3893" y2="62.0664" gradientUnits="userSpaceOnUse">
<stop stop-color="white"/>
<stop offset="1"/>
</linearGradient>
<clipPath id="clip0_1001_7809">
<rect width="90" height="76" fill="white"/>
</clipPath>
</defs>
</svg>
