<svg width="52" height="52" viewBox="0 0 52 52" fill="none" xmlns="http://www.w3.org/2000/svg">
<g id="Layer_1" clip-path="url(#clip0_838_31308)">
<path id="Vector" d="M40.3265 52H11.6735C10.1405 52 8.62251 51.6981 7.20622 51.1114C5.78993 50.5248 4.50306 49.6649 3.41908 48.5809C2.3351 47.4969 1.47523 46.2101 0.888588 44.7938C0.301941 43.3775 0 41.8595 0 40.3265V11.6735C0 8.57748 1.22988 5.60828 3.41908 3.41908C5.60828 1.22988 8.57747 0 11.6735 0H40.3265C43.4225 0 46.3917 1.22988 48.5809 3.41908C50.7701 5.60828 52 8.57748 52 11.6735V40.3265C52 41.8595 51.6981 43.3775 51.1114 44.7938C50.5248 46.2101 49.6649 47.4969 48.5809 48.5809C47.4969 49.6649 46.2101 50.5248 44.7938 51.1114C43.3775 51.6981 41.8595 52 40.3265 52ZM7.56441 30.7925C7.84537 30.7927 8.12143 30.7189 8.36475 30.5784C8.60808 30.4379 8.81007 30.2358 8.95036 29.9923L11.8157 25.0343C11.8201 25.0258 11.8268 25.0186 11.835 25.0138C11.8433 25.0089 11.8528 25.0064 11.8624 25.0067C11.8722 25.0065 11.882 25.009 11.8905 25.0138C11.8991 25.0187 11.9062 25.0257 11.9112 25.0343L13.7811 28.2689C13.7856 28.2773 13.7924 28.2843 13.8006 28.2891C13.8088 28.294 13.8182 28.2965 13.8278 28.2965C13.8376 28.2967 13.8473 28.2942 13.8559 28.2894C13.8645 28.2845 13.8716 28.2774 13.8766 28.2689L15.7464 25.0343C15.7516 25.0259 15.7588 25.0191 15.7673 25.0143C15.7758 25.0095 15.7855 25.007 15.7953 25.007C15.8051 25.007 15.8147 25.0095 15.8232 25.0143C15.8318 25.0191 15.839 25.0259 15.8441 25.0343L17.7543 28.3538C18.1853 29.1899 18.8436 29.8873 19.6536 30.3657C20.4635 30.8441 21.3921 31.084 22.3324 31.0578C25.6922 31.0578 27.3732 28.3538 27.3732 26C27.3732 23.6462 25.7262 20.9443 22.3324 20.9443C21.041 20.931 19.7891 21.389 18.8113 22.2327C18.8014 22.2415 18.7948 22.2535 18.7925 22.2665C18.7901 22.2796 18.7923 22.2931 18.7985 22.3048L19.0108 22.6826C19.1902 23.0285 19.4973 23.291 19.8668 23.4146C20.2364 23.5382 20.6396 23.5132 20.991 23.3448C21.4035 23.1589 21.8524 23.0675 22.3048 23.0774C24.2681 23.0774 25.2189 24.6395 25.2189 26C25.2189 27.3605 24.2469 28.9226 22.3048 28.9226C21.7899 28.9436 21.2789 28.8237 20.8271 28.5757C20.3753 28.3277 19.9997 27.9611 19.7409 27.5154L16.3896 21.7063C16.2959 21.5535 16.1646 21.4273 16.0081 21.3399C15.8516 21.2526 15.6752 21.207 15.496 21.2075C15.4862 21.2077 15.4766 21.2104 15.4681 21.2152C15.4596 21.22 15.4524 21.2268 15.4472 21.2351L13.8171 24.0601L12.185 21.2351C12.1802 21.2264 12.1731 21.2192 12.1645 21.2143C12.1559 21.2095 12.1461 21.2071 12.1362 21.2075C11.9569 21.207 11.7806 21.2526 11.6241 21.3399C11.4676 21.4273 11.3362 21.5535 11.2426 21.7063L6.04473 30.7097C6.04009 30.7182 6.03765 30.7277 6.03765 30.7373C6.03765 30.747 6.04009 30.7564 6.04473 30.7649C6.04948 30.7736 6.05657 30.7808 6.0652 30.7857C6.07383 30.7905 6.08365 30.7929 6.09355 30.7925H7.56441ZM32.6284 21.2054H28.4196C28.4044 21.2054 28.3898 21.2114 28.3791 21.2222C28.3683 21.2329 28.3623 21.2475 28.3623 21.2627V30.7352C28.3623 30.7504 28.3683 30.765 28.3791 30.7757C28.3898 30.7865 28.4044 30.7925 28.4196 30.7925H30.455C30.4702 30.7924 30.4847 30.7863 30.4954 30.7755C30.505 30.7643 30.5103 30.75 30.5102 30.7352V23.1962C30.51 23.189 30.5115 23.1818 30.5144 23.1752C30.5173 23.1686 30.5217 23.1628 30.5272 23.158C30.5324 23.1526 30.5387 23.1483 30.5456 23.1454C30.5525 23.1425 30.56 23.141 30.5675 23.1411H32.0532C33.5198 23.1411 35.2114 23.99 35.2114 26C35.2114 27.8953 33.7979 28.5767 32.9807 28.8165C32.465 28.9672 31.9747 29.606 31.9747 30.3913V30.6991C31.9752 30.7138 31.9804 30.7279 31.9896 30.7394C31.9949 30.7445 32.0013 30.7484 32.0082 30.7509C32.0151 30.7535 32.0225 30.7546 32.0299 30.7543H32.6199C33.8822 30.7628 35.0968 30.2726 35.9995 29.3902C36.9022 28.5078 37.4199 27.3046 37.44 26.0424C37.4549 23.1602 35.2178 21.2054 32.6284 21.2054ZM42.9966 22.014L41.3814 24.7308C41.3762 24.739 41.369 24.7459 41.3604 24.7507C41.3519 24.7555 41.3424 24.7581 41.3326 24.7584C41.3228 24.758 41.3133 24.7553 41.3048 24.7505C41.2964 24.7457 41.2891 24.7389 41.2838 24.7308L39.6707 22.0183C39.5298 21.7669 39.3228 21.5588 39.0722 21.4167C38.8215 21.2745 38.5367 21.2036 38.2487 21.2118H36.7629C36.753 21.2117 36.7433 21.2144 36.7347 21.2194C36.7262 21.2244 36.7192 21.2317 36.7144 21.2403C36.7096 21.249 36.7073 21.2588 36.7076 21.2688C36.7079 21.2787 36.7109 21.2883 36.7163 21.2967L40.2501 26.8787V30.7394C40.2501 30.7546 40.2562 30.7692 40.2669 30.78C40.2777 30.7907 40.2922 30.7967 40.3074 30.7967H42.3429C42.3506 30.7967 42.3582 30.7949 42.3651 30.7916C42.3721 30.7883 42.3783 30.7836 42.3832 30.7776C42.3882 30.7726 42.3921 30.7667 42.3946 30.7601C42.3972 30.7535 42.3983 30.7465 42.398 30.7394V26.8745L45.934 21.2924C45.9387 21.2836 45.9411 21.2737 45.9411 21.2638C45.9411 21.2538 45.9387 21.2439 45.934 21.2351C45.9291 21.2266 45.922 21.2195 45.9134 21.2146C45.9048 21.2098 45.8951 21.2073 45.8852 21.2075H44.3995C44.1145 21.202 43.8333 21.2741 43.5862 21.4162C43.339 21.5583 43.1352 21.7649 42.9966 22.014Z" fill="white"/>
</g>
<defs>
<clipPath id="clip0_838_31308">
<rect width="52" height="52" fill="white"/>
</clipPath>
</defs>
</svg>
